<?xml version="1.0" encoding="UTF-8" standalone="no"?><svg xmlns="http://www.w3.org/2000/svg" xmlns:xlink="http://www.w3.org/1999/xlink" contentScriptType="application/ecmascript" contentStyleType="text/css" height="394px" preserveAspectRatio="none" style="width:1135px;height:394px;" version="1.1" viewBox="0 0 1135 394" width="1135px" zoomAndPan="magnify"><defs><filter height="300%" id="fdekc9lu46kay" width="300%" x="-1" y="-1"><feGaussianBlur result="blurOut" stdDeviation="2.0"/><feColorMatrix in="blurOut" result="blurOut2" type="matrix" values="0 0 0 0 0 0 0 0 0 0 0 0 0 0 0 0 0 0 .4 0"/><feOffset dx="4.0" dy="4.0" in="blurOut2" result="blurOut3"/><feBlend in="SourceGraphic" in2="blurOut3" mode="normal"/></filter></defs><g><!--class CrisisSoftware--><rect fill="#FEFECE" filter="url(#fdekc9lu46kay)" height="48" id="CrisisSoftware" style="stroke: #A80036; stroke-width: 1.5;" width="113" x="384" y="117"/><ellipse cx="399" cy="133" fill="#ADD1B2" rx="11" ry="11" style="stroke: #A80036; stroke-width: 1.0;"/><path d="M401.7656,128.875 Q401.9219,128.6563 402.1094,128.5469 Q402.2969,128.4375 402.5156,128.4375 Q402.8906,128.4375 403.125,128.6953 Q403.3594,128.9531 403.3594,129.5625 L403.3594,131.0156 Q403.3594,131.625 403.125,131.8906 Q402.8906,132.1563 402.5156,132.1563 Q402.1719,132.1563 401.9688,131.9531 Q401.7656,131.7656 401.6563,131.25 Q401.6094,130.8906 401.4219,130.7031 Q401.0938,130.3281 400.4844,130.1094 Q399.875,129.8906 399.25,129.8906 Q398.4844,129.8906 397.8516,130.2188 Q397.2188,130.5469 396.7266,131.2969 Q396.2344,132.0469 396.2344,133.0781 L396.2344,134.1719 Q396.2344,135.4063 397.125,136.2266 Q398.0156,137.0469 399.6094,137.0469 Q400.5469,137.0469 401.2031,136.7969 Q401.5938,136.6406 402.0156,136.2031 Q402.2813,135.9375 402.4297,135.8594 Q402.5781,135.7813 402.7813,135.7813 Q403.1094,135.7813 403.3672,136.0391 Q403.625,136.2969 403.625,136.6406 Q403.625,136.9844 403.2813,137.3906 Q402.7813,137.9688 401.9844,138.2969 Q400.9063,138.75 399.6094,138.75 Q398.0938,138.75 396.8906,138.125 Q395.9063,137.625 395.2188,136.5547 Q394.5313,135.4844 394.5313,134.2031 L394.5313,133.0469 Q394.5313,131.7188 395.1484,130.5703 Q395.7656,129.4219 396.8594,128.8047 Q397.9531,128.1875 399.1875,128.1875 Q399.9219,128.1875 400.5703,128.3516 Q401.2188,128.5156 401.7656,128.875 Z "/><text fill="#000000" font-family="sans-serif" font-size="12" lengthAdjust="spacingAndGlyphs" textLength="81" x="413" y="137.9102">CrisisSoftware</text><line style="stroke: #A80036; stroke-width: 1.5;" x1="385" x2="496" y1="149" y2="149"/><line style="stroke: #A80036; stroke-width: 1.5;" x1="385" x2="496" y1="157" y2="157"/><!--class IngenieríaSoftware--><rect fill="#FEFECE" filter="url(#fdekc9lu46kay)" height="48" id="IngenieríaSoftware" style="stroke: #A80036; stroke-width: 1.5;" width="135" x="417" y="8"/><ellipse cx="432" cy="24" fill="#ADD1B2" rx="11" ry="11" style="stroke: #A80036; stroke-width: 1.0;"/><path d="M434.7656,19.875 Q434.9219,19.6563 435.1094,19.5469 Q435.2969,19.4375 435.5156,19.4375 Q435.8906,19.4375 436.125,19.6953 Q436.3594,19.9531 436.3594,20.5625 L436.3594,22.0156 Q436.3594,22.625 436.125,22.8906 Q435.8906,23.1563 435.5156,23.1563 Q435.1719,23.1563 434.9688,22.9531 Q434.7656,22.7656 434.6563,22.25 Q434.6094,21.8906 434.4219,21.7031 Q434.0938,21.3281 433.4844,21.1094 Q432.875,20.8906 432.25,20.8906 Q431.4844,20.8906 430.8516,21.2188 Q430.2188,21.5469 429.7266,22.2969 Q429.2344,23.0469 429.2344,24.0781 L429.2344,25.1719 Q429.2344,26.4063 430.125,27.2266 Q431.0156,28.0469 432.6094,28.0469 Q433.5469,28.0469 434.2031,27.7969 Q434.5938,27.6406 435.0156,27.2031 Q435.2813,26.9375 435.4297,26.8594 Q435.5781,26.7813 435.7813,26.7813 Q436.1094,26.7813 436.3672,27.0391 Q436.625,27.2969 436.625,27.6406 Q436.625,27.9844 436.2813,28.3906 Q435.7813,28.9688 434.9844,29.2969 Q433.9063,29.75 432.6094,29.75 Q431.0938,29.75 429.8906,29.125 Q428.9063,28.625 428.2188,27.5547 Q427.5313,26.4844 427.5313,25.2031 L427.5313,24.0469 Q427.5313,22.7188 428.1484,21.5703 Q428.7656,20.4219 429.8594,19.8047 Q430.9531,19.1875 432.1875,19.1875 Q432.9219,19.1875 433.5703,19.3516 Q434.2188,19.5156 434.7656,19.875 Z "/><text fill="#000000" font-family="sans-serif" font-size="12" lengthAdjust="spacingAndGlyphs" textLength="103" x="446" y="28.9102">IngenieríaSoftware</text><line style="stroke: #A80036; stroke-width: 1.5;" x1="418" x2="551" y1="40" y2="40"/><line style="stroke: #A80036; stroke-width: 1.5;" x1="418" x2="551" y1="48" y2="48"/><!--class Disciplina--><rect fill="#FEFECE" filter="url(#fdekc9lu46kay)" height="48" id="Disciplina" style="stroke: #A80036; stroke-width: 1.5;" width="87" x="532" y="117"/><ellipse cx="547" cy="133" fill="#ADD1B2" rx="11" ry="11" style="stroke: #A80036; stroke-width: 1.0;"/><path d="M549.7656,128.875 Q549.9219,128.6563 550.1094,128.5469 Q550.2969,128.4375 550.5156,128.4375 Q550.8906,128.4375 551.125,128.6953 Q551.3594,128.9531 551.3594,129.5625 L551.3594,131.0156 Q551.3594,131.625 551.125,131.8906 Q550.8906,132.1563 550.5156,132.1563 Q550.1719,132.1563 549.9688,131.9531 Q549.7656,131.7656 549.6563,131.25 Q549.6094,130.8906 549.4219,130.7031 Q549.0938,130.3281 548.4844,130.1094 Q547.875,129.8906 547.25,129.8906 Q546.4844,129.8906 545.8516,130.2188 Q545.2188,130.5469 544.7266,131.2969 Q544.2344,132.0469 544.2344,133.0781 L544.2344,134.1719 Q544.2344,135.4063 545.125,136.2266 Q546.0156,137.0469 547.6094,137.0469 Q548.5469,137.0469 549.2031,136.7969 Q549.5938,136.6406 550.0156,136.2031 Q550.2813,135.9375 550.4297,135.8594 Q550.5781,135.7813 550.7813,135.7813 Q551.1094,135.7813 551.3672,136.0391 Q551.625,136.2969 551.625,136.6406 Q551.625,136.9844 551.2813,137.3906 Q550.7813,137.9688 549.9844,138.2969 Q548.9063,138.75 547.6094,138.75 Q546.0938,138.75 544.8906,138.125 Q543.9063,137.625 543.2188,136.5547 Q542.5313,135.4844 542.5313,134.2031 L542.5313,133.0469 Q542.5313,131.7188 543.1484,130.5703 Q543.7656,129.4219 544.8594,128.8047 Q545.9531,128.1875 547.1875,128.1875 Q547.9219,128.1875 548.5703,128.3516 Q549.2188,128.5156 549.7656,128.875 Z "/><text fill="#000000" font-family="sans-serif" font-size="12" lengthAdjust="spacingAndGlyphs" textLength="55" x="561" y="137.9102">Disciplina</text><line style="stroke: #A80036; stroke-width: 1.5;" x1="533" x2="618" y1="149" y2="149"/><line style="stroke: #A80036; stroke-width: 1.5;" x1="533" x2="618" y1="157" y2="157"/><!--class DisciplinaTecnica--><rect fill="#FEFECE" filter="url(#fdekc9lu46kay)" height="48" id="DisciplinaTecnica" style="stroke: #A80036; stroke-width: 1.5;" width="133" x="509" y="226"/><ellipse cx="524" cy="242" fill="#ADD1B2" rx="11" ry="11" style="stroke: #A80036; stroke-width: 1.0;"/><path d="M526.7656,237.875 Q526.9219,237.6563 527.1094,237.5469 Q527.2969,237.4375 527.5156,237.4375 Q527.8906,237.4375 528.125,237.6953 Q528.3594,237.9531 528.3594,238.5625 L528.3594,240.0156 Q528.3594,240.625 528.125,240.8906 Q527.8906,241.1563 527.5156,241.1563 Q527.1719,241.1563 526.9688,240.9531 Q526.7656,240.7656 526.6563,240.25 Q526.6094,239.8906 526.4219,239.7031 Q526.0938,239.3281 525.4844,239.1094 Q524.875,238.8906 524.25,238.8906 Q523.4844,238.8906 522.8516,239.2188 Q522.2188,239.5469 521.7266,240.2969 Q521.2344,241.0469 521.2344,242.0781 L521.2344,243.1719 Q521.2344,244.4063 522.125,245.2266 Q523.0156,246.0469 524.6094,246.0469 Q525.5469,246.0469 526.2031,245.7969 Q526.5938,245.6406 527.0156,245.2031 Q527.2813,244.9375 527.4297,244.8594 Q527.5781,244.7813 527.7813,244.7813 Q528.1094,244.7813 528.3672,245.0391 Q528.625,245.2969 528.625,245.6406 Q528.625,245.9844 528.2813,246.3906 Q527.7813,246.9688 526.9844,247.2969 Q525.9063,247.75 524.6094,247.75 Q523.0938,247.75 521.8906,247.125 Q520.9063,246.625 520.2188,245.5547 Q519.5313,244.4844 519.5313,243.2031 L519.5313,242.0469 Q519.5313,240.7188 520.1484,239.5703 Q520.7656,238.4219 521.8594,237.8047 Q522.9531,237.1875 524.1875,237.1875 Q524.9219,237.1875 525.5703,237.3516 Q526.2188,237.5156 526.7656,237.875 Z "/><text fill="#000000" font-family="sans-serif" font-size="12" lengthAdjust="spacingAndGlyphs" textLength="101" x="538" y="246.9102">Disciplina Técnica</text><line style="stroke: #A80036; stroke-width: 1.5;" x1="510" x2="641" y1="258" y2="258"/><line style="stroke: #A80036; stroke-width: 1.5;" x1="510" x2="641" y1="266" y2="266"/><!--class ModeloDominio--><rect fill="#FEFECE" filter="url(#fdekc9lu46kay)" height="48" id="ModeloDominio" style="stroke: #A80036; stroke-width: 1.5;" width="119" x="6" y="335"/><ellipse cx="21" cy="351" fill="#ADD1B2" rx="11" ry="11" style="stroke: #A80036; stroke-width: 1.0;"/><path d="M23.7656,346.875 Q23.9219,346.6563 24.1094,346.5469 Q24.2969,346.4375 24.5156,346.4375 Q24.8906,346.4375 25.125,346.6953 Q25.3594,346.9531 25.3594,347.5625 L25.3594,349.0156 Q25.3594,349.625 25.125,349.8906 Q24.8906,350.1563 24.5156,350.1563 Q24.1719,350.1563 23.9688,349.9531 Q23.7656,349.7656 23.6563,349.25 Q23.6094,348.8906 23.4219,348.7031 Q23.0938,348.3281 22.4844,348.1094 Q21.875,347.8906 21.25,347.8906 Q20.4844,347.8906 19.8516,348.2188 Q19.2188,348.5469 18.7266,349.2969 Q18.2344,350.0469 18.2344,351.0781 L18.2344,352.1719 Q18.2344,353.4063 19.125,354.2266 Q20.0156,355.0469 21.6094,355.0469 Q22.5469,355.0469 23.2031,354.7969 Q23.5938,354.6406 24.0156,354.2031 Q24.2813,353.9375 24.4297,353.8594 Q24.5781,353.7813 24.7813,353.7813 Q25.1094,353.7813 25.3672,354.0391 Q25.625,354.2969 25.625,354.6406 Q25.625,354.9844 25.2813,355.3906 Q24.7813,355.9688 23.9844,356.2969 Q22.9063,356.75 21.6094,356.75 Q20.0938,356.75 18.8906,356.125 Q17.9063,355.625 17.2188,354.5547 Q16.5313,353.4844 16.5313,352.2031 L16.5313,351.0469 Q16.5313,349.7188 17.1484,348.5703 Q17.7656,347.4219 18.8594,346.8047 Q19.9531,346.1875 21.1875,346.1875 Q21.9219,346.1875 22.5703,346.3516 Q23.2188,346.5156 23.7656,346.875 Z "/><text fill="#000000" font-family="sans-serif" font-size="12" lengthAdjust="spacingAndGlyphs" textLength="87" x="35" y="355.9102">ModeloDominio</text><line style="stroke: #A80036; stroke-width: 1.5;" x1="7" x2="124" y1="367" y2="367"/><line style="stroke: #A80036; stroke-width: 1.5;" x1="7" x2="124" y1="375" y2="375"/><!--class Requisitos--><rect fill="#FEFECE" filter="url(#fdekc9lu46kay)" height="48" id="Requisitos" style="stroke: #A80036; stroke-width: 1.5;" width="92" x="186.5" y="335"/><ellipse cx="201.5" cy="351" fill="#ADD1B2" rx="11" ry="11" style="stroke: #A80036; stroke-width: 1.0;"/><path d="M204.2656,346.875 Q204.4219,346.6563 204.6094,346.5469 Q204.7969,346.4375 205.0156,346.4375 Q205.3906,346.4375 205.625,346.6953 Q205.8594,346.9531 205.8594,347.5625 L205.8594,349.0156 Q205.8594,349.625 205.625,349.8906 Q205.3906,350.1563 205.0156,350.1563 Q204.6719,350.1563 204.4688,349.9531 Q204.2656,349.7656 204.1563,349.25 Q204.1094,348.8906 203.9219,348.7031 Q203.5938,348.3281 202.9844,348.1094 Q202.375,347.8906 201.75,347.8906 Q200.9844,347.8906 200.3516,348.2188 Q199.7188,348.5469 199.2266,349.2969 Q198.7344,350.0469 198.7344,351.0781 L198.7344,352.1719 Q198.7344,353.4063 199.625,354.2266 Q200.5156,355.0469 202.1094,355.0469 Q203.0469,355.0469 203.7031,354.7969 Q204.0938,354.6406 204.5156,354.2031 Q204.7813,353.9375 204.9297,353.8594 Q205.0781,353.7813 205.2813,353.7813 Q205.6094,353.7813 205.8672,354.0391 Q206.125,354.2969 206.125,354.6406 Q206.125,354.9844 205.7813,355.3906 Q205.2813,355.9688 204.4844,356.2969 Q203.4063,356.75 202.1094,356.75 Q200.5938,356.75 199.3906,356.125 Q198.4063,355.625 197.7188,354.5547 Q197.0313,353.4844 197.0313,352.2031 L197.0313,351.0469 Q197.0313,349.7188 197.6484,348.5703 Q198.2656,347.4219 199.3594,346.8047 Q200.4531,346.1875 201.6875,346.1875 Q202.4219,346.1875 203.0703,346.3516 Q203.7188,346.5156 204.2656,346.875 Z "/><text fill="#000000" font-family="sans-serif" font-size="12" lengthAdjust="spacingAndGlyphs" textLength="60" x="215.5" y="355.9102">Requisitos</text><line style="stroke: #A80036; stroke-width: 1.5;" x1="187.5" x2="277.5" y1="367" y2="367"/><line style="stroke: #A80036; stroke-width: 1.5;" x1="187.5" x2="277.5" y1="375" y2="375"/><!--class Análisis--><rect fill="#FEFECE" filter="url(#fdekc9lu46kay)" height="48" id="Análisis" style="stroke: #A80036; stroke-width: 1.5;" width="76" x="340.5" y="335"/><ellipse cx="355.5" cy="351" fill="#ADD1B2" rx="11" ry="11" style="stroke: #A80036; stroke-width: 1.0;"/><path d="M358.2656,346.875 Q358.4219,346.6563 358.6094,346.5469 Q358.7969,346.4375 359.0156,346.4375 Q359.3906,346.4375 359.625,346.6953 Q359.8594,346.9531 359.8594,347.5625 L359.8594,349.0156 Q359.8594,349.625 359.625,349.8906 Q359.3906,350.1563 359.0156,350.1563 Q358.6719,350.1563 358.4688,349.9531 Q358.2656,349.7656 358.1563,349.25 Q358.1094,348.8906 357.9219,348.7031 Q357.5938,348.3281 356.9844,348.1094 Q356.375,347.8906 355.75,347.8906 Q354.9844,347.8906 354.3516,348.2188 Q353.7188,348.5469 353.2266,349.2969 Q352.7344,350.0469 352.7344,351.0781 L352.7344,352.1719 Q352.7344,353.4063 353.625,354.2266 Q354.5156,355.0469 356.1094,355.0469 Q357.0469,355.0469 357.7031,354.7969 Q358.0938,354.6406 358.5156,354.2031 Q358.7813,353.9375 358.9297,353.8594 Q359.0781,353.7813 359.2813,353.7813 Q359.6094,353.7813 359.8672,354.0391 Q360.125,354.2969 360.125,354.6406 Q360.125,354.9844 359.7813,355.3906 Q359.2813,355.9688 358.4844,356.2969 Q357.4063,356.75 356.1094,356.75 Q354.5938,356.75 353.3906,356.125 Q352.4063,355.625 351.7188,354.5547 Q351.0313,353.4844 351.0313,352.2031 L351.0313,351.0469 Q351.0313,349.7188 351.6484,348.5703 Q352.2656,347.4219 353.3594,346.8047 Q354.4531,346.1875 355.6875,346.1875 Q356.4219,346.1875 357.0703,346.3516 Q357.7188,346.5156 358.2656,346.875 Z "/><text fill="#000000" font-family="sans-serif" font-size="12" lengthAdjust="spacingAndGlyphs" textLength="44" x="369.5" y="355.9102">Análisis</text><line style="stroke: #A80036; stroke-width: 1.5;" x1="341.5" x2="415.5" y1="367" y2="367"/><line style="stroke: #A80036; stroke-width: 1.5;" x1="341.5" x2="415.5" y1="375" y2="375"/><!--class Diseño--><rect fill="#FEFECE" filter="url(#fdekc9lu46kay)" height="48" id="Diseño" style="stroke: #A80036; stroke-width: 1.5;" width="72" x="478.5" y="335"/><ellipse cx="493.5" cy="351" fill="#ADD1B2" rx="11" ry="11" style="stroke: #A80036; stroke-width: 1.0;"/><path d="M496.2656,346.875 Q496.4219,346.6563 496.6094,346.5469 Q496.7969,346.4375 497.0156,346.4375 Q497.3906,346.4375 497.625,346.6953 Q497.8594,346.9531 497.8594,347.5625 L497.8594,349.0156 Q497.8594,349.625 497.625,349.8906 Q497.3906,350.1563 497.0156,350.1563 Q496.6719,350.1563 496.4688,349.9531 Q496.2656,349.7656 496.1563,349.25 Q496.1094,348.8906 495.9219,348.7031 Q495.5938,348.3281 494.9844,348.1094 Q494.375,347.8906 493.75,347.8906 Q492.9844,347.8906 492.3516,348.2188 Q491.7188,348.5469 491.2266,349.2969 Q490.7344,350.0469 490.7344,351.0781 L490.7344,352.1719 Q490.7344,353.4063 491.625,354.2266 Q492.5156,355.0469 494.1094,355.0469 Q495.0469,355.0469 495.7031,354.7969 Q496.0938,354.6406 496.5156,354.2031 Q496.7813,353.9375 496.9297,353.8594 Q497.0781,353.7813 497.2813,353.7813 Q497.6094,353.7813 497.8672,354.0391 Q498.125,354.2969 498.125,354.6406 Q498.125,354.9844 497.7813,355.3906 Q497.2813,355.9688 496.4844,356.2969 Q495.4063,356.75 494.1094,356.75 Q492.5938,356.75 491.3906,356.125 Q490.4063,355.625 489.7188,354.5547 Q489.0313,353.4844 489.0313,352.2031 L489.0313,351.0469 Q489.0313,349.7188 489.6484,348.5703 Q490.2656,347.4219 491.3594,346.8047 Q492.4531,346.1875 493.6875,346.1875 Q494.4219,346.1875 495.0703,346.3516 Q495.7188,346.5156 496.2656,346.875 Z "/><text fill="#000000" font-family="sans-serif" font-size="12" lengthAdjust="spacingAndGlyphs" textLength="40" x="507.5" y="355.9102">Diseño</text><line style="stroke: #A80036; stroke-width: 1.5;" x1="479.5" x2="549.5" y1="367" y2="367"/><line style="stroke: #A80036; stroke-width: 1.5;" x1="479.5" x2="549.5" y1="375" y2="375"/><!--class Implantación--><rect fill="#FEFECE" filter="url(#fdekc9lu46kay)" height="48" id="Implantación" style="stroke: #A80036; stroke-width: 1.5;" width="103" x="612" y="335"/><ellipse cx="627" cy="351" fill="#ADD1B2" rx="11" ry="11" style="stroke: #A80036; stroke-width: 1.0;"/><path d="M629.7656,346.875 Q629.9219,346.6563 630.1094,346.5469 Q630.2969,346.4375 630.5156,346.4375 Q630.8906,346.4375 631.125,346.6953 Q631.3594,346.9531 631.3594,347.5625 L631.3594,349.0156 Q631.3594,349.625 631.125,349.8906 Q630.8906,350.1563 630.5156,350.1563 Q630.1719,350.1563 629.9688,349.9531 Q629.7656,349.7656 629.6563,349.25 Q629.6094,348.8906 629.4219,348.7031 Q629.0938,348.3281 628.4844,348.1094 Q627.875,347.8906 627.25,347.8906 Q626.4844,347.8906 625.8516,348.2188 Q625.2188,348.5469 624.7266,349.2969 Q624.2344,350.0469 624.2344,351.0781 L624.2344,352.1719 Q624.2344,353.4063 625.125,354.2266 Q626.0156,355.0469 627.6094,355.0469 Q628.5469,355.0469 629.2031,354.7969 Q629.5938,354.6406 630.0156,354.2031 Q630.2813,353.9375 630.4297,353.8594 Q630.5781,353.7813 630.7813,353.7813 Q631.1094,353.7813 631.3672,354.0391 Q631.625,354.2969 631.625,354.6406 Q631.625,354.9844 631.2813,355.3906 Q630.7813,355.9688 629.9844,356.2969 Q628.9063,356.75 627.6094,356.75 Q626.0938,356.75 624.8906,356.125 Q623.9063,355.625 623.2188,354.5547 Q622.5313,353.4844 622.5313,352.2031 L622.5313,351.0469 Q622.5313,349.7188 623.1484,348.5703 Q623.7656,347.4219 624.8594,346.8047 Q625.9531,346.1875 627.1875,346.1875 Q627.9219,346.1875 628.5703,346.3516 Q629.2188,346.5156 629.7656,346.875 Z "/><text fill="#000000" font-family="sans-serif" font-size="12" lengthAdjust="spacingAndGlyphs" textLength="71" x="641" y="355.9102">Implantación</text><line style="stroke: #A80036; stroke-width: 1.5;" x1="613" x2="714" y1="367" y2="367"/><line style="stroke: #A80036; stroke-width: 1.5;" x1="613" x2="714" y1="375" y2="375"/><!--class Pruebas--><rect fill="#FEFECE" filter="url(#fdekc9lu46kay)" height="48" id="Pruebas" style="stroke: #A80036; stroke-width: 1.5;" width="79" x="777" y="335"/><ellipse cx="792" cy="351" fill="#ADD1B2" rx="11" ry="11" style="stroke: #A80036; stroke-width: 1.0;"/><path d="M794.7656,346.875 Q794.9219,346.6563 795.1094,346.5469 Q795.2969,346.4375 795.5156,346.4375 Q795.8906,346.4375 796.125,346.6953 Q796.3594,346.9531 796.3594,347.5625 L796.3594,349.0156 Q796.3594,349.625 796.125,349.8906 Q795.8906,350.1563 795.5156,350.1563 Q795.1719,350.1563 794.9688,349.9531 Q794.7656,349.7656 794.6563,349.25 Q794.6094,348.8906 794.4219,348.7031 Q794.0938,348.3281 793.4844,348.1094 Q792.875,347.8906 792.25,347.8906 Q791.4844,347.8906 790.8516,348.2188 Q790.2188,348.5469 789.7266,349.2969 Q789.2344,350.0469 789.2344,351.0781 L789.2344,352.1719 Q789.2344,353.4063 790.125,354.2266 Q791.0156,355.0469 792.6094,355.0469 Q793.5469,355.0469 794.2031,354.7969 Q794.5938,354.6406 795.0156,354.2031 Q795.2813,353.9375 795.4297,353.8594 Q795.5781,353.7813 795.7813,353.7813 Q796.1094,353.7813 796.3672,354.0391 Q796.625,354.2969 796.625,354.6406 Q796.625,354.9844 796.2813,355.3906 Q795.7813,355.9688 794.9844,356.2969 Q793.9063,356.75 792.6094,356.75 Q791.0938,356.75 789.8906,356.125 Q788.9063,355.625 788.2188,354.5547 Q787.5313,353.4844 787.5313,352.2031 L787.5313,351.0469 Q787.5313,349.7188 788.1484,348.5703 Q788.7656,347.4219 789.8594,346.8047 Q790.9531,346.1875 792.1875,346.1875 Q792.9219,346.1875 793.5703,346.3516 Q794.2188,346.5156 794.7656,346.875 Z "/><text fill="#000000" font-family="sans-serif" font-size="12" lengthAdjust="spacingAndGlyphs" textLength="47" x="806" y="355.9102">Pruebas</text><line style="stroke: #A80036; stroke-width: 1.5;" x1="778" x2="855" y1="367" y2="367"/><line style="stroke: #A80036; stroke-width: 1.5;" x1="778" x2="855" y1="375" y2="375"/><!--class Despliegue--><rect fill="#FEFECE" filter="url(#fdekc9lu46kay)" height="48" id="Despliegue" style="stroke: #A80036; stroke-width: 1.5;" width="96" x="917.5" y="335"/><ellipse cx="932.5" cy="351" fill="#ADD1B2" rx="11" ry="11" style="stroke: #A80036; stroke-width: 1.0;"/><path d="M935.2656,346.875 Q935.4219,346.6563 935.6094,346.5469 Q935.7969,346.4375 936.0156,346.4375 Q936.3906,346.4375 936.625,346.6953 Q936.8594,346.9531 936.8594,347.5625 L936.8594,349.0156 Q936.8594,349.625 936.625,349.8906 Q936.3906,350.1563 936.0156,350.1563 Q935.6719,350.1563 935.4688,349.9531 Q935.2656,349.7656 935.1563,349.25 Q935.1094,348.8906 934.9219,348.7031 Q934.5938,348.3281 933.9844,348.1094 Q933.375,347.8906 932.75,347.8906 Q931.9844,347.8906 931.3516,348.2188 Q930.7188,348.5469 930.2266,349.2969 Q929.7344,350.0469 929.7344,351.0781 L929.7344,352.1719 Q929.7344,353.4063 930.625,354.2266 Q931.5156,355.0469 933.1094,355.0469 Q934.0469,355.0469 934.7031,354.7969 Q935.0938,354.6406 935.5156,354.2031 Q935.7813,353.9375 935.9297,353.8594 Q936.0781,353.7813 936.2813,353.7813 Q936.6094,353.7813 936.8672,354.0391 Q937.125,354.2969 937.125,354.6406 Q937.125,354.9844 936.7813,355.3906 Q936.2813,355.9688 935.4844,356.2969 Q934.4063,356.75 933.1094,356.75 Q931.5938,356.75 930.3906,356.125 Q929.4063,355.625 928.7188,354.5547 Q928.0313,353.4844 928.0313,352.2031 L928.0313,351.0469 Q928.0313,349.7188 928.6484,348.5703 Q929.2656,347.4219 930.3594,346.8047 Q931.4531,346.1875 932.6875,346.1875 Q933.4219,346.1875 934.0703,346.3516 Q934.7188,346.5156 935.2656,346.875 Z "/><text fill="#000000" font-family="sans-serif" font-size="12" lengthAdjust="spacingAndGlyphs" textLength="64" x="946.5" y="355.9102">Despliegue</text><line style="stroke: #A80036; stroke-width: 1.5;" x1="918.5" x2="1012.5" y1="367" y2="367"/><line style="stroke: #A80036; stroke-width: 1.5;" x1="918.5" x2="1012.5" y1="375" y2="375"/><!--class Gestión--><rect fill="#FEFECE" filter="url(#fdekc9lu46kay)" height="48" id="Gestión" style="stroke: #A80036; stroke-width: 1.5;" width="75" x="1049" y="335"/><ellipse cx="1064" cy="351" fill="#ADD1B2" rx="11" ry="11" style="stroke: #A80036; stroke-width: 1.0;"/><path d="M1066.7656,346.875 Q1066.9219,346.6563 1067.1094,346.5469 Q1067.2969,346.4375 1067.5156,346.4375 Q1067.8906,346.4375 1068.125,346.6953 Q1068.3594,346.9531 1068.3594,347.5625 L1068.3594,349.0156 Q1068.3594,349.625 1068.125,349.8906 Q1067.8906,350.1563 1067.5156,350.1563 Q1067.1719,350.1563 1066.9688,349.9531 Q1066.7656,349.7656 1066.6563,349.25 Q1066.6094,348.8906 1066.4219,348.7031 Q1066.0938,348.3281 1065.4844,348.1094 Q1064.875,347.8906 1064.25,347.8906 Q1063.4844,347.8906 1062.8516,348.2188 Q1062.2188,348.5469 1061.7266,349.2969 Q1061.2344,350.0469 1061.2344,351.0781 L1061.2344,352.1719 Q1061.2344,353.4063 1062.125,354.2266 Q1063.0156,355.0469 1064.6094,355.0469 Q1065.5469,355.0469 1066.2031,354.7969 Q1066.5938,354.6406 1067.0156,354.2031 Q1067.2813,353.9375 1067.4297,353.8594 Q1067.5781,353.7813 1067.7813,353.7813 Q1068.1094,353.7813 1068.3672,354.0391 Q1068.625,354.2969 1068.625,354.6406 Q1068.625,354.9844 1068.2813,355.3906 Q1067.7813,355.9688 1066.9844,356.2969 Q1065.9063,356.75 1064.6094,356.75 Q1063.0938,356.75 1061.8906,356.125 Q1060.9063,355.625 1060.2188,354.5547 Q1059.5313,353.4844 1059.5313,352.2031 L1059.5313,351.0469 Q1059.5313,349.7188 1060.1484,348.5703 Q1060.7656,347.4219 1061.8594,346.8047 Q1062.9531,346.1875 1064.1875,346.1875 Q1064.9219,346.1875 1065.5703,346.3516 Q1066.2188,346.5156 1066.7656,346.875 Z "/><text fill="#000000" font-family="sans-serif" font-size="12" lengthAdjust="spacingAndGlyphs" textLength="43" x="1078" y="355.9102">Gestión</text><line style="stroke: #A80036; stroke-width: 1.5;" x1="1050" x2="1123" y1="367" y2="367"/><line style="stroke: #A80036; stroke-width: 1.5;" x1="1050" x2="1123" y1="375" y2="375"/><!--link IngenieríaSoftware to CrisisSoftware--><path d="M474.953,56.217 C468.207,72.623 459.131,94.692 451.989,112.062 " fill="none" id="IngenieríaSoftware-CrisisSoftware" style="stroke: #A80036; stroke-width: 1.0;"/><polygon fill="#A80036" points="450.029,116.828,457.1511,110.0254,451.9304,112.2037,449.7521,106.983,450.029,116.828" style="stroke: #A80036; stroke-width: 1.0;"/><!--link IngenieríaSoftware to Disciplina--><path d="M512.965,66.47 C523.836,79.253 536.224,93.818 547.09,106.595 " fill="none" id="IngenieríaSoftware-Disciplina" style="stroke: #A80036; stroke-width: 1.0;"/><polygon fill="#A80036" points="555.793,116.828,553.0089,107.3808,552.5535,113.0193,546.915,112.564,555.793,116.828" style="stroke: #A80036; stroke-width: 1.0;"/><line style="stroke: #A80036; stroke-width: 1.0;" x1="552.5535" x2="547.371" y1="113.0193" y2="106.925"/><polygon fill="#A80036" points="504.246,56.217,505.0858,63.379,512.0199,65.3584,511.1801,58.1964,504.246,56.217" style="stroke: #A80036; stroke-width: 1.0;"/><!--link Disciplina to DisciplinaTecnica--><path d="M575.5,185.578 C575.5,199.362 575.5,214.057 575.5,225.828 " fill="none" id="Disciplina-DisciplinaTecnica" style="stroke: #A80036; stroke-width: 1.0;"/><polygon fill="none" points="568.5,185.217,575.5,165.217,582.5,185.217,568.5,185.217" style="stroke: #A80036; stroke-width: 1.0;"/><!--link DisciplinaTecnica to ModeloDominio--><path d="M489.116,268.407 C406.67,285.1204 279.003,311.2606 168.5,335 C154.438,338.021 139.315,341.3519 125.104,344.5186 " fill="none" id="DisciplinaTecnica-ModeloDominio" style="stroke: #A80036; stroke-width: 1.0;"/><polygon fill="none" points="487.818,261.528,508.809,264.42,490.596,275.25,487.818,261.528" style="stroke: #A80036; stroke-width: 1.0;"/><!--link DisciplinaTecnica to Requisitos--><path d="M489.452,277.843 C422.56,298.7102 332.371,326.845 278.555,343.6329 " fill="none" id="DisciplinaTecnica-Requisitos" style="stroke: #A80036; stroke-width: 1.0;"/><polygon fill="none" points="487.782,271.031,508.959,271.758,491.951,284.396,487.782,271.031" style="stroke: #A80036; stroke-width: 1.0;"/><!--link DisciplinaTecnica to Análisis--><path d="M514.731,284.0067 C482.671,301.4197 444.329,322.2449 416.502,337.3594 " fill="none" id="DisciplinaTecnica-Análisis" style="stroke: #A80036; stroke-width: 1.0;"/><polygon fill="none" points="511.838,277.612,532.754,274.217,518.52,289.9145,511.838,277.612" style="stroke: #A80036; stroke-width: 1.0;"/><!--link DisciplinaTecnica to Diseño--><path d="M552.332,291.6393 C544.003,306.248 534.9,322.2166 527.71,334.8279 " fill="none" id="DisciplinaTecnica-Diseño" style="stroke: #A80036; stroke-width: 1.0;"/><polygon fill="none" points="546.277,288.1254,562.264,274.217,558.44,295.0591,546.277,288.1254" style="stroke: #A80036; stroke-width: 1.0;"/><!--link DisciplinaTecnica to Implantación--><path d="M607.328,289.7 C619.765,304.8219 633.61,321.6561 644.443,334.8279 " fill="none" id="DisciplinaTecnica-Implantación" style="stroke: #A80036; stroke-width: 1.0;"/><polygon fill="none" points="601.892,294.1108,594.595,274.217,612.705,285.2179,601.892,294.1108" style="stroke: #A80036; stroke-width: 1.0;"/><!--link DisciplinaTecnica to Pruebas--><path d="M645.976,282.29 C688.628,301.227 741.446,324.6772 776.9,340.4182 " fill="none" id="DisciplinaTecnica-Pruebas" style="stroke: #A80036; stroke-width: 1.0;"/><polygon fill="none" points="642.936,288.5992,627.497,274.086,648.617,275.804,642.936,288.5992" style="stroke: #A80036; stroke-width: 1.0;"/><!--link DisciplinaTecnica to Despliegue--><path d="M661.538,274.605 C740.166,296.1777 853.605,327.3007 917.335,344.7855 " fill="none" id="DisciplinaTecnica-Despliegue" style="stroke: #A80036; stroke-width: 1.0;"/><polygon fill="none" points="659.535,281.315,642.1,269.272,663.24,267.814,659.535,281.315" style="stroke: #A80036; stroke-width: 1.0;"/><!--link DisciplinaTecnica to Gestión--><path d="M662.248,261.355 C754.96,273.718 905.61,297.5527 1031.5,335 C1037.15,336.682 1043.02,338.7552 1048.72,340.9621 " fill="none" id="DisciplinaTecnica-Gestión" style="stroke: #A80036; stroke-width: 1.0;"/><polygon fill="none" points="661.17,268.273,642.243,258.746,662.98,254.391,661.17,268.273" style="stroke: #A80036; stroke-width: 1.0;"/><!--link ModeloDominio to Requisitos--><path d="M125.319,359 C143.555,359 163.433,359 181.063,359 " fill="none" id="ModeloDominio-Requisitos" style="stroke: #A80036; stroke-width: 1.0;"/><polygon fill="#A80036" points="186.458,359,177.458,355,181.458,359,177.458,363,186.458,359" style="stroke: #A80036; stroke-width: 1.0;"/><text fill="#000000" font-family="sans-serif" font-size="13" lengthAdjust="spacingAndGlyphs" textLength="25" x="143.25" y="352.4951">next</text><!--link Requisitos to Análisis--><path d="M278.695,359 C296.714,359 317.263,359 335.013,359 " fill="none" id="Requisitos-Análisis" style="stroke: #A80036; stroke-width: 1.0;"/><polygon fill="#A80036" points="340.426,359,331.426,355,335.426,359,331.426,363,340.426,359" style="stroke: #A80036; stroke-width: 1.0;"/><text fill="#000000" font-family="sans-serif" font-size="13" lengthAdjust="spacingAndGlyphs" textLength="25" x="297" y="352.4951">next</text><!--link Análisis to Diseño--><path d="M416.746,359 C434.261,359 455.056,359 472.955,359 " fill="none" id="Análisis-Diseño" style="stroke: #A80036; stroke-width: 1.0;"/><polygon fill="#A80036" points="478.41,359,469.41,355,473.41,359,469.41,363,478.41,359" style="stroke: #A80036; stroke-width: 1.0;"/><text fill="#000000" font-family="sans-serif" font-size="13" lengthAdjust="spacingAndGlyphs" textLength="25" x="435" y="352.4951">next</text><!--link Diseño to Implantación--><path d="M550.569,359 C567.416,359 587.874,359 606.725,359 " fill="none" id="Diseño-Implantación" style="stroke: #A80036; stroke-width: 1.0;"/><polygon fill="#A80036" points="611.994,359,602.994,355,606.994,359,602.994,363,611.994,359" style="stroke: #A80036; stroke-width: 1.0;"/><text fill="#000000" font-family="sans-serif" font-size="13" lengthAdjust="spacingAndGlyphs" textLength="25" x="568.75" y="352.4951">next</text><!--link Implantación to Pruebas--><path d="M715.299,359 C733.526,359 753.849,359 771.472,359 " fill="none" id="Implantación-Pruebas" style="stroke: #A80036; stroke-width: 1.0;"/><polygon fill="#A80036" points="776.85,359,767.85,355,771.85,359,767.85,363,776.85,359" style="stroke: #A80036; stroke-width: 1.0;"/><text fill="#000000" font-family="sans-serif" font-size="13" lengthAdjust="spacingAndGlyphs" textLength="25" x="733.5" y="352.4951">next</text><!--link Pruebas to Despliegue--><path d="M856.038,359 C873.218,359 893.605,359 912.101,359 " fill="none" id="Pruebas-Despliegue" style="stroke: #A80036; stroke-width: 1.0;"/><polygon fill="#A80036" points="917.264,359,908.264,355,912.264,359,908.264,363,917.264,359" style="stroke: #A80036; stroke-width: 1.0;"/><text fill="#000000" font-family="sans-serif" font-size="13" lengthAdjust="spacingAndGlyphs" textLength="25" x="874.25" y="352.4951">next</text><!--
@startuml
class CrisisSoftware
class IngenieríaSoftware

class Disciplina
class "Disciplina Técnica" as DisciplinaTecnica
class ModeloDominio
class Requisitos
class Análisis
class Diseño
class Implantación
class Pruebas
class Despliegue

IngenieríaSoftware - -> CrisisSoftware
IngenieríaSoftware *- -> Disciplina
Disciplina <|- - DisciplinaTecnica

DisciplinaTecnica <|- - ModeloDominio
DisciplinaTecnica <|- - Requisitos
DisciplinaTecnica <|- - Análisis
DisciplinaTecnica <|- - Diseño
DisciplinaTecnica <|- - Implantación
DisciplinaTecnica <|- - Pruebas
DisciplinaTecnica <|- - Despliegue
DisciplinaTecnica <|- - Gestión

ModeloDominio -right-> Requisitos : next
Requisitos -right-> Análisis : next
Análisis -right-> Diseño : next
Diseño -right-> Implantación : next
Implantación -right-> Pruebas : next
Pruebas -right-> Despliegue : next
@enduml

PlantUML version 1.2019.05(Sat Apr 20 18:45:36 CEST 2019)
(GPL source distribution)
Java Runtime: OpenJDK Runtime Environment
JVM: OpenJDK 64-Bit Server VM
Java Version: 1.8.0_222-b10
Operating System: Windows 10
OS Version: 10.0
Default Encoding: windows-1252
Language: es
Country: ES
--></g></svg>