<?xml version="1.0" encoding="UTF-8" standalone="no"?><svg xmlns="http://www.w3.org/2000/svg" xmlns:xlink="http://www.w3.org/1999/xlink" contentScriptType="application/ecmascript" contentStyleType="text/css" height="67px" preserveAspectRatio="none" style="width:131px;height:67px;" version="1.1" viewBox="0 0 131 67" width="131px" zoomAndPan="magnify"><defs><filter height="300%" id="fhlkbovir9gdp" width="300%" x="-1" y="-1"><feGaussianBlur result="blurOut" stdDeviation="2.0"/><feColorMatrix in="blurOut" result="blurOut2" type="matrix" values="0 0 0 0 0 0 0 0 0 0 0 0 0 0 0 0 0 0 .4 0"/><feOffset dx="4.0" dy="4.0" in="blurOut2" result="blurOut3"/><feBlend in="SourceGraphic" in2="blurOut3" mode="normal"/></filter></defs><g><!--class A--><rect fill="#FEFECE" filter="url(#fhlkbovir9gdp)" height="48" id="A" style="stroke: #A80036; stroke-width: 1.5;" width="39" x="6" y="8"/><ellipse cx="21" cy="24" fill="#ADD1B2" rx="11" ry="11" style="stroke: #A80036; stroke-width: 1.0;"/><path d="M23.7656,19.875 Q23.9219,19.6563 24.1094,19.5469 Q24.2969,19.4375 24.5156,19.4375 Q24.8906,19.4375 25.125,19.6953 Q25.3594,19.9531 25.3594,20.5625 L25.3594,22.0156 Q25.3594,22.625 25.125,22.8906 Q24.8906,23.1563 24.5156,23.1563 Q24.1719,23.1563 23.9688,22.9531 Q23.7656,22.7656 23.6563,22.25 Q23.6094,21.8906 23.4219,21.7031 Q23.0938,21.3281 22.4844,21.1094 Q21.875,20.8906 21.25,20.8906 Q20.4844,20.8906 19.8516,21.2188 Q19.2188,21.5469 18.7266,22.2969 Q18.2344,23.0469 18.2344,24.0781 L18.2344,25.1719 Q18.2344,26.4063 19.125,27.2266 Q20.0156,28.0469 21.6094,28.0469 Q22.5469,28.0469 23.2031,27.7969 Q23.5938,27.6406 24.0156,27.2031 Q24.2813,26.9375 24.4297,26.8594 Q24.5781,26.7813 24.7813,26.7813 Q25.1094,26.7813 25.3672,27.0391 Q25.625,27.2969 25.625,27.6406 Q25.625,27.9844 25.2813,28.3906 Q24.7813,28.9688 23.9844,29.2969 Q22.9063,29.75 21.6094,29.75 Q20.0938,29.75 18.8906,29.125 Q17.9063,28.625 17.2188,27.5547 Q16.5313,26.4844 16.5313,25.2031 L16.5313,24.0469 Q16.5313,22.7188 17.1484,21.5703 Q17.7656,20.4219 18.8594,19.8047 Q19.9531,19.1875 21.1875,19.1875 Q21.9219,19.1875 22.5703,19.3516 Q23.2188,19.5156 23.7656,19.875 Z "/><text fill="#000000" font-family="sans-serif" font-size="12" lengthAdjust="spacingAndGlyphs" textLength="7" x="35" y="28.9102">A</text><line style="stroke: #A80036; stroke-width: 1.5;" x1="7" x2="44" y1="40" y2="40"/><line style="stroke: #A80036; stroke-width: 1.5;" x1="7" x2="44" y1="48" y2="48"/><!--class B--><rect fill="#FEFECE" filter="url(#fhlkbovir9gdp)" height="48" id="B" style="stroke: #A80036; stroke-width: 1.5;" width="40" x="80.5" y="8"/><ellipse cx="95.5" cy="24" fill="#ADD1B2" rx="11" ry="11" style="stroke: #A80036; stroke-width: 1.0;"/><path d="M98.2656,19.875 Q98.4219,19.6563 98.6094,19.5469 Q98.7969,19.4375 99.0156,19.4375 Q99.3906,19.4375 99.625,19.6953 Q99.8594,19.9531 99.8594,20.5625 L99.8594,22.0156 Q99.8594,22.625 99.625,22.8906 Q99.3906,23.1563 99.0156,23.1563 Q98.6719,23.1563 98.4688,22.9531 Q98.2656,22.7656 98.1563,22.25 Q98.1094,21.8906 97.9219,21.7031 Q97.5938,21.3281 96.9844,21.1094 Q96.375,20.8906 95.75,20.8906 Q94.9844,20.8906 94.3516,21.2188 Q93.7188,21.5469 93.2266,22.2969 Q92.7344,23.0469 92.7344,24.0781 L92.7344,25.1719 Q92.7344,26.4063 93.625,27.2266 Q94.5156,28.0469 96.1094,28.0469 Q97.0469,28.0469 97.7031,27.7969 Q98.0938,27.6406 98.5156,27.2031 Q98.7813,26.9375 98.9297,26.8594 Q99.0781,26.7813 99.2813,26.7813 Q99.6094,26.7813 99.8672,27.0391 Q100.125,27.2969 100.125,27.6406 Q100.125,27.9844 99.7813,28.3906 Q99.2813,28.9688 98.4844,29.2969 Q97.4063,29.75 96.1094,29.75 Q94.5938,29.75 93.3906,29.125 Q92.4063,28.625 91.7188,27.5547 Q91.0313,26.4844 91.0313,25.2031 L91.0313,24.0469 Q91.0313,22.7188 91.6484,21.5703 Q92.2656,20.4219 93.3594,19.8047 Q94.4531,19.1875 95.6875,19.1875 Q96.4219,19.1875 97.0703,19.3516 Q97.7188,19.5156 98.2656,19.875 Z "/><text fill="#000000" font-family="sans-serif" font-size="12" lengthAdjust="spacingAndGlyphs" textLength="8" x="109.5" y="28.9102">B</text><line style="stroke: #A80036; stroke-width: 1.5;" x1="81.5" x2="119.5" y1="40" y2="40"/><line style="stroke: #A80036; stroke-width: 1.5;" x1="81.5" x2="119.5" y1="48" y2="48"/><!--link A to B--><path d="M45.1289,32 C55.075,32 65.0211,32 74.9672,32 " fill="none" id="A-B" style="stroke: #A80036; stroke-width: 1.0;"/><polygon fill="#A80036" points="80.1684,32,71.1684,28,75.1684,32,71.1684,36,80.1684,32" style="stroke: #A80036; stroke-width: 1.0;"/><!--
@startuml
class A
class B

A -right-> B

@enduml

PlantUML version 1.2019.05(Sat Apr 20 18:45:36 CEST 2019)
(GPL source distribution)
Java Runtime: OpenJDK Runtime Environment
JVM: OpenJDK 64-Bit Server VM
Java Version: 1.8.0_222-b10
Operating System: Windows 10
OS Version: 10.0
Default Encoding: windows-1252
Language: es
Country: ES
--></g></svg>