<?xml version="1.0" encoding="UTF-8" standalone="no"?><svg xmlns="http://www.w3.org/2000/svg" xmlns:xlink="http://www.w3.org/1999/xlink" contentScriptType="application/ecmascript" contentStyleType="text/css" height="398px" preserveAspectRatio="none" style="width:574px;height:398px;" version="1.1" viewBox="0 0 574 398" width="574px" zoomAndPan="magnify"><defs><filter height="300%" id="f19h3cw1vfwb64" width="300%" x="-1" y="-1"><feGaussianBlur result="blurOut" stdDeviation="2.0"/><feColorMatrix in="blurOut" result="blurOut2" type="matrix" values="0 0 0 0 0 0 0 0 0 0 0 0 0 0 0 0 0 0 .4 0"/><feOffset dx="4.0" dy="4.0" in="blurOut2" result="blurOut3"/><feBlend in="SourceGraphic" in2="blurOut3" mode="normal"/></filter></defs><g><!--cluster grafos--><polygon fill="#FFFFFF" filter="url(#f19h3cw1vfwb64)" points="22,24,73,24,80,47.6094,552,47.6094,552,386,22,386,22,24" style="stroke: #000000; stroke-width: 1.5;"/><line style="stroke: #000000; stroke-width: 1.5;" x1="22" x2="80" y1="47.6094" y2="47.6094"/><text fill="#000000" font-family="sans-serif" font-size="14" font-weight="bold" lengthAdjust="spacingAndGlyphs" textLength="45" x="26" y="40.5332">grafos</text><!--cluster jerarquias--><polygon fill="#FFFFFF" filter="url(#f19h3cw1vfwb64)" points="136,68,213,68,220,91.6094,528,91.6094,528,362,136,362,136,68" style="stroke: #000000; stroke-width: 1.5;"/><line style="stroke: #000000; stroke-width: 1.5;" x1="136" x2="220" y1="91.6094" y2="91.6094"/><text fill="#000000" font-family="sans-serif" font-size="14" font-weight="bold" lengthAdjust="spacingAndGlyphs" textLength="71" x="140" y="84.5332">jerarquias</text><!--cluster arboles--><polygon fill="#FFFFFF" filter="url(#f19h3cw1vfwb64)" points="253,112,312,112,319,135.6094,504,135.6094,504,338,253,338,253,112" style="stroke: #000000; stroke-width: 1.5;"/><line style="stroke: #000000; stroke-width: 1.5;" x1="253" x2="319" y1="135.6094" y2="135.6094"/><text fill="#000000" font-family="sans-serif" font-size="14" font-weight="bold" lengthAdjust="spacingAndGlyphs" textLength="53" x="257" y="128.5332">arboles</text><!--cluster secuencias--><polygon fill="#FFFFFF" filter="url(#f19h3cw1vfwb64)" points="366,156,452,156,459,179.6094,480,179.6094,480,243,366,243,366,156" style="stroke: #000000; stroke-width: 1.5;"/><line style="stroke: #000000; stroke-width: 1.5;" x1="366" x2="459" y1="179.6094" y2="179.6094"/><text fill="#000000" font-family="sans-serif" font-size="14" font-weight="bold" lengthAdjust="spacingAndGlyphs" textLength="80" x="370" y="172.5332">secuencias</text><rect fill="#FEFECE" filter="url(#f19h3cw1vfwb64)" height="35.0938" style="stroke: #A80036; stroke-width: 1.5;" width="21" x="38.5" y="192"/><text fill="#000000" font-family="sans-serif" font-size="12" lengthAdjust="spacingAndGlyphs" textLength="7" x="45.5" y="206.457">A</text><line style="stroke: #A80036; stroke-width: 1.5;" x1="39.5" x2="58.5" y1="211.0938" y2="211.0938"/><rect fill="#FEFECE" filter="url(#f19h3cw1vfwb64)" height="35.0938" style="stroke: #A80036; stroke-width: 1.5;" width="22" x="95" y="192"/><text fill="#000000" font-family="sans-serif" font-size="12" lengthAdjust="spacingAndGlyphs" textLength="8" x="102" y="206.457">B</text><line style="stroke: #A80036; stroke-width: 1.5;" x1="96" x2="116" y1="211.0938" y2="211.0938"/><rect fill="#FEFECE" filter="url(#f19h3cw1vfwb64)" height="35.0938" style="stroke: #A80036; stroke-width: 1.5;" width="22" x="38" y="287"/><text fill="#000000" font-family="sans-serif" font-size="12" lengthAdjust="spacingAndGlyphs" textLength="8" x="45" y="301.457">K</text><line style="stroke: #A80036; stroke-width: 1.5;" x1="39" x2="59" y1="306.0938" y2="306.0938"/><rect fill="#FEFECE" filter="url(#f19h3cw1vfwb64)" height="35.0938" style="stroke: #A80036; stroke-width: 1.5;" width="23" x="152.5" y="192"/><text fill="#000000" font-family="sans-serif" font-size="12" lengthAdjust="spacingAndGlyphs" textLength="9" x="159.5" y="206.457">C</text><line style="stroke: #A80036; stroke-width: 1.5;" x1="153.5" x2="174.5" y1="211.0938" y2="211.0938"/><rect fill="#FEFECE" filter="url(#f19h3cw1vfwb64)" height="35.0938" style="stroke: #A80036; stroke-width: 1.5;" width="23" x="210.5" y="192"/><text fill="#000000" font-family="sans-serif" font-size="12" lengthAdjust="spacingAndGlyphs" textLength="9" x="217.5" y="206.457">D</text><line style="stroke: #A80036; stroke-width: 1.5;" x1="211.5" x2="232.5" y1="211.0938" y2="211.0938"/><rect fill="#FEFECE" filter="url(#f19h3cw1vfwb64)" height="35.0938" style="stroke: #A80036; stroke-width: 1.5;" width="20" x="154" y="287"/><text fill="#000000" font-family="sans-serif" font-size="12" lengthAdjust="spacingAndGlyphs" textLength="6" x="161" y="301.457">J</text><line style="stroke: #A80036; stroke-width: 1.5;" x1="155" x2="173" y1="306.0938" y2="306.0938"/><rect fill="#FEFECE" filter="url(#f19h3cw1vfwb64)" height="35.0938" style="stroke: #A80036; stroke-width: 1.5;" width="22" x="269" y="192"/><text fill="#000000" font-family="sans-serif" font-size="12" lengthAdjust="spacingAndGlyphs" textLength="8" x="276" y="206.457">E</text><line style="stroke: #A80036; stroke-width: 1.5;" x1="270" x2="290" y1="211.0938" y2="211.0938"/><rect fill="#FEFECE" filter="url(#f19h3cw1vfwb64)" height="35.0938" style="stroke: #A80036; stroke-width: 1.5;" width="21" x="326.5" y="192"/><text fill="#000000" font-family="sans-serif" font-size="12" lengthAdjust="spacingAndGlyphs" textLength="7" x="333.5" y="206.457">F</text><line style="stroke: #A80036; stroke-width: 1.5;" x1="327.5" x2="346.5" y1="211.0938" y2="211.0938"/><rect fill="#FEFECE" filter="url(#f19h3cw1vfwb64)" height="35.0938" style="stroke: #A80036; stroke-width: 1.5;" width="17" x="271.5" y="287"/><text fill="#000000" font-family="sans-serif" font-size="12" lengthAdjust="spacingAndGlyphs" textLength="3" x="278.5" y="301.457">I</text><line style="stroke: #A80036; stroke-width: 1.5;" x1="272.5" x2="287.5" y1="306.0938" y2="306.0938"/><rect fill="#FEFECE" filter="url(#f19h3cw1vfwb64)" height="35.0938" style="stroke: #A80036; stroke-width: 1.5;" width="23" x="440.5" y="192"/><text fill="#000000" font-family="sans-serif" font-size="12" lengthAdjust="spacingAndGlyphs" textLength="9" x="447.5" y="206.457">G</text><line style="stroke: #A80036; stroke-width: 1.5;" x1="441.5" x2="462.5" y1="211.0938" y2="211.0938"/><rect fill="#FEFECE" filter="url(#f19h3cw1vfwb64)" height="35.0938" style="stroke: #A80036; stroke-width: 1.5;" width="23" x="382.5" y="192"/><text fill="#000000" font-family="sans-serif" font-size="12" lengthAdjust="spacingAndGlyphs" textLength="9" x="389.5" y="206.457">H</text><line style="stroke: #A80036; stroke-width: 1.5;" x1="383.5" x2="404.5" y1="211.0938" y2="211.0938"/><!--link A to B--><!--link A to K--><!--link C to D--><!--link C to J--><!--link E to F--><!--link E to I--><!--
@startuml
package grafos {
    object A
    object B
    package jerarquias {
        object C
        object D
        package arboles {
            object E
            object F
            package secuencias {
                object G
                object H
            }
            object I
        }
        object J
    }
    object K
}
@enduml

PlantUML version 1.2019.05(Sat Apr 20 18:45:36 CEST 2019)
(GPL source distribution)
Java Runtime: OpenJDK Runtime Environment
JVM: OpenJDK 64-Bit Server VM
Java Version: 1.8.0_222-b10
Operating System: Windows 10
OS Version: 10.0
Default Encoding: windows-1252
Language: es
Country: ES
--></g></svg>