<?xml version="1.0" encoding="UTF-8" standalone="no"?><svg xmlns="http://www.w3.org/2000/svg" xmlns:xlink="http://www.w3.org/1999/xlink" contentScriptType="application/ecmascript" contentStyleType="text/css" height="244px" preserveAspectRatio="none" style="width:174px;height:244px;" version="1.1" viewBox="0 0 174 244" width="174px" zoomAndPan="magnify"><defs><filter height="300%" id="fylj98seh49kc" width="300%" x="-1" y="-1"><feGaussianBlur result="blurOut" stdDeviation="2.0"/><feColorMatrix in="blurOut" result="blurOut2" type="matrix" values="0 0 0 0 0 0 0 0 0 0 0 0 0 0 0 0 0 0 .4 0"/><feOffset dx="4.0" dy="4.0" in="blurOut2" result="blurOut3"/><feBlend in="SourceGraphic" in2="blurOut3" mode="normal"/></filter></defs><g><rect fill="#FEFECE" filter="url(#fylj98seh49kc)" height="35.0938" style="stroke: #A80036; stroke-width: 1.5;" width="87" x="41" y="8"/><text fill="#000000" font-family="sans-serif" font-size="12" lengthAdjust="spacingAndGlyphs" textLength="73" x="48" y="22.457">parOrdenado</text><line style="stroke: #A80036; stroke-width: 1.5;" x1="42" x2="127" y1="27.0938" y2="27.0938"/><rect fill="#FEFECE" filter="url(#fylj98seh49kc)" height="35.0938" style="stroke: #A80036; stroke-width: 1.5;" width="61" x="102" y="103"/><text fill="#000000" font-family="sans-serif" font-size="12" lengthAdjust="spacingAndGlyphs" textLength="47" x="109" y="117.457">conjunto</text><line style="stroke: #A80036; stroke-width: 1.5;" x1="103" x2="162" y1="122.0938" y2="122.0938"/><rect fill="#FEFECE" filter="url(#fylj98seh49kc)" height="35.0938" style="stroke: #A80036; stroke-width: 1.5;" width="61" x="6" y="103"/><text fill="#000000" font-family="sans-serif" font-size="12" lengthAdjust="spacingAndGlyphs" textLength="47" x="13" y="117.457">conjunto</text><line style="stroke: #A80036; stroke-width: 1.5;" x1="7" x2="66" y1="122.0938" y2="122.0938"/><rect fill="#FEFECE" filter="url(#fylj98seh49kc)" height="35.0938" style="stroke: #A80036; stroke-width: 1.5;" width="21" x="46" y="198"/><text fill="#000000" font-family="sans-serif" font-size="12" lengthAdjust="spacingAndGlyphs" textLength="7" x="53" y="212.457">a</text><line style="stroke: #A80036; stroke-width: 1.5;" x1="47" x2="66" y1="217.0938" y2="217.0938"/><rect fill="#FEFECE" filter="url(#fylj98seh49kc)" height="35.0938" style="stroke: #A80036; stroke-width: 1.5;" width="21" x="122" y="198"/><text fill="#000000" font-family="sans-serif" font-size="12" lengthAdjust="spacingAndGlyphs" textLength="7" x="129" y="212.457">b</text><line style="stroke: #A80036; stroke-width: 1.5;" x1="123" x2="142" y1="217.0938" y2="217.0938"/><!--link parOrdenado to conjunto1--><path d="M99.1121,54.811 C105.0451,66.306 111.887,79.562 117.826,91.069 " fill="none" id="parOrdenado-conjunto1" style="stroke: #A80036; stroke-width: 1.0;"/><polygon fill="#A80036" points="123.831,102.704,123.2576,92.8718,121.5378,98.2609,116.1487,96.541,123.831,102.704" style="stroke: #A80036; stroke-width: 1.0;"/><line style="stroke: #A80036; stroke-width: 1.0;" x1="121.5378" x2="117.8685" y1="98.2609" y2="91.152"/><polygon fill="#A80036" points="93.0814,43.127,92.2783,50.2932,98.5844,53.7908,99.3875,46.6246,93.0814,43.127" style="stroke: #A80036; stroke-width: 1.0;"/><!--link parOrdenado to conjunto2--><path d="M69.8879,54.811 C63.9549,66.306 57.1132,79.562 51.1739,91.069 " fill="none" id="parOrdenado-conjunto2" style="stroke: #A80036; stroke-width: 1.0;"/><polygon fill="#A80036" points="45.169,102.704,52.8515,96.5413,47.4624,98.261,45.7427,92.8719,45.169,102.704" style="stroke: #A80036; stroke-width: 1.0;"/><line style="stroke: #A80036; stroke-width: 1.0;" x1="47.4624" x2="51.1314" y1="98.261" y2="91.152"/><polygon fill="#A80036" points="75.9186,43.127,69.6125,46.6246,70.4156,53.7908,76.7217,50.2932,75.9186,43.127" style="stroke: #A80036; stroke-width: 1.0;"/><!--link conjunto1 to a--><path d="M110.581,148.3224 C99.5147,161.8636 86.2178,178.1348 75.5781,191.1544 " fill="none" id="conjunto1-a" style="stroke: #A80036; stroke-width: 1.0;"/><polygon fill="#A80036" points="67.035,201.6084,75.8274,197.1705,70.1989,197.7367,69.6327,192.1083,67.035,201.6084" style="stroke: #A80036; stroke-width: 1.0;"/><line style="stroke: #A80036; stroke-width: 1.0;" x1="70.1989" x2="75.2613" y1="197.7367" y2="191.5422"/><polygon fill="#A80036" points="118.913,138.1265,112.0191,140.2416,111.3199,147.4187,118.2139,145.3036,118.913,138.1265" style="stroke: #A80036; stroke-width: 1.0;"/><!--link conjunto1 to b--><path d="M132.5,151.2141 C132.5,161.9002 132.5,173.9523 132.5,184.6499 " fill="none" id="conjunto1-b" style="stroke: #A80036; stroke-width: 1.0;"/><polygon fill="#A80036" points="132.5,197.7038,136.5,188.7038,132.5,192.7038,128.5,188.7038,132.5,197.7038" style="stroke: #A80036; stroke-width: 1.0;"/><line style="stroke: #A80036; stroke-width: 1.0;" x1="132.5" x2="132.5" y1="192.7038" y2="184.7039"/><polygon fill="#A80036" points="132.5,138.1265,128.5,144.1265,132.5,150.1265,136.5,144.1265,132.5,138.1265" style="stroke: #A80036; stroke-width: 1.0;"/><!--link conjunto2 to a--><path d="M42.8901,151.2141 C45.1882,161.9002 47.7801,173.9523 50.0806,184.6499 " fill="none" id="conjunto2-a" style="stroke: #A80036; stroke-width: 1.0;"/><polygon fill="#A80036" points="52.8879,197.7038,54.9062,188.064,51.8366,192.8156,47.085,189.746,52.8879,197.7038" style="stroke: #A80036; stroke-width: 1.0;"/><line style="stroke: #A80036; stroke-width: 1.0;" x1="51.8366" x2="50.1546" y1="192.8156" y2="184.9945"/><polygon fill="#A80036" points="40.0756,138.1265,37.4265,144.8334,42.5986,149.8583,45.2477,143.1514,40.0756,138.1265" style="stroke: #A80036; stroke-width: 1.0;"/><!--
@startuml
object parOrdenado
object "conjunto" as conjunto1
object "conjunto" as conjunto2
object a
object b

parOrdenado *-down-> conjunto1
parOrdenado *-down-> conjunto2
conjunto1 *-down-> a
conjunto1 *-down-> b
conjunto2 *-down-> a


@enduml

PlantUML version 1.2019.05(Sat Apr 20 18:45:36 CEST 2019)
(GPL source distribution)
Java Runtime: OpenJDK Runtime Environment
JVM: OpenJDK 64-Bit Server VM
Java Version: 1.8.0_222-b10
Operating System: Windows 10
OS Version: 10.0
Default Encoding: windows-1252
Language: es
Country: ES
--></g></svg>