<?xml version="1.0" encoding="UTF-8" standalone="no"?><svg xmlns="http://www.w3.org/2000/svg" xmlns:xlink="http://www.w3.org/1999/xlink" contentScriptType="application/ecmascript" contentStyleType="text/css" height="54px" preserveAspectRatio="none" style="width:212px;height:54px;" version="1.1" viewBox="0 0 212 54" width="212px" zoomAndPan="magnify"><defs><filter height="300%" id="f1im0rzckf0aq8" width="300%" x="-1" y="-1"><feGaussianBlur result="blurOut" stdDeviation="2.0"/><feColorMatrix in="blurOut" result="blurOut2" type="matrix" values="0 0 0 0 0 0 0 0 0 0 0 0 0 0 0 0 0 0 .4 0"/><feOffset dx="4.0" dy="4.0" in="blurOut2" result="blurOut3"/><feBlend in="SourceGraphic" in2="blurOut3" mode="normal"/></filter></defs><g><rect fill="#FEFECE" filter="url(#f1im0rzckf0aq8)" height="35.0938" style="stroke: #A80036; stroke-width: 1.5;" width="21" x="6" y="8"/><text fill="#000000" font-family="sans-serif" font-size="12" lengthAdjust="spacingAndGlyphs" textLength="7" x="13" y="22.457">A</text><line style="stroke: #A80036; stroke-width: 1.5;" x1="7" x2="26" y1="27.0938" y2="27.0938"/><rect fill="#FEFECE" filter="url(#f1im0rzckf0aq8)" height="35.0938" style="stroke: #A80036; stroke-width: 1.5;" width="22" x="62.5" y="8"/><text fill="#000000" font-family="sans-serif" font-size="12" lengthAdjust="spacingAndGlyphs" textLength="8" x="69.5" y="22.457">B</text><line style="stroke: #A80036; stroke-width: 1.5;" x1="63.5" x2="83.5" y1="27.0938" y2="27.0938"/><rect fill="#FEFECE" filter="url(#f1im0rzckf0aq8)" height="35.0938" style="stroke: #A80036; stroke-width: 1.5;" width="23" x="120" y="8"/><text fill="#000000" font-family="sans-serif" font-size="12" lengthAdjust="spacingAndGlyphs" textLength="9" x="127" y="22.457">C</text><line style="stroke: #A80036; stroke-width: 1.5;" x1="121" x2="142" y1="27.0938" y2="27.0938"/><rect fill="#FEFECE" filter="url(#f1im0rzckf0aq8)" height="35.0938" style="stroke: #A80036; stroke-width: 1.5;" width="23" x="178" y="8"/><text fill="#000000" font-family="sans-serif" font-size="12" lengthAdjust="spacingAndGlyphs" textLength="9" x="185" y="22.457">D</text><line style="stroke: #A80036; stroke-width: 1.5;" x1="179" x2="200" y1="27.0938" y2="27.0938"/><!--link A to B--><path d="M27.1875,33.4981 C37.3325,39.3381 47.4775,40.1889 57.6225,36.0505 " fill="none" id="A-B" style="stroke: #A80036; stroke-width: 1.0;"/><polygon fill="#A80036" points="62.2837,33.7979,52.4399,34.1124,57.7818,35.9735,55.9208,41.3154,62.2837,33.7979" style="stroke: #A80036; stroke-width: 1.0;"/><!--link B to A--><path d="M62.2837,17.2021 C52.1387,11.5354 41.9937,10.858 31.8487,15.1698 " fill="none" id="B-A" style="stroke: #A80036; stroke-width: 1.0;"/><polygon fill="#A80036" points="27.1875,17.502,37.0261,17.0521,31.659,15.2647,33.4465,9.8977,27.1875,17.502" style="stroke: #A80036; stroke-width: 1.0;"/><!--link B to C--><path d="M84.8281,33.7512 C94.9464,39.3324 105.0648,40.1201 115.183,36.1146 " fill="none" id="B-C" style="stroke: #A80036; stroke-width: 1.0;"/><polygon fill="#A80036" points="119.832,33.9368,109.9851,34.1331,115.3043,36.0582,113.3792,41.3774,119.832,33.9368" style="stroke: #A80036; stroke-width: 1.0;"/><!--link C to B--><path d="M119.832,17.0632 C109.714,11.5893 99.5954,10.9089 89.4771,15.0218 " fill="none" id="C-B" style="stroke: #A80036; stroke-width: 1.0;"/><polygon fill="#A80036" points="84.8281,17.2488,94.673,16.968,89.3374,15.0887,91.2167,9.7531,84.8281,17.2488" style="stroke: #A80036; stroke-width: 1.0;"/><!--link C to D--><path d="M143.281,33.9979 C153.301,39.3832 163.321,40.0677 173.341,36.0514 " fill="none" id="C-D" style="stroke: #A80036; stroke-width: 1.0;"/><polygon fill="#A80036" points="177.945,33.8754,168.0988,34.1058,173.4247,36.0124,171.5181,41.3383,177.945,33.8754" style="stroke: #A80036; stroke-width: 1.0;"/><!--link D to C--><path d="M177.945,17.1246 C167.925,11.6685 157.905,10.9132 147.885,14.8586 " fill="none" id="D-C" style="stroke: #A80036; stroke-width: 1.0;"/><polygon fill="#A80036" points="143.281,17.0021,153.1283,16.8277,147.8134,14.8908,149.7503,9.5759,143.281,17.0021" style="stroke: #A80036; stroke-width: 1.0;"/><!--
@startuml

object A
object B
object C
object D


A -right-> B
B -right-> A
B -right-> C
C -right-> B
C -right-> D
D -right-> C

@enduml

PlantUML version 1.2019.05(Sat Apr 20 18:45:36 CEST 2019)
(GPL source distribution)
Java Runtime: OpenJDK Runtime Environment
JVM: OpenJDK 64-Bit Server VM
Java Version: 1.8.0_222-b10
Operating System: Windows 10
OS Version: 10.0
Default Encoding: windows-1252
Language: es
Country: ES
--></g></svg>