<?xml version="1.0" encoding="UTF-8" standalone="no"?><svg xmlns="http://www.w3.org/2000/svg" xmlns:xlink="http://www.w3.org/1999/xlink" contentScriptType="application/ecmascript" contentStyleType="text/css" height="487px" preserveAspectRatio="none" style="width:516px;height:487px;" version="1.1" viewBox="0 0 516 487" width="516px" zoomAndPan="magnify"><defs><filter height="300%" id="f1kyt3af3xy6do" width="300%" x="-1" y="-1"><feGaussianBlur result="blurOut" stdDeviation="2.0"/><feColorMatrix in="blurOut" result="blurOut2" type="matrix" values="0 0 0 0 0 0 0 0 0 0 0 0 0 0 0 0 0 0 .4 0"/><feOffset dx="4.0" dy="4.0" in="blurOut2" result="blurOut3"/><feBlend in="SourceGraphic" in2="blurOut3" mode="normal"/></filter></defs><g><!--cluster modularizacion--><!--cluster capacidades--><!--class Capacidad--><rect fill="#FF0000" filter="url(#f1kyt3af3xy6do)" height="48" id="Capacidad" style="stroke: #A80036; stroke-width: 1.5;" width="131" x="205.5" y="104"/><rect fill="#FF0000" height="32" style="stroke: #A80036; stroke-width: 1.5;" width="131" x="205.5" y="104"/><ellipse cx="220.5" cy="120" fill="#ADD1B2" rx="11" ry="11" style="stroke: #A80036; stroke-width: 1.0;"/><path d="M223.2656,115.875 Q223.4219,115.6563 223.6094,115.5469 Q223.7969,115.4375 224.0156,115.4375 Q224.3906,115.4375 224.625,115.6953 Q224.8594,115.9531 224.8594,116.5625 L224.8594,118.0156 Q224.8594,118.625 224.625,118.8906 Q224.3906,119.1563 224.0156,119.1563 Q223.6719,119.1563 223.4688,118.9531 Q223.2656,118.7656 223.1563,118.25 Q223.1094,117.8906 222.9219,117.7031 Q222.5938,117.3281 221.9844,117.1094 Q221.375,116.8906 220.75,116.8906 Q219.9844,116.8906 219.3516,117.2188 Q218.7188,117.5469 218.2266,118.2969 Q217.7344,119.0469 217.7344,120.0781 L217.7344,121.1719 Q217.7344,122.4063 218.625,123.2266 Q219.5156,124.0469 221.1094,124.0469 Q222.0469,124.0469 222.7031,123.7969 Q223.0938,123.6406 223.5156,123.2031 Q223.7813,122.9375 223.9297,122.8594 Q224.0781,122.7813 224.2813,122.7813 Q224.6094,122.7813 224.8672,123.0391 Q225.125,123.2969 225.125,123.6406 Q225.125,123.9844 224.7813,124.3906 Q224.2813,124.9688 223.4844,125.2969 Q222.4063,125.75 221.1094,125.75 Q219.5938,125.75 218.3906,125.125 Q217.4063,124.625 216.7188,123.5547 Q216.0313,122.4844 216.0313,121.2031 L216.0313,120.0469 Q216.0313,118.7188 216.6484,117.5703 Q217.2656,116.4219 218.3594,115.8047 Q219.4531,115.1875 220.6875,115.1875 Q221.4219,115.1875 222.0703,115.3516 Q222.7188,115.5156 223.2656,115.875 Z "/><text fill="#000000" font-family="sans-serif" font-size="12" lengthAdjust="spacingAndGlyphs" textLength="99" x="234.5" y="124.9102">Capacidad Mental</text><line style="stroke: #A80036; stroke-width: 1.5;" x1="206.5" x2="335.5" y1="136" y2="136"/><line style="stroke: #A80036; stroke-width: 1.5;" x1="206.5" x2="335.5" y1="144" y2="144"/><!--class Limitacion--><rect fill="#FF0000" filter="url(#f1kyt3af3xy6do)" height="48" id="Limitacion" style="stroke: #A80036; stroke-width: 1.5;" width="89" x="62.5" y="320"/><rect fill="#FF0000" height="32" style="stroke: #A80036; stroke-width: 1.5;" width="89" x="62.5" y="320"/><ellipse cx="77.5" cy="336" fill="#ADD1B2" rx="11" ry="11" style="stroke: #A80036; stroke-width: 1.0;"/><path d="M80.2656,331.875 Q80.4219,331.6563 80.6094,331.5469 Q80.7969,331.4375 81.0156,331.4375 Q81.3906,331.4375 81.625,331.6953 Q81.8594,331.9531 81.8594,332.5625 L81.8594,334.0156 Q81.8594,334.625 81.625,334.8906 Q81.3906,335.1563 81.0156,335.1563 Q80.6719,335.1563 80.4688,334.9531 Q80.2656,334.7656 80.1563,334.25 Q80.1094,333.8906 79.9219,333.7031 Q79.5938,333.3281 78.9844,333.1094 Q78.375,332.8906 77.75,332.8906 Q76.9844,332.8906 76.3516,333.2188 Q75.7188,333.5469 75.2266,334.2969 Q74.7344,335.0469 74.7344,336.0781 L74.7344,337.1719 Q74.7344,338.4063 75.625,339.2266 Q76.5156,340.0469 78.1094,340.0469 Q79.0469,340.0469 79.7031,339.7969 Q80.0938,339.6406 80.5156,339.2031 Q80.7813,338.9375 80.9297,338.8594 Q81.0781,338.7813 81.2813,338.7813 Q81.6094,338.7813 81.8672,339.0391 Q82.125,339.2969 82.125,339.6406 Q82.125,339.9844 81.7813,340.3906 Q81.2813,340.9688 80.4844,341.2969 Q79.4063,341.75 78.1094,341.75 Q76.5938,341.75 75.3906,341.125 Q74.4063,340.625 73.7188,339.5547 Q73.0313,338.4844 73.0313,337.2031 L73.0313,336.0469 Q73.0313,334.7188 73.6484,333.5703 Q74.2656,332.4219 75.3594,331.8047 Q76.4531,331.1875 77.6875,331.1875 Q78.4219,331.1875 79.0703,331.3516 Q79.7188,331.5156 80.2656,331.875 Z "/><text fill="#000000" font-family="sans-serif" font-size="12" lengthAdjust="spacingAndGlyphs" textLength="57" x="91.5" y="340.9102">Limitación</text><line style="stroke: #A80036; stroke-width: 1.5;" x1="63.5" x2="150.5" y1="352" y2="352"/><line style="stroke: #A80036; stroke-width: 1.5;" x1="63.5" x2="150.5" y1="360" y2="360"/><!--class CapacidadCuantitativa--><rect fill="#FF0000" filter="url(#f1kyt3af3xy6do)" height="48" id="CapacidadCuantitativa" style="stroke: #A80036; stroke-width: 1.5;" width="198" x="172" y="212"/><rect fill="#FF0000" height="32" style="stroke: #A80036; stroke-width: 1.5;" width="198" x="172" y="212"/><ellipse cx="187" cy="228" fill="#ADD1B2" rx="11" ry="11" style="stroke: #A80036; stroke-width: 1.0;"/><path d="M189.7656,223.875 Q189.9219,223.6563 190.1094,223.5469 Q190.2969,223.4375 190.5156,223.4375 Q190.8906,223.4375 191.125,223.6953 Q191.3594,223.9531 191.3594,224.5625 L191.3594,226.0156 Q191.3594,226.625 191.125,226.8906 Q190.8906,227.1563 190.5156,227.1563 Q190.1719,227.1563 189.9688,226.9531 Q189.7656,226.7656 189.6563,226.25 Q189.6094,225.8906 189.4219,225.7031 Q189.0938,225.3281 188.4844,225.1094 Q187.875,224.8906 187.25,224.8906 Q186.4844,224.8906 185.8516,225.2188 Q185.2188,225.5469 184.7266,226.2969 Q184.2344,227.0469 184.2344,228.0781 L184.2344,229.1719 Q184.2344,230.4063 185.125,231.2266 Q186.0156,232.0469 187.6094,232.0469 Q188.5469,232.0469 189.2031,231.7969 Q189.5938,231.6406 190.0156,231.2031 Q190.2813,230.9375 190.4297,230.8594 Q190.5781,230.7813 190.7813,230.7813 Q191.1094,230.7813 191.3672,231.0391 Q191.625,231.2969 191.625,231.6406 Q191.625,231.9844 191.2813,232.3906 Q190.7813,232.9688 189.9844,233.2969 Q188.9063,233.75 187.6094,233.75 Q186.0938,233.75 184.8906,233.125 Q183.9063,232.625 183.2188,231.5547 Q182.5313,230.4844 182.5313,229.2031 L182.5313,228.0469 Q182.5313,226.7188 183.1484,225.5703 Q183.7656,224.4219 184.8594,223.8047 Q185.9531,223.1875 187.1875,223.1875 Q187.9219,223.1875 188.5703,223.3516 Q189.2188,223.5156 189.7656,223.875 Z "/><text fill="#000000" font-family="sans-serif" font-size="12" lengthAdjust="spacingAndGlyphs" textLength="166" x="201" y="232.9102">Capacidad Mental Cuantitativa</text><line style="stroke: #A80036; stroke-width: 1.5;" x1="173" x2="369" y1="244" y2="244"/><line style="stroke: #A80036; stroke-width: 1.5;" x1="173" x2="369" y1="252" y2="252"/><!--class MagicoMiller--><rect fill="#FF0000" filter="url(#f1kyt3af3xy6do)" height="48" id="MagicoMiller" style="stroke: #A80036; stroke-width: 1.5;" width="168" x="187" y="320"/><rect fill="#FF0000" height="32" style="stroke: #A80036; stroke-width: 1.5;" width="168" x="187" y="320"/><ellipse cx="202" cy="336" fill="#ADD1B2" rx="11" ry="11" style="stroke: #A80036; stroke-width: 1.0;"/><path d="M204.7656,331.875 Q204.9219,331.6563 205.1094,331.5469 Q205.2969,331.4375 205.5156,331.4375 Q205.8906,331.4375 206.125,331.6953 Q206.3594,331.9531 206.3594,332.5625 L206.3594,334.0156 Q206.3594,334.625 206.125,334.8906 Q205.8906,335.1563 205.5156,335.1563 Q205.1719,335.1563 204.9688,334.9531 Q204.7656,334.7656 204.6563,334.25 Q204.6094,333.8906 204.4219,333.7031 Q204.0938,333.3281 203.4844,333.1094 Q202.875,332.8906 202.25,332.8906 Q201.4844,332.8906 200.8516,333.2188 Q200.2188,333.5469 199.7266,334.2969 Q199.2344,335.0469 199.2344,336.0781 L199.2344,337.1719 Q199.2344,338.4063 200.125,339.2266 Q201.0156,340.0469 202.6094,340.0469 Q203.5469,340.0469 204.2031,339.7969 Q204.5938,339.6406 205.0156,339.2031 Q205.2813,338.9375 205.4297,338.8594 Q205.5781,338.7813 205.7813,338.7813 Q206.1094,338.7813 206.3672,339.0391 Q206.625,339.2969 206.625,339.6406 Q206.625,339.9844 206.2813,340.3906 Q205.7813,340.9688 204.9844,341.2969 Q203.9063,341.75 202.6094,341.75 Q201.0938,341.75 199.8906,341.125 Q198.9063,340.625 198.2188,339.5547 Q197.5313,338.4844 197.5313,337.2031 L197.5313,336.0469 Q197.5313,334.7188 198.1484,333.5703 Q198.7656,332.4219 199.8594,331.8047 Q200.9531,331.1875 202.1875,331.1875 Q202.9219,331.1875 203.5703,331.3516 Q204.2188,331.5156 204.7656,331.875 Z "/><text fill="#000000" font-family="sans-serif" font-size="12" lengthAdjust="spacingAndGlyphs" textLength="136" x="216" y="340.9102">Número Mágico de Miller</text><line style="stroke: #A80036; stroke-width: 1.5;" x1="188" x2="354" y1="352" y2="352"/><line style="stroke: #A80036; stroke-width: 1.5;" x1="188" x2="354" y1="360" y2="360"/><!--class EnfoqueVisual--><rect fill="#FF0000" filter="url(#f1kyt3af3xy6do)" height="48" id="EnfoqueVisual" style="stroke: #A80036; stroke-width: 1.5;" width="115" x="390.5" y="320"/><rect fill="#FF0000" height="32" style="stroke: #A80036; stroke-width: 1.5;" width="115" x="390.5" y="320"/><ellipse cx="405.5" cy="336" fill="#ADD1B2" rx="11" ry="11" style="stroke: #A80036; stroke-width: 1.0;"/><path d="M408.2656,331.875 Q408.4219,331.6563 408.6094,331.5469 Q408.7969,331.4375 409.0156,331.4375 Q409.3906,331.4375 409.625,331.6953 Q409.8594,331.9531 409.8594,332.5625 L409.8594,334.0156 Q409.8594,334.625 409.625,334.8906 Q409.3906,335.1563 409.0156,335.1563 Q408.6719,335.1563 408.4688,334.9531 Q408.2656,334.7656 408.1563,334.25 Q408.1094,333.8906 407.9219,333.7031 Q407.5938,333.3281 406.9844,333.1094 Q406.375,332.8906 405.75,332.8906 Q404.9844,332.8906 404.3516,333.2188 Q403.7188,333.5469 403.2266,334.2969 Q402.7344,335.0469 402.7344,336.0781 L402.7344,337.1719 Q402.7344,338.4063 403.625,339.2266 Q404.5156,340.0469 406.1094,340.0469 Q407.0469,340.0469 407.7031,339.7969 Q408.0938,339.6406 408.5156,339.2031 Q408.7813,338.9375 408.9297,338.8594 Q409.0781,338.7813 409.2813,338.7813 Q409.6094,338.7813 409.8672,339.0391 Q410.125,339.2969 410.125,339.6406 Q410.125,339.9844 409.7813,340.3906 Q409.2813,340.9688 408.4844,341.2969 Q407.4063,341.75 406.1094,341.75 Q404.5938,341.75 403.3906,341.125 Q402.4063,340.625 401.7188,339.5547 Q401.0313,338.4844 401.0313,337.2031 L401.0313,336.0469 Q401.0313,334.7188 401.6484,333.5703 Q402.2656,332.4219 403.3594,331.8047 Q404.4531,331.1875 405.6875,331.1875 Q406.4219,331.1875 407.0703,331.3516 Q407.7188,331.5156 408.2656,331.875 Z "/><text fill="#000000" font-family="sans-serif" font-size="12" lengthAdjust="spacingAndGlyphs" textLength="83" x="419.5" y="340.9102">Enfoque Visual</text><line style="stroke: #A80036; stroke-width: 1.5;" x1="391.5" x2="504.5" y1="352" y2="352"/><line style="stroke: #A80036; stroke-width: 1.5;" x1="391.5" x2="504.5" y1="360" y2="360"/><!--class Tamanyo--><rect fill="#FFFFFF" filter="url(#f1kyt3af3xy6do)" height="48" id="Tamanyo" style="stroke: #A80036; stroke-width: 1.5;" width="78" x="68" y="428"/><rect fill="#FFFFFF" height="32" style="stroke: #A80036; stroke-width: 1.5;" width="78" x="68" y="428"/><ellipse cx="83" cy="444" fill="#ADD1B2" rx="11" ry="11" style="stroke: #A80036; stroke-width: 1.0;"/><path d="M85.7656,439.875 Q85.9219,439.6563 86.1094,439.5469 Q86.2969,439.4375 86.5156,439.4375 Q86.8906,439.4375 87.125,439.6953 Q87.3594,439.9531 87.3594,440.5625 L87.3594,442.0156 Q87.3594,442.625 87.125,442.8906 Q86.8906,443.1563 86.5156,443.1563 Q86.1719,443.1563 85.9688,442.9531 Q85.7656,442.7656 85.6563,442.25 Q85.6094,441.8906 85.4219,441.7031 Q85.0938,441.3281 84.4844,441.1094 Q83.875,440.8906 83.25,440.8906 Q82.4844,440.8906 81.8516,441.2188 Q81.2188,441.5469 80.7266,442.2969 Q80.2344,443.0469 80.2344,444.0781 L80.2344,445.1719 Q80.2344,446.4063 81.125,447.2266 Q82.0156,448.0469 83.6094,448.0469 Q84.5469,448.0469 85.2031,447.7969 Q85.5938,447.6406 86.0156,447.2031 Q86.2813,446.9375 86.4297,446.8594 Q86.5781,446.7813 86.7813,446.7813 Q87.1094,446.7813 87.3672,447.0391 Q87.625,447.2969 87.625,447.6406 Q87.625,447.9844 87.2813,448.3906 Q86.7813,448.9688 85.9844,449.2969 Q84.9063,449.75 83.6094,449.75 Q82.0938,449.75 80.8906,449.125 Q79.9063,448.625 79.2188,447.5547 Q78.5313,446.4844 78.5313,445.2031 L78.5313,444.0469 Q78.5313,442.7188 79.1484,441.5703 Q79.7656,440.4219 80.8594,439.8047 Q81.9531,439.1875 83.1875,439.1875 Q83.9219,439.1875 84.5703,439.3516 Q85.2188,439.5156 85.7656,439.875 Z "/><text fill="#000000" font-family="sans-serif" font-size="12" lengthAdjust="spacingAndGlyphs" textLength="46" x="97" y="448.9102">Tamaño</text><line style="stroke: #A80036; stroke-width: 1.5;" x1="69" x2="145" y1="460" y2="460"/><line style="stroke: #A80036; stroke-width: 1.5;" x1="69" x2="145" y1="468" y2="468"/><!--link Limitacion to Tamanyo--><path d="M107,368 C107,384.003 107,405.446 107,422.528 " fill="none" id="Limitacion-Tamanyo" style="stroke: #A80036; stroke-width: 1.0;"/><polygon fill="#A80036" points="107,427.678,111,418.678,107,422.678,103,418.678,107,427.678" style="stroke: #A80036; stroke-width: 1.0;"/><!--link Capacidad to CapacidadCuantitativa--><path d="M271,172.024 C271,185.579 271,200.038 271,211.678 " fill="none" id="Capacidad-CapacidadCuantitativa" style="stroke: #A80036; stroke-width: 1.0;"/><polygon fill="none" points="264,172,271,152,278,172,264,172" style="stroke: #A80036; stroke-width: 1.0;"/><!--link CapacidadCuantitativa to Limitacion--><path d="M224.343,267.157 C202.287,281.412 176.013,298.394 153.924,312.671 " fill="none" id="CapacidadCuantitativa-Limitacion" style="stroke: #A80036; stroke-width: 1.0;"/><polygon fill="#A80036" points="142.799,319.862,152.5288,318.3353,146.9981,317.1476,148.1858,311.6169,142.799,319.862" style="stroke: #A80036; stroke-width: 1.0;"/><line style="stroke: #A80036; stroke-width: 1.0;" x1="146.9981" x2="153.717" y1="317.1476" y2="312.805"/><polygon fill="#A80036" points="235.414,260,228.2036,259.8969,225.3353,266.513,232.5456,266.6161,235.414,260" style="stroke: #A80036; stroke-width: 1.0;"/><!--link CapacidadCuantitativa to MagicoMiller--><path d="M271,280.024 C271,293.579 271,308.038 271,319.678 " fill="none" id="CapacidadCuantitativa-MagicoMiller" style="stroke: #A80036; stroke-width: 1.0;"/><polygon fill="none" points="264,280,271,260,278,280,264,280" style="stroke: #A80036; stroke-width: 1.0;"/><!--link CapacidadCuantitativa to EnfoqueVisual--><path d="M326.691,270.352 C353.574,286.451 385.161,305.368 409.363,319.862 " fill="none" id="CapacidadCuantitativa-EnfoqueVisual" style="stroke: #A80036; stroke-width: 1.0;"/><polygon fill="none" points="322.968,276.282,309.406,260,330.161,264.271,322.968,276.282" style="stroke: #A80036; stroke-width: 1.0;"/><!--
@startuml

together modularizacion {

together capacidades {

class "Capacidad Mental" as Capacidad #red

class "Limitación" as Limitacion #red

class "Capacidad Mental Cuantitativa" as CapacidadCuantitativa #red

class "Número Mágico de Miller" as MagicoMiller #red

class "Enfoque Visual" as EnfoqueVisual #red

class "Tamaño" as Tamanyo #white
}

Limitacion - -> Tamanyo

Capacidad<|-down- CapacidadCuantitativa
CapacidadCuantitativa *-down-> Limitacion

CapacidadCuantitativa <|-down- MagicoMiller

CapacidadCuantitativa <|-down- EnfoqueVisual

@enduml

PlantUML version 1.2019.05(Sat Apr 20 18:45:36 CEST 2019)
(GPL source distribution)
Java Runtime: OpenJDK Runtime Environment
JVM: OpenJDK 64-Bit Server VM
Java Version: 1.8.0_222-b10
Operating System: Windows 10
OS Version: 10.0
Default Encoding: windows-1252
Language: es
Country: ES
--></g></svg>