<?xml version="1.0" encoding="UTF-8" standalone="no"?><svg xmlns="http://www.w3.org/2000/svg" xmlns:xlink="http://www.w3.org/1999/xlink" contentScriptType="application/ecmascript" contentStyleType="text/css" height="659px" preserveAspectRatio="none" style="width:718px;height:659px;" version="1.1" viewBox="0 0 718 659" width="718px" zoomAndPan="magnify"><defs><filter height="300%" id="fwf9whp96hmm9" width="300%" x="-1" y="-1"><feGaussianBlur result="blurOut" stdDeviation="2.0"/><feColorMatrix in="blurOut" result="blurOut2" type="matrix" values="0 0 0 0 0 0 0 0 0 0 0 0 0 0 0 0 0 0 .4 0"/><feOffset dx="4.0" dy="4.0" in="blurOut2" result="blurOut3"/><feBlend in="SourceGraphic" in2="blurOut3" mode="normal"/></filter></defs><g><!--cluster capacidades--><!--class Capacidad--><rect fill="#FF0000" filter="url(#fwf9whp96hmm9)" height="48" id="Capacidad" style="stroke: #A80036; stroke-width: 1.5;" width="131" x="259.5" y="60"/><rect fill="#FF0000" height="32" style="stroke: #A80036; stroke-width: 1.5;" width="131" x="259.5" y="60"/><ellipse cx="274.5" cy="76" fill="#ADD1B2" rx="11" ry="11" style="stroke: #A80036; stroke-width: 1.0;"/><path d="M277.2656,71.875 Q277.4219,71.6563 277.6094,71.5469 Q277.7969,71.4375 278.0156,71.4375 Q278.3906,71.4375 278.625,71.6953 Q278.8594,71.9531 278.8594,72.5625 L278.8594,74.0156 Q278.8594,74.625 278.625,74.8906 Q278.3906,75.1563 278.0156,75.1563 Q277.6719,75.1563 277.4688,74.9531 Q277.2656,74.7656 277.1563,74.25 Q277.1094,73.8906 276.9219,73.7031 Q276.5938,73.3281 275.9844,73.1094 Q275.375,72.8906 274.75,72.8906 Q273.9844,72.8906 273.3516,73.2188 Q272.7188,73.5469 272.2266,74.2969 Q271.7344,75.0469 271.7344,76.0781 L271.7344,77.1719 Q271.7344,78.4063 272.625,79.2266 Q273.5156,80.0469 275.1094,80.0469 Q276.0469,80.0469 276.7031,79.7969 Q277.0938,79.6406 277.5156,79.2031 Q277.7813,78.9375 277.9297,78.8594 Q278.0781,78.7813 278.2813,78.7813 Q278.6094,78.7813 278.8672,79.0391 Q279.125,79.2969 279.125,79.6406 Q279.125,79.9844 278.7813,80.3906 Q278.2813,80.9688 277.4844,81.2969 Q276.4063,81.75 275.1094,81.75 Q273.5938,81.75 272.3906,81.125 Q271.4063,80.625 270.7188,79.5547 Q270.0313,78.4844 270.0313,77.2031 L270.0313,76.0469 Q270.0313,74.7188 270.6484,73.5703 Q271.2656,72.4219 272.3594,71.8047 Q273.4531,71.1875 274.6875,71.1875 Q275.4219,71.1875 276.0703,71.3516 Q276.7188,71.5156 277.2656,71.875 Z "/><text fill="#000000" font-family="sans-serif" font-size="12" lengthAdjust="spacingAndGlyphs" textLength="99" x="288.5" y="80.9102">Capacidad Mental</text><line style="stroke: #A80036; stroke-width: 1.5;" x1="260.5" x2="389.5" y1="92" y2="92"/><line style="stroke: #A80036; stroke-width: 1.5;" x1="260.5" x2="389.5" y1="100" y2="100"/><!--class Limitacion--><rect fill="#FF0000" filter="url(#fwf9whp96hmm9)" height="48" id="Limitacion" style="stroke: #A80036; stroke-width: 1.5;" width="89" x="618.5" y="276"/><rect fill="#FF0000" height="32" style="stroke: #A80036; stroke-width: 1.5;" width="89" x="618.5" y="276"/><ellipse cx="633.5" cy="292" fill="#ADD1B2" rx="11" ry="11" style="stroke: #A80036; stroke-width: 1.0;"/><path d="M636.2656,287.875 Q636.4219,287.6563 636.6094,287.5469 Q636.7969,287.4375 637.0156,287.4375 Q637.3906,287.4375 637.625,287.6953 Q637.8594,287.9531 637.8594,288.5625 L637.8594,290.0156 Q637.8594,290.625 637.625,290.8906 Q637.3906,291.1563 637.0156,291.1563 Q636.6719,291.1563 636.4688,290.9531 Q636.2656,290.7656 636.1563,290.25 Q636.1094,289.8906 635.9219,289.7031 Q635.5938,289.3281 634.9844,289.1094 Q634.375,288.8906 633.75,288.8906 Q632.9844,288.8906 632.3516,289.2188 Q631.7188,289.5469 631.2266,290.2969 Q630.7344,291.0469 630.7344,292.0781 L630.7344,293.1719 Q630.7344,294.4063 631.625,295.2266 Q632.5156,296.0469 634.1094,296.0469 Q635.0469,296.0469 635.7031,295.7969 Q636.0938,295.6406 636.5156,295.2031 Q636.7813,294.9375 636.9297,294.8594 Q637.0781,294.7813 637.2813,294.7813 Q637.6094,294.7813 637.8672,295.0391 Q638.125,295.2969 638.125,295.6406 Q638.125,295.9844 637.7813,296.3906 Q637.2813,296.9688 636.4844,297.2969 Q635.4063,297.75 634.1094,297.75 Q632.5938,297.75 631.3906,297.125 Q630.4063,296.625 629.7188,295.5547 Q629.0313,294.4844 629.0313,293.2031 L629.0313,292.0469 Q629.0313,290.7188 629.6484,289.5703 Q630.2656,288.4219 631.3594,287.8047 Q632.4531,287.1875 633.6875,287.1875 Q634.4219,287.1875 635.0703,287.3516 Q635.7188,287.5156 636.2656,287.875 Z "/><text fill="#000000" font-family="sans-serif" font-size="12" lengthAdjust="spacingAndGlyphs" textLength="57" x="647.5" y="296.9102">Limitación</text><line style="stroke: #A80036; stroke-width: 1.5;" x1="619.5" x2="706.5" y1="308" y2="308"/><line style="stroke: #A80036; stroke-width: 1.5;" x1="619.5" x2="706.5" y1="316" y2="316"/><!--class CapacidadCuantitativa--><rect fill="#FF0000" filter="url(#fwf9whp96hmm9)" height="48" id="CapacidadCuantitativa" style="stroke: #A80036; stroke-width: 1.5;" width="198" x="338" y="168"/><rect fill="#FF0000" height="32" style="stroke: #A80036; stroke-width: 1.5;" width="198" x="338" y="168"/><ellipse cx="353" cy="184" fill="#ADD1B2" rx="11" ry="11" style="stroke: #A80036; stroke-width: 1.0;"/><path d="M355.7656,179.875 Q355.9219,179.6563 356.1094,179.5469 Q356.2969,179.4375 356.5156,179.4375 Q356.8906,179.4375 357.125,179.6953 Q357.3594,179.9531 357.3594,180.5625 L357.3594,182.0156 Q357.3594,182.625 357.125,182.8906 Q356.8906,183.1563 356.5156,183.1563 Q356.1719,183.1563 355.9688,182.9531 Q355.7656,182.7656 355.6563,182.25 Q355.6094,181.8906 355.4219,181.7031 Q355.0938,181.3281 354.4844,181.1094 Q353.875,180.8906 353.25,180.8906 Q352.4844,180.8906 351.8516,181.2188 Q351.2188,181.5469 350.7266,182.2969 Q350.2344,183.0469 350.2344,184.0781 L350.2344,185.1719 Q350.2344,186.4063 351.125,187.2266 Q352.0156,188.0469 353.6094,188.0469 Q354.5469,188.0469 355.2031,187.7969 Q355.5938,187.6406 356.0156,187.2031 Q356.2813,186.9375 356.4297,186.8594 Q356.5781,186.7813 356.7813,186.7813 Q357.1094,186.7813 357.3672,187.0391 Q357.625,187.2969 357.625,187.6406 Q357.625,187.9844 357.2813,188.3906 Q356.7813,188.9688 355.9844,189.2969 Q354.9063,189.75 353.6094,189.75 Q352.0938,189.75 350.8906,189.125 Q349.9063,188.625 349.2188,187.5547 Q348.5313,186.4844 348.5313,185.2031 L348.5313,184.0469 Q348.5313,182.7188 349.1484,181.5703 Q349.7656,180.4219 350.8594,179.8047 Q351.9531,179.1875 353.1875,179.1875 Q353.9219,179.1875 354.5703,179.3516 Q355.2188,179.5156 355.7656,179.875 Z "/><text fill="#000000" font-family="sans-serif" font-size="12" lengthAdjust="spacingAndGlyphs" textLength="166" x="367" y="188.9102">Capacidad Mental Cuantitativa</text><line style="stroke: #A80036; stroke-width: 1.5;" x1="339" x2="535" y1="200" y2="200"/><line style="stroke: #A80036; stroke-width: 1.5;" x1="339" x2="535" y1="208" y2="208"/><!--class MagicoMiller--><rect fill="#FF0000" filter="url(#fwf9whp96hmm9)" height="48" id="MagicoMiller" style="stroke: #A80036; stroke-width: 1.5;" width="168" x="265" y="276"/><rect fill="#FF0000" height="32" style="stroke: #A80036; stroke-width: 1.5;" width="168" x="265" y="276"/><ellipse cx="280" cy="292" fill="#ADD1B2" rx="11" ry="11" style="stroke: #A80036; stroke-width: 1.0;"/><path d="M282.7656,287.875 Q282.9219,287.6563 283.1094,287.5469 Q283.2969,287.4375 283.5156,287.4375 Q283.8906,287.4375 284.125,287.6953 Q284.3594,287.9531 284.3594,288.5625 L284.3594,290.0156 Q284.3594,290.625 284.125,290.8906 Q283.8906,291.1563 283.5156,291.1563 Q283.1719,291.1563 282.9688,290.9531 Q282.7656,290.7656 282.6563,290.25 Q282.6094,289.8906 282.4219,289.7031 Q282.0938,289.3281 281.4844,289.1094 Q280.875,288.8906 280.25,288.8906 Q279.4844,288.8906 278.8516,289.2188 Q278.2188,289.5469 277.7266,290.2969 Q277.2344,291.0469 277.2344,292.0781 L277.2344,293.1719 Q277.2344,294.4063 278.125,295.2266 Q279.0156,296.0469 280.6094,296.0469 Q281.5469,296.0469 282.2031,295.7969 Q282.5938,295.6406 283.0156,295.2031 Q283.2813,294.9375 283.4297,294.8594 Q283.5781,294.7813 283.7813,294.7813 Q284.1094,294.7813 284.3672,295.0391 Q284.625,295.2969 284.625,295.6406 Q284.625,295.9844 284.2813,296.3906 Q283.7813,296.9688 282.9844,297.2969 Q281.9063,297.75 280.6094,297.75 Q279.0938,297.75 277.8906,297.125 Q276.9063,296.625 276.2188,295.5547 Q275.5313,294.4844 275.5313,293.2031 L275.5313,292.0469 Q275.5313,290.7188 276.1484,289.5703 Q276.7656,288.4219 277.8594,287.8047 Q278.9531,287.1875 280.1875,287.1875 Q280.9219,287.1875 281.5703,287.3516 Q282.2188,287.5156 282.7656,287.875 Z "/><text fill="#000000" font-family="sans-serif" font-size="12" lengthAdjust="spacingAndGlyphs" textLength="136" x="294" y="296.9102">Número Mágico de Miller</text><line style="stroke: #A80036; stroke-width: 1.5;" x1="266" x2="432" y1="308" y2="308"/><line style="stroke: #A80036; stroke-width: 1.5;" x1="266" x2="432" y1="316" y2="316"/><!--class EnfoqueVisual--><rect fill="#FF0000" filter="url(#fwf9whp96hmm9)" height="48" id="EnfoqueVisual" style="stroke: #A80036; stroke-width: 1.5;" width="115" x="468.5" y="276"/><rect fill="#FF0000" height="32" style="stroke: #A80036; stroke-width: 1.5;" width="115" x="468.5" y="276"/><ellipse cx="483.5" cy="292" fill="#ADD1B2" rx="11" ry="11" style="stroke: #A80036; stroke-width: 1.0;"/><path d="M486.2656,287.875 Q486.4219,287.6563 486.6094,287.5469 Q486.7969,287.4375 487.0156,287.4375 Q487.3906,287.4375 487.625,287.6953 Q487.8594,287.9531 487.8594,288.5625 L487.8594,290.0156 Q487.8594,290.625 487.625,290.8906 Q487.3906,291.1563 487.0156,291.1563 Q486.6719,291.1563 486.4688,290.9531 Q486.2656,290.7656 486.1563,290.25 Q486.1094,289.8906 485.9219,289.7031 Q485.5938,289.3281 484.9844,289.1094 Q484.375,288.8906 483.75,288.8906 Q482.9844,288.8906 482.3516,289.2188 Q481.7188,289.5469 481.2266,290.2969 Q480.7344,291.0469 480.7344,292.0781 L480.7344,293.1719 Q480.7344,294.4063 481.625,295.2266 Q482.5156,296.0469 484.1094,296.0469 Q485.0469,296.0469 485.7031,295.7969 Q486.0938,295.6406 486.5156,295.2031 Q486.7813,294.9375 486.9297,294.8594 Q487.0781,294.7813 487.2813,294.7813 Q487.6094,294.7813 487.8672,295.0391 Q488.125,295.2969 488.125,295.6406 Q488.125,295.9844 487.7813,296.3906 Q487.2813,296.9688 486.4844,297.2969 Q485.4063,297.75 484.1094,297.75 Q482.5938,297.75 481.3906,297.125 Q480.4063,296.625 479.7188,295.5547 Q479.0313,294.4844 479.0313,293.2031 L479.0313,292.0469 Q479.0313,290.7188 479.6484,289.5703 Q480.2656,288.4219 481.3594,287.8047 Q482.4531,287.1875 483.6875,287.1875 Q484.4219,287.1875 485.0703,287.3516 Q485.7188,287.5156 486.2656,287.875 Z "/><text fill="#000000" font-family="sans-serif" font-size="12" lengthAdjust="spacingAndGlyphs" textLength="83" x="497.5" y="296.9102">Enfoque Visual</text><line style="stroke: #A80036; stroke-width: 1.5;" x1="469.5" x2="582.5" y1="308" y2="308"/><line style="stroke: #A80036; stroke-width: 1.5;" x1="469.5" x2="582.5" y1="316" y2="316"/><!--class CapacidadCualitativa--><rect fill="#FF0000" filter="url(#fwf9whp96hmm9)" height="48" id="CapacidadCualitativa" style="stroke: #A80036; stroke-width: 1.5;" width="191" x="38.5" y="276"/><rect fill="#FF0000" height="32" style="stroke: #A80036; stroke-width: 1.5;" width="191" x="38.5" y="276"/><ellipse cx="53.5" cy="292" fill="#ADD1B2" rx="11" ry="11" style="stroke: #A80036; stroke-width: 1.0;"/><path d="M56.2656,287.875 Q56.4219,287.6563 56.6094,287.5469 Q56.7969,287.4375 57.0156,287.4375 Q57.3906,287.4375 57.625,287.6953 Q57.8594,287.9531 57.8594,288.5625 L57.8594,290.0156 Q57.8594,290.625 57.625,290.8906 Q57.3906,291.1563 57.0156,291.1563 Q56.6719,291.1563 56.4688,290.9531 Q56.2656,290.7656 56.1563,290.25 Q56.1094,289.8906 55.9219,289.7031 Q55.5938,289.3281 54.9844,289.1094 Q54.375,288.8906 53.75,288.8906 Q52.9844,288.8906 52.3516,289.2188 Q51.7188,289.5469 51.2266,290.2969 Q50.7344,291.0469 50.7344,292.0781 L50.7344,293.1719 Q50.7344,294.4063 51.625,295.2266 Q52.5156,296.0469 54.1094,296.0469 Q55.0469,296.0469 55.7031,295.7969 Q56.0938,295.6406 56.5156,295.2031 Q56.7813,294.9375 56.9297,294.8594 Q57.0781,294.7813 57.2813,294.7813 Q57.6094,294.7813 57.8672,295.0391 Q58.125,295.2969 58.125,295.6406 Q58.125,295.9844 57.7813,296.3906 Q57.2813,296.9688 56.4844,297.2969 Q55.4063,297.75 54.1094,297.75 Q52.5938,297.75 51.3906,297.125 Q50.4063,296.625 49.7188,295.5547 Q49.0313,294.4844 49.0313,293.2031 L49.0313,292.0469 Q49.0313,290.7188 49.6484,289.5703 Q50.2656,288.4219 51.3594,287.8047 Q52.4531,287.1875 53.6875,287.1875 Q54.4219,287.1875 55.0703,287.3516 Q55.7188,287.5156 56.2656,287.875 Z "/><text fill="#000000" font-family="sans-serif" font-size="12" lengthAdjust="spacingAndGlyphs" textLength="159" x="67.5" y="296.9102">Capacidad Mental Cualitativa</text><line style="stroke: #A80036; stroke-width: 1.5;" x1="39.5" x2="228.5" y1="308" y2="308"/><line style="stroke: #A80036; stroke-width: 1.5;" x1="39.5" x2="228.5" y1="316" y2="316"/><!--class Abstraccion--><rect fill="#FF0000" filter="url(#fwf9whp96hmm9)" height="48" id="Abstraccion" style="stroke: #A80036; stroke-width: 1.5;" width="96" x="62" y="600"/><rect fill="#FF0000" height="32" style="stroke: #A80036; stroke-width: 1.5;" width="96" x="62" y="600"/><ellipse cx="77" cy="616" fill="#ADD1B2" rx="11" ry="11" style="stroke: #A80036; stroke-width: 1.0;"/><path d="M79.7656,611.875 Q79.9219,611.6563 80.1094,611.5469 Q80.2969,611.4375 80.5156,611.4375 Q80.8906,611.4375 81.125,611.6953 Q81.3594,611.9531 81.3594,612.5625 L81.3594,614.0156 Q81.3594,614.625 81.125,614.8906 Q80.8906,615.1563 80.5156,615.1563 Q80.1719,615.1563 79.9688,614.9531 Q79.7656,614.7656 79.6563,614.25 Q79.6094,613.8906 79.4219,613.7031 Q79.0938,613.3281 78.4844,613.1094 Q77.875,612.8906 77.25,612.8906 Q76.4844,612.8906 75.8516,613.2188 Q75.2188,613.5469 74.7266,614.2969 Q74.2344,615.0469 74.2344,616.0781 L74.2344,617.1719 Q74.2344,618.4063 75.125,619.2266 Q76.0156,620.0469 77.6094,620.0469 Q78.5469,620.0469 79.2031,619.7969 Q79.5938,619.6406 80.0156,619.2031 Q80.2813,618.9375 80.4297,618.8594 Q80.5781,618.7813 80.7813,618.7813 Q81.1094,618.7813 81.3672,619.0391 Q81.625,619.2969 81.625,619.6406 Q81.625,619.9844 81.2813,620.3906 Q80.7813,620.9688 79.9844,621.2969 Q78.9063,621.75 77.6094,621.75 Q76.0938,621.75 74.8906,621.125 Q73.9063,620.625 73.2188,619.5547 Q72.5313,618.4844 72.5313,617.2031 L72.5313,616.0469 Q72.5313,614.7188 73.1484,613.5703 Q73.7656,612.4219 74.8594,611.8047 Q75.9531,611.1875 77.1875,611.1875 Q77.9219,611.1875 78.5703,611.3516 Q79.2188,611.5156 79.7656,611.875 Z "/><text fill="#000000" font-family="sans-serif" font-size="12" lengthAdjust="spacingAndGlyphs" textLength="64" x="91" y="620.9102">Abstracción</text><line style="stroke: #A80036; stroke-width: 1.5;" x1="63" x2="157" y1="632" y2="632"/><line style="stroke: #A80036; stroke-width: 1.5;" x1="63" x2="157" y1="640" y2="640"/><!--class Encapsulacion--><rect fill="#FF0000" filter="url(#fwf9whp96hmm9)" height="48" id="Encapsulacion" style="stroke: #A80036; stroke-width: 1.5;" width="114" x="193" y="600"/><rect fill="#FF0000" height="32" style="stroke: #A80036; stroke-width: 1.5;" width="114" x="193" y="600"/><ellipse cx="208" cy="616" fill="#ADD1B2" rx="11" ry="11" style="stroke: #A80036; stroke-width: 1.0;"/><path d="M210.7656,611.875 Q210.9219,611.6563 211.1094,611.5469 Q211.2969,611.4375 211.5156,611.4375 Q211.8906,611.4375 212.125,611.6953 Q212.3594,611.9531 212.3594,612.5625 L212.3594,614.0156 Q212.3594,614.625 212.125,614.8906 Q211.8906,615.1563 211.5156,615.1563 Q211.1719,615.1563 210.9688,614.9531 Q210.7656,614.7656 210.6563,614.25 Q210.6094,613.8906 210.4219,613.7031 Q210.0938,613.3281 209.4844,613.1094 Q208.875,612.8906 208.25,612.8906 Q207.4844,612.8906 206.8516,613.2188 Q206.2188,613.5469 205.7266,614.2969 Q205.2344,615.0469 205.2344,616.0781 L205.2344,617.1719 Q205.2344,618.4063 206.125,619.2266 Q207.0156,620.0469 208.6094,620.0469 Q209.5469,620.0469 210.2031,619.7969 Q210.5938,619.6406 211.0156,619.2031 Q211.2813,618.9375 211.4297,618.8594 Q211.5781,618.7813 211.7813,618.7813 Q212.1094,618.7813 212.3672,619.0391 Q212.625,619.2969 212.625,619.6406 Q212.625,619.9844 212.2813,620.3906 Q211.7813,620.9688 210.9844,621.2969 Q209.9063,621.75 208.6094,621.75 Q207.0938,621.75 205.8906,621.125 Q204.9063,620.625 204.2188,619.5547 Q203.5313,618.4844 203.5313,617.2031 L203.5313,616.0469 Q203.5313,614.7188 204.1484,613.5703 Q204.7656,612.4219 205.8594,611.8047 Q206.9531,611.1875 208.1875,611.1875 Q208.9219,611.1875 209.5703,611.3516 Q210.2188,611.5156 210.7656,611.875 Z "/><text fill="#000000" font-family="sans-serif" font-size="12" lengthAdjust="spacingAndGlyphs" textLength="82" x="222" y="620.9102">Encapsulación</text><line style="stroke: #A80036; stroke-width: 1.5;" x1="194" x2="306" y1="632" y2="632"/><line style="stroke: #A80036; stroke-width: 1.5;" x1="194" x2="306" y1="640" y2="640"/><!--class Modularizacion--><rect fill="#FF0000" filter="url(#fwf9whp96hmm9)" height="48" id="Modularizacion" style="stroke: #A80036; stroke-width: 1.5;" width="114" x="77" y="492"/><rect fill="#FF0000" height="32" style="stroke: #A80036; stroke-width: 1.5;" width="114" x="77" y="492"/><ellipse cx="92" cy="508" fill="#ADD1B2" rx="11" ry="11" style="stroke: #A80036; stroke-width: 1.0;"/><path d="M94.7656,503.875 Q94.9219,503.6563 95.1094,503.5469 Q95.2969,503.4375 95.5156,503.4375 Q95.8906,503.4375 96.125,503.6953 Q96.3594,503.9531 96.3594,504.5625 L96.3594,506.0156 Q96.3594,506.625 96.125,506.8906 Q95.8906,507.1563 95.5156,507.1563 Q95.1719,507.1563 94.9688,506.9531 Q94.7656,506.7656 94.6563,506.25 Q94.6094,505.8906 94.4219,505.7031 Q94.0938,505.3281 93.4844,505.1094 Q92.875,504.8906 92.25,504.8906 Q91.4844,504.8906 90.8516,505.2188 Q90.2188,505.5469 89.7266,506.2969 Q89.2344,507.0469 89.2344,508.0781 L89.2344,509.1719 Q89.2344,510.4063 90.125,511.2266 Q91.0156,512.0469 92.6094,512.0469 Q93.5469,512.0469 94.2031,511.7969 Q94.5938,511.6406 95.0156,511.2031 Q95.2813,510.9375 95.4297,510.8594 Q95.5781,510.7813 95.7813,510.7813 Q96.1094,510.7813 96.3672,511.0391 Q96.625,511.2969 96.625,511.6406 Q96.625,511.9844 96.2813,512.3906 Q95.7813,512.9688 94.9844,513.2969 Q93.9063,513.75 92.6094,513.75 Q91.0938,513.75 89.8906,513.125 Q88.9063,512.625 88.2188,511.5547 Q87.5313,510.4844 87.5313,509.2031 L87.5313,508.0469 Q87.5313,506.7188 88.1484,505.5703 Q88.7656,504.4219 89.8594,503.8047 Q90.9531,503.1875 92.1875,503.1875 Q92.9219,503.1875 93.5703,503.3516 Q94.2188,503.5156 94.7656,503.875 Z "/><text fill="#000000" font-family="sans-serif" font-size="12" lengthAdjust="spacingAndGlyphs" textLength="82" x="106" y="512.9102">Modularización</text><line style="stroke: #A80036; stroke-width: 1.5;" x1="78" x2="190" y1="524" y2="524"/><line style="stroke: #A80036; stroke-width: 1.5;" x1="78" x2="190" y1="532" y2="532"/><!--class Jeraquizacion--><rect fill="#FF0000" filter="url(#fwf9whp96hmm9)" height="48" id="Jeraquizacion" style="stroke: #A80036; stroke-width: 1.5;" width="112" x="78" y="384"/><rect fill="#FF0000" height="32" style="stroke: #A80036; stroke-width: 1.5;" width="112" x="78" y="384"/><ellipse cx="93" cy="400" fill="#ADD1B2" rx="11" ry="11" style="stroke: #A80036; stroke-width: 1.0;"/><path d="M95.7656,395.875 Q95.9219,395.6563 96.1094,395.5469 Q96.2969,395.4375 96.5156,395.4375 Q96.8906,395.4375 97.125,395.6953 Q97.3594,395.9531 97.3594,396.5625 L97.3594,398.0156 Q97.3594,398.625 97.125,398.8906 Q96.8906,399.1563 96.5156,399.1563 Q96.1719,399.1563 95.9688,398.9531 Q95.7656,398.7656 95.6563,398.25 Q95.6094,397.8906 95.4219,397.7031 Q95.0938,397.3281 94.4844,397.1094 Q93.875,396.8906 93.25,396.8906 Q92.4844,396.8906 91.8516,397.2188 Q91.2188,397.5469 90.7266,398.2969 Q90.2344,399.0469 90.2344,400.0781 L90.2344,401.1719 Q90.2344,402.4063 91.125,403.2266 Q92.0156,404.0469 93.6094,404.0469 Q94.5469,404.0469 95.2031,403.7969 Q95.5938,403.6406 96.0156,403.2031 Q96.2813,402.9375 96.4297,402.8594 Q96.5781,402.7813 96.7813,402.7813 Q97.1094,402.7813 97.3672,403.0391 Q97.625,403.2969 97.625,403.6406 Q97.625,403.9844 97.2813,404.3906 Q96.7813,404.9688 95.9844,405.2969 Q94.9063,405.75 93.6094,405.75 Q92.0938,405.75 90.8906,405.125 Q89.9063,404.625 89.2188,403.5547 Q88.5313,402.4844 88.5313,401.2031 L88.5313,400.0469 Q88.5313,398.7188 89.1484,397.5703 Q89.7656,396.4219 90.8594,395.8047 Q91.9531,395.1875 93.1875,395.1875 Q93.9219,395.1875 94.5703,395.3516 Q95.2188,395.5156 95.7656,395.875 Z "/><text fill="#000000" font-family="sans-serif" font-size="12" lengthAdjust="spacingAndGlyphs" textLength="80" x="107" y="404.9102">Jerarquización</text><line style="stroke: #A80036; stroke-width: 1.5;" x1="79" x2="189" y1="416" y2="416"/><line style="stroke: #A80036; stroke-width: 1.5;" x1="79" x2="189" y1="424" y2="424"/><!--link Capacidad to CapacidadCuantitativa--><path d="M363.892,121.809 C379.982,137.036 398.156,154.237 412.358,167.678 " fill="none" id="Capacidad-CapacidadCuantitativa" style="stroke: #A80036; stroke-width: 1.0;"/><polygon fill="none" points="359.017,126.832,349.302,108,368.64,116.664,359.017,126.832" style="stroke: #A80036; stroke-width: 1.0;"/><!--link CapacidadCuantitativa to Limitacion--><path d="M497.974,221.598 C531.613,237.376 573.12,256.844 606.091,272.308 " fill="none" id="CapacidadCuantitativa-Limitacion" style="stroke: #A80036; stroke-width: 1.0;"/><polygon fill="#A80036" points="618.276,278.023,611.8261,270.58,613.7491,275.8999,608.4292,277.823,618.276,278.023" style="stroke: #A80036; stroke-width: 1.0;"/><line style="stroke: #A80036; stroke-width: 1.0;" x1="613.7491" x2="606.506" y1="275.8999" y2="272.5025"/><polygon fill="#A80036" points="486.039,216,489.7728,222.1692,496.9035,221.0953,493.1697,214.9262,486.039,216" style="stroke: #A80036; stroke-width: 1.0;"/><!--link CapacidadCuantitativa to MagicoMiller--><path d="M404.87,231.702 C392.628,246.448 379.06,262.791 368.361,275.678 " fill="none" id="CapacidadCuantitativa-MagicoMiller" style="stroke: #A80036; stroke-width: 1.0;"/><polygon fill="none" points="399.744,226.917,417.905,216,410.516,235.86,399.744,226.917" style="stroke: #A80036; stroke-width: 1.0;"/><!--link CapacidadCuantitativa to EnfoqueVisual--><path d="M469.495,231.702 C481.877,246.448 495.598,262.791 506.419,275.678 " fill="none" id="CapacidadCuantitativa-EnfoqueVisual" style="stroke: #A80036; stroke-width: 1.0;"/><polygon fill="none" points="463.811,235.819,456.312,216,474.533,226.816,463.811,235.819" style="stroke: #A80036; stroke-width: 1.0;"/><!--link Capacidad to CapacidadCualitativa--><path d="M290.836,123.278 C251.31,167.564 187.484,239.075 154.778,275.72 " fill="none" id="Capacidad-CapacidadCualitativa" style="stroke: #A80036; stroke-width: 1.0;"/><polygon fill="none" points="285.656,118.569,304.196,108.309,296.101,127.892,285.656,118.569" style="stroke: #A80036; stroke-width: 1.0;"/><!--link Limitacion to CapacidadCualitativa--><path d="M631.908,272.508 C618.081,262.056 600.988,251.378 583.5,246 C448.41,204.459 404.16,218.639 265.5,246 C235.96,251.829 204.71,264.366 180.089,275.894 " fill="none" id="Limitacion-CapacidadCualitativa" style="stroke: #A80036; stroke-width: 1.0;"/><polygon fill="#A80036" points="636.092,275.738,631.4153,267.0703,632.1353,272.6812,626.5244,273.4011,636.092,275.738" style="stroke: #A80036; stroke-width: 1.0;"/><!--link CapacidadCualitativa to Jeraquizacion--><path d="M134,337.338 C134,348.006 134,359.677 134,370.364 " fill="none" id="CapacidadCualitativa-Jeraquizacion" style="stroke: #A80036; stroke-width: 1.0;"/><polygon fill="#A80036" points="134,383.678,138,374.678,134,378.678,130,374.678,134,383.678" style="stroke: #A80036; stroke-width: 1.0;"/><line style="stroke: #A80036; stroke-width: 1.0;" x1="134" x2="134" y1="378.678" y2="370.678"/><polygon fill="#A80036" points="134,324,130,330,134,336,138,330,134,324" style="stroke: #A80036; stroke-width: 1.0;"/><!--link Modularizacion to Abstraccion--><path d="M125.879,552.869 C123.391,563.858 120.654,575.947 118.163,586.9473 " fill="none" id="Modularizacion-Abstraccion" style="stroke: #A80036; stroke-width: 1.0;"/><polygon fill="#A80036" points="115.28,599.6784,121.1685,591.7838,116.384,594.8018,113.366,590.0173,115.28,599.6784" style="stroke: #A80036; stroke-width: 1.0;"/><line style="stroke: #A80036; stroke-width: 1.0;" x1="116.384" x2="118.151" y1="594.8018" y2="586.9994"/><polygon fill="#A80036" points="128.792,540,123.566,544.9688,126.1426,551.7039,131.3686,546.7351,128.792,540" style="stroke: #A80036; stroke-width: 1.0;"/><!--link Modularizacion to Encapsulacion--><path d="M168.953,548.94 C183.472,562.207 200.291,577.576 214.832,590.8635 " fill="none" id="Modularizacion-Encapsulacion" style="stroke: #A80036; stroke-width: 1.0;"/><polygon fill="#A80036" points="224.478,599.6784,220.5327,590.6543,220.7871,596.3054,215.1359,596.5598,224.478,599.6784" style="stroke: #A80036; stroke-width: 1.0;"/><line style="stroke: #A80036; stroke-width: 1.0;" x1="220.7871" x2="214.8815" y1="596.3054" y2="590.909"/><polygon fill="#A80036" points="159.17,540,160.9015,547.0001,168.0291,548.0942,166.2976,541.0941,159.17,540" style="stroke: #A80036; stroke-width: 1.0;"/><!--link Jeraquizacion to Modularizacion--><path d="M134,445.338 C134,456.006 134,467.677 134,478.364 " fill="none" id="Jeraquizacion-Modularizacion" style="stroke: #A80036; stroke-width: 1.0;"/><polygon fill="#A80036" points="134,491.678,138,482.678,134,486.678,130,482.678,134,491.678" style="stroke: #A80036; stroke-width: 1.0;"/><line style="stroke: #A80036; stroke-width: 1.0;" x1="134" x2="134" y1="486.678" y2="478.678"/><polygon fill="#A80036" points="134,432,130,438,134,444,138,438,134,432" style="stroke: #A80036; stroke-width: 1.0;"/><!--
@startuml

together capacidades {

class "Capacidad Mental" as Capacidad #red

class "Limitación" as Limitacion #red

class "Capacidad Mental Cuantitativa" as CapacidadCuantitativa #red

class "Número Mágico de Miller" as MagicoMiller #red

class "Enfoque Visual" as EnfoqueVisual #red

class "Capacidad Mental Cualitativa" as CapacidadCualitativa #red

class "Abstracción" as Abstraccion #red

class "Encapsulación" as Encapsulacion #red

class "Modularización" as Modularizacion #red

class "Jerarquización" as Jeraquizacion #red

}

Capacidad<|-down- CapacidadCuantitativa
CapacidadCuantitativa *-down-> Limitacion

CapacidadCuantitativa <|-down- MagicoMiller

CapacidadCuantitativa <|-down- EnfoqueVisual

Capacidad<|-down- CapacidadCualitativa
CapacidadCualitativa -left-> Limitacion

CapacidadCualitativa *-down-> Jeraquizacion
Modularizacion *-down-> Abstraccion
Modularizacion *-down-> Encapsulacion
Jeraquizacion *-down-> Modularizacion


@enduml

PlantUML version 1.2019.05(Sat Apr 20 18:45:36 CEST 2019)
(GPL source distribution)
Java Runtime: OpenJDK Runtime Environment
JVM: OpenJDK 64-Bit Server VM
Java Version: 1.8.0_222-b10
Operating System: Windows 10
OS Version: 10.0
Default Encoding: windows-1252
Language: es
Country: ES
--></g></svg>