<?xml version="1.0" encoding="UTF-8" standalone="no"?><svg xmlns="http://www.w3.org/2000/svg" xmlns:xlink="http://www.w3.org/1999/xlink" contentScriptType="application/ecmascript" contentStyleType="text/css" height="839px" preserveAspectRatio="none" style="width:1554px;height:839px;" version="1.1" viewBox="0 0 1554 839" width="1554px" zoomAndPan="magnify"><defs><filter height="300%" id="fze64mlp7rlwl" width="300%" x="-1" y="-1"><feGaussianBlur result="blurOut" stdDeviation="2.0"/><feColorMatrix in="blurOut" result="blurOut2" type="matrix" values="0 0 0 0 0 0 0 0 0 0 0 0 0 0 0 0 0 0 .4 0"/><feOffset dx="4.0" dy="4.0" in="blurOut2" result="blurOut3"/><feBlend in="SourceGraphic" in2="blurOut3" mode="normal"/></filter></defs><g><!--cluster modularizacion--><!--cluster sistemas--><!--cluster capacidades--><!--cluster efectividad--><!--class Interfaz--><rect fill="#0000FF" filter="url(#fze64mlp7rlwl)" height="48" id="Interfaz" style="stroke: #A80036; stroke-width: 1.5;" width="71" x="1428.5" y="456"/><rect fill="#0000FF" height="32" style="stroke: #A80036; stroke-width: 1.5;" width="71" x="1428.5" y="456"/><ellipse cx="1443.5" cy="472" fill="#ADD1B2" rx="11" ry="11" style="stroke: #A80036; stroke-width: 1.0;"/><path d="M1446.2656,467.875 Q1446.4219,467.6563 1446.6094,467.5469 Q1446.7969,467.4375 1447.0156,467.4375 Q1447.3906,467.4375 1447.625,467.6953 Q1447.8594,467.9531 1447.8594,468.5625 L1447.8594,470.0156 Q1447.8594,470.625 1447.625,470.8906 Q1447.3906,471.1563 1447.0156,471.1563 Q1446.6719,471.1563 1446.4688,470.9531 Q1446.2656,470.7656 1446.1563,470.25 Q1446.1094,469.8906 1445.9219,469.7031 Q1445.5938,469.3281 1444.9844,469.1094 Q1444.375,468.8906 1443.75,468.8906 Q1442.9844,468.8906 1442.3516,469.2188 Q1441.7188,469.5469 1441.2266,470.2969 Q1440.7344,471.0469 1440.7344,472.0781 L1440.7344,473.1719 Q1440.7344,474.4063 1441.625,475.2266 Q1442.5156,476.0469 1444.1094,476.0469 Q1445.0469,476.0469 1445.7031,475.7969 Q1446.0938,475.6406 1446.5156,475.2031 Q1446.7813,474.9375 1446.9297,474.8594 Q1447.0781,474.7813 1447.2813,474.7813 Q1447.6094,474.7813 1447.8672,475.0391 Q1448.125,475.2969 1448.125,475.6406 Q1448.125,475.9844 1447.7813,476.3906 Q1447.2813,476.9688 1446.4844,477.2969 Q1445.4063,477.75 1444.1094,477.75 Q1442.5938,477.75 1441.3906,477.125 Q1440.4063,476.625 1439.7188,475.5547 Q1439.0313,474.4844 1439.0313,473.2031 L1439.0313,472.0469 Q1439.0313,470.7188 1439.6484,469.5703 Q1440.2656,468.4219 1441.3594,467.8047 Q1442.4531,467.1875 1443.6875,467.1875 Q1444.4219,467.1875 1445.0703,467.3516 Q1445.7188,467.5156 1446.2656,467.875 Z "/><text fill="#000000" font-family="sans-serif" font-size="12" lengthAdjust="spacingAndGlyphs" textLength="39" x="1457.5" y="476.9102">Interfaz</text><line style="stroke: #A80036; stroke-width: 1.5;" x1="1429.5" x2="1498.5" y1="488" y2="488"/><line style="stroke: #A80036; stroke-width: 1.5;" x1="1429.5" x2="1498.5" y1="496" y2="496"/><!--class Implementacion--><rect fill="#0000FF" filter="url(#fze64mlp7rlwl)" height="48" id="Implementacion" style="stroke: #A80036; stroke-width: 1.5;" width="121" x="1378.5" y="564"/><rect fill="#0000FF" height="32" style="stroke: #A80036; stroke-width: 1.5;" width="121" x="1378.5" y="564"/><ellipse cx="1393.5" cy="580" fill="#ADD1B2" rx="11" ry="11" style="stroke: #A80036; stroke-width: 1.0;"/><path d="M1396.2656,575.875 Q1396.4219,575.6563 1396.6094,575.5469 Q1396.7969,575.4375 1397.0156,575.4375 Q1397.3906,575.4375 1397.625,575.6953 Q1397.8594,575.9531 1397.8594,576.5625 L1397.8594,578.0156 Q1397.8594,578.625 1397.625,578.8906 Q1397.3906,579.1563 1397.0156,579.1563 Q1396.6719,579.1563 1396.4688,578.9531 Q1396.2656,578.7656 1396.1563,578.25 Q1396.1094,577.8906 1395.9219,577.7031 Q1395.5938,577.3281 1394.9844,577.1094 Q1394.375,576.8906 1393.75,576.8906 Q1392.9844,576.8906 1392.3516,577.2188 Q1391.7188,577.5469 1391.2266,578.2969 Q1390.7344,579.0469 1390.7344,580.0781 L1390.7344,581.1719 Q1390.7344,582.4063 1391.625,583.2266 Q1392.5156,584.0469 1394.1094,584.0469 Q1395.0469,584.0469 1395.7031,583.7969 Q1396.0938,583.6406 1396.5156,583.2031 Q1396.7813,582.9375 1396.9297,582.8594 Q1397.0781,582.7813 1397.2813,582.7813 Q1397.6094,582.7813 1397.8672,583.0391 Q1398.125,583.2969 1398.125,583.6406 Q1398.125,583.9844 1397.7813,584.3906 Q1397.2813,584.9688 1396.4844,585.2969 Q1395.4063,585.75 1394.1094,585.75 Q1392.5938,585.75 1391.3906,585.125 Q1390.4063,584.625 1389.7188,583.5547 Q1389.0313,582.4844 1389.0313,581.2031 L1389.0313,580.0469 Q1389.0313,578.7188 1389.6484,577.5703 Q1390.2656,576.4219 1391.3594,575.8047 Q1392.4531,575.1875 1393.6875,575.1875 Q1394.4219,575.1875 1395.0703,575.3516 Q1395.7188,575.5156 1396.2656,575.875 Z "/><text fill="#000000" font-family="sans-serif" font-size="12" lengthAdjust="spacingAndGlyphs" textLength="89" x="1407.5" y="584.9102">Implementación</text><line style="stroke: #A80036; stroke-width: 1.5;" x1="1379.5" x2="1498.5" y1="596" y2="596"/><line style="stroke: #A80036; stroke-width: 1.5;" x1="1379.5" x2="1498.5" y1="604" y2="604"/><!--class Acoplamiento--><rect fill="#0000FF" filter="url(#fze64mlp7rlwl)" height="48" id="Acoplamiento" style="stroke: #A80036; stroke-width: 1.5;" width="107" x="1286.5" y="456"/><rect fill="#0000FF" height="32" style="stroke: #A80036; stroke-width: 1.5;" width="107" x="1286.5" y="456"/><ellipse cx="1301.5" cy="472" fill="#ADD1B2" rx="11" ry="11" style="stroke: #A80036; stroke-width: 1.0;"/><path d="M1304.2656,467.875 Q1304.4219,467.6563 1304.6094,467.5469 Q1304.7969,467.4375 1305.0156,467.4375 Q1305.3906,467.4375 1305.625,467.6953 Q1305.8594,467.9531 1305.8594,468.5625 L1305.8594,470.0156 Q1305.8594,470.625 1305.625,470.8906 Q1305.3906,471.1563 1305.0156,471.1563 Q1304.6719,471.1563 1304.4688,470.9531 Q1304.2656,470.7656 1304.1563,470.25 Q1304.1094,469.8906 1303.9219,469.7031 Q1303.5938,469.3281 1302.9844,469.1094 Q1302.375,468.8906 1301.75,468.8906 Q1300.9844,468.8906 1300.3516,469.2188 Q1299.7188,469.5469 1299.2266,470.2969 Q1298.7344,471.0469 1298.7344,472.0781 L1298.7344,473.1719 Q1298.7344,474.4063 1299.625,475.2266 Q1300.5156,476.0469 1302.1094,476.0469 Q1303.0469,476.0469 1303.7031,475.7969 Q1304.0938,475.6406 1304.5156,475.2031 Q1304.7813,474.9375 1304.9297,474.8594 Q1305.0781,474.7813 1305.2813,474.7813 Q1305.6094,474.7813 1305.8672,475.0391 Q1306.125,475.2969 1306.125,475.6406 Q1306.125,475.9844 1305.7813,476.3906 Q1305.2813,476.9688 1304.4844,477.2969 Q1303.4063,477.75 1302.1094,477.75 Q1300.5938,477.75 1299.3906,477.125 Q1298.4063,476.625 1297.7188,475.5547 Q1297.0313,474.4844 1297.0313,473.2031 L1297.0313,472.0469 Q1297.0313,470.7188 1297.6484,469.5703 Q1298.2656,468.4219 1299.3594,467.8047 Q1300.4531,467.1875 1301.6875,467.1875 Q1302.4219,467.1875 1303.0703,467.3516 Q1303.7188,467.5156 1304.2656,467.875 Z "/><text fill="#000000" font-family="sans-serif" font-size="12" lengthAdjust="spacingAndGlyphs" textLength="75" x="1315.5" y="476.9102">Acoplamiento</text><line style="stroke: #A80036; stroke-width: 1.5;" x1="1287.5" x2="1392.5" y1="488" y2="488"/><line style="stroke: #A80036; stroke-width: 1.5;" x1="1287.5" x2="1392.5" y1="496" y2="496"/><!--class Cohesion--><rect fill="#0000FF" filter="url(#fze64mlp7rlwl)" height="48" id="Cohesion" style="stroke: #A80036; stroke-width: 1.5;" width="86" x="1165" y="456"/><rect fill="#0000FF" height="32" style="stroke: #A80036; stroke-width: 1.5;" width="86" x="1165" y="456"/><ellipse cx="1180" cy="472" fill="#ADD1B2" rx="11" ry="11" style="stroke: #A80036; stroke-width: 1.0;"/><path d="M1182.7656,467.875 Q1182.9219,467.6563 1183.1094,467.5469 Q1183.2969,467.4375 1183.5156,467.4375 Q1183.8906,467.4375 1184.125,467.6953 Q1184.3594,467.9531 1184.3594,468.5625 L1184.3594,470.0156 Q1184.3594,470.625 1184.125,470.8906 Q1183.8906,471.1563 1183.5156,471.1563 Q1183.1719,471.1563 1182.9688,470.9531 Q1182.7656,470.7656 1182.6563,470.25 Q1182.6094,469.8906 1182.4219,469.7031 Q1182.0938,469.3281 1181.4844,469.1094 Q1180.875,468.8906 1180.25,468.8906 Q1179.4844,468.8906 1178.8516,469.2188 Q1178.2188,469.5469 1177.7266,470.2969 Q1177.2344,471.0469 1177.2344,472.0781 L1177.2344,473.1719 Q1177.2344,474.4063 1178.125,475.2266 Q1179.0156,476.0469 1180.6094,476.0469 Q1181.5469,476.0469 1182.2031,475.7969 Q1182.5938,475.6406 1183.0156,475.2031 Q1183.2813,474.9375 1183.4297,474.8594 Q1183.5781,474.7813 1183.7813,474.7813 Q1184.1094,474.7813 1184.3672,475.0391 Q1184.625,475.2969 1184.625,475.6406 Q1184.625,475.9844 1184.2813,476.3906 Q1183.7813,476.9688 1182.9844,477.2969 Q1181.9063,477.75 1180.6094,477.75 Q1179.0938,477.75 1177.8906,477.125 Q1176.9063,476.625 1176.2188,475.5547 Q1175.5313,474.4844 1175.5313,473.2031 L1175.5313,472.0469 Q1175.5313,470.7188 1176.1484,469.5703 Q1176.7656,468.4219 1177.8594,467.8047 Q1178.9531,467.1875 1180.1875,467.1875 Q1180.9219,467.1875 1181.5703,467.3516 Q1182.2188,467.5156 1182.7656,467.875 Z "/><text fill="#000000" font-family="sans-serif" font-size="12" lengthAdjust="spacingAndGlyphs" textLength="54" x="1194" y="476.9102">Cohesión</text><line style="stroke: #A80036; stroke-width: 1.5;" x1="1166" x2="1250" y1="488" y2="488"/><line style="stroke: #A80036; stroke-width: 1.5;" x1="1166" x2="1250" y1="496" y2="496"/><!--class Sistema--><rect fill="#FFA500" filter="url(#fze64mlp7rlwl)" height="48" id="Sistema" style="stroke: #A80036; stroke-width: 1.5;" width="78" x="1188" y="224"/><rect fill="#FFA500" height="32" style="stroke: #A80036; stroke-width: 1.5;" width="78" x="1188" y="224"/><ellipse cx="1203" cy="240" fill="#ADD1B2" rx="11" ry="11" style="stroke: #A80036; stroke-width: 1.0;"/><path d="M1205.7656,235.875 Q1205.9219,235.6563 1206.1094,235.5469 Q1206.2969,235.4375 1206.5156,235.4375 Q1206.8906,235.4375 1207.125,235.6953 Q1207.3594,235.9531 1207.3594,236.5625 L1207.3594,238.0156 Q1207.3594,238.625 1207.125,238.8906 Q1206.8906,239.1563 1206.5156,239.1563 Q1206.1719,239.1563 1205.9688,238.9531 Q1205.7656,238.7656 1205.6563,238.25 Q1205.6094,237.8906 1205.4219,237.7031 Q1205.0938,237.3281 1204.4844,237.1094 Q1203.875,236.8906 1203.25,236.8906 Q1202.4844,236.8906 1201.8516,237.2188 Q1201.2188,237.5469 1200.7266,238.2969 Q1200.2344,239.0469 1200.2344,240.0781 L1200.2344,241.1719 Q1200.2344,242.4063 1201.125,243.2266 Q1202.0156,244.0469 1203.6094,244.0469 Q1204.5469,244.0469 1205.2031,243.7969 Q1205.5938,243.6406 1206.0156,243.2031 Q1206.2813,242.9375 1206.4297,242.8594 Q1206.5781,242.7813 1206.7813,242.7813 Q1207.1094,242.7813 1207.3672,243.0391 Q1207.625,243.2969 1207.625,243.6406 Q1207.625,243.9844 1207.2813,244.3906 Q1206.7813,244.9688 1205.9844,245.2969 Q1204.9063,245.75 1203.6094,245.75 Q1202.0938,245.75 1200.8906,245.125 Q1199.9063,244.625 1199.2188,243.5547 Q1198.5313,242.4844 1198.5313,241.2031 L1198.5313,240.0469 Q1198.5313,238.7188 1199.1484,237.5703 Q1199.7656,236.4219 1200.8594,235.8047 Q1201.9531,235.1875 1203.1875,235.1875 Q1203.9219,235.1875 1204.5703,235.3516 Q1205.2188,235.5156 1205.7656,235.875 Z "/><text fill="#000000" font-family="sans-serif" font-size="12" lengthAdjust="spacingAndGlyphs" textLength="46" x="1217" y="244.9102">Sistema</text><line style="stroke: #A80036; stroke-width: 1.5;" x1="1189" x2="1265" y1="256" y2="256"/><line style="stroke: #A80036; stroke-width: 1.5;" x1="1189" x2="1265" y1="264" y2="264"/><!--class TipoElemento--><rect fill="#FFA500" filter="url(#fze64mlp7rlwl)" height="48" id="TipoElemento" style="stroke: #A80036; stroke-width: 1.5;" width="172" x="1188" y="332"/><rect fill="#FFA500" height="32" style="stroke: #A80036; stroke-width: 1.5;" width="172" x="1188" y="332"/><ellipse cx="1203" cy="348" fill="#ADD1B2" rx="11" ry="11" style="stroke: #A80036; stroke-width: 1.0;"/><path d="M1205.7656,343.875 Q1205.9219,343.6563 1206.1094,343.5469 Q1206.2969,343.4375 1206.5156,343.4375 Q1206.8906,343.4375 1207.125,343.6953 Q1207.3594,343.9531 1207.3594,344.5625 L1207.3594,346.0156 Q1207.3594,346.625 1207.125,346.8906 Q1206.8906,347.1563 1206.5156,347.1563 Q1206.1719,347.1563 1205.9688,346.9531 Q1205.7656,346.7656 1205.6563,346.25 Q1205.6094,345.8906 1205.4219,345.7031 Q1205.0938,345.3281 1204.4844,345.1094 Q1203.875,344.8906 1203.25,344.8906 Q1202.4844,344.8906 1201.8516,345.2188 Q1201.2188,345.5469 1200.7266,346.2969 Q1200.2344,347.0469 1200.2344,348.0781 L1200.2344,349.1719 Q1200.2344,350.4063 1201.125,351.2266 Q1202.0156,352.0469 1203.6094,352.0469 Q1204.5469,352.0469 1205.2031,351.7969 Q1205.5938,351.6406 1206.0156,351.2031 Q1206.2813,350.9375 1206.4297,350.8594 Q1206.5781,350.7813 1206.7813,350.7813 Q1207.1094,350.7813 1207.3672,351.0391 Q1207.625,351.2969 1207.625,351.6406 Q1207.625,351.9844 1207.2813,352.3906 Q1206.7813,352.9688 1205.9844,353.2969 Q1204.9063,353.75 1203.6094,353.75 Q1202.0938,353.75 1200.8906,353.125 Q1199.9063,352.625 1199.2188,351.5547 Q1198.5313,350.4844 1198.5313,349.2031 L1198.5313,348.0469 Q1198.5313,346.7188 1199.1484,345.5703 Q1199.7656,344.4219 1200.8594,343.8047 Q1201.9531,343.1875 1203.1875,343.1875 Q1203.9219,343.1875 1204.5703,343.3516 Q1205.2188,343.5156 1205.7656,343.875 Z "/><text fill="#000000" font-family="sans-serif" font-size="12" lengthAdjust="spacingAndGlyphs" textLength="140" x="1217" y="352.9102">Tipo de Elemento/Modulo</text><line style="stroke: #A80036; stroke-width: 1.5;" x1="1189" x2="1359" y1="364" y2="364"/><line style="stroke: #A80036; stroke-width: 1.5;" x1="1189" x2="1359" y1="372" y2="372"/><!--class Capacidad--><rect fill="#FF0000" filter="url(#fze64mlp7rlwl)" height="48" id="Capacidad" style="stroke: #A80036; stroke-width: 1.5;" width="131" x="320.5" y="224"/><rect fill="#FF0000" height="32" style="stroke: #A80036; stroke-width: 1.5;" width="131" x="320.5" y="224"/><ellipse cx="335.5" cy="240" fill="#ADD1B2" rx="11" ry="11" style="stroke: #A80036; stroke-width: 1.0;"/><path d="M338.2656,235.875 Q338.4219,235.6563 338.6094,235.5469 Q338.7969,235.4375 339.0156,235.4375 Q339.3906,235.4375 339.625,235.6953 Q339.8594,235.9531 339.8594,236.5625 L339.8594,238.0156 Q339.8594,238.625 339.625,238.8906 Q339.3906,239.1563 339.0156,239.1563 Q338.6719,239.1563 338.4688,238.9531 Q338.2656,238.7656 338.1563,238.25 Q338.1094,237.8906 337.9219,237.7031 Q337.5938,237.3281 336.9844,237.1094 Q336.375,236.8906 335.75,236.8906 Q334.9844,236.8906 334.3516,237.2188 Q333.7188,237.5469 333.2266,238.2969 Q332.7344,239.0469 332.7344,240.0781 L332.7344,241.1719 Q332.7344,242.4063 333.625,243.2266 Q334.5156,244.0469 336.1094,244.0469 Q337.0469,244.0469 337.7031,243.7969 Q338.0938,243.6406 338.5156,243.2031 Q338.7813,242.9375 338.9297,242.8594 Q339.0781,242.7813 339.2813,242.7813 Q339.6094,242.7813 339.8672,243.0391 Q340.125,243.2969 340.125,243.6406 Q340.125,243.9844 339.7813,244.3906 Q339.2813,244.9688 338.4844,245.2969 Q337.4063,245.75 336.1094,245.75 Q334.5938,245.75 333.3906,245.125 Q332.4063,244.625 331.7188,243.5547 Q331.0313,242.4844 331.0313,241.2031 L331.0313,240.0469 Q331.0313,238.7188 331.6484,237.5703 Q332.2656,236.4219 333.3594,235.8047 Q334.4531,235.1875 335.6875,235.1875 Q336.4219,235.1875 337.0703,235.3516 Q337.7188,235.5156 338.2656,235.875 Z "/><text fill="#000000" font-family="sans-serif" font-size="12" lengthAdjust="spacingAndGlyphs" textLength="99" x="349.5" y="244.9102">Capacidad Mental</text><line style="stroke: #A80036; stroke-width: 1.5;" x1="321.5" x2="450.5" y1="256" y2="256"/><line style="stroke: #A80036; stroke-width: 1.5;" x1="321.5" x2="450.5" y1="264" y2="264"/><!--class Limitacion--><rect fill="#FF0000" filter="url(#fze64mlp7rlwl)" height="48" id="Limitacion" style="stroke: #A80036; stroke-width: 1.5;" width="89" x="516.5" y="456"/><rect fill="#FF0000" height="32" style="stroke: #A80036; stroke-width: 1.5;" width="89" x="516.5" y="456"/><ellipse cx="531.5" cy="472" fill="#ADD1B2" rx="11" ry="11" style="stroke: #A80036; stroke-width: 1.0;"/><path d="M534.2656,467.875 Q534.4219,467.6563 534.6094,467.5469 Q534.7969,467.4375 535.0156,467.4375 Q535.3906,467.4375 535.625,467.6953 Q535.8594,467.9531 535.8594,468.5625 L535.8594,470.0156 Q535.8594,470.625 535.625,470.8906 Q535.3906,471.1563 535.0156,471.1563 Q534.6719,471.1563 534.4688,470.9531 Q534.2656,470.7656 534.1563,470.25 Q534.1094,469.8906 533.9219,469.7031 Q533.5938,469.3281 532.9844,469.1094 Q532.375,468.8906 531.75,468.8906 Q530.9844,468.8906 530.3516,469.2188 Q529.7188,469.5469 529.2266,470.2969 Q528.7344,471.0469 528.7344,472.0781 L528.7344,473.1719 Q528.7344,474.4063 529.625,475.2266 Q530.5156,476.0469 532.1094,476.0469 Q533.0469,476.0469 533.7031,475.7969 Q534.0938,475.6406 534.5156,475.2031 Q534.7813,474.9375 534.9297,474.8594 Q535.0781,474.7813 535.2813,474.7813 Q535.6094,474.7813 535.8672,475.0391 Q536.125,475.2969 536.125,475.6406 Q536.125,475.9844 535.7813,476.3906 Q535.2813,476.9688 534.4844,477.2969 Q533.4063,477.75 532.1094,477.75 Q530.5938,477.75 529.3906,477.125 Q528.4063,476.625 527.7188,475.5547 Q527.0313,474.4844 527.0313,473.2031 L527.0313,472.0469 Q527.0313,470.7188 527.6484,469.5703 Q528.2656,468.4219 529.3594,467.8047 Q530.4531,467.1875 531.6875,467.1875 Q532.4219,467.1875 533.0703,467.3516 Q533.7188,467.5156 534.2656,467.875 Z "/><text fill="#000000" font-family="sans-serif" font-size="12" lengthAdjust="spacingAndGlyphs" textLength="57" x="545.5" y="476.9102">Limitación</text><line style="stroke: #A80036; stroke-width: 1.5;" x1="517.5" x2="604.5" y1="488" y2="488"/><line style="stroke: #A80036; stroke-width: 1.5;" x1="517.5" x2="604.5" y1="496" y2="496"/><!--class CapacidadCuantitativa--><rect fill="#FF0000" filter="url(#fze64mlp7rlwl)" height="48" id="CapacidadCuantitativa" style="stroke: #A80036; stroke-width: 1.5;" width="198" x="544" y="332"/><rect fill="#FF0000" height="32" style="stroke: #A80036; stroke-width: 1.5;" width="198" x="544" y="332"/><ellipse cx="559" cy="348" fill="#ADD1B2" rx="11" ry="11" style="stroke: #A80036; stroke-width: 1.0;"/><path d="M561.7656,343.875 Q561.9219,343.6563 562.1094,343.5469 Q562.2969,343.4375 562.5156,343.4375 Q562.8906,343.4375 563.125,343.6953 Q563.3594,343.9531 563.3594,344.5625 L563.3594,346.0156 Q563.3594,346.625 563.125,346.8906 Q562.8906,347.1563 562.5156,347.1563 Q562.1719,347.1563 561.9688,346.9531 Q561.7656,346.7656 561.6563,346.25 Q561.6094,345.8906 561.4219,345.7031 Q561.0938,345.3281 560.4844,345.1094 Q559.875,344.8906 559.25,344.8906 Q558.4844,344.8906 557.8516,345.2188 Q557.2188,345.5469 556.7266,346.2969 Q556.2344,347.0469 556.2344,348.0781 L556.2344,349.1719 Q556.2344,350.4063 557.125,351.2266 Q558.0156,352.0469 559.6094,352.0469 Q560.5469,352.0469 561.2031,351.7969 Q561.5938,351.6406 562.0156,351.2031 Q562.2813,350.9375 562.4297,350.8594 Q562.5781,350.7813 562.7813,350.7813 Q563.1094,350.7813 563.3672,351.0391 Q563.625,351.2969 563.625,351.6406 Q563.625,351.9844 563.2813,352.3906 Q562.7813,352.9688 561.9844,353.2969 Q560.9063,353.75 559.6094,353.75 Q558.0938,353.75 556.8906,353.125 Q555.9063,352.625 555.2188,351.5547 Q554.5313,350.4844 554.5313,349.2031 L554.5313,348.0469 Q554.5313,346.7188 555.1484,345.5703 Q555.7656,344.4219 556.8594,343.8047 Q557.9531,343.1875 559.1875,343.1875 Q559.9219,343.1875 560.5703,343.3516 Q561.2188,343.5156 561.7656,343.875 Z "/><text fill="#000000" font-family="sans-serif" font-size="12" lengthAdjust="spacingAndGlyphs" textLength="166" x="573" y="352.9102">Capacidad Mental Cuantitativa</text><line style="stroke: #A80036; stroke-width: 1.5;" x1="545" x2="741" y1="364" y2="364"/><line style="stroke: #A80036; stroke-width: 1.5;" x1="545" x2="741" y1="372" y2="372"/><!--class MagicoMiller--><rect fill="#FF0000" filter="url(#fze64mlp7rlwl)" height="48" id="MagicoMiller" style="stroke: #A80036; stroke-width: 1.5;" width="168" x="641" y="456"/><rect fill="#FF0000" height="32" style="stroke: #A80036; stroke-width: 1.5;" width="168" x="641" y="456"/><ellipse cx="656" cy="472" fill="#ADD1B2" rx="11" ry="11" style="stroke: #A80036; stroke-width: 1.0;"/><path d="M658.7656,467.875 Q658.9219,467.6563 659.1094,467.5469 Q659.2969,467.4375 659.5156,467.4375 Q659.8906,467.4375 660.125,467.6953 Q660.3594,467.9531 660.3594,468.5625 L660.3594,470.0156 Q660.3594,470.625 660.125,470.8906 Q659.8906,471.1563 659.5156,471.1563 Q659.1719,471.1563 658.9688,470.9531 Q658.7656,470.7656 658.6563,470.25 Q658.6094,469.8906 658.4219,469.7031 Q658.0938,469.3281 657.4844,469.1094 Q656.875,468.8906 656.25,468.8906 Q655.4844,468.8906 654.8516,469.2188 Q654.2188,469.5469 653.7266,470.2969 Q653.2344,471.0469 653.2344,472.0781 L653.2344,473.1719 Q653.2344,474.4063 654.125,475.2266 Q655.0156,476.0469 656.6094,476.0469 Q657.5469,476.0469 658.2031,475.7969 Q658.5938,475.6406 659.0156,475.2031 Q659.2813,474.9375 659.4297,474.8594 Q659.5781,474.7813 659.7813,474.7813 Q660.1094,474.7813 660.3672,475.0391 Q660.625,475.2969 660.625,475.6406 Q660.625,475.9844 660.2813,476.3906 Q659.7813,476.9688 658.9844,477.2969 Q657.9063,477.75 656.6094,477.75 Q655.0938,477.75 653.8906,477.125 Q652.9063,476.625 652.2188,475.5547 Q651.5313,474.4844 651.5313,473.2031 L651.5313,472.0469 Q651.5313,470.7188 652.1484,469.5703 Q652.7656,468.4219 653.8594,467.8047 Q654.9531,467.1875 656.1875,467.1875 Q656.9219,467.1875 657.5703,467.3516 Q658.2188,467.5156 658.7656,467.875 Z "/><text fill="#000000" font-family="sans-serif" font-size="12" lengthAdjust="spacingAndGlyphs" textLength="136" x="670" y="476.9102">Número Mágico de Miller</text><line style="stroke: #A80036; stroke-width: 1.5;" x1="642" x2="808" y1="488" y2="488"/><line style="stroke: #A80036; stroke-width: 1.5;" x1="642" x2="808" y1="496" y2="496"/><!--class EnfoqueVisual--><rect fill="#FF0000" filter="url(#fze64mlp7rlwl)" height="48" id="EnfoqueVisual" style="stroke: #A80036; stroke-width: 1.5;" width="115" x="844.5" y="456"/><rect fill="#FF0000" height="32" style="stroke: #A80036; stroke-width: 1.5;" width="115" x="844.5" y="456"/><ellipse cx="859.5" cy="472" fill="#ADD1B2" rx="11" ry="11" style="stroke: #A80036; stroke-width: 1.0;"/><path d="M862.2656,467.875 Q862.4219,467.6563 862.6094,467.5469 Q862.7969,467.4375 863.0156,467.4375 Q863.3906,467.4375 863.625,467.6953 Q863.8594,467.9531 863.8594,468.5625 L863.8594,470.0156 Q863.8594,470.625 863.625,470.8906 Q863.3906,471.1563 863.0156,471.1563 Q862.6719,471.1563 862.4688,470.9531 Q862.2656,470.7656 862.1563,470.25 Q862.1094,469.8906 861.9219,469.7031 Q861.5938,469.3281 860.9844,469.1094 Q860.375,468.8906 859.75,468.8906 Q858.9844,468.8906 858.3516,469.2188 Q857.7188,469.5469 857.2266,470.2969 Q856.7344,471.0469 856.7344,472.0781 L856.7344,473.1719 Q856.7344,474.4063 857.625,475.2266 Q858.5156,476.0469 860.1094,476.0469 Q861.0469,476.0469 861.7031,475.7969 Q862.0938,475.6406 862.5156,475.2031 Q862.7813,474.9375 862.9297,474.8594 Q863.0781,474.7813 863.2813,474.7813 Q863.6094,474.7813 863.8672,475.0391 Q864.125,475.2969 864.125,475.6406 Q864.125,475.9844 863.7813,476.3906 Q863.2813,476.9688 862.4844,477.2969 Q861.4063,477.75 860.1094,477.75 Q858.5938,477.75 857.3906,477.125 Q856.4063,476.625 855.7188,475.5547 Q855.0313,474.4844 855.0313,473.2031 L855.0313,472.0469 Q855.0313,470.7188 855.6484,469.5703 Q856.2656,468.4219 857.3594,467.8047 Q858.4531,467.1875 859.6875,467.1875 Q860.4219,467.1875 861.0703,467.3516 Q861.7188,467.5156 862.2656,467.875 Z "/><text fill="#000000" font-family="sans-serif" font-size="12" lengthAdjust="spacingAndGlyphs" textLength="83" x="873.5" y="476.9102">Enfoque Visual</text><line style="stroke: #A80036; stroke-width: 1.5;" x1="845.5" x2="958.5" y1="488" y2="488"/><line style="stroke: #A80036; stroke-width: 1.5;" x1="845.5" x2="958.5" y1="496" y2="496"/><!--class CapacidadCualitativa--><rect fill="#FF0000" filter="url(#fze64mlp7rlwl)" height="48" id="CapacidadCualitativa" style="stroke: #A80036; stroke-width: 1.5;" width="191" x="290.5" y="456"/><rect fill="#FF0000" height="32" style="stroke: #A80036; stroke-width: 1.5;" width="191" x="290.5" y="456"/><ellipse cx="305.5" cy="472" fill="#ADD1B2" rx="11" ry="11" style="stroke: #A80036; stroke-width: 1.0;"/><path d="M308.2656,467.875 Q308.4219,467.6563 308.6094,467.5469 Q308.7969,467.4375 309.0156,467.4375 Q309.3906,467.4375 309.625,467.6953 Q309.8594,467.9531 309.8594,468.5625 L309.8594,470.0156 Q309.8594,470.625 309.625,470.8906 Q309.3906,471.1563 309.0156,471.1563 Q308.6719,471.1563 308.4688,470.9531 Q308.2656,470.7656 308.1563,470.25 Q308.1094,469.8906 307.9219,469.7031 Q307.5938,469.3281 306.9844,469.1094 Q306.375,468.8906 305.75,468.8906 Q304.9844,468.8906 304.3516,469.2188 Q303.7188,469.5469 303.2266,470.2969 Q302.7344,471.0469 302.7344,472.0781 L302.7344,473.1719 Q302.7344,474.4063 303.625,475.2266 Q304.5156,476.0469 306.1094,476.0469 Q307.0469,476.0469 307.7031,475.7969 Q308.0938,475.6406 308.5156,475.2031 Q308.7813,474.9375 308.9297,474.8594 Q309.0781,474.7813 309.2813,474.7813 Q309.6094,474.7813 309.8672,475.0391 Q310.125,475.2969 310.125,475.6406 Q310.125,475.9844 309.7813,476.3906 Q309.2813,476.9688 308.4844,477.2969 Q307.4063,477.75 306.1094,477.75 Q304.5938,477.75 303.3906,477.125 Q302.4063,476.625 301.7188,475.5547 Q301.0313,474.4844 301.0313,473.2031 L301.0313,472.0469 Q301.0313,470.7188 301.6484,469.5703 Q302.2656,468.4219 303.3594,467.8047 Q304.4531,467.1875 305.6875,467.1875 Q306.4219,467.1875 307.0703,467.3516 Q307.7188,467.5156 308.2656,467.875 Z "/><text fill="#000000" font-family="sans-serif" font-size="12" lengthAdjust="spacingAndGlyphs" textLength="159" x="319.5" y="476.9102">Capacidad Mental Cualitativa</text><line style="stroke: #A80036; stroke-width: 1.5;" x1="291.5" x2="480.5" y1="488" y2="488"/><line style="stroke: #A80036; stroke-width: 1.5;" x1="291.5" x2="480.5" y1="496" y2="496"/><!--class Abstraccion--><rect fill="#FF0000" filter="url(#fze64mlp7rlwl)" height="48" id="Abstraccion" style="stroke: #A80036; stroke-width: 1.5;" width="96" x="715" y="780"/><rect fill="#FF0000" height="32" style="stroke: #A80036; stroke-width: 1.5;" width="96" x="715" y="780"/><ellipse cx="730" cy="796" fill="#ADD1B2" rx="11" ry="11" style="stroke: #A80036; stroke-width: 1.0;"/><path d="M732.7656,791.875 Q732.9219,791.6563 733.1094,791.5469 Q733.2969,791.4375 733.5156,791.4375 Q733.8906,791.4375 734.125,791.6953 Q734.3594,791.9531 734.3594,792.5625 L734.3594,794.0156 Q734.3594,794.625 734.125,794.8906 Q733.8906,795.1563 733.5156,795.1563 Q733.1719,795.1563 732.9688,794.9531 Q732.7656,794.7656 732.6563,794.25 Q732.6094,793.8906 732.4219,793.7031 Q732.0938,793.3281 731.4844,793.1094 Q730.875,792.8906 730.25,792.8906 Q729.4844,792.8906 728.8516,793.2188 Q728.2188,793.5469 727.7266,794.2969 Q727.2344,795.0469 727.2344,796.0781 L727.2344,797.1719 Q727.2344,798.4063 728.125,799.2266 Q729.0156,800.0469 730.6094,800.0469 Q731.5469,800.0469 732.2031,799.7969 Q732.5938,799.6406 733.0156,799.2031 Q733.2813,798.9375 733.4297,798.8594 Q733.5781,798.7813 733.7813,798.7813 Q734.1094,798.7813 734.3672,799.0391 Q734.625,799.2969 734.625,799.6406 Q734.625,799.9844 734.2813,800.3906 Q733.7813,800.9688 732.9844,801.2969 Q731.9063,801.75 730.6094,801.75 Q729.0938,801.75 727.8906,801.125 Q726.9063,800.625 726.2188,799.5547 Q725.5313,798.4844 725.5313,797.2031 L725.5313,796.0469 Q725.5313,794.7188 726.1484,793.5703 Q726.7656,792.4219 727.8594,791.8047 Q728.9531,791.1875 730.1875,791.1875 Q730.9219,791.1875 731.5703,791.3516 Q732.2188,791.5156 732.7656,791.875 Z "/><text fill="#000000" font-family="sans-serif" font-size="12" lengthAdjust="spacingAndGlyphs" textLength="64" x="744" y="800.9102">Abstracción</text><line style="stroke: #A80036; stroke-width: 1.5;" x1="716" x2="810" y1="812" y2="812"/><line style="stroke: #A80036; stroke-width: 1.5;" x1="716" x2="810" y1="820" y2="820"/><!--class Encapsulacion--><rect fill="#FF0000" filter="url(#fze64mlp7rlwl)" height="48" id="Encapsulacion" style="stroke: #A80036; stroke-width: 1.5;" width="114" x="846" y="780"/><rect fill="#FF0000" height="32" style="stroke: #A80036; stroke-width: 1.5;" width="114" x="846" y="780"/><ellipse cx="861" cy="796" fill="#ADD1B2" rx="11" ry="11" style="stroke: #A80036; stroke-width: 1.0;"/><path d="M863.7656,791.875 Q863.9219,791.6563 864.1094,791.5469 Q864.2969,791.4375 864.5156,791.4375 Q864.8906,791.4375 865.125,791.6953 Q865.3594,791.9531 865.3594,792.5625 L865.3594,794.0156 Q865.3594,794.625 865.125,794.8906 Q864.8906,795.1563 864.5156,795.1563 Q864.1719,795.1563 863.9688,794.9531 Q863.7656,794.7656 863.6563,794.25 Q863.6094,793.8906 863.4219,793.7031 Q863.0938,793.3281 862.4844,793.1094 Q861.875,792.8906 861.25,792.8906 Q860.4844,792.8906 859.8516,793.2188 Q859.2188,793.5469 858.7266,794.2969 Q858.2344,795.0469 858.2344,796.0781 L858.2344,797.1719 Q858.2344,798.4063 859.125,799.2266 Q860.0156,800.0469 861.6094,800.0469 Q862.5469,800.0469 863.2031,799.7969 Q863.5938,799.6406 864.0156,799.2031 Q864.2813,798.9375 864.4297,798.8594 Q864.5781,798.7813 864.7813,798.7813 Q865.1094,798.7813 865.3672,799.0391 Q865.625,799.2969 865.625,799.6406 Q865.625,799.9844 865.2813,800.3906 Q864.7813,800.9688 863.9844,801.2969 Q862.9063,801.75 861.6094,801.75 Q860.0938,801.75 858.8906,801.125 Q857.9063,800.625 857.2188,799.5547 Q856.5313,798.4844 856.5313,797.2031 L856.5313,796.0469 Q856.5313,794.7188 857.1484,793.5703 Q857.7656,792.4219 858.8594,791.8047 Q859.9531,791.1875 861.1875,791.1875 Q861.9219,791.1875 862.5703,791.3516 Q863.2188,791.5156 863.7656,791.875 Z "/><text fill="#000000" font-family="sans-serif" font-size="12" lengthAdjust="spacingAndGlyphs" textLength="82" x="875" y="800.9102">Encapsulación</text><line style="stroke: #A80036; stroke-width: 1.5;" x1="847" x2="959" y1="812" y2="812"/><line style="stroke: #A80036; stroke-width: 1.5;" x1="847" x2="959" y1="820" y2="820"/><!--class Modularizacion--><rect fill="#FF0000" filter="url(#fze64mlp7rlwl)" height="48" id="Modularizacion" style="stroke: #A80036; stroke-width: 1.5;" width="114" x="846" y="672"/><rect fill="#FF0000" height="32" style="stroke: #A80036; stroke-width: 1.5;" width="114" x="846" y="672"/><ellipse cx="861" cy="688" fill="#ADD1B2" rx="11" ry="11" style="stroke: #A80036; stroke-width: 1.0;"/><path d="M863.7656,683.875 Q863.9219,683.6563 864.1094,683.5469 Q864.2969,683.4375 864.5156,683.4375 Q864.8906,683.4375 865.125,683.6953 Q865.3594,683.9531 865.3594,684.5625 L865.3594,686.0156 Q865.3594,686.625 865.125,686.8906 Q864.8906,687.1563 864.5156,687.1563 Q864.1719,687.1563 863.9688,686.9531 Q863.7656,686.7656 863.6563,686.25 Q863.6094,685.8906 863.4219,685.7031 Q863.0938,685.3281 862.4844,685.1094 Q861.875,684.8906 861.25,684.8906 Q860.4844,684.8906 859.8516,685.2188 Q859.2188,685.5469 858.7266,686.2969 Q858.2344,687.0469 858.2344,688.0781 L858.2344,689.1719 Q858.2344,690.4063 859.125,691.2266 Q860.0156,692.0469 861.6094,692.0469 Q862.5469,692.0469 863.2031,691.7969 Q863.5938,691.6406 864.0156,691.2031 Q864.2813,690.9375 864.4297,690.8594 Q864.5781,690.7813 864.7813,690.7813 Q865.1094,690.7813 865.3672,691.0391 Q865.625,691.2969 865.625,691.6406 Q865.625,691.9844 865.2813,692.3906 Q864.7813,692.9688 863.9844,693.2969 Q862.9063,693.75 861.6094,693.75 Q860.0938,693.75 858.8906,693.125 Q857.9063,692.625 857.2188,691.5547 Q856.5313,690.4844 856.5313,689.2031 L856.5313,688.0469 Q856.5313,686.7188 857.1484,685.5703 Q857.7656,684.4219 858.8594,683.8047 Q859.9531,683.1875 861.1875,683.1875 Q861.9219,683.1875 862.5703,683.3516 Q863.2188,683.5156 863.7656,683.875 Z "/><text fill="#000000" font-family="sans-serif" font-size="12" lengthAdjust="spacingAndGlyphs" textLength="82" x="875" y="692.9102">Modularización</text><line style="stroke: #A80036; stroke-width: 1.5;" x1="847" x2="959" y1="704" y2="704"/><line style="stroke: #A80036; stroke-width: 1.5;" x1="847" x2="959" y1="712" y2="712"/><!--class Jeraquizacion--><rect fill="#FF0000" filter="url(#fze64mlp7rlwl)" height="48" id="Jeraquizacion" style="stroke: #A80036; stroke-width: 1.5;" width="112" x="847" y="564"/><rect fill="#FF0000" height="32" style="stroke: #A80036; stroke-width: 1.5;" width="112" x="847" y="564"/><ellipse cx="862" cy="580" fill="#ADD1B2" rx="11" ry="11" style="stroke: #A80036; stroke-width: 1.0;"/><path d="M864.7656,575.875 Q864.9219,575.6563 865.1094,575.5469 Q865.2969,575.4375 865.5156,575.4375 Q865.8906,575.4375 866.125,575.6953 Q866.3594,575.9531 866.3594,576.5625 L866.3594,578.0156 Q866.3594,578.625 866.125,578.8906 Q865.8906,579.1563 865.5156,579.1563 Q865.1719,579.1563 864.9688,578.9531 Q864.7656,578.7656 864.6563,578.25 Q864.6094,577.8906 864.4219,577.7031 Q864.0938,577.3281 863.4844,577.1094 Q862.875,576.8906 862.25,576.8906 Q861.4844,576.8906 860.8516,577.2188 Q860.2188,577.5469 859.7266,578.2969 Q859.2344,579.0469 859.2344,580.0781 L859.2344,581.1719 Q859.2344,582.4063 860.125,583.2266 Q861.0156,584.0469 862.6094,584.0469 Q863.5469,584.0469 864.2031,583.7969 Q864.5938,583.6406 865.0156,583.2031 Q865.2813,582.9375 865.4297,582.8594 Q865.5781,582.7813 865.7813,582.7813 Q866.1094,582.7813 866.3672,583.0391 Q866.625,583.2969 866.625,583.6406 Q866.625,583.9844 866.2813,584.3906 Q865.7813,584.9688 864.9844,585.2969 Q863.9063,585.75 862.6094,585.75 Q861.0938,585.75 859.8906,585.125 Q858.9063,584.625 858.2188,583.5547 Q857.5313,582.4844 857.5313,581.2031 L857.5313,580.0469 Q857.5313,578.7188 858.1484,577.5703 Q858.7656,576.4219 859.8594,575.8047 Q860.9531,575.1875 862.1875,575.1875 Q862.9219,575.1875 863.5703,575.3516 Q864.2188,575.5156 864.7656,575.875 Z "/><text fill="#000000" font-family="sans-serif" font-size="12" lengthAdjust="spacingAndGlyphs" textLength="80" x="876" y="584.9102">Jerarquización</text><line style="stroke: #A80036; stroke-width: 1.5;" x1="848" x2="958" y1="596" y2="596"/><line style="stroke: #A80036; stroke-width: 1.5;" x1="848" x2="958" y1="604" y2="604"/><!--class Eficacia--><rect fill="#008000" filter="url(#fze64mlp7rlwl)" height="48" id="Eficacia" style="stroke: #A80036; stroke-width: 1.5;" width="75" x="158.5" y="332"/><rect fill="#008000" height="32" style="stroke: #A80036; stroke-width: 1.5;" width="75" x="158.5" y="332"/><ellipse cx="173.5" cy="348" fill="#ADD1B2" rx="11" ry="11" style="stroke: #A80036; stroke-width: 1.0;"/><path d="M176.2656,343.875 Q176.4219,343.6563 176.6094,343.5469 Q176.7969,343.4375 177.0156,343.4375 Q177.3906,343.4375 177.625,343.6953 Q177.8594,343.9531 177.8594,344.5625 L177.8594,346.0156 Q177.8594,346.625 177.625,346.8906 Q177.3906,347.1563 177.0156,347.1563 Q176.6719,347.1563 176.4688,346.9531 Q176.2656,346.7656 176.1563,346.25 Q176.1094,345.8906 175.9219,345.7031 Q175.5938,345.3281 174.9844,345.1094 Q174.375,344.8906 173.75,344.8906 Q172.9844,344.8906 172.3516,345.2188 Q171.7188,345.5469 171.2266,346.2969 Q170.7344,347.0469 170.7344,348.0781 L170.7344,349.1719 Q170.7344,350.4063 171.625,351.2266 Q172.5156,352.0469 174.1094,352.0469 Q175.0469,352.0469 175.7031,351.7969 Q176.0938,351.6406 176.5156,351.2031 Q176.7813,350.9375 176.9297,350.8594 Q177.0781,350.7813 177.2813,350.7813 Q177.6094,350.7813 177.8672,351.0391 Q178.125,351.2969 178.125,351.6406 Q178.125,351.9844 177.7813,352.3906 Q177.2813,352.9688 176.4844,353.2969 Q175.4063,353.75 174.1094,353.75 Q172.5938,353.75 171.3906,353.125 Q170.4063,352.625 169.7188,351.5547 Q169.0313,350.4844 169.0313,349.2031 L169.0313,348.0469 Q169.0313,346.7188 169.6484,345.5703 Q170.2656,344.4219 171.3594,343.8047 Q172.4531,343.1875 173.6875,343.1875 Q174.4219,343.1875 175.0703,343.3516 Q175.7188,343.5156 176.2656,343.875 Z "/><text fill="#000000" font-family="sans-serif" font-size="12" lengthAdjust="spacingAndGlyphs" textLength="43" x="187.5" y="352.9102">Eficacia</text><line style="stroke: #A80036; stroke-width: 1.5;" x1="159.5" x2="232.5" y1="364" y2="364"/><line style="stroke: #A80036; stroke-width: 1.5;" x1="159.5" x2="232.5" y1="372" y2="372"/><!--class Eficiencia--><rect fill="#008000" filter="url(#fze64mlp7rlwl)" height="48" id="Eficiencia" style="stroke: #A80036; stroke-width: 1.5;" width="85" x="38.5" y="332"/><rect fill="#008000" height="32" style="stroke: #A80036; stroke-width: 1.5;" width="85" x="38.5" y="332"/><ellipse cx="53.5" cy="348" fill="#ADD1B2" rx="11" ry="11" style="stroke: #A80036; stroke-width: 1.0;"/><path d="M56.2656,343.875 Q56.4219,343.6563 56.6094,343.5469 Q56.7969,343.4375 57.0156,343.4375 Q57.3906,343.4375 57.625,343.6953 Q57.8594,343.9531 57.8594,344.5625 L57.8594,346.0156 Q57.8594,346.625 57.625,346.8906 Q57.3906,347.1563 57.0156,347.1563 Q56.6719,347.1563 56.4688,346.9531 Q56.2656,346.7656 56.1563,346.25 Q56.1094,345.8906 55.9219,345.7031 Q55.5938,345.3281 54.9844,345.1094 Q54.375,344.8906 53.75,344.8906 Q52.9844,344.8906 52.3516,345.2188 Q51.7188,345.5469 51.2266,346.2969 Q50.7344,347.0469 50.7344,348.0781 L50.7344,349.1719 Q50.7344,350.4063 51.625,351.2266 Q52.5156,352.0469 54.1094,352.0469 Q55.0469,352.0469 55.7031,351.7969 Q56.0938,351.6406 56.5156,351.2031 Q56.7813,350.9375 56.9297,350.8594 Q57.0781,350.7813 57.2813,350.7813 Q57.6094,350.7813 57.8672,351.0391 Q58.125,351.2969 58.125,351.6406 Q58.125,351.9844 57.7813,352.3906 Q57.2813,352.9688 56.4844,353.2969 Q55.4063,353.75 54.1094,353.75 Q52.5938,353.75 51.3906,353.125 Q50.4063,352.625 49.7188,351.5547 Q49.0313,350.4844 49.0313,349.2031 L49.0313,348.0469 Q49.0313,346.7188 49.6484,345.5703 Q50.2656,344.4219 51.3594,343.8047 Q52.4531,343.1875 53.6875,343.1875 Q54.4219,343.1875 55.0703,343.3516 Q55.7188,343.5156 56.2656,343.875 Z "/><text fill="#000000" font-family="sans-serif" font-size="12" lengthAdjust="spacingAndGlyphs" textLength="53" x="67.5" y="352.9102">Eficiencia</text><line style="stroke: #A80036; stroke-width: 1.5;" x1="39.5" x2="122.5" y1="364" y2="364"/><line style="stroke: #A80036; stroke-width: 1.5;" x1="39.5" x2="122.5" y1="372" y2="372"/><!--class Equilibrio--><rect fill="#008000" filter="url(#fze64mlp7rlwl)" height="48" id="Equilibrio" style="stroke: #A80036; stroke-width: 1.5;" width="84" x="113" y="224"/><rect fill="#008000" height="32" style="stroke: #A80036; stroke-width: 1.5;" width="84" x="113" y="224"/><ellipse cx="128" cy="240" fill="#ADD1B2" rx="11" ry="11" style="stroke: #A80036; stroke-width: 1.0;"/><path d="M130.7656,235.875 Q130.9219,235.6563 131.1094,235.5469 Q131.2969,235.4375 131.5156,235.4375 Q131.8906,235.4375 132.125,235.6953 Q132.3594,235.9531 132.3594,236.5625 L132.3594,238.0156 Q132.3594,238.625 132.125,238.8906 Q131.8906,239.1563 131.5156,239.1563 Q131.1719,239.1563 130.9688,238.9531 Q130.7656,238.7656 130.6563,238.25 Q130.6094,237.8906 130.4219,237.7031 Q130.0938,237.3281 129.4844,237.1094 Q128.875,236.8906 128.25,236.8906 Q127.4844,236.8906 126.8516,237.2188 Q126.2188,237.5469 125.7266,238.2969 Q125.2344,239.0469 125.2344,240.0781 L125.2344,241.1719 Q125.2344,242.4063 126.125,243.2266 Q127.0156,244.0469 128.6094,244.0469 Q129.5469,244.0469 130.2031,243.7969 Q130.5938,243.6406 131.0156,243.2031 Q131.2813,242.9375 131.4297,242.8594 Q131.5781,242.7813 131.7813,242.7813 Q132.1094,242.7813 132.3672,243.0391 Q132.625,243.2969 132.625,243.6406 Q132.625,243.9844 132.2813,244.3906 Q131.7813,244.9688 130.9844,245.2969 Q129.9063,245.75 128.6094,245.75 Q127.0938,245.75 125.8906,245.125 Q124.9063,244.625 124.2188,243.5547 Q123.5313,242.4844 123.5313,241.2031 L123.5313,240.0469 Q123.5313,238.7188 124.1484,237.5703 Q124.7656,236.4219 125.8594,235.8047 Q126.9531,235.1875 128.1875,235.1875 Q128.9219,235.1875 129.5703,235.3516 Q130.2188,235.5156 130.7656,235.875 Z "/><text fill="#000000" font-family="sans-serif" font-size="12" lengthAdjust="spacingAndGlyphs" textLength="52" x="142" y="244.9102">Equilibrio</text><line style="stroke: #A80036; stroke-width: 1.5;" x1="114" x2="196" y1="256" y2="256"/><line style="stroke: #A80036; stroke-width: 1.5;" x1="114" x2="196" y1="264" y2="264"/><!--class Efectividad--><rect fill="#008000" filter="url(#fze64mlp7rlwl)" height="48" id="Efectividad" style="stroke: #A80036; stroke-width: 1.5;" width="91" x="142.5" y="116"/><rect fill="#008000" height="32" style="stroke: #A80036; stroke-width: 1.5;" width="91" x="142.5" y="116"/><ellipse cx="157.5" cy="132" fill="#ADD1B2" rx="11" ry="11" style="stroke: #A80036; stroke-width: 1.0;"/><path d="M160.2656,127.875 Q160.4219,127.6563 160.6094,127.5469 Q160.7969,127.4375 161.0156,127.4375 Q161.3906,127.4375 161.625,127.6953 Q161.8594,127.9531 161.8594,128.5625 L161.8594,130.0156 Q161.8594,130.625 161.625,130.8906 Q161.3906,131.1563 161.0156,131.1563 Q160.6719,131.1563 160.4688,130.9531 Q160.2656,130.7656 160.1563,130.25 Q160.1094,129.8906 159.9219,129.7031 Q159.5938,129.3281 158.9844,129.1094 Q158.375,128.8906 157.75,128.8906 Q156.9844,128.8906 156.3516,129.2188 Q155.7188,129.5469 155.2266,130.2969 Q154.7344,131.0469 154.7344,132.0781 L154.7344,133.1719 Q154.7344,134.4063 155.625,135.2266 Q156.5156,136.0469 158.1094,136.0469 Q159.0469,136.0469 159.7031,135.7969 Q160.0938,135.6406 160.5156,135.2031 Q160.7813,134.9375 160.9297,134.8594 Q161.0781,134.7813 161.2813,134.7813 Q161.6094,134.7813 161.8672,135.0391 Q162.125,135.2969 162.125,135.6406 Q162.125,135.9844 161.7813,136.3906 Q161.2813,136.9688 160.4844,137.2969 Q159.4063,137.75 158.1094,137.75 Q156.5938,137.75 155.3906,137.125 Q154.4063,136.625 153.7188,135.5547 Q153.0313,134.4844 153.0313,133.2031 L153.0313,132.0469 Q153.0313,130.7188 153.6484,129.5703 Q154.2656,128.4219 155.3594,127.8047 Q156.4531,127.1875 157.6875,127.1875 Q158.4219,127.1875 159.0703,127.3516 Q159.7188,127.5156 160.2656,127.875 Z "/><text fill="#000000" font-family="sans-serif" font-size="12" lengthAdjust="spacingAndGlyphs" textLength="59" x="171.5" y="136.9102">Efectividad</text><line style="stroke: #A80036; stroke-width: 1.5;" x1="143.5" x2="232.5" y1="148" y2="148"/><line style="stroke: #A80036; stroke-width: 1.5;" x1="143.5" x2="232.5" y1="156" y2="156"/><!--class Solucion--><rect fill="#008000" filter="url(#fze64mlp7rlwl)" height="48" id="Solucion" style="stroke: #A80036; stroke-width: 1.5;" width="80" x="432" y="8"/><rect fill="#008000" height="32" style="stroke: #A80036; stroke-width: 1.5;" width="80" x="432" y="8"/><ellipse cx="447" cy="24" fill="#ADD1B2" rx="11" ry="11" style="stroke: #A80036; stroke-width: 1.0;"/><path d="M449.7656,19.875 Q449.9219,19.6563 450.1094,19.5469 Q450.2969,19.4375 450.5156,19.4375 Q450.8906,19.4375 451.125,19.6953 Q451.3594,19.9531 451.3594,20.5625 L451.3594,22.0156 Q451.3594,22.625 451.125,22.8906 Q450.8906,23.1563 450.5156,23.1563 Q450.1719,23.1563 449.9688,22.9531 Q449.7656,22.7656 449.6563,22.25 Q449.6094,21.8906 449.4219,21.7031 Q449.0938,21.3281 448.4844,21.1094 Q447.875,20.8906 447.25,20.8906 Q446.4844,20.8906 445.8516,21.2188 Q445.2188,21.5469 444.7266,22.2969 Q444.2344,23.0469 444.2344,24.0781 L444.2344,25.1719 Q444.2344,26.4063 445.125,27.2266 Q446.0156,28.0469 447.6094,28.0469 Q448.5469,28.0469 449.2031,27.7969 Q449.5938,27.6406 450.0156,27.2031 Q450.2813,26.9375 450.4297,26.8594 Q450.5781,26.7813 450.7813,26.7813 Q451.1094,26.7813 451.3672,27.0391 Q451.625,27.2969 451.625,27.6406 Q451.625,27.9844 451.2813,28.3906 Q450.7813,28.9688 449.9844,29.2969 Q448.9063,29.75 447.6094,29.75 Q446.0938,29.75 444.8906,29.125 Q443.9063,28.625 443.2188,27.5547 Q442.5313,26.4844 442.5313,25.2031 L442.5313,24.0469 Q442.5313,22.7188 443.1484,21.5703 Q443.7656,20.4219 444.8594,19.8047 Q445.9531,19.1875 447.1875,19.1875 Q447.9219,19.1875 448.5703,19.3516 Q449.2188,19.5156 449.7656,19.875 Z "/><text fill="#000000" font-family="sans-serif" font-size="12" lengthAdjust="spacingAndGlyphs" textLength="48" x="461" y="28.9102">Solucion</text><line style="stroke: #A80036; stroke-width: 1.5;" x1="433" x2="511" y1="40" y2="40"/><line style="stroke: #A80036; stroke-width: 1.5;" x1="433" x2="511" y1="48" y2="48"/><!--class SistemaComplejo--><rect fill="#FFFF00" filter="url(#fze64mlp7rlwl)" height="48" id="SistemaComplejo" style="stroke: #A80036; stroke-width: 1.5;" width="135" x="994.5" y="456"/><rect fill="#FFFF00" height="32" style="stroke: #A80036; stroke-width: 1.5;" width="135" x="994.5" y="456"/><ellipse cx="1009.5" cy="472" fill="#ADD1B2" rx="11" ry="11" style="stroke: #A80036; stroke-width: 1.0;"/><path d="M1012.2656,467.875 Q1012.4219,467.6563 1012.6094,467.5469 Q1012.7969,467.4375 1013.0156,467.4375 Q1013.3906,467.4375 1013.625,467.6953 Q1013.8594,467.9531 1013.8594,468.5625 L1013.8594,470.0156 Q1013.8594,470.625 1013.625,470.8906 Q1013.3906,471.1563 1013.0156,471.1563 Q1012.6719,471.1563 1012.4688,470.9531 Q1012.2656,470.7656 1012.1563,470.25 Q1012.1094,469.8906 1011.9219,469.7031 Q1011.5938,469.3281 1010.9844,469.1094 Q1010.375,468.8906 1009.75,468.8906 Q1008.9844,468.8906 1008.3516,469.2188 Q1007.7188,469.5469 1007.2266,470.2969 Q1006.7344,471.0469 1006.7344,472.0781 L1006.7344,473.1719 Q1006.7344,474.4063 1007.625,475.2266 Q1008.5156,476.0469 1010.1094,476.0469 Q1011.0469,476.0469 1011.7031,475.7969 Q1012.0938,475.6406 1012.5156,475.2031 Q1012.7813,474.9375 1012.9297,474.8594 Q1013.0781,474.7813 1013.2813,474.7813 Q1013.6094,474.7813 1013.8672,475.0391 Q1014.125,475.2969 1014.125,475.6406 Q1014.125,475.9844 1013.7813,476.3906 Q1013.2813,476.9688 1012.4844,477.2969 Q1011.4063,477.75 1010.1094,477.75 Q1008.5938,477.75 1007.3906,477.125 Q1006.4063,476.625 1005.7188,475.5547 Q1005.0313,474.4844 1005.0313,473.2031 L1005.0313,472.0469 Q1005.0313,470.7188 1005.6484,469.5703 Q1006.2656,468.4219 1007.3594,467.8047 Q1008.4531,467.1875 1009.6875,467.1875 Q1010.4219,467.1875 1011.0703,467.3516 Q1011.7188,467.5156 1012.2656,467.875 Z "/><text fill="#000000" font-family="sans-serif" font-size="12" lengthAdjust="spacingAndGlyphs" textLength="103" x="1023.5" y="476.9102">Sistema Complejo</text><line style="stroke: #A80036; stroke-width: 1.5;" x1="995.5" x2="1128.5" y1="488" y2="488"/><line style="stroke: #A80036; stroke-width: 1.5;" x1="995.5" x2="1128.5" y1="496" y2="496"/><!--class Tamanyo--><rect fill="#FFFF00" filter="url(#fze64mlp7rlwl)" height="48" id="Tamanyo" style="stroke: #A80036; stroke-width: 1.5;" width="78" x="994" y="564"/><rect fill="#FFFF00" height="32" style="stroke: #A80036; stroke-width: 1.5;" width="78" x="994" y="564"/><ellipse cx="1009" cy="580" fill="#ADD1B2" rx="11" ry="11" style="stroke: #A80036; stroke-width: 1.0;"/><path d="M1011.7656,575.875 Q1011.9219,575.6563 1012.1094,575.5469 Q1012.2969,575.4375 1012.5156,575.4375 Q1012.8906,575.4375 1013.125,575.6953 Q1013.3594,575.9531 1013.3594,576.5625 L1013.3594,578.0156 Q1013.3594,578.625 1013.125,578.8906 Q1012.8906,579.1563 1012.5156,579.1563 Q1012.1719,579.1563 1011.9688,578.9531 Q1011.7656,578.7656 1011.6563,578.25 Q1011.6094,577.8906 1011.4219,577.7031 Q1011.0938,577.3281 1010.4844,577.1094 Q1009.875,576.8906 1009.25,576.8906 Q1008.4844,576.8906 1007.8516,577.2188 Q1007.2188,577.5469 1006.7266,578.2969 Q1006.2344,579.0469 1006.2344,580.0781 L1006.2344,581.1719 Q1006.2344,582.4063 1007.125,583.2266 Q1008.0156,584.0469 1009.6094,584.0469 Q1010.5469,584.0469 1011.2031,583.7969 Q1011.5938,583.6406 1012.0156,583.2031 Q1012.2813,582.9375 1012.4297,582.8594 Q1012.5781,582.7813 1012.7813,582.7813 Q1013.1094,582.7813 1013.3672,583.0391 Q1013.625,583.2969 1013.625,583.6406 Q1013.625,583.9844 1013.2813,584.3906 Q1012.7813,584.9688 1011.9844,585.2969 Q1010.9063,585.75 1009.6094,585.75 Q1008.0938,585.75 1006.8906,585.125 Q1005.9063,584.625 1005.2188,583.5547 Q1004.5313,582.4844 1004.5313,581.2031 L1004.5313,580.0469 Q1004.5313,578.7188 1005.1484,577.5703 Q1005.7656,576.4219 1006.8594,575.8047 Q1007.9531,575.1875 1009.1875,575.1875 Q1009.9219,575.1875 1010.5703,575.3516 Q1011.2188,575.5156 1011.7656,575.875 Z "/><text fill="#000000" font-family="sans-serif" font-size="12" lengthAdjust="spacingAndGlyphs" textLength="46" x="1023" y="584.9102">Tamaño</text><line style="stroke: #A80036; stroke-width: 1.5;" x1="995" x2="1071" y1="596" y2="596"/><line style="stroke: #A80036; stroke-width: 1.5;" x1="995" x2="1071" y1="604" y2="604"/><path d="M102,575 L102,601.3516 L258,601.3516 L258,585 L248,575 L102,575 " fill="#FBFB77" filter="url(#fze64mlp7rlwl)" style="stroke: #A80036; stroke-width: 1.0;"/><path d="M248,575 L248,585 L258,585 L248,575 " fill="#FBFB77" style="stroke: #A80036; stroke-width: 1.0;"/><text fill="#000000" font-family="sans-serif" font-size="13" lengthAdjust="spacingAndGlyphs" textLength="135" x="108" y="593.4951">Nos gustan pequeñas!!!</text><!--link Sistema to TipoElemento--><path d="M1242.49,283.935 C1247.59,295.447 1253.27,308.251 1258.39,319.784 " fill="none" id="Sistema-TipoElemento" style="stroke: #A80036; stroke-width: 1.0;"/><polygon fill="#A80036" points="1263.66,331.678,1263.6687,321.8291,1261.6333,327.1072,1256.3553,325.0718,1263.66,331.678" style="stroke: #A80036; stroke-width: 1.0;"/><line style="stroke: #A80036; stroke-width: 1.0;" x1="1261.6333" x2="1258.39" y1="327.1072" y2="319.7945"/><polygon fill="#A80036" points="1237.2,272,1235.9753,279.1063,1242.064,282.97,1243.2887,275.8637,1237.2,272" style="stroke: #A80036; stroke-width: 1.0;"/><!--link Interfaz to Implementacion--><path d="M1447.85,504 C1441.64,520.003 1436.35,541.446 1434.27,558.528 " fill="none" id="Interfaz-Implementacion" style="stroke: #A80036; stroke-width: 1.0;"/><polygon fill="#A80036" points="1433.73,563.678,1438.647,555.1444,1434.2516,558.7053,1430.6906,554.3098,1433.73,563.678" style="stroke: #A80036; stroke-width: 1.0;"/><!--link Implementacion to Interfaz--><path d="M1455.91,563.678 C1462.24,547.604 1467.53,526.154 1469.45,509.131 " fill="none" id="Implementacion-Interfaz" style="stroke: #A80036; stroke-width: 1.0;"/><polygon fill="#A80036" points="1469.93,504,1465.0982,512.5822,1469.458,508.9777,1473.0625,513.3374,1469.93,504" style="stroke: #A80036; stroke-width: 1.0;"/><!--link Interfaz to Abstraccion--><path d="M1434.25,504.015 C1390.97,536.686 1307.25,596.88 1229,636 C1219.32,640.839 936.291,741.482 816.128,784.1472 " fill="none" id="Interfaz-Abstraccion" style="stroke: #A80036; stroke-width: 1.0;"/><polygon fill="#A80036" points="811.226,785.8876,821.0456,786.6459,815.9379,784.2147,818.3691,779.107,811.226,785.8876" style="stroke: #A80036; stroke-width: 1.0;"/><!--link Implementacion to Encapsulacion--><path d="M1428.96,612.143 C1414.68,642.134 1385.53,693.689 1344,720 C1281.87,759.36 1071.49,785.8106 965.346,796.9832 " fill="none" id="Implementacion-Encapsulacion" style="stroke: #A80036; stroke-width: 1.0;"/><polygon fill="#A80036" points="960.06,797.5359,969.4272,800.5782,965.0329,797.0159,968.5952,792.6216,960.06,797.5359" style="stroke: #A80036; stroke-width: 1.0;"/><!--link Acoplamiento to Modularizacion--><path d="M1318.69,504.036 C1285.81,538.148 1219.25,601.741 1150,636 C1091.07,665.152 1016.98,680.362 965.388,687.98 " fill="none" id="Acoplamiento-Modularizacion" style="stroke: #A80036; stroke-width: 1.0;"/><polygon fill="#A80036" points="960.153,688.738,969.6336,691.4059,965.1013,688.0209,968.4863,683.4886,960.153,688.738" style="stroke: #A80036; stroke-width: 1.0;"/><!--link Acoplamiento to Jeraquizacion--><path d="M1286.32,498.837 C1280.17,500.676 1273.97,502.439 1268,504 C1139.83,537.539 1104.24,530.716 976,564 C972.025,565.032 967.946,566.15 963.845,567.318 " fill="none" id="Acoplamiento-Jeraquizacion" style="stroke: #A80036; stroke-width: 1.0;"/><polygon fill="#A80036" points="959.027,568.71,968.7839,570.053,963.8303,567.3213,966.562,562.3677,959.027,568.71" style="stroke: #A80036; stroke-width: 1.0;"/><!--link Cohesion to Modularizacion--><path d="M1196.29,504.037 C1177.95,537.858 1139.27,600.742 1089,636 C1052.24,661.783 1003.679,676.684 965.396,685.059 " fill="none" id="Cohesion-Modularizacion" style="stroke: #A80036; stroke-width: 1.0;"/><polygon fill="#A80036" points="960.304,686.148,969.9415,688.1775,965.1935,685.1024,968.2685,680.3544,960.304,686.148" style="stroke: #A80036; stroke-width: 1.0;"/><!--link Cohesion to Jeraquizacion--><path d="M1164.74,497.509 C1158.79,499.722 1152.75,501.937 1147,504 C1085.1,526.19 1013.87,550.254 964.408,566.729 " fill="none" id="Cohesion-Jeraquizacion" style="stroke: #A80036; stroke-width: 1.0;"/><polygon fill="#A80036" points="959.391,568.399,969.1938,569.3503,964.1348,566.8191,966.666,561.7602,959.391,568.399" style="stroke: #A80036; stroke-width: 1.0;"/><!--link TipoElemento to Acoplamiento--><path d="M1292.76,391.676 C1301.62,408.058 1312.18,427.575 1321.06,443.999 " fill="none" id="TipoElemento-Acoplamiento" style="stroke: #A80036; stroke-width: 1.0;"/><polygon fill="#A80036" points="1327.48,455.852,1326.7138,446.033,1325.1,451.4548,1319.6782,449.841,1327.48,455.852" style="stroke: #A80036; stroke-width: 1.0;"/><line style="stroke: #A80036; stroke-width: 1.0;" x1="1325.1" x2="1321.29" y1="451.4548" y2="444.418"/><polygon fill="#A80036" points="1286.57,380.234,1285.9045,387.4143,1292.2765,390.7903,1292.942,383.61,1286.57,380.234" style="stroke: #A80036; stroke-width: 1.0;"/><!--link TipoElemento to Cohesion--><path d="M1255.24,391.676 C1246.38,408.058 1235.82,427.575 1226.94,443.999 " fill="none" id="TipoElemento-Cohesion" style="stroke: #A80036; stroke-width: 1.0;"/><polygon fill="#A80036" points="1220.52,455.852,1228.3218,449.841,1222.9,451.4548,1221.2862,446.033,1220.52,455.852" style="stroke: #A80036; stroke-width: 1.0;"/><line style="stroke: #A80036; stroke-width: 1.0;" x1="1222.9" x2="1226.71" y1="451.4548" y2="444.418"/><polygon fill="#A80036" points="1261.43,380.234,1255.058,383.61,1255.7235,390.7903,1262.0955,387.4143,1261.43,380.234" style="stroke: #A80036; stroke-width: 1.0;"/><!--link TipoElemento to Interfaz--><path d="M1363.68,385.159 C1380.25,392.489 1396.79,401.384 1411,412 C1423.07,421.014 1433.9,433.419 1442.58,445.107 " fill="none" id="TipoElemento-Interfaz" style="stroke: #A80036; stroke-width: 1.0;"/><polygon fill="#A80036" points="1450.21,455.958,1448.3023,446.2957,1447.3327,451.8688,1441.7596,450.8993,1450.21,455.958" style="stroke: #A80036; stroke-width: 1.0;"/><line style="stroke: #A80036; stroke-width: 1.0;" x1="1447.3327" x2="1442.73" y1="451.8688" y2="445.3245"/><polygon fill="#A80036" points="1351.64,380.097,1355.6187,386.1112,1362.7005,384.7517,1358.7218,378.7375,1351.64,380.097" style="stroke: #A80036; stroke-width: 1.0;"/><!--link TipoElemento to Implementacion--><path d="M1373.28,366.952 C1432.16,375.134 1498.77,389.183 1517,412 C1542.52,443.945 1532.06,465.985 1517,504 C1509.31,523.418 1494.68,540.942 1480.16,554.83 " fill="none" id="TipoElemento-Implementacion" style="stroke: #A80036; stroke-width: 1.0;"/><polygon fill="#A80036" points="1470.21,563.841,1479.5659,560.764,1473.9159,560.4845,1474.1954,554.8345,1470.21,563.841" style="stroke: #A80036; stroke-width: 1.0;"/><line style="stroke: #A80036; stroke-width: 1.0;" x1="1473.9159" x2="1479.845" y1="560.4845" y2="555.116"/><polygon fill="#A80036" points="1360.08,365.195,1365.5001,369.9513,1371.9752,366.7775,1366.5551,362.0212,1360.08,365.195" style="stroke: #A80036; stroke-width: 1.0;"/><!--link Solucion to Sistema--><path d="M524.73,47.946 C663.545,87.292 1037.85,193.387 1175.39,232.372 " fill="none" id="Solucion-Sistema" style="stroke: #A80036; stroke-width: 1.0;"/><polygon fill="#A80036" points="1187.95,235.931,1180.3809,229.6295,1183.1393,234.5683,1178.2005,237.3267,1187.95,235.931" style="stroke: #A80036; stroke-width: 1.0;"/><line style="stroke: #A80036; stroke-width: 1.0;" x1="1183.1393" x2="1175.44" y1="234.5683" y2="232.3855"/><polygon fill="#A80036" points="512.059,44.354,516.7405,49.8388,523.604,47.627,518.9225,42.1421,512.059,44.354" style="stroke: #A80036; stroke-width: 1.0;"/><!--link Capacidad to CapacidadCuantitativa--><path d="M460.484,279.721 C500.816,296.356 549.826,316.57 586.9,331.862 " fill="none" id="Capacidad-CapacidadCuantitativa" style="stroke: #A80036; stroke-width: 1.0;"/><polygon fill="none" points="457.585,286.098,441.765,272,462.923,273.155,457.585,286.098" style="stroke: #A80036; stroke-width: 1.0;"/><!--link CapacidadCuantitativa to Limitacion--><path d="M620.08,391.1 C608.799,407.884 595.236,428.064 583.951,444.854 " fill="none" id="CapacidadCuantitativa-Limitacion" style="stroke: #A80036; stroke-width: 1.0;"/><polygon fill="#A80036" points="576.558,455.852,584.898,450.6133,579.347,451.7021,578.2582,446.151,576.558,455.852" style="stroke: #A80036; stroke-width: 1.0;"/><line style="stroke: #A80036; stroke-width: 1.0;" x1="579.347" x2="583.8105" y1="451.7021" y2="445.063"/><polygon fill="#A80036" points="627.383,380.234,620.7163,382.9827,620.6895,390.1938,627.3562,387.4451,627.383,380.234" style="stroke: #A80036; stroke-width: 1.0;"/><!--link CapacidadCuantitativa to MagicoMiller--><path d="M669.859,396.961 C682.972,416.471 698.285,439.253 709.442,455.852 " fill="none" id="CapacidadCuantitativa-MagicoMiller" style="stroke: #A80036; stroke-width: 1.0;"/><polygon fill="none" points="663.964,400.738,658.617,380.234,675.583,392.929,663.964,400.738" style="stroke: #A80036; stroke-width: 1.0;"/><!--link CapacidadCuantitativa to EnfoqueVisual--><path d="M761.413,384.42 C783.582,391.803 806.039,400.907 826,412 C846.756,423.535 866.756,441.537 881.025,455.976 " fill="none" id="CapacidadCuantitativa-EnfoqueVisual" style="stroke: #A80036; stroke-width: 1.0;"/><polygon fill="none" points="759.073,391.022,742.077,378.369,763.255,377.661,759.073,391.022" style="stroke: #A80036; stroke-width: 1.0;"/><!--link Capacidad to CapacidadCualitativa--><path d="M386,292.401 C386,340.966 386,417.822 386,455.961 " fill="none" id="Capacidad-CapacidadCualitativa" style="stroke: #A80036; stroke-width: 1.0;"/><polygon fill="none" points="379,292.319,386,272.319,393,292.319,379,292.319" style="stroke: #A80036; stroke-width: 1.0;"/><!--link Limitacion to CapacidadCualitativa--><path d="M511.246,480 C501.398,480 491.551,480 481.703,480 " fill="none" id="Limitacion-CapacidadCualitativa" style="stroke: #A80036; stroke-width: 1.0;"/><polygon fill="#A80036" points="516.396,480,507.396,476,511.396,480,507.396,484,516.396,480" style="stroke: #A80036; stroke-width: 1.0;"/><!--link CapacidadCualitativa to Jeraquizacion--><path d="M494.581,503.262 C596.926,524.246 747.185,555.053 834.047,572.863 " fill="none" id="CapacidadCualitativa-Jeraquizacion" style="stroke: #A80036; stroke-width: 1.0;"/><polygon fill="#A80036" points="846.908,575.5,838.8949,569.7737,842.0099,574.4957,837.288,577.6107,846.908,575.5" style="stroke: #A80036; stroke-width: 1.0;"/><line style="stroke: #A80036; stroke-width: 1.0;" x1="842.0099" x2="834.173" y1="574.4957" y2="572.8885"/><polygon fill="#A80036" points="481.73,500.627,486.8042,505.7507,493.4854,503.0374,488.4112,497.9137,481.73,500.627" style="stroke: #A80036; stroke-width: 1.0;"/><!--link Modularizacion to Abstraccion--><path d="M862.014,728.032 C843.873,741.768 822.572,757.895 804.385,771.6658 " fill="none" id="Modularizacion-Abstraccion" style="stroke: #A80036; stroke-width: 1.0;"/><polygon fill="#A80036" points="793.802,779.6784,803.3919,777.4348,797.7883,776.6603,798.5629,771.0567,793.802,779.6784" style="stroke: #A80036; stroke-width: 1.0;"/><line style="stroke: #A80036; stroke-width: 1.0;" x1="797.7883" x2="804.1665" y1="776.6603" y2="771.8311"/><polygon fill="#A80036" points="872.622,720,865.4239,720.4328,863.0549,727.2436,870.253,726.8108,872.622,720" style="stroke: #A80036; stroke-width: 1.0;"/><!--link Modularizacion to Encapsulacion--><path d="M903,733.338 C903,744.006 903,755.677 903,766.3638 " fill="none" id="Modularizacion-Encapsulacion" style="stroke: #A80036; stroke-width: 1.0;"/><polygon fill="#A80036" points="903,779.6784,907,770.6784,903,774.6784,899,770.6784,903,779.6784" style="stroke: #A80036; stroke-width: 1.0;"/><line style="stroke: #A80036; stroke-width: 1.0;" x1="903" x2="903" y1="774.6784" y2="766.6785"/><polygon fill="#A80036" points="903,720,899,726,903,732,907,726,903,720" style="stroke: #A80036; stroke-width: 1.0;"/><!--link Jeraquizacion to Modularizacion--><path d="M903,625.338 C903,636.006 903,647.677 903,658.364 " fill="none" id="Jeraquizacion-Modularizacion" style="stroke: #A80036; stroke-width: 1.0;"/><polygon fill="#A80036" points="903,671.678,907,662.678,903,666.678,899,662.678,903,671.678" style="stroke: #A80036; stroke-width: 1.0;"/><line style="stroke: #A80036; stroke-width: 1.0;" x1="903" x2="903" y1="666.678" y2="658.678"/><polygon fill="#A80036" points="903,612,899,618,903,624,907,618,903,612" style="stroke: #A80036; stroke-width: 1.0;"/><!--link GMN246 to Tamanyo--><path d="M199.925,574.902 C221.469,561.588 257.329,541.839 291.5,534 C435.969,500.858 817.507,488.276 958.5,534 C976.886,539.963 994.535,552.353 1008.04,563.762 " fill="none" id="GMN246-Tamanyo" style="stroke: #A80036; stroke-width: 1.0; stroke-dasharray: 7.0,7.0;"/><!--link Sistema to SistemaComplejo--><path d="M1198.42,288.845 C1163.77,337.134 1106.57,416.878 1078.53,455.961 " fill="none" id="Sistema-SistemaComplejo" style="stroke: #A80036; stroke-width: 1.0;"/><polygon fill="none" points="1192.92,284.49,1210.27,272.319,1204.3,292.651,1192.92,284.49" style="stroke: #A80036; stroke-width: 1.0;"/><!--link SistemaComplejo to Tamanyo--><path d="M1052.19,516.869 C1049.18,527.858 1045.87,539.947 1042.86,550.947 " fill="none" id="SistemaComplejo-Tamanyo" style="stroke: #A80036; stroke-width: 1.0;"/><polygon fill="#A80036" points="1039.38,563.678,1045.6123,556.0519,1040.6989,558.8551,1037.8957,553.9416,1039.38,563.678" style="stroke: #A80036; stroke-width: 1.0;"/><line style="stroke: #A80036; stroke-width: 1.0;" x1="1040.6989" x2="1042.81" y1="558.8551" y2="551.1395"/><polygon fill="#A80036" points="1055.71,504,1050.269,508.7324,1052.5447,515.575,1057.9857,510.8426,1055.71,504" style="stroke: #A80036; stroke-width: 1.0;"/><!--link Limitacion to Tamanyo--><path d="M605.718,498.71 C611.481,500.66 617.344,502.485 623,504 C776.717,545.188 822.881,520.642 976,564 C980.298,565.217 984.714,566.651 989.095,568.198 " fill="none" id="Limitacion-Tamanyo" style="stroke: #A80036; stroke-width: 1.0;"/><polygon fill="#A80036" points="993.828,569.917,986.735,563.084,989.1286,568.2095,984.0031,570.6031,993.828,569.917" style="stroke: #A80036; stroke-width: 1.0;"/><!--link Solucion to Efectividad--><path d="M419.656,52.537 C370.445,70.904 296.924,98.345 245.961,117.367 " fill="none" id="Solucion-Efectividad" style="stroke: #A80036; stroke-width: 1.0;"/><polygon fill="#A80036" points="233.519,122.011,243.3495,122.6116,238.2034,120.2627,240.5523,115.1166,233.519,122.011" style="stroke: #A80036; stroke-width: 1.0;"/><line style="stroke: #A80036; stroke-width: 1.0;" x1="238.2034" x2="245.698" y1="120.2627" y2="117.465"/><polygon fill="#A80036" points="431.912,47.962,424.8921,46.3124,420.6695,52.1578,427.6893,53.8074,431.912,47.962" style="stroke: #A80036; stroke-width: 1.0;"/><!--link Equilibrio to Eficacia--><path d="M163.896,272 C170.139,288.141 178.523,309.816 185.158,326.969 " fill="none" id="Equilibrio-Eficacia" style="stroke: #A80036; stroke-width: 1.0;"/><polygon fill="#A80036" points="186.979,331.678,187.4652,321.8412,185.1764,327.0143,180.0032,324.7254,186.979,331.678" style="stroke: #A80036; stroke-width: 1.0;"/><!--link Equilibrio to Eficiencia--><path d="M138.943,272 C127.579,288.279 112.284,310.187 100.2626,327.408 " fill="none" id="Equilibrio-Eficiencia" style="stroke: #A80036; stroke-width: 1.0;"/><polygon fill="#A80036" points="97.2811,331.678,105.7121,326.5871,100.1427,327.5779,99.1519,322.0085,97.2811,331.678" style="stroke: #A80036; stroke-width: 1.0;"/><!--link Efectividad to Eficacia--><path d="M212.578,175.929 C213.11,177.278 213.587,178.637 214,180 C228.126,226.657 217.641,283.161 207.742,319.097 " fill="none" id="Efectividad-Eficacia" style="stroke: #A80036; stroke-width: 1.0;"/><polygon fill="#A80036" points="204.03,331.799,210.3942,324.2826,205.4327,326.9998,202.7154,322.0383,204.03,331.799" style="stroke: #A80036; stroke-width: 1.0;"/><line style="stroke: #A80036; stroke-width: 1.0;" x1="205.4327" x2="207.6765" y1="326.9998" y2="319.3215"/><polygon fill="#A80036" points="206.617,164.213,205.7729,171.3745,212.0589,174.9081,212.903,167.7466,206.617,164.213" style="stroke: #A80036; stroke-width: 1.0;"/><!--link Efectividad to Eficiencia--><path d="M129.885,154.141 C116.435,159.903 103.5699,168.166 95,180 C65.7837,220.344 68.1649,280.498 73.7072,318.727 " fill="none" id="Efectividad-Eficiencia" style="stroke: #A80036; stroke-width: 1.0;"/><polygon fill="#A80036" points="75.8395,331.742,78.331,322.2135,75.0307,326.8078,70.4364,323.5076,75.8395,331.742" style="stroke: #A80036; stroke-width: 1.0;"/><line style="stroke: #A80036; stroke-width: 1.0;" x1="75.0307" x2="73.7376" y1="326.8078" y2="318.913"/><polygon fill="#A80036" points="142.295,149.521,135.2764,147.8658,131.0491,153.7079,138.0677,155.3631,142.295,149.521" style="stroke: #A80036; stroke-width: 1.0;"/><!--link Efectividad to Equilibrio--><path d="M176.833,176.869 C173.412,187.858 169.649,199.947 166.224,210.947 " fill="none" id="Efectividad-Equilibrio" style="stroke: #A80036; stroke-width: 1.0;"/><polygon fill="#A80036" points="162.26,223.678,168.7544,216.2738,163.7462,218.904,161.116,213.8958,162.26,223.678" style="stroke: #A80036; stroke-width: 1.0;"/><line style="stroke: #A80036; stroke-width: 1.0;" x1="163.7462" x2="166.1245" y1="218.904" y2="211.2665"/><polygon fill="#A80036" points="180.839,164,175.2363,168.5398,177.2721,175.4576,182.8748,170.9178,180.839,164" style="stroke: #A80036; stroke-width: 1.0;"/><!--link Efectividad to Capacidad--><path d="M230.963,164 C262.509,180.889 305.374,203.837 338.037,221.323 " fill="none" id="Efectividad-Capacidad" style="stroke: #A80036; stroke-width: 1.0;"/><polygon fill="#A80036" points="342.779,223.862,336.7322,216.0879,338.3709,221.5022,332.9566,223.1409,342.779,223.862" style="stroke: #A80036; stroke-width: 1.0;"/><!--
@startuml

together modularizacion {

class Interfaz #blue

class "Implementación" as Implementacion #blue

class Acoplamiento #blue

class "Cohesión" as Cohesion #blue

}

together sistemas {

class Sistema #orange

class "Tipo de Elemento/Modulo" as TipoElemento #orange

}

Sistema *-down-> TipoElemento

together capacidades {

class "Capacidad Mental" as Capacidad #red

class "Limitación" as Limitacion #red

class "Capacidad Mental Cuantitativa" as CapacidadCuantitativa #red

class "Número Mágico de Miller" as MagicoMiller #red

class "Enfoque Visual" as EnfoqueVisual #red

class "Capacidad Mental Cualitativa" as CapacidadCualitativa #red

class "Abstracción" as Abstraccion #red

class "Encapsulación" as Encapsulacion #red

class "Modularización" as Modularizacion #red

class "Jerarquización" as Jeraquizacion #red

}

Interfaz - -> Implementacion
Interfaz - -> Abstraccion

Implementacion - -> Interfaz
Implementacion - -> Encapsulacion

Acoplamiento - -> Modularizacion
Acoplamiento - -> Jeraquizacion

Cohesion - -> Modularizacion
Cohesion - -> Jeraquizacion

TipoElemento *- -> Acoplamiento
TipoElemento *- -> Cohesion
TipoElemento *- -> Interfaz
TipoElemento *- -> Implementacion

Solucion *-right-> Sistema

Capacidad<|-down- CapacidadCuantitativa
CapacidadCuantitativa *-down-> Limitacion

CapacidadCuantitativa <|-down- MagicoMiller

CapacidadCuantitativa <|-down- EnfoqueVisual

Capacidad<|-down- CapacidadCualitativa
CapacidadCualitativa -left-> Limitacion

CapacidadCualitativa *-down-> Jeraquizacion
Modularizacion *-down-> Abstraccion
Modularizacion *-down-> Encapsulacion
Jeraquizacion *-down-> Modularizacion

class SistemaComplejo as "Sistema Complejo" #yellow
class Tamanyo as "Tamaño" #yellow
note left
Nos gustan pequeñas!!!
endnote

Sistema <|- - SistemaComplejo

SistemaComplejo *-down-> Tamanyo

Limitacion -down-> Tamanyo

together efectividad {

class Eficacia #green

class Eficiencia #green

class Equilibrio #green

class Efectividad #green

class "Solución" as Solucion #green

}

Solucion *-down-> Efectividad

Equilibrio - -> Eficacia
Equilibrio - -> Eficiencia

Efectividad *-down-> Eficacia
Efectividad *-down-> Eficiencia
Efectividad *-down-> Equilibrio

Efectividad -down-> Capacidad
@enduml

PlantUML version 1.2019.05(Sat Apr 20 18:45:36 CEST 2019)
(GPL source distribution)
Java Runtime: OpenJDK Runtime Environment
JVM: OpenJDK 64-Bit Server VM
Java Version: 1.8.0_222-b10
Operating System: Windows 10
OS Version: 10.0
Default Encoding: windows-1252
Language: es
Country: ES
--></g></svg>