<?xml version="1.0" encoding="UTF-8" standalone="no"?><svg xmlns="http://www.w3.org/2000/svg" xmlns:xlink="http://www.w3.org/1999/xlink" contentScriptType="application/ecmascript" contentStyleType="text/css" height="823px" preserveAspectRatio="none" style="width:805px;height:823px;" version="1.1" viewBox="0 0 805 823" width="805px" zoomAndPan="magnify"><defs><filter height="300%" id="f5wo1c058zqhy" width="300%" x="-1" y="-1"><feGaussianBlur result="blurOut" stdDeviation="2.0"/><feColorMatrix in="blurOut" result="blurOut2" type="matrix" values="0 0 0 0 0 0 0 0 0 0 0 0 0 0 0 0 0 0 .4 0"/><feOffset dx="4.0" dy="4.0" in="blurOut2" result="blurOut3"/><feBlend in="SourceGraphic" in2="blurOut3" mode="normal"/></filter></defs><g><!--class Solución--><rect fill="#FEFECE" filter="url(#f5wo1c058zqhy)" height="48" id="Solución" style="stroke: #A80036; stroke-width: 1.5;" width="80" x="176.5" y="8"/><ellipse cx="191.5" cy="24" fill="#ADD1B2" rx="11" ry="11" style="stroke: #A80036; stroke-width: 1.0;"/><path d="M194.2656,19.875 Q194.4219,19.6563 194.6094,19.5469 Q194.7969,19.4375 195.0156,19.4375 Q195.3906,19.4375 195.625,19.6953 Q195.8594,19.9531 195.8594,20.5625 L195.8594,22.0156 Q195.8594,22.625 195.625,22.8906 Q195.3906,23.1563 195.0156,23.1563 Q194.6719,23.1563 194.4688,22.9531 Q194.2656,22.7656 194.1563,22.25 Q194.1094,21.8906 193.9219,21.7031 Q193.5938,21.3281 192.9844,21.1094 Q192.375,20.8906 191.75,20.8906 Q190.9844,20.8906 190.3516,21.2188 Q189.7188,21.5469 189.2266,22.2969 Q188.7344,23.0469 188.7344,24.0781 L188.7344,25.1719 Q188.7344,26.4063 189.625,27.2266 Q190.5156,28.0469 192.1094,28.0469 Q193.0469,28.0469 193.7031,27.7969 Q194.0938,27.6406 194.5156,27.2031 Q194.7813,26.9375 194.9297,26.8594 Q195.0781,26.7813 195.2813,26.7813 Q195.6094,26.7813 195.8672,27.0391 Q196.125,27.2969 196.125,27.6406 Q196.125,27.9844 195.7813,28.3906 Q195.2813,28.9688 194.4844,29.2969 Q193.4063,29.75 192.1094,29.75 Q190.5938,29.75 189.3906,29.125 Q188.4063,28.625 187.7188,27.5547 Q187.0313,26.4844 187.0313,25.2031 L187.0313,24.0469 Q187.0313,22.7188 187.6484,21.5703 Q188.2656,20.4219 189.3594,19.8047 Q190.4531,19.1875 191.6875,19.1875 Q192.4219,19.1875 193.0703,19.3516 Q193.7188,19.5156 194.2656,19.875 Z "/><text fill="#000000" font-family="sans-serif" font-size="12" lengthAdjust="spacingAndGlyphs" textLength="48" x="205.5" y="28.9102">Solución</text><line style="stroke: #A80036; stroke-width: 1.5;" x1="177.5" x2="255.5" y1="40" y2="40"/><line style="stroke: #A80036; stroke-width: 1.5;" x1="177.5" x2="255.5" y1="48" y2="48"/><!--class Efectividad--><rect fill="#FEFECE" filter="url(#f5wo1c058zqhy)" height="48" id="Efectividad" style="stroke: #A80036; stroke-width: 1.5;" width="91" x="117" y="116"/><ellipse cx="132" cy="132" fill="#ADD1B2" rx="11" ry="11" style="stroke: #A80036; stroke-width: 1.0;"/><path d="M134.7656,127.875 Q134.9219,127.6563 135.1094,127.5469 Q135.2969,127.4375 135.5156,127.4375 Q135.8906,127.4375 136.125,127.6953 Q136.3594,127.9531 136.3594,128.5625 L136.3594,130.0156 Q136.3594,130.625 136.125,130.8906 Q135.8906,131.1563 135.5156,131.1563 Q135.1719,131.1563 134.9688,130.9531 Q134.7656,130.7656 134.6563,130.25 Q134.6094,129.8906 134.4219,129.7031 Q134.0938,129.3281 133.4844,129.1094 Q132.875,128.8906 132.25,128.8906 Q131.4844,128.8906 130.8516,129.2188 Q130.2188,129.5469 129.7266,130.2969 Q129.2344,131.0469 129.2344,132.0781 L129.2344,133.1719 Q129.2344,134.4063 130.125,135.2266 Q131.0156,136.0469 132.6094,136.0469 Q133.5469,136.0469 134.2031,135.7969 Q134.5938,135.6406 135.0156,135.2031 Q135.2813,134.9375 135.4297,134.8594 Q135.5781,134.7813 135.7813,134.7813 Q136.1094,134.7813 136.3672,135.0391 Q136.625,135.2969 136.625,135.6406 Q136.625,135.9844 136.2813,136.3906 Q135.7813,136.9688 134.9844,137.2969 Q133.9063,137.75 132.6094,137.75 Q131.0938,137.75 129.8906,137.125 Q128.9063,136.625 128.2188,135.5547 Q127.5313,134.4844 127.5313,133.2031 L127.5313,132.0469 Q127.5313,130.7188 128.1484,129.5703 Q128.7656,128.4219 129.8594,127.8047 Q130.9531,127.1875 132.1875,127.1875 Q132.9219,127.1875 133.5703,127.3516 Q134.2188,127.5156 134.7656,127.875 Z "/><text fill="#000000" font-family="sans-serif" font-size="12" lengthAdjust="spacingAndGlyphs" textLength="59" x="146" y="136.9102">Efectividad</text><line style="stroke: #A80036; stroke-width: 1.5;" x1="118" x2="207" y1="148" y2="148"/><line style="stroke: #A80036; stroke-width: 1.5;" x1="118" x2="207" y1="156" y2="156"/><!--class Eficacia--><rect fill="#FEFECE" filter="url(#f5wo1c058zqhy)" height="48" id="Eficacia" style="stroke: #A80036; stroke-width: 1.5;" width="75" x="6" y="224"/><ellipse cx="21" cy="240" fill="#ADD1B2" rx="11" ry="11" style="stroke: #A80036; stroke-width: 1.0;"/><path d="M23.7656,235.875 Q23.9219,235.6563 24.1094,235.5469 Q24.2969,235.4375 24.5156,235.4375 Q24.8906,235.4375 25.125,235.6953 Q25.3594,235.9531 25.3594,236.5625 L25.3594,238.0156 Q25.3594,238.625 25.125,238.8906 Q24.8906,239.1563 24.5156,239.1563 Q24.1719,239.1563 23.9688,238.9531 Q23.7656,238.7656 23.6563,238.25 Q23.6094,237.8906 23.4219,237.7031 Q23.0938,237.3281 22.4844,237.1094 Q21.875,236.8906 21.25,236.8906 Q20.4844,236.8906 19.8516,237.2188 Q19.2188,237.5469 18.7266,238.2969 Q18.2344,239.0469 18.2344,240.0781 L18.2344,241.1719 Q18.2344,242.4063 19.125,243.2266 Q20.0156,244.0469 21.6094,244.0469 Q22.5469,244.0469 23.2031,243.7969 Q23.5938,243.6406 24.0156,243.2031 Q24.2813,242.9375 24.4297,242.8594 Q24.5781,242.7813 24.7813,242.7813 Q25.1094,242.7813 25.3672,243.0391 Q25.625,243.2969 25.625,243.6406 Q25.625,243.9844 25.2813,244.3906 Q24.7813,244.9688 23.9844,245.2969 Q22.9063,245.75 21.6094,245.75 Q20.0938,245.75 18.8906,245.125 Q17.9063,244.625 17.2188,243.5547 Q16.5313,242.4844 16.5313,241.2031 L16.5313,240.0469 Q16.5313,238.7188 17.1484,237.5703 Q17.7656,236.4219 18.8594,235.8047 Q19.9531,235.1875 21.1875,235.1875 Q21.9219,235.1875 22.5703,235.3516 Q23.2188,235.5156 23.7656,235.875 Z "/><text fill="#000000" font-family="sans-serif" font-size="12" lengthAdjust="spacingAndGlyphs" textLength="43" x="35" y="244.9102">Eficacia</text><line style="stroke: #A80036; stroke-width: 1.5;" x1="7" x2="80" y1="256" y2="256"/><line style="stroke: #A80036; stroke-width: 1.5;" x1="7" x2="80" y1="264" y2="264"/><!--class Eficiencia--><rect fill="#FEFECE" filter="url(#f5wo1c058zqhy)" height="48" id="Eficiencia" style="stroke: #A80036; stroke-width: 1.5;" width="85" x="116" y="224"/><ellipse cx="131" cy="240" fill="#ADD1B2" rx="11" ry="11" style="stroke: #A80036; stroke-width: 1.0;"/><path d="M133.7656,235.875 Q133.9219,235.6563 134.1094,235.5469 Q134.2969,235.4375 134.5156,235.4375 Q134.8906,235.4375 135.125,235.6953 Q135.3594,235.9531 135.3594,236.5625 L135.3594,238.0156 Q135.3594,238.625 135.125,238.8906 Q134.8906,239.1563 134.5156,239.1563 Q134.1719,239.1563 133.9688,238.9531 Q133.7656,238.7656 133.6563,238.25 Q133.6094,237.8906 133.4219,237.7031 Q133.0938,237.3281 132.4844,237.1094 Q131.875,236.8906 131.25,236.8906 Q130.4844,236.8906 129.8516,237.2188 Q129.2188,237.5469 128.7266,238.2969 Q128.2344,239.0469 128.2344,240.0781 L128.2344,241.1719 Q128.2344,242.4063 129.125,243.2266 Q130.0156,244.0469 131.6094,244.0469 Q132.5469,244.0469 133.2031,243.7969 Q133.5938,243.6406 134.0156,243.2031 Q134.2813,242.9375 134.4297,242.8594 Q134.5781,242.7813 134.7813,242.7813 Q135.1094,242.7813 135.3672,243.0391 Q135.625,243.2969 135.625,243.6406 Q135.625,243.9844 135.2813,244.3906 Q134.7813,244.9688 133.9844,245.2969 Q132.9063,245.75 131.6094,245.75 Q130.0938,245.75 128.8906,245.125 Q127.9063,244.625 127.2188,243.5547 Q126.5313,242.4844 126.5313,241.2031 L126.5313,240.0469 Q126.5313,238.7188 127.1484,237.5703 Q127.7656,236.4219 128.8594,235.8047 Q129.9531,235.1875 131.1875,235.1875 Q131.9219,235.1875 132.5703,235.3516 Q133.2188,235.5156 133.7656,235.875 Z "/><text fill="#000000" font-family="sans-serif" font-size="12" lengthAdjust="spacingAndGlyphs" textLength="53" x="145" y="244.9102">Eficiencia</text><line style="stroke: #A80036; stroke-width: 1.5;" x1="117" x2="200" y1="256" y2="256"/><line style="stroke: #A80036; stroke-width: 1.5;" x1="117" x2="200" y1="264" y2="264"/><!--class Sistema--><rect fill="#FEFECE" filter="url(#f5wo1c058zqhy)" height="48" id="Sistema" style="stroke: #A80036; stroke-width: 1.5;" width="78" x="236.5" y="224"/><ellipse cx="251.5" cy="240" fill="#ADD1B2" rx="11" ry="11" style="stroke: #A80036; stroke-width: 1.0;"/><path d="M254.2656,235.875 Q254.4219,235.6563 254.6094,235.5469 Q254.7969,235.4375 255.0156,235.4375 Q255.3906,235.4375 255.625,235.6953 Q255.8594,235.9531 255.8594,236.5625 L255.8594,238.0156 Q255.8594,238.625 255.625,238.8906 Q255.3906,239.1563 255.0156,239.1563 Q254.6719,239.1563 254.4688,238.9531 Q254.2656,238.7656 254.1563,238.25 Q254.1094,237.8906 253.9219,237.7031 Q253.5938,237.3281 252.9844,237.1094 Q252.375,236.8906 251.75,236.8906 Q250.9844,236.8906 250.3516,237.2188 Q249.7188,237.5469 249.2266,238.2969 Q248.7344,239.0469 248.7344,240.0781 L248.7344,241.1719 Q248.7344,242.4063 249.625,243.2266 Q250.5156,244.0469 252.1094,244.0469 Q253.0469,244.0469 253.7031,243.7969 Q254.0938,243.6406 254.5156,243.2031 Q254.7813,242.9375 254.9297,242.8594 Q255.0781,242.7813 255.2813,242.7813 Q255.6094,242.7813 255.8672,243.0391 Q256.125,243.2969 256.125,243.6406 Q256.125,243.9844 255.7813,244.3906 Q255.2813,244.9688 254.4844,245.2969 Q253.4063,245.75 252.1094,245.75 Q250.5938,245.75 249.3906,245.125 Q248.4063,244.625 247.7188,243.5547 Q247.0313,242.4844 247.0313,241.2031 L247.0313,240.0469 Q247.0313,238.7188 247.6484,237.5703 Q248.2656,236.4219 249.3594,235.8047 Q250.4531,235.1875 251.6875,235.1875 Q252.4219,235.1875 253.0703,235.3516 Q253.7188,235.5156 254.2656,235.875 Z "/><text fill="#000000" font-family="sans-serif" font-size="12" lengthAdjust="spacingAndGlyphs" textLength="46" x="265.5" y="244.9102">Sistema</text><line style="stroke: #A80036; stroke-width: 1.5;" x1="237.5" x2="313.5" y1="256" y2="256"/><line style="stroke: #A80036; stroke-width: 1.5;" x1="237.5" x2="313.5" y1="264" y2="264"/><!--class Complejidad--><rect fill="#FEFECE" filter="url(#f5wo1c058zqhy)" height="48" id="Complejidad" style="stroke: #A80036; stroke-width: 1.5;" width="103" x="161" y="332"/><ellipse cx="176" cy="348" fill="#ADD1B2" rx="11" ry="11" style="stroke: #A80036; stroke-width: 1.0;"/><path d="M178.7656,343.875 Q178.9219,343.6563 179.1094,343.5469 Q179.2969,343.4375 179.5156,343.4375 Q179.8906,343.4375 180.125,343.6953 Q180.3594,343.9531 180.3594,344.5625 L180.3594,346.0156 Q180.3594,346.625 180.125,346.8906 Q179.8906,347.1563 179.5156,347.1563 Q179.1719,347.1563 178.9688,346.9531 Q178.7656,346.7656 178.6563,346.25 Q178.6094,345.8906 178.4219,345.7031 Q178.0938,345.3281 177.4844,345.1094 Q176.875,344.8906 176.25,344.8906 Q175.4844,344.8906 174.8516,345.2188 Q174.2188,345.5469 173.7266,346.2969 Q173.2344,347.0469 173.2344,348.0781 L173.2344,349.1719 Q173.2344,350.4063 174.125,351.2266 Q175.0156,352.0469 176.6094,352.0469 Q177.5469,352.0469 178.2031,351.7969 Q178.5938,351.6406 179.0156,351.2031 Q179.2813,350.9375 179.4297,350.8594 Q179.5781,350.7813 179.7813,350.7813 Q180.1094,350.7813 180.3672,351.0391 Q180.625,351.2969 180.625,351.6406 Q180.625,351.9844 180.2813,352.3906 Q179.7813,352.9688 178.9844,353.2969 Q177.9063,353.75 176.6094,353.75 Q175.0938,353.75 173.8906,353.125 Q172.9063,352.625 172.2188,351.5547 Q171.5313,350.4844 171.5313,349.2031 L171.5313,348.0469 Q171.5313,346.7188 172.1484,345.5703 Q172.7656,344.4219 173.8594,343.8047 Q174.9531,343.1875 176.1875,343.1875 Q176.9219,343.1875 177.5703,343.3516 Q178.2188,343.5156 178.7656,343.875 Z "/><text fill="#000000" font-family="sans-serif" font-size="12" lengthAdjust="spacingAndGlyphs" textLength="71" x="190" y="352.9102">Complejidad</text><line style="stroke: #A80036; stroke-width: 1.5;" x1="162" x2="263" y1="364" y2="364"/><line style="stroke: #A80036; stroke-width: 1.5;" x1="162" x2="263" y1="372" y2="372"/><!--class Sencillez--><rect fill="#FEFECE" filter="url(#f5wo1c058zqhy)" height="48" id="Sencillez" style="stroke: #A80036; stroke-width: 1.5;" width="81" x="299" y="332"/><ellipse cx="314" cy="348" fill="#ADD1B2" rx="11" ry="11" style="stroke: #A80036; stroke-width: 1.0;"/><path d="M316.7656,343.875 Q316.9219,343.6563 317.1094,343.5469 Q317.2969,343.4375 317.5156,343.4375 Q317.8906,343.4375 318.125,343.6953 Q318.3594,343.9531 318.3594,344.5625 L318.3594,346.0156 Q318.3594,346.625 318.125,346.8906 Q317.8906,347.1563 317.5156,347.1563 Q317.1719,347.1563 316.9688,346.9531 Q316.7656,346.7656 316.6563,346.25 Q316.6094,345.8906 316.4219,345.7031 Q316.0938,345.3281 315.4844,345.1094 Q314.875,344.8906 314.25,344.8906 Q313.4844,344.8906 312.8516,345.2188 Q312.2188,345.5469 311.7266,346.2969 Q311.2344,347.0469 311.2344,348.0781 L311.2344,349.1719 Q311.2344,350.4063 312.125,351.2266 Q313.0156,352.0469 314.6094,352.0469 Q315.5469,352.0469 316.2031,351.7969 Q316.5938,351.6406 317.0156,351.2031 Q317.2813,350.9375 317.4297,350.8594 Q317.5781,350.7813 317.7813,350.7813 Q318.1094,350.7813 318.3672,351.0391 Q318.625,351.2969 318.625,351.6406 Q318.625,351.9844 318.2813,352.3906 Q317.7813,352.9688 316.9844,353.2969 Q315.9063,353.75 314.6094,353.75 Q313.0938,353.75 311.8906,353.125 Q310.9063,352.625 310.2188,351.5547 Q309.5313,350.4844 309.5313,349.2031 L309.5313,348.0469 Q309.5313,346.7188 310.1484,345.5703 Q310.7656,344.4219 311.8594,343.8047 Q312.9531,343.1875 314.1875,343.1875 Q314.9219,343.1875 315.5703,343.3516 Q316.2188,343.5156 316.7656,343.875 Z "/><text fill="#000000" font-family="sans-serif" font-size="12" lengthAdjust="spacingAndGlyphs" textLength="49" x="328" y="352.9102">Sencillez</text><line style="stroke: #A80036; stroke-width: 1.5;" x1="300" x2="379" y1="364" y2="364"/><line style="stroke: #A80036; stroke-width: 1.5;" x1="300" x2="379" y1="372" y2="372"/><!--class Capacidad--><rect fill="#FEFECE" filter="url(#f5wo1c058zqhy)" height="48" id="Capacidad" style="stroke: #A80036; stroke-width: 1.5;" width="92" x="229.5" y="440"/><ellipse cx="244.5" cy="456" fill="#ADD1B2" rx="11" ry="11" style="stroke: #A80036; stroke-width: 1.0;"/><path d="M247.2656,451.875 Q247.4219,451.6563 247.6094,451.5469 Q247.7969,451.4375 248.0156,451.4375 Q248.3906,451.4375 248.625,451.6953 Q248.8594,451.9531 248.8594,452.5625 L248.8594,454.0156 Q248.8594,454.625 248.625,454.8906 Q248.3906,455.1563 248.0156,455.1563 Q247.6719,455.1563 247.4688,454.9531 Q247.2656,454.7656 247.1563,454.25 Q247.1094,453.8906 246.9219,453.7031 Q246.5938,453.3281 245.9844,453.1094 Q245.375,452.8906 244.75,452.8906 Q243.9844,452.8906 243.3516,453.2188 Q242.7188,453.5469 242.2266,454.2969 Q241.7344,455.0469 241.7344,456.0781 L241.7344,457.1719 Q241.7344,458.4063 242.625,459.2266 Q243.5156,460.0469 245.1094,460.0469 Q246.0469,460.0469 246.7031,459.7969 Q247.0938,459.6406 247.5156,459.2031 Q247.7813,458.9375 247.9297,458.8594 Q248.0781,458.7813 248.2813,458.7813 Q248.6094,458.7813 248.8672,459.0391 Q249.125,459.2969 249.125,459.6406 Q249.125,459.9844 248.7813,460.3906 Q248.2813,460.9688 247.4844,461.2969 Q246.4063,461.75 245.1094,461.75 Q243.5938,461.75 242.3906,461.125 Q241.4063,460.625 240.7188,459.5547 Q240.0313,458.4844 240.0313,457.2031 L240.0313,456.0469 Q240.0313,454.7188 240.6484,453.5703 Q241.2656,452.4219 242.3594,451.8047 Q243.4531,451.1875 244.6875,451.1875 Q245.4219,451.1875 246.0703,451.3516 Q246.7188,451.5156 247.2656,451.875 Z "/><text fill="#000000" font-family="sans-serif" font-size="12" lengthAdjust="spacingAndGlyphs" textLength="60" x="258.5" y="460.9102">Capacidad</text><line style="stroke: #A80036; stroke-width: 1.5;" x1="230.5" x2="320.5" y1="472" y2="472"/><line style="stroke: #A80036; stroke-width: 1.5;" x1="230.5" x2="320.5" y1="480" y2="480"/><!--class Cuantitativa--><rect fill="#FEFECE" filter="url(#f5wo1c058zqhy)" height="48" id="Cuantitativa" style="stroke: #A80036; stroke-width: 1.5;" width="96" x="110.5" y="656"/><ellipse cx="125.5" cy="672" fill="#ADD1B2" rx="11" ry="11" style="stroke: #A80036; stroke-width: 1.0;"/><path d="M128.2656,667.875 Q128.4219,667.6563 128.6094,667.5469 Q128.7969,667.4375 129.0156,667.4375 Q129.3906,667.4375 129.625,667.6953 Q129.8594,667.9531 129.8594,668.5625 L129.8594,670.0156 Q129.8594,670.625 129.625,670.8906 Q129.3906,671.1563 129.0156,671.1563 Q128.6719,671.1563 128.4688,670.9531 Q128.2656,670.7656 128.1563,670.25 Q128.1094,669.8906 127.9219,669.7031 Q127.5938,669.3281 126.9844,669.1094 Q126.375,668.8906 125.75,668.8906 Q124.9844,668.8906 124.3516,669.2188 Q123.7188,669.5469 123.2266,670.2969 Q122.7344,671.0469 122.7344,672.0781 L122.7344,673.1719 Q122.7344,674.4063 123.625,675.2266 Q124.5156,676.0469 126.1094,676.0469 Q127.0469,676.0469 127.7031,675.7969 Q128.0938,675.6406 128.5156,675.2031 Q128.7813,674.9375 128.9297,674.8594 Q129.0781,674.7813 129.2813,674.7813 Q129.6094,674.7813 129.8672,675.0391 Q130.125,675.2969 130.125,675.6406 Q130.125,675.9844 129.7813,676.3906 Q129.2813,676.9688 128.4844,677.2969 Q127.4063,677.75 126.1094,677.75 Q124.5938,677.75 123.3906,677.125 Q122.4063,676.625 121.7188,675.5547 Q121.0313,674.4844 121.0313,673.2031 L121.0313,672.0469 Q121.0313,670.7188 121.6484,669.5703 Q122.2656,668.4219 123.3594,667.8047 Q124.4531,667.1875 125.6875,667.1875 Q126.4219,667.1875 127.0703,667.3516 Q127.7188,667.5156 128.2656,667.875 Z "/><text fill="#000000" font-family="sans-serif" font-size="12" lengthAdjust="spacingAndGlyphs" textLength="64" x="139.5" y="676.9102">Cuantitativa</text><line style="stroke: #A80036; stroke-width: 1.5;" x1="111.5" x2="205.5" y1="688" y2="688"/><line style="stroke: #A80036; stroke-width: 1.5;" x1="111.5" x2="205.5" y1="696" y2="696"/><!--class Cualitativa--><rect fill="#FEFECE" filter="url(#f5wo1c058zqhy)" height="48" id="Cualitativa" style="stroke: #A80036; stroke-width: 1.5;" width="89" x="316" y="548"/><ellipse cx="331" cy="564" fill="#ADD1B2" rx="11" ry="11" style="stroke: #A80036; stroke-width: 1.0;"/><path d="M333.7656,559.875 Q333.9219,559.6563 334.1094,559.5469 Q334.2969,559.4375 334.5156,559.4375 Q334.8906,559.4375 335.125,559.6953 Q335.3594,559.9531 335.3594,560.5625 L335.3594,562.0156 Q335.3594,562.625 335.125,562.8906 Q334.8906,563.1563 334.5156,563.1563 Q334.1719,563.1563 333.9688,562.9531 Q333.7656,562.7656 333.6563,562.25 Q333.6094,561.8906 333.4219,561.7031 Q333.0938,561.3281 332.4844,561.1094 Q331.875,560.8906 331.25,560.8906 Q330.4844,560.8906 329.8516,561.2188 Q329.2188,561.5469 328.7266,562.2969 Q328.2344,563.0469 328.2344,564.0781 L328.2344,565.1719 Q328.2344,566.4063 329.125,567.2266 Q330.0156,568.0469 331.6094,568.0469 Q332.5469,568.0469 333.2031,567.7969 Q333.5938,567.6406 334.0156,567.2031 Q334.2813,566.9375 334.4297,566.8594 Q334.5781,566.7813 334.7813,566.7813 Q335.1094,566.7813 335.3672,567.0391 Q335.625,567.2969 335.625,567.6406 Q335.625,567.9844 335.2813,568.3906 Q334.7813,568.9688 333.9844,569.2969 Q332.9063,569.75 331.6094,569.75 Q330.0938,569.75 328.8906,569.125 Q327.9063,568.625 327.2188,567.5547 Q326.5313,566.4844 326.5313,565.2031 L326.5313,564.0469 Q326.5313,562.7188 327.1484,561.5703 Q327.7656,560.4219 328.8594,559.8047 Q329.9531,559.1875 331.1875,559.1875 Q331.9219,559.1875 332.5703,559.3516 Q333.2188,559.5156 333.7656,559.875 Z "/><text fill="#000000" font-family="sans-serif" font-size="12" lengthAdjust="spacingAndGlyphs" textLength="57" x="345" y="568.9102">Cualitativa</text><line style="stroke: #A80036; stroke-width: 1.5;" x1="317" x2="404" y1="580" y2="580"/><line style="stroke: #A80036; stroke-width: 1.5;" x1="317" x2="404" y1="588" y2="588"/><!--class Abstracción--><rect fill="#FEFECE" filter="url(#f5wo1c058zqhy)" height="48" id="Abstracción" style="stroke: #A80036; stroke-width: 1.5;" width="96" x="241.5" y="656"/><ellipse cx="256.5" cy="672" fill="#ADD1B2" rx="11" ry="11" style="stroke: #A80036; stroke-width: 1.0;"/><path d="M259.2656,667.875 Q259.4219,667.6563 259.6094,667.5469 Q259.7969,667.4375 260.0156,667.4375 Q260.3906,667.4375 260.625,667.6953 Q260.8594,667.9531 260.8594,668.5625 L260.8594,670.0156 Q260.8594,670.625 260.625,670.8906 Q260.3906,671.1563 260.0156,671.1563 Q259.6719,671.1563 259.4688,670.9531 Q259.2656,670.7656 259.1563,670.25 Q259.1094,669.8906 258.9219,669.7031 Q258.5938,669.3281 257.9844,669.1094 Q257.375,668.8906 256.75,668.8906 Q255.9844,668.8906 255.3516,669.2188 Q254.7188,669.5469 254.2266,670.2969 Q253.7344,671.0469 253.7344,672.0781 L253.7344,673.1719 Q253.7344,674.4063 254.625,675.2266 Q255.5156,676.0469 257.1094,676.0469 Q258.0469,676.0469 258.7031,675.7969 Q259.0938,675.6406 259.5156,675.2031 Q259.7813,674.9375 259.9297,674.8594 Q260.0781,674.7813 260.2813,674.7813 Q260.6094,674.7813 260.8672,675.0391 Q261.125,675.2969 261.125,675.6406 Q261.125,675.9844 260.7813,676.3906 Q260.2813,676.9688 259.4844,677.2969 Q258.4063,677.75 257.1094,677.75 Q255.5938,677.75 254.3906,677.125 Q253.4063,676.625 252.7188,675.5547 Q252.0313,674.4844 252.0313,673.2031 L252.0313,672.0469 Q252.0313,670.7188 252.6484,669.5703 Q253.2656,668.4219 254.3594,667.8047 Q255.4531,667.1875 256.6875,667.1875 Q257.4219,667.1875 258.0703,667.3516 Q258.7188,667.5156 259.2656,667.875 Z "/><text fill="#000000" font-family="sans-serif" font-size="12" lengthAdjust="spacingAndGlyphs" textLength="64" x="270.5" y="676.9102">Abstracción</text><line style="stroke: #A80036; stroke-width: 1.5;" x1="242.5" x2="336.5" y1="688" y2="688"/><line style="stroke: #A80036; stroke-width: 1.5;" x1="242.5" x2="336.5" y1="696" y2="696"/><!--class Encapsulacción--><rect fill="#FEFECE" filter="url(#f5wo1c058zqhy)" height="48" id="Encapsulacción" style="stroke: #A80036; stroke-width: 1.5;" width="120" x="372.5" y="656"/><ellipse cx="387.5" cy="672" fill="#ADD1B2" rx="11" ry="11" style="stroke: #A80036; stroke-width: 1.0;"/><path d="M390.2656,667.875 Q390.4219,667.6563 390.6094,667.5469 Q390.7969,667.4375 391.0156,667.4375 Q391.3906,667.4375 391.625,667.6953 Q391.8594,667.9531 391.8594,668.5625 L391.8594,670.0156 Q391.8594,670.625 391.625,670.8906 Q391.3906,671.1563 391.0156,671.1563 Q390.6719,671.1563 390.4688,670.9531 Q390.2656,670.7656 390.1563,670.25 Q390.1094,669.8906 389.9219,669.7031 Q389.5938,669.3281 388.9844,669.1094 Q388.375,668.8906 387.75,668.8906 Q386.9844,668.8906 386.3516,669.2188 Q385.7188,669.5469 385.2266,670.2969 Q384.7344,671.0469 384.7344,672.0781 L384.7344,673.1719 Q384.7344,674.4063 385.625,675.2266 Q386.5156,676.0469 388.1094,676.0469 Q389.0469,676.0469 389.7031,675.7969 Q390.0938,675.6406 390.5156,675.2031 Q390.7813,674.9375 390.9297,674.8594 Q391.0781,674.7813 391.2813,674.7813 Q391.6094,674.7813 391.8672,675.0391 Q392.125,675.2969 392.125,675.6406 Q392.125,675.9844 391.7813,676.3906 Q391.2813,676.9688 390.4844,677.2969 Q389.4063,677.75 388.1094,677.75 Q386.5938,677.75 385.3906,677.125 Q384.4063,676.625 383.7188,675.5547 Q383.0313,674.4844 383.0313,673.2031 L383.0313,672.0469 Q383.0313,670.7188 383.6484,669.5703 Q384.2656,668.4219 385.3594,667.8047 Q386.4531,667.1875 387.6875,667.1875 Q388.4219,667.1875 389.0703,667.3516 Q389.7188,667.5156 390.2656,667.875 Z "/><text fill="#000000" font-family="sans-serif" font-size="12" lengthAdjust="spacingAndGlyphs" textLength="88" x="401.5" y="676.9102">Encapsulacción</text><line style="stroke: #A80036; stroke-width: 1.5;" x1="373.5" x2="491.5" y1="688" y2="688"/><line style="stroke: #A80036; stroke-width: 1.5;" x1="373.5" x2="491.5" y1="696" y2="696"/><!--class Modularizacción--><rect fill="#FEFECE" filter="url(#f5wo1c058zqhy)" height="48" id="Modularizacción" style="stroke: #A80036; stroke-width: 1.5;" width="120" x="527.5" y="656"/><ellipse cx="542.5" cy="672" fill="#ADD1B2" rx="11" ry="11" style="stroke: #A80036; stroke-width: 1.0;"/><path d="M545.2656,667.875 Q545.4219,667.6563 545.6094,667.5469 Q545.7969,667.4375 546.0156,667.4375 Q546.3906,667.4375 546.625,667.6953 Q546.8594,667.9531 546.8594,668.5625 L546.8594,670.0156 Q546.8594,670.625 546.625,670.8906 Q546.3906,671.1563 546.0156,671.1563 Q545.6719,671.1563 545.4688,670.9531 Q545.2656,670.7656 545.1563,670.25 Q545.1094,669.8906 544.9219,669.7031 Q544.5938,669.3281 543.9844,669.1094 Q543.375,668.8906 542.75,668.8906 Q541.9844,668.8906 541.3516,669.2188 Q540.7188,669.5469 540.2266,670.2969 Q539.7344,671.0469 539.7344,672.0781 L539.7344,673.1719 Q539.7344,674.4063 540.625,675.2266 Q541.5156,676.0469 543.1094,676.0469 Q544.0469,676.0469 544.7031,675.7969 Q545.0938,675.6406 545.5156,675.2031 Q545.7813,674.9375 545.9297,674.8594 Q546.0781,674.7813 546.2813,674.7813 Q546.6094,674.7813 546.8672,675.0391 Q547.125,675.2969 547.125,675.6406 Q547.125,675.9844 546.7813,676.3906 Q546.2813,676.9688 545.4844,677.2969 Q544.4063,677.75 543.1094,677.75 Q541.5938,677.75 540.3906,677.125 Q539.4063,676.625 538.7188,675.5547 Q538.0313,674.4844 538.0313,673.2031 L538.0313,672.0469 Q538.0313,670.7188 538.6484,669.5703 Q539.2656,668.4219 540.3594,667.8047 Q541.4531,667.1875 542.6875,667.1875 Q543.4219,667.1875 544.0703,667.3516 Q544.7188,667.5156 545.2656,667.875 Z "/><text fill="#000000" font-family="sans-serif" font-size="12" lengthAdjust="spacingAndGlyphs" textLength="88" x="556.5" y="676.9102">Modularizacción</text><line style="stroke: #A80036; stroke-width: 1.5;" x1="528.5" x2="646.5" y1="688" y2="688"/><line style="stroke: #A80036; stroke-width: 1.5;" x1="528.5" x2="646.5" y1="696" y2="696"/><!--class Jerarquización--><rect fill="#FEFECE" filter="url(#f5wo1c058zqhy)" height="48" id="Jerarquización" style="stroke: #A80036; stroke-width: 1.5;" width="112" x="682.5" y="656"/><ellipse cx="697.5" cy="672" fill="#ADD1B2" rx="11" ry="11" style="stroke: #A80036; stroke-width: 1.0;"/><path d="M700.2656,667.875 Q700.4219,667.6563 700.6094,667.5469 Q700.7969,667.4375 701.0156,667.4375 Q701.3906,667.4375 701.625,667.6953 Q701.8594,667.9531 701.8594,668.5625 L701.8594,670.0156 Q701.8594,670.625 701.625,670.8906 Q701.3906,671.1563 701.0156,671.1563 Q700.6719,671.1563 700.4688,670.9531 Q700.2656,670.7656 700.1563,670.25 Q700.1094,669.8906 699.9219,669.7031 Q699.5938,669.3281 698.9844,669.1094 Q698.375,668.8906 697.75,668.8906 Q696.9844,668.8906 696.3516,669.2188 Q695.7188,669.5469 695.2266,670.2969 Q694.7344,671.0469 694.7344,672.0781 L694.7344,673.1719 Q694.7344,674.4063 695.625,675.2266 Q696.5156,676.0469 698.1094,676.0469 Q699.0469,676.0469 699.7031,675.7969 Q700.0938,675.6406 700.5156,675.2031 Q700.7813,674.9375 700.9297,674.8594 Q701.0781,674.7813 701.2813,674.7813 Q701.6094,674.7813 701.8672,675.0391 Q702.125,675.2969 702.125,675.6406 Q702.125,675.9844 701.7813,676.3906 Q701.2813,676.9688 700.4844,677.2969 Q699.4063,677.75 698.1094,677.75 Q696.5938,677.75 695.3906,677.125 Q694.4063,676.625 693.7188,675.5547 Q693.0313,674.4844 693.0313,673.2031 L693.0313,672.0469 Q693.0313,670.7188 693.6484,669.5703 Q694.2656,668.4219 695.3594,667.8047 Q696.4531,667.1875 697.6875,667.1875 Q698.4219,667.1875 699.0703,667.3516 Q699.7188,667.5156 700.2656,667.875 Z "/><text fill="#000000" font-family="sans-serif" font-size="12" lengthAdjust="spacingAndGlyphs" textLength="80" x="711.5" y="676.9102">Jerarquización</text><line style="stroke: #A80036; stroke-width: 1.5;" x1="683.5" x2="793.5" y1="688" y2="688"/><line style="stroke: #A80036; stroke-width: 1.5;" x1="683.5" x2="793.5" y1="696" y2="696"/><!--class Granularidad--><rect fill="#FEFECE" filter="url(#f5wo1c058zqhy)" height="48" id="Granularidad" style="stroke: #A80036; stroke-width: 1.5;" width="104" x="106.5" y="764"/><ellipse cx="121.5" cy="780" fill="#ADD1B2" rx="11" ry="11" style="stroke: #A80036; stroke-width: 1.0;"/><path d="M124.2656,775.875 Q124.4219,775.6563 124.6094,775.5469 Q124.7969,775.4375 125.0156,775.4375 Q125.3906,775.4375 125.625,775.6953 Q125.8594,775.9531 125.8594,776.5625 L125.8594,778.0156 Q125.8594,778.625 125.625,778.8906 Q125.3906,779.1563 125.0156,779.1563 Q124.6719,779.1563 124.4688,778.9531 Q124.2656,778.7656 124.1563,778.25 Q124.1094,777.8906 123.9219,777.7031 Q123.5938,777.3281 122.9844,777.1094 Q122.375,776.8906 121.75,776.8906 Q120.9844,776.8906 120.3516,777.2188 Q119.7188,777.5469 119.2266,778.2969 Q118.7344,779.0469 118.7344,780.0781 L118.7344,781.1719 Q118.7344,782.4063 119.625,783.2266 Q120.5156,784.0469 122.1094,784.0469 Q123.0469,784.0469 123.7031,783.7969 Q124.0938,783.6406 124.5156,783.2031 Q124.7813,782.9375 124.9297,782.8594 Q125.0781,782.7813 125.2813,782.7813 Q125.6094,782.7813 125.8672,783.0391 Q126.125,783.2969 126.125,783.6406 Q126.125,783.9844 125.7813,784.3906 Q125.2813,784.9688 124.4844,785.2969 Q123.4063,785.75 122.1094,785.75 Q120.5938,785.75 119.3906,785.125 Q118.4063,784.625 117.7188,783.5547 Q117.0313,782.4844 117.0313,781.2031 L117.0313,780.0469 Q117.0313,778.7188 117.6484,777.5703 Q118.2656,776.4219 119.3594,775.8047 Q120.4531,775.1875 121.6875,775.1875 Q122.4219,775.1875 123.0703,775.3516 Q123.7188,775.5156 124.2656,775.875 Z "/><text fill="#000000" font-family="sans-serif" font-size="12" lengthAdjust="spacingAndGlyphs" textLength="72" x="135.5" y="784.9102">Granularidad</text><line style="stroke: #A80036; stroke-width: 1.5;" x1="107.5" x2="209.5" y1="796" y2="796"/><line style="stroke: #A80036; stroke-width: 1.5;" x1="107.5" x2="209.5" y1="804" y2="804"/><!--link Solución to Sistema--><path d="M226.418,68.973 C237.31,108.482 254.699,171.553 265.589,211.052 " fill="none" id="Solución-Sistema" style="stroke: #A80036; stroke-width: 1.0;"/><polygon fill="#A80036" points="269.082,223.72,270.5458,213.9805,267.7529,218.8999,262.8336,216.107,269.082,223.72" style="stroke: #A80036; stroke-width: 1.0;"/><line style="stroke: #A80036; stroke-width: 1.0;" x1="267.7529" x2="265.6265" y1="218.8999" y2="211.1875"/><polygon fill="#A80036" points="222.926,56.309,220.6648,63.1564,226.1158,67.8773,228.377,61.0299,222.926,56.309" style="stroke: #A80036; stroke-width: 1.0;"/><!--link Solución to Efectividad--><path d="M198.703,67.935 C192.838,79.447 186.315,92.251 180.44,103.784 " fill="none" id="Solución-Efectividad" style="stroke: #A80036; stroke-width: 1.0;"/><polygon fill="#A80036" points="174.381,115.678,182.0302,109.474,176.6504,111.2227,174.9017,105.8429,174.381,115.678" style="stroke: #A80036; stroke-width: 1.0;"/><line style="stroke: #A80036; stroke-width: 1.0;" x1="176.6504" x2="180.282" y1="111.2227" y2="104.095"/><polygon fill="#A80036" points="204.783,56,198.4956,59.5311,199.3369,66.693,205.6243,63.1619,204.783,56" style="stroke: #A80036; stroke-width: 1.0;"/><!--link Efectividad to Eficacia--><path d="M126.898,172.713 C111.962,186.017 94.6172,201.467 79.6258,214.821 " fill="none" id="Efectividad-Eficacia" style="stroke: #A80036; stroke-width: 1.0;"/><polygon fill="#A80036" points="69.6818,223.678,79.0628,220.6785,73.4154,220.3523,73.7416,214.7048,69.6818,223.678" style="stroke: #A80036; stroke-width: 1.0;"/><line style="stroke: #A80036; stroke-width: 1.0;" x1="73.4154" x2="79.3891" y1="220.3523" y2="215.0315"/><polygon fill="#A80036" points="136.679,164,129.5382,165.0042,127.7186,171.9819,134.8594,170.9778,136.679,164" style="stroke: #A80036; stroke-width: 1.0;"/><!--link Efectividad to Eficiencia--><path d="M161.129,177.338 C160.726,188.006 160.286,199.677 159.882,210.364 " fill="none" id="Efectividad-Eficiencia" style="stroke: #A80036; stroke-width: 1.0;"/><polygon fill="#A80036" points="159.38,223.678,163.7164,214.8352,159.5685,218.6816,155.7221,214.5336,159.38,223.678" style="stroke: #A80036; stroke-width: 1.0;"/><line style="stroke: #A80036; stroke-width: 1.0;" x1="159.5685" x2="159.8705" y1="218.6816" y2="210.6875"/><polygon fill="#A80036" points="161.632,164,157.4087,169.845,161.1797,175.9915,165.403,170.1465,161.632,164" style="stroke: #A80036; stroke-width: 1.0;"/><!--link Efectividad to Sistema--><path d="M187.019,164 C204.52,180.417 228.124,202.559 246.551,219.844 " fill="none" id="Efectividad-Sistema" style="stroke: #A80036; stroke-width: 1.0;"/><polygon fill="#A80036" points="250.638,223.678,246.8109,214.6031,246.9914,220.2571,241.3375,220.4376,250.638,223.678" style="stroke: #A80036; stroke-width: 1.0;"/><!--link Sistema to Complejidad--><path d="M251.362,289.613 C242.902,303.848 233.691,319.345 226.361,331.678 " fill="none" id="Sistema-Complejidad" style="stroke: #A80036; stroke-width: 1.0;"/><polygon fill="none" points="245.594,285.617,261.83,272,257.629,292.769,245.594,285.617" style="stroke: #A80036; stroke-width: 1.0;"/><!--link Sistema to Sencillez--><path d="M299.732,289.134 C308.405,303.499 317.889,319.207 325.419,331.678 " fill="none" id="Sistema-Sencillez" style="stroke: #A80036; stroke-width: 1.0;"/><polygon fill="none" points="293.732,292.74,289.387,272,305.717,285.504,293.732,292.74" style="stroke: #A80036; stroke-width: 1.0;"/><!--link Complejidad to Sencillez--><path d="M264.094,373.367 C273.96,374.416 283.826,374.161 293.692,372.603 " fill="none" id="Complejidad-Sencillez" style="stroke: #A80036; stroke-width: 1.0;"/><polygon fill="#A80036" points="298.851,371.669,289.2828,369.3344,293.9308,372.5588,290.7065,377.2068,298.851,371.669" style="stroke: #A80036; stroke-width: 1.0;"/><!--link Complejidad to Sencillez--><path d="M269.253,338.203 C279.119,337.609 288.985,338.318 298.851,340.331 " fill="none" id="Complejidad-Sencillez-1" style="stroke: #A80036; stroke-width: 1.0;"/><polygon fill="#A80036" points="264.094,338.633,273.3954,341.8709,269.0767,338.2173,272.7303,333.8986,264.094,338.633" style="stroke: #A80036; stroke-width: 1.0;"/><!--link Complejidad to Capacidad--><path d="M226.17,380 C235.763,396.141 248.645,417.816 258.84,434.969 " fill="none" id="Complejidad-Capacidad" style="stroke: #A80036; stroke-width: 1.0;"/><polygon fill="#A80036" points="261.639,439.678,260.4802,429.8976,259.0848,435.3796,253.6028,433.9842,261.639,439.678" style="stroke: #A80036; stroke-width: 1.0;"/><!--link Sencillez to Capacidad--><path d="M325.613,380 C315.868,396.141 302.781,417.816 292.425,434.969 " fill="none" id="Sencillez-Capacidad" style="stroke: #A80036; stroke-width: 1.0;"/><polygon fill="#A80036" points="289.581,439.678,297.6572,434.0411,292.1654,435.3977,290.8088,429.906,289.581,439.678" style="stroke: #A80036; stroke-width: 1.0;"/><!--link Capacidad to Cuantitativa--><path d="M253.121,505.932 C228.824,550.373 190.867,619.799 171.228,655.72 " fill="none" id="Capacidad-Cuantitativa" style="stroke: #A80036; stroke-width: 1.0;"/><polygon fill="none" points="247.02,502.5,262.756,488.309,259.304,509.216,247.02,502.5" style="stroke: #A80036; stroke-width: 1.0;"/><!--link Capacidad to Cualitativa--><path d="M306.535,503.702 C318.36,518.448 331.464,534.791 341.799,547.678 " fill="none" id="Capacidad-Cualitativa" style="stroke: #A80036; stroke-width: 1.0;"/><polygon fill="none" points="300.995,507.983,293.944,488,311.917,499.224,300.995,507.983" style="stroke: #A80036; stroke-width: 1.0;"/><!--link Cuantitativa to Granularidad--><path d="M158.5,704 C158.5,720.003 158.5,741.4461 158.5,758.528 " fill="none" id="Cuantitativa-Granularidad" style="stroke: #A80036; stroke-width: 1.0;"/><polygon fill="#A80036" points="158.5,763.6784,162.5,754.6784,158.5,758.6784,154.5,754.6784,158.5,763.6784" style="stroke: #A80036; stroke-width: 1.0;"/><!--link Cualitativa to Cuantitativa--><path d="M316.669,596 C284.354,612.958 240.396,636.025 207.023,653.537 " fill="none" id="Cualitativa-Cuantitativa" style="stroke: #A80036; stroke-width: 1.0;"/><polygon fill="#A80036" points="202.594,655.862,212.4221,655.2225,207.0216,653.5389,208.7052,648.1384,202.594,655.862" style="stroke: #A80036; stroke-width: 1.0;"/><!--link Cualitativa to Abstracción--><path d="M333.938,612.656 C324.23,627.15 313.568,643.068 305.121,655.678 " fill="none" id="Cualitativa-Abstracción" style="stroke: #A80036; stroke-width: 1.0;"/><polygon fill="none" points="328.148,608.722,345.094,596,339.78,616.513,328.148,608.722" style="stroke: #A80036; stroke-width: 1.0;"/><!--link Cualitativa to Encapsulacción--><path d="M387.436,612.656 C397.281,627.15 408.093,643.068 416.659,655.678 " fill="none" id="Cualitativa-Encapsulacción" style="stroke: #A80036; stroke-width: 1.0;"/><polygon fill="none" points="381.57,616.478,376.123,596,393.151,608.612,381.57,616.478" style="stroke: #A80036; stroke-width: 1.0;"/><!--link Cualitativa to Modularizacción--><path d="M423.599,602.465 C459.696,619.321 504.329,640.162 537.899,655.838 " fill="none" id="Cualitativa-Modularizacción" style="stroke: #A80036; stroke-width: 1.0;"/><polygon fill="none" points="420.237,608.62,405.077,593.816,426.16,595.935,420.237,608.62" style="stroke: #A80036; stroke-width: 1.0;"/><!--link Cualitativa to Jerarquización--><path d="M424.703,589.682 C486.568,605.943 582.71,631.703 665.5,656 C670.983,657.609 676.683,659.326 682.373,661.07 " fill="none" id="Cualitativa-Jerarquización" style="stroke: #A80036; stroke-width: 1.0;"/><polygon fill="none" points="422.678,596.388,405.105,584.548,426.226,582.845,422.678,596.388" style="stroke: #A80036; stroke-width: 1.0;"/><!--
@startuml
class Solución

class Efectividad
class Eficacia
class Eficiencia

class Sistema
class Complejidad
class Sencillez

class Capacidad
class Cuantitativa
class Cualitativa
class Abstracción
class Encapsulacción
class Modularizacción
class Jerarquización

class Granularidad

Solución *- -> Sistema
Solución *- -> Efectividad

Efectividad *- -> Eficacia
Efectividad *- -> Eficiencia

Efectividad - -> Sistema

Sistema <|- - Complejidad
Sistema <|- - Sencillez

Complejidad -right-> Sencillez
Sencillez -left-> Complejidad

Complejidad - -> Capacidad
Sencillez - -> Capacidad

Capacidad <|- - Cuantitativa
Capacidad <|- - Cualitativa

Cuantitativa - -> Granularidad
Cualitativa - -> Cuantitativa
Cualitativa <|- - Abstracción
Cualitativa <|- - Encapsulacción
Cualitativa <|- - Modularizacción
Cualitativa <|- - Jerarquización

@enduml

PlantUML version 1.2019.05(Sat Apr 20 18:45:36 CEST 2019)
(GPL source distribution)
Java Runtime: OpenJDK Runtime Environment
JVM: OpenJDK 64-Bit Server VM
Java Version: 1.8.0_222-b10
Operating System: Windows 10
OS Version: 10.0
Default Encoding: windows-1252
Language: es
Country: ES
--></g></svg>