<?xml version="1.0" encoding="UTF-8" standalone="no"?><svg xmlns="http://www.w3.org/2000/svg" xmlns:xlink="http://www.w3.org/1999/xlink" contentScriptType="application/ecmascript" contentStyleType="text/css" height="516px" preserveAspectRatio="none" style="width:107px;height:516px;" version="1.1" viewBox="0 0 107 516" width="107px" zoomAndPan="magnify"><defs><filter height="300%" id="f1eer5w3xknwbj" width="300%" x="-1" y="-1"><feGaussianBlur result="blurOut" stdDeviation="2.0"/><feColorMatrix in="blurOut" result="blurOut2" type="matrix" values="0 0 0 0 0 0 0 0 0 0 0 0 0 0 0 0 0 0 .4 0"/><feOffset dx="4.0" dy="4.0" in="blurOut2" result="blurOut3"/><feBlend in="SourceGraphic" in2="blurOut3" mode="normal"/></filter></defs><g><!--class Secuencia--><rect fill="#FEFECE" filter="url(#f1eer5w3xknwbj)" height="75.6719" id="Secuencia" style="stroke: #A80036; stroke-width: 1.5;" width="90" x="6" y="430"/><ellipse cx="21" cy="446" fill="#ADD1B2" rx="11" ry="11" style="stroke: #A80036; stroke-width: 1.0;"/><path d="M23.7656,441.875 Q23.9219,441.6563 24.1094,441.5469 Q24.2969,441.4375 24.5156,441.4375 Q24.8906,441.4375 25.125,441.6953 Q25.3594,441.9531 25.3594,442.5625 L25.3594,444.0156 Q25.3594,444.625 25.125,444.8906 Q24.8906,445.1563 24.5156,445.1563 Q24.1719,445.1563 23.9688,444.9531 Q23.7656,444.7656 23.6563,444.25 Q23.6094,443.8906 23.4219,443.7031 Q23.0938,443.3281 22.4844,443.1094 Q21.875,442.8906 21.25,442.8906 Q20.4844,442.8906 19.8516,443.2188 Q19.2188,443.5469 18.7266,444.2969 Q18.2344,445.0469 18.2344,446.0781 L18.2344,447.1719 Q18.2344,448.4063 19.125,449.2266 Q20.0156,450.0469 21.6094,450.0469 Q22.5469,450.0469 23.2031,449.7969 Q23.5938,449.6406 24.0156,449.2031 Q24.2813,448.9375 24.4297,448.8594 Q24.5781,448.7813 24.7813,448.7813 Q25.1094,448.7813 25.3672,449.0391 Q25.625,449.2969 25.625,449.6406 Q25.625,449.9844 25.2813,450.3906 Q24.7813,450.9688 23.9844,451.2969 Q22.9063,451.75 21.6094,451.75 Q20.0938,451.75 18.8906,451.125 Q17.9063,450.625 17.2188,449.5547 Q16.5313,448.4844 16.5313,447.2031 L16.5313,446.0469 Q16.5313,444.7188 17.1484,443.5703 Q17.7656,442.4219 18.8594,441.8047 Q19.9531,441.1875 21.1875,441.1875 Q21.9219,441.1875 22.5703,441.3516 Q23.2188,441.5156 23.7656,441.875 Z "/><text fill="#000000" font-family="sans-serif" font-size="12" lengthAdjust="spacingAndGlyphs" textLength="58" x="35" y="450.9102">Secuencia</text><line style="stroke: #A80036; stroke-width: 1.5;" x1="7" x2="95" y1="462" y2="462"/><text fill="#000000" font-family="sans-serif" font-size="11" lengthAdjust="spacingAndGlyphs" textLength="70" x="12" y="477.4189">0..1 anteriores</text><text fill="#000000" font-family="sans-serif" font-size="11" lengthAdjust="spacingAndGlyphs" textLength="70" x="12" y="491.2549">0..1 siguientes</text><line style="stroke: #A80036; stroke-width: 1.5;" x1="7" x2="95" y1="497.6719" y2="497.6719"/><!--class Arbol--><rect fill="#FEFECE" filter="url(#f1eer5w3xknwbj)" height="75.6719" id="Arbol" style="stroke: #A80036; stroke-width: 1.5;" width="83" x="9.5" y="294"/><ellipse cx="34.85" cy="310" fill="#ADD1B2" rx="11" ry="11" style="stroke: #A80036; stroke-width: 1.0;"/><path d="M37.6156,305.875 Q37.7719,305.6563 37.9594,305.5469 Q38.1469,305.4375 38.3656,305.4375 Q38.7406,305.4375 38.975,305.6953 Q39.2094,305.9531 39.2094,306.5625 L39.2094,308.0156 Q39.2094,308.625 38.975,308.8906 Q38.7406,309.1563 38.3656,309.1563 Q38.0219,309.1563 37.8188,308.9531 Q37.6156,308.7656 37.5063,308.25 Q37.4594,307.8906 37.2719,307.7031 Q36.9438,307.3281 36.3344,307.1094 Q35.725,306.8906 35.1,306.8906 Q34.3344,306.8906 33.7016,307.2188 Q33.0688,307.5469 32.5766,308.2969 Q32.0844,309.0469 32.0844,310.0781 L32.0844,311.1719 Q32.0844,312.4063 32.975,313.2266 Q33.8656,314.0469 35.4594,314.0469 Q36.3969,314.0469 37.0531,313.7969 Q37.4438,313.6406 37.8656,313.2031 Q38.1313,312.9375 38.2797,312.8594 Q38.4281,312.7813 38.6313,312.7813 Q38.9594,312.7813 39.2172,313.0391 Q39.475,313.2969 39.475,313.6406 Q39.475,313.9844 39.1313,314.3906 Q38.6313,314.9688 37.8344,315.2969 Q36.7563,315.75 35.4594,315.75 Q33.9438,315.75 32.7406,315.125 Q31.7563,314.625 31.0688,313.5547 Q30.3813,312.4844 30.3813,311.2031 L30.3813,310.0469 Q30.3813,308.7188 30.9984,307.5703 Q31.6156,306.4219 32.7094,305.8047 Q33.8031,305.1875 35.0375,305.1875 Q35.7719,305.1875 36.4203,305.3516 Q37.0688,305.5156 37.6156,305.875 Z "/><text fill="#000000" font-family="sans-serif" font-size="12" lengthAdjust="spacingAndGlyphs" textLength="28" x="51.15" y="314.9102">Árbol</text><line style="stroke: #A80036; stroke-width: 1.5;" x1="10.5" x2="91.5" y1="326" y2="326"/><text fill="#000000" font-family="sans-serif" font-size="11" lengthAdjust="spacingAndGlyphs" textLength="70" x="15.5" y="341.4189">0..1 anteriores</text><text fill="#000000" font-family="sans-serif" font-size="11" lengthAdjust="spacingAndGlyphs" textLength="71" x="15.5" y="355.2549">0..N siguientes</text><line style="stroke: #A80036; stroke-width: 1.5;" x1="10.5" x2="91.5" y1="361.6719" y2="361.6719"/><!--class Grafo--><rect fill="#FEFECE" filter="url(#f1eer5w3xknwbj)" height="75.6719" id="Grafo" style="stroke: #A80036; stroke-width: 1.5;" width="83" x="9.5" y="8"/><ellipse cx="33.95" cy="24" fill="#ADD1B2" rx="11" ry="11" style="stroke: #A80036; stroke-width: 1.0;"/><path d="M36.7156,19.875 Q36.8719,19.6563 37.0594,19.5469 Q37.2469,19.4375 37.4656,19.4375 Q37.8406,19.4375 38.075,19.6953 Q38.3094,19.9531 38.3094,20.5625 L38.3094,22.0156 Q38.3094,22.625 38.075,22.8906 Q37.8406,23.1563 37.4656,23.1563 Q37.1219,23.1563 36.9188,22.9531 Q36.7156,22.7656 36.6063,22.25 Q36.5594,21.8906 36.3719,21.7031 Q36.0438,21.3281 35.4344,21.1094 Q34.825,20.8906 34.2,20.8906 Q33.4344,20.8906 32.8016,21.2188 Q32.1688,21.5469 31.6766,22.2969 Q31.1844,23.0469 31.1844,24.0781 L31.1844,25.1719 Q31.1844,26.4063 32.075,27.2266 Q32.9656,28.0469 34.5594,28.0469 Q35.4969,28.0469 36.1531,27.7969 Q36.5438,27.6406 36.9656,27.2031 Q37.2313,26.9375 37.3797,26.8594 Q37.5281,26.7813 37.7313,26.7813 Q38.0594,26.7813 38.3172,27.0391 Q38.575,27.2969 38.575,27.6406 Q38.575,27.9844 38.2313,28.3906 Q37.7313,28.9688 36.9344,29.2969 Q35.8563,29.75 34.5594,29.75 Q33.0438,29.75 31.8406,29.125 Q30.8563,28.625 30.1688,27.5547 Q29.4813,26.4844 29.4813,25.2031 L29.4813,24.0469 Q29.4813,22.7188 30.0984,21.5703 Q30.7156,20.4219 31.8094,19.8047 Q32.9031,19.1875 34.1375,19.1875 Q34.8719,19.1875 35.5203,19.3516 Q36.1688,19.5156 36.7156,19.875 Z "/><text fill="#000000" font-family="sans-serif" font-size="12" lengthAdjust="spacingAndGlyphs" textLength="30" x="50.05" y="28.9102">Grafo</text><line style="stroke: #A80036; stroke-width: 1.5;" x1="10.5" x2="91.5" y1="40" y2="40"/><text fill="#000000" font-family="sans-serif" font-size="11" lengthAdjust="spacingAndGlyphs" textLength="71" x="15.5" y="55.4189">0..N anteriores</text><text fill="#000000" font-family="sans-serif" font-size="11" lengthAdjust="spacingAndGlyphs" textLength="71" x="15.5" y="69.2549">0..N siguientes</text><line style="stroke: #A80036; stroke-width: 1.5;" x1="10.5" x2="91.5" y1="75.6719" y2="75.6719"/><!--class Jerarquia--><rect fill="#FEFECE" filter="url(#f1eer5w3xknwbj)" height="89.5078" id="Jerarquia" style="stroke: #A80036; stroke-width: 1.5;" width="84" x="9" y="144"/><ellipse cx="24" cy="160" fill="#ADD1B2" rx="11" ry="11" style="stroke: #A80036; stroke-width: 1.0;"/><path d="M26.7656,155.875 Q26.9219,155.6563 27.1094,155.5469 Q27.2969,155.4375 27.5156,155.4375 Q27.8906,155.4375 28.125,155.6953 Q28.3594,155.9531 28.3594,156.5625 L28.3594,158.0156 Q28.3594,158.625 28.125,158.8906 Q27.8906,159.1563 27.5156,159.1563 Q27.1719,159.1563 26.9688,158.9531 Q26.7656,158.7656 26.6563,158.25 Q26.6094,157.8906 26.4219,157.7031 Q26.0938,157.3281 25.4844,157.1094 Q24.875,156.8906 24.25,156.8906 Q23.4844,156.8906 22.8516,157.2188 Q22.2188,157.5469 21.7266,158.2969 Q21.2344,159.0469 21.2344,160.0781 L21.2344,161.1719 Q21.2344,162.4063 22.125,163.2266 Q23.0156,164.0469 24.6094,164.0469 Q25.5469,164.0469 26.2031,163.7969 Q26.5938,163.6406 27.0156,163.2031 Q27.2813,162.9375 27.4297,162.8594 Q27.5781,162.7813 27.7813,162.7813 Q28.1094,162.7813 28.3672,163.0391 Q28.625,163.2969 28.625,163.6406 Q28.625,163.9844 28.2813,164.3906 Q27.7813,164.9688 26.9844,165.2969 Q25.9063,165.75 24.6094,165.75 Q23.0938,165.75 21.8906,165.125 Q20.9063,164.625 20.2188,163.5547 Q19.5313,162.4844 19.5313,161.2031 L19.5313,160.0469 Q19.5313,158.7188 20.1484,157.5703 Q20.7656,156.4219 21.8594,155.8047 Q22.9531,155.1875 24.1875,155.1875 Q24.9219,155.1875 25.5703,155.3516 Q26.2188,155.5156 26.7656,155.875 Z "/><text fill="#000000" font-family="sans-serif" font-size="12" lengthAdjust="spacingAndGlyphs" textLength="52" x="38" y="164.9102">Jerarquía</text><line style="stroke: #A80036; stroke-width: 1.5;" x1="10" x2="92" y1="176" y2="176"/><text fill="#000000" font-family="sans-serif" font-size="11" lengthAdjust="spacingAndGlyphs" textLength="71" x="15" y="191.4189">0..N anteriores</text><text fill="#000000" font-family="sans-serif" font-size="11" lengthAdjust="spacingAndGlyphs" textLength="71" x="15" y="205.2549">0..N siguientes</text><text fill="#000000" font-family="sans-serif" font-size="11" lengthAdjust="spacingAndGlyphs" textLength="45" x="15" y="219.0908">sin ciclos</text><line style="stroke: #A80036; stroke-width: 1.5;" x1="10" x2="92" y1="225.5078" y2="225.5078"/><!--link Grafo to Jerarquia--><path d="M51,104.09 C51,117.372 51,131.314 51,143.934 " fill="none" id="Grafo-Jerarquia" style="stroke: #A80036; stroke-width: 1.0;"/><polygon fill="none" points="44.0001,104.046,51,84.046,58.0001,104.046,44.0001,104.046" style="stroke: #A80036; stroke-width: 1.0;"/><!--link Jerarquia to Arbol--><path d="M51,254.666 C51,267.995 51,281.604 51,293.57 " fill="none" id="Jerarquia-Arbol" style="stroke: #A80036; stroke-width: 1.0;"/><polygon fill="none" points="44.0001,254.226,51,234.226,58.0001,254.226,44.0001,254.226" style="stroke: #A80036; stroke-width: 1.0;"/><!--link Arbol to Secuencia--><path d="M51,390.535 C51,403.86 51,417.6949 51,429.8737 " fill="none" id="Arbol-Secuencia" style="stroke: #A80036; stroke-width: 1.0;"/><polygon fill="none" points="44.0001,390.327,51,370.326,58.0001,390.326,44.0001,390.327" style="stroke: #A80036; stroke-width: 1.0;"/><!--
@startuml

class Secuencia {
    0..1 anteriores
    0..1 siguientes
}

class "Árbol" as Arbol {
    0..1 anteriores
    0..N siguientes
}

class Grafo {
    0..N anteriores
    0..N siguientes
}
class "Jerarquía" as Jerarquia {
    0..N anteriores
    0..N siguientes
    sin ciclos
}

Grafo <|-down- Jerarquia
Jerarquia <|-down- Arbol
Arbol <|-down- Secuencia

@enduml

PlantUML version 1.2019.05(Sat Apr 20 18:45:36 CEST 2019)
(GPL source distribution)
Java Runtime: OpenJDK Runtime Environment
JVM: OpenJDK 64-Bit Server VM
Java Version: 1.8.0_222-b10
Operating System: Windows 10
OS Version: 10.0
Default Encoding: windows-1252
Language: es
Country: ES
--></g></svg>