<?xml version="1.0" encoding="UTF-8" standalone="no"?><svg xmlns="http://www.w3.org/2000/svg" xmlns:xlink="http://www.w3.org/1999/xlink" contentScriptType="application/ecmascript" contentStyleType="text/css" height="283px" preserveAspectRatio="none" style="width:448px;height:283px;" version="1.1" viewBox="0 0 448 283" width="448px" zoomAndPan="magnify"><defs><filter height="300%" id="fg13xe0ms5cax" width="300%" x="-1" y="-1"><feGaussianBlur result="blurOut" stdDeviation="2.0"/><feColorMatrix in="blurOut" result="blurOut2" type="matrix" values="0 0 0 0 0 0 0 0 0 0 0 0 0 0 0 0 0 0 .4 0"/><feOffset dx="4.0" dy="4.0" in="blurOut2" result="blurOut3"/><feBlend in="SourceGraphic" in2="blurOut3" mode="normal"/></filter></defs><g><!--class Todo1--><rect fill="#FEFECE" filter="url(#fg13xe0ms5cax)" height="48" id="Todo1" style="stroke: #A80036; stroke-width: 1.5;" width="67" x="187.5" y="8"/><ellipse cx="202.5" cy="24" fill="#ADD1B2" rx="11" ry="11" style="stroke: #A80036; stroke-width: 1.0;"/><path d="M205.2656,19.875 Q205.4219,19.6563 205.6094,19.5469 Q205.7969,19.4375 206.0156,19.4375 Q206.3906,19.4375 206.625,19.6953 Q206.8594,19.9531 206.8594,20.5625 L206.8594,22.0156 Q206.8594,22.625 206.625,22.8906 Q206.3906,23.1563 206.0156,23.1563 Q205.6719,23.1563 205.4688,22.9531 Q205.2656,22.7656 205.1563,22.25 Q205.1094,21.8906 204.9219,21.7031 Q204.5938,21.3281 203.9844,21.1094 Q203.375,20.8906 202.75,20.8906 Q201.9844,20.8906 201.3516,21.2188 Q200.7188,21.5469 200.2266,22.2969 Q199.7344,23.0469 199.7344,24.0781 L199.7344,25.1719 Q199.7344,26.4063 200.625,27.2266 Q201.5156,28.0469 203.1094,28.0469 Q204.0469,28.0469 204.7031,27.7969 Q205.0938,27.6406 205.5156,27.2031 Q205.7813,26.9375 205.9297,26.8594 Q206.0781,26.7813 206.2813,26.7813 Q206.6094,26.7813 206.8672,27.0391 Q207.125,27.2969 207.125,27.6406 Q207.125,27.9844 206.7813,28.3906 Q206.2813,28.9688 205.4844,29.2969 Q204.4063,29.75 203.1094,29.75 Q201.5938,29.75 200.3906,29.125 Q199.4063,28.625 198.7188,27.5547 Q198.0313,26.4844 198.0313,25.2031 L198.0313,24.0469 Q198.0313,22.7188 198.6484,21.5703 Q199.2656,20.4219 200.3594,19.8047 Q201.4531,19.1875 202.6875,19.1875 Q203.4219,19.1875 204.0703,19.3516 Q204.7188,19.5156 205.2656,19.875 Z "/><text fill="#000000" font-family="sans-serif" font-size="12" lengthAdjust="spacingAndGlyphs" textLength="35" x="216.5" y="28.9102">Todo1</text><line style="stroke: #A80036; stroke-width: 1.5;" x1="188.5" x2="253.5" y1="40" y2="40"/><line style="stroke: #A80036; stroke-width: 1.5;" x1="188.5" x2="253.5" y1="48" y2="48"/><!--class Parte1Todo2--><rect fill="#FEFECE" filter="url(#fg13xe0ms5cax)" height="48" id="Parte1Todo2" style="stroke: #A80036; stroke-width: 1.5;" width="106" x="98" y="116"/><ellipse cx="113" cy="132" fill="#ADD1B2" rx="11" ry="11" style="stroke: #A80036; stroke-width: 1.0;"/><path d="M115.7656,127.875 Q115.9219,127.6563 116.1094,127.5469 Q116.2969,127.4375 116.5156,127.4375 Q116.8906,127.4375 117.125,127.6953 Q117.3594,127.9531 117.3594,128.5625 L117.3594,130.0156 Q117.3594,130.625 117.125,130.8906 Q116.8906,131.1563 116.5156,131.1563 Q116.1719,131.1563 115.9688,130.9531 Q115.7656,130.7656 115.6563,130.25 Q115.6094,129.8906 115.4219,129.7031 Q115.0938,129.3281 114.4844,129.1094 Q113.875,128.8906 113.25,128.8906 Q112.4844,128.8906 111.8516,129.2188 Q111.2188,129.5469 110.7266,130.2969 Q110.2344,131.0469 110.2344,132.0781 L110.2344,133.1719 Q110.2344,134.4063 111.125,135.2266 Q112.0156,136.0469 113.6094,136.0469 Q114.5469,136.0469 115.2031,135.7969 Q115.5938,135.6406 116.0156,135.2031 Q116.2813,134.9375 116.4297,134.8594 Q116.5781,134.7813 116.7813,134.7813 Q117.1094,134.7813 117.3672,135.0391 Q117.625,135.2969 117.625,135.6406 Q117.625,135.9844 117.2813,136.3906 Q116.7813,136.9688 115.9844,137.2969 Q114.9063,137.75 113.6094,137.75 Q112.0938,137.75 110.8906,137.125 Q109.9063,136.625 109.2188,135.5547 Q108.5313,134.4844 108.5313,133.2031 L108.5313,132.0469 Q108.5313,130.7188 109.1484,129.5703 Q109.7656,128.4219 110.8594,127.8047 Q111.9531,127.1875 113.1875,127.1875 Q113.9219,127.1875 114.5703,127.3516 Q115.2188,127.5156 115.7656,127.875 Z "/><text fill="#000000" font-family="sans-serif" font-size="12" lengthAdjust="spacingAndGlyphs" textLength="74" x="127" y="136.9102">Parte1/Todo2</text><line style="stroke: #A80036; stroke-width: 1.5;" x1="99" x2="203" y1="148" y2="148"/><line style="stroke: #A80036; stroke-width: 1.5;" x1="99" x2="203" y1="156" y2="156"/><!--class Parte2Todo3--><rect fill="#FEFECE" filter="url(#fg13xe0ms5cax)" height="48" id="Parte2Todo3" style="stroke: #A80036; stroke-width: 1.5;" width="106" x="239" y="116"/><ellipse cx="254" cy="132" fill="#ADD1B2" rx="11" ry="11" style="stroke: #A80036; stroke-width: 1.0;"/><path d="M256.7656,127.875 Q256.9219,127.6563 257.1094,127.5469 Q257.2969,127.4375 257.5156,127.4375 Q257.8906,127.4375 258.125,127.6953 Q258.3594,127.9531 258.3594,128.5625 L258.3594,130.0156 Q258.3594,130.625 258.125,130.8906 Q257.8906,131.1563 257.5156,131.1563 Q257.1719,131.1563 256.9688,130.9531 Q256.7656,130.7656 256.6563,130.25 Q256.6094,129.8906 256.4219,129.7031 Q256.0938,129.3281 255.4844,129.1094 Q254.875,128.8906 254.25,128.8906 Q253.4844,128.8906 252.8516,129.2188 Q252.2188,129.5469 251.7266,130.2969 Q251.2344,131.0469 251.2344,132.0781 L251.2344,133.1719 Q251.2344,134.4063 252.125,135.2266 Q253.0156,136.0469 254.6094,136.0469 Q255.5469,136.0469 256.2031,135.7969 Q256.5938,135.6406 257.0156,135.2031 Q257.2813,134.9375 257.4297,134.8594 Q257.5781,134.7813 257.7813,134.7813 Q258.1094,134.7813 258.3672,135.0391 Q258.625,135.2969 258.625,135.6406 Q258.625,135.9844 258.2813,136.3906 Q257.7813,136.9688 256.9844,137.2969 Q255.9063,137.75 254.6094,137.75 Q253.0938,137.75 251.8906,137.125 Q250.9063,136.625 250.2188,135.5547 Q249.5313,134.4844 249.5313,133.2031 L249.5313,132.0469 Q249.5313,130.7188 250.1484,129.5703 Q250.7656,128.4219 251.8594,127.8047 Q252.9531,127.1875 254.1875,127.1875 Q254.9219,127.1875 255.5703,127.3516 Q256.2188,127.5156 256.7656,127.875 Z "/><text fill="#000000" font-family="sans-serif" font-size="12" lengthAdjust="spacingAndGlyphs" textLength="74" x="268" y="136.9102">Parte2/Todo3</text><line style="stroke: #A80036; stroke-width: 1.5;" x1="240" x2="344" y1="148" y2="148"/><line style="stroke: #A80036; stroke-width: 1.5;" x1="240" x2="344" y1="156" y2="156"/><!--class Parte21--><rect fill="#FEFECE" filter="url(#fg13xe0ms5cax)" height="48" id="Parte21" style="stroke: #A80036; stroke-width: 1.5;" width="78" x="6" y="224"/><ellipse cx="21" cy="240" fill="#ADD1B2" rx="11" ry="11" style="stroke: #A80036; stroke-width: 1.0;"/><path d="M23.7656,235.875 Q23.9219,235.6563 24.1094,235.5469 Q24.2969,235.4375 24.5156,235.4375 Q24.8906,235.4375 25.125,235.6953 Q25.3594,235.9531 25.3594,236.5625 L25.3594,238.0156 Q25.3594,238.625 25.125,238.8906 Q24.8906,239.1563 24.5156,239.1563 Q24.1719,239.1563 23.9688,238.9531 Q23.7656,238.7656 23.6563,238.25 Q23.6094,237.8906 23.4219,237.7031 Q23.0938,237.3281 22.4844,237.1094 Q21.875,236.8906 21.25,236.8906 Q20.4844,236.8906 19.8516,237.2188 Q19.2188,237.5469 18.7266,238.2969 Q18.2344,239.0469 18.2344,240.0781 L18.2344,241.1719 Q18.2344,242.4063 19.125,243.2266 Q20.0156,244.0469 21.6094,244.0469 Q22.5469,244.0469 23.2031,243.7969 Q23.5938,243.6406 24.0156,243.2031 Q24.2813,242.9375 24.4297,242.8594 Q24.5781,242.7813 24.7813,242.7813 Q25.1094,242.7813 25.3672,243.0391 Q25.625,243.2969 25.625,243.6406 Q25.625,243.9844 25.2813,244.3906 Q24.7813,244.9688 23.9844,245.2969 Q22.9063,245.75 21.6094,245.75 Q20.0938,245.75 18.8906,245.125 Q17.9063,244.625 17.2188,243.5547 Q16.5313,242.4844 16.5313,241.2031 L16.5313,240.0469 Q16.5313,238.7188 17.1484,237.5703 Q17.7656,236.4219 18.8594,235.8047 Q19.9531,235.1875 21.1875,235.1875 Q21.9219,235.1875 22.5703,235.3516 Q23.2188,235.5156 23.7656,235.875 Z "/><text fill="#000000" font-family="sans-serif" font-size="12" lengthAdjust="spacingAndGlyphs" textLength="46" x="35" y="244.9102">Parte2/1</text><line style="stroke: #A80036; stroke-width: 1.5;" x1="7" x2="83" y1="256" y2="256"/><line style="stroke: #A80036; stroke-width: 1.5;" x1="7" x2="83" y1="264" y2="264"/><!--class Parte22--><rect fill="#FEFECE" filter="url(#fg13xe0ms5cax)" height="48" id="Parte22" style="stroke: #A80036; stroke-width: 1.5;" width="78" x="119" y="224"/><ellipse cx="134" cy="240" fill="#ADD1B2" rx="11" ry="11" style="stroke: #A80036; stroke-width: 1.0;"/><path d="M136.7656,235.875 Q136.9219,235.6563 137.1094,235.5469 Q137.2969,235.4375 137.5156,235.4375 Q137.8906,235.4375 138.125,235.6953 Q138.3594,235.9531 138.3594,236.5625 L138.3594,238.0156 Q138.3594,238.625 138.125,238.8906 Q137.8906,239.1563 137.5156,239.1563 Q137.1719,239.1563 136.9688,238.9531 Q136.7656,238.7656 136.6563,238.25 Q136.6094,237.8906 136.4219,237.7031 Q136.0938,237.3281 135.4844,237.1094 Q134.875,236.8906 134.25,236.8906 Q133.4844,236.8906 132.8516,237.2188 Q132.2188,237.5469 131.7266,238.2969 Q131.2344,239.0469 131.2344,240.0781 L131.2344,241.1719 Q131.2344,242.4063 132.125,243.2266 Q133.0156,244.0469 134.6094,244.0469 Q135.5469,244.0469 136.2031,243.7969 Q136.5938,243.6406 137.0156,243.2031 Q137.2813,242.9375 137.4297,242.8594 Q137.5781,242.7813 137.7813,242.7813 Q138.1094,242.7813 138.3672,243.0391 Q138.625,243.2969 138.625,243.6406 Q138.625,243.9844 138.2813,244.3906 Q137.7813,244.9688 136.9844,245.2969 Q135.9063,245.75 134.6094,245.75 Q133.0938,245.75 131.8906,245.125 Q130.9063,244.625 130.2188,243.5547 Q129.5313,242.4844 129.5313,241.2031 L129.5313,240.0469 Q129.5313,238.7188 130.1484,237.5703 Q130.7656,236.4219 131.8594,235.8047 Q132.9531,235.1875 134.1875,235.1875 Q134.9219,235.1875 135.5703,235.3516 Q136.2188,235.5156 136.7656,235.875 Z "/><text fill="#000000" font-family="sans-serif" font-size="12" lengthAdjust="spacingAndGlyphs" textLength="46" x="148" y="244.9102">Parte2/2</text><line style="stroke: #A80036; stroke-width: 1.5;" x1="120" x2="196" y1="256" y2="256"/><line style="stroke: #A80036; stroke-width: 1.5;" x1="120" x2="196" y1="264" y2="264"/><!--class Parte31--><rect fill="#FEFECE" filter="url(#fg13xe0ms5cax)" height="48" id="Parte31" style="stroke: #A80036; stroke-width: 1.5;" width="78" x="246" y="224"/><ellipse cx="261" cy="240" fill="#ADD1B2" rx="11" ry="11" style="stroke: #A80036; stroke-width: 1.0;"/><path d="M263.7656,235.875 Q263.9219,235.6563 264.1094,235.5469 Q264.2969,235.4375 264.5156,235.4375 Q264.8906,235.4375 265.125,235.6953 Q265.3594,235.9531 265.3594,236.5625 L265.3594,238.0156 Q265.3594,238.625 265.125,238.8906 Q264.8906,239.1563 264.5156,239.1563 Q264.1719,239.1563 263.9688,238.9531 Q263.7656,238.7656 263.6563,238.25 Q263.6094,237.8906 263.4219,237.7031 Q263.0938,237.3281 262.4844,237.1094 Q261.875,236.8906 261.25,236.8906 Q260.4844,236.8906 259.8516,237.2188 Q259.2188,237.5469 258.7266,238.2969 Q258.2344,239.0469 258.2344,240.0781 L258.2344,241.1719 Q258.2344,242.4063 259.125,243.2266 Q260.0156,244.0469 261.6094,244.0469 Q262.5469,244.0469 263.2031,243.7969 Q263.5938,243.6406 264.0156,243.2031 Q264.2813,242.9375 264.4297,242.8594 Q264.5781,242.7813 264.7813,242.7813 Q265.1094,242.7813 265.3672,243.0391 Q265.625,243.2969 265.625,243.6406 Q265.625,243.9844 265.2813,244.3906 Q264.7813,244.9688 263.9844,245.2969 Q262.9063,245.75 261.6094,245.75 Q260.0938,245.75 258.8906,245.125 Q257.9063,244.625 257.2188,243.5547 Q256.5313,242.4844 256.5313,241.2031 L256.5313,240.0469 Q256.5313,238.7188 257.1484,237.5703 Q257.7656,236.4219 258.8594,235.8047 Q259.9531,235.1875 261.1875,235.1875 Q261.9219,235.1875 262.5703,235.3516 Q263.2188,235.5156 263.7656,235.875 Z "/><text fill="#000000" font-family="sans-serif" font-size="12" lengthAdjust="spacingAndGlyphs" textLength="46" x="275" y="244.9102">Parte3/1</text><line style="stroke: #A80036; stroke-width: 1.5;" x1="247" x2="323" y1="256" y2="256"/><line style="stroke: #A80036; stroke-width: 1.5;" x1="247" x2="323" y1="264" y2="264"/><!--class Parte32--><rect fill="#FEFECE" filter="url(#fg13xe0ms5cax)" height="48" id="Parte32" style="stroke: #A80036; stroke-width: 1.5;" width="78" x="359" y="224"/><ellipse cx="374" cy="240" fill="#ADD1B2" rx="11" ry="11" style="stroke: #A80036; stroke-width: 1.0;"/><path d="M376.7656,235.875 Q376.9219,235.6563 377.1094,235.5469 Q377.2969,235.4375 377.5156,235.4375 Q377.8906,235.4375 378.125,235.6953 Q378.3594,235.9531 378.3594,236.5625 L378.3594,238.0156 Q378.3594,238.625 378.125,238.8906 Q377.8906,239.1563 377.5156,239.1563 Q377.1719,239.1563 376.9688,238.9531 Q376.7656,238.7656 376.6563,238.25 Q376.6094,237.8906 376.4219,237.7031 Q376.0938,237.3281 375.4844,237.1094 Q374.875,236.8906 374.25,236.8906 Q373.4844,236.8906 372.8516,237.2188 Q372.2188,237.5469 371.7266,238.2969 Q371.2344,239.0469 371.2344,240.0781 L371.2344,241.1719 Q371.2344,242.4063 372.125,243.2266 Q373.0156,244.0469 374.6094,244.0469 Q375.5469,244.0469 376.2031,243.7969 Q376.5938,243.6406 377.0156,243.2031 Q377.2813,242.9375 377.4297,242.8594 Q377.5781,242.7813 377.7813,242.7813 Q378.1094,242.7813 378.3672,243.0391 Q378.625,243.2969 378.625,243.6406 Q378.625,243.9844 378.2813,244.3906 Q377.7813,244.9688 376.9844,245.2969 Q375.9063,245.75 374.6094,245.75 Q373.0938,245.75 371.8906,245.125 Q370.9063,244.625 370.2188,243.5547 Q369.5313,242.4844 369.5313,241.2031 L369.5313,240.0469 Q369.5313,238.7188 370.1484,237.5703 Q370.7656,236.4219 371.8594,235.8047 Q372.9531,235.1875 374.1875,235.1875 Q374.9219,235.1875 375.5703,235.3516 Q376.2188,235.5156 376.7656,235.875 Z "/><text fill="#000000" font-family="sans-serif" font-size="12" lengthAdjust="spacingAndGlyphs" textLength="46" x="388" y="244.9102">Parte3/2</text><line style="stroke: #A80036; stroke-width: 1.5;" x1="360" x2="436" y1="256" y2="256"/><line style="stroke: #A80036; stroke-width: 1.5;" x1="360" x2="436" y1="264" y2="264"/><!--link Todo1 to Parte1Todo2--><path d="M198.543,67.007 C190.592,79.046 181.646,92.593 173.678,104.66 " fill="none" id="Todo1-Parte1Todo2" style="stroke: #A80036; stroke-width: 1.0;"/><polygon fill="#A80036" points="166.401,115.678,174.6985,110.3721,169.1563,111.5057,168.0228,105.9636,166.401,115.678" style="stroke: #A80036; stroke-width: 1.0;"/><line style="stroke: #A80036; stroke-width: 1.0;" x1="169.1563" x2="173.565" y1="111.5057" y2="104.8305"/><polygon fill="#A80036" points="205.811,56,199.1667,58.8025,199.1982,66.0135,205.8424,63.211,205.811,56" style="stroke: #A80036; stroke-width: 1.0;"/><!--link Todo1 to Parte2Todo3--><path d="M243.778,67.007 C251.842,79.046 260.916,92.593 268.999,104.66 " fill="none" id="Todo1-Parte2Todo3" style="stroke: #A80036; stroke-width: 1.0;"/><polygon fill="#A80036" points="276.379,115.678,274.6933,105.9745,273.5963,111.5239,268.0468,110.4269,276.379,115.678" style="stroke: #A80036; stroke-width: 1.0;"/><line style="stroke: #A80036; stroke-width: 1.0;" x1="273.5963" x2="269.1445" y1="111.5239" y2="104.8775"/><polygon fill="#A80036" points="236.406,56,236.422,63.2111,243.0846,65.9698,243.0686,58.7587,236.406,56" style="stroke: #A80036; stroke-width: 1.0;"/><!--link Parte1Todo2 to Parte21--><path d="M118.374,173.6255 C105.4758,186.5242 90.6779,201.3221 77.7656,214.2344 " fill="none" id="Parte1Todo2-Parte21" style="stroke: #A80036; stroke-width: 1.0;"/><polygon fill="#A80036" points="68.3216,223.6784,77.514,220.1429,71.8571,220.1429,71.8571,214.486,68.3216,223.6784" style="stroke: #A80036; stroke-width: 1.0;"/><line style="stroke: #A80036; stroke-width: 1.0;" x1="71.8571" x2="77.514" y1="220.1429" y2="214.486"/><polygon fill="#A80036" points="128,164,120.9289,165.4141,119.5146,172.4851,126.5857,171.071,128,164" style="stroke: #A80036; stroke-width: 1.0;"/><!--link Parte1Todo2 to Parte22--><path d="M153.4,177.3383 C154.104,188.0064 154.875,199.6772 155.581,210.3638 " fill="none" id="Parte1Todo2-Parte22" style="stroke: #A80036; stroke-width: 1.0;"/><polygon fill="#A80036" points="156.46,223.6784,159.8582,214.4344,156.1305,218.6893,151.8756,214.9616,156.46,223.6784" style="stroke: #A80036; stroke-width: 1.0;"/><line style="stroke: #A80036; stroke-width: 1.0;" x1="156.1305" x2="155.603" y1="218.6893" y2="210.7067"/><polygon fill="#A80036" points="152.519,164,148.9231,170.2506,153.3098,175.9739,156.9057,169.7233,152.519,164" style="stroke: #A80036; stroke-width: 1.0;"/><!--link Parte2Todo3 to Parte31--><path d="M289.6,177.3383 C288.896,188.0064 288.125,199.6772 287.419,210.3638 " fill="none" id="Parte2Todo3-Parte31" style="stroke: #A80036; stroke-width: 1.0;"/><polygon fill="#A80036" points="286.54,223.6784,291.1244,214.9616,286.8695,218.6893,283.1418,214.4344,286.54,223.6784" style="stroke: #A80036; stroke-width: 1.0;"/><line style="stroke: #A80036; stroke-width: 1.0;" x1="286.8695" x2="287.397" y1="218.6893" y2="210.7067"/><polygon fill="#A80036" points="290.481,164,286.0943,169.7233,289.6902,175.9739,294.0769,170.2506,290.481,164" style="stroke: #A80036; stroke-width: 1.0;"/><!--link Parte2Todo3 to Parte32--><path d="M324.626,173.6255 C337.524,186.5242 352.322,201.3221 365.234,214.2344 " fill="none" id="Parte2Todo3-Parte32" style="stroke: #A80036; stroke-width: 1.0;"/><polygon fill="#A80036" points="374.678,223.6784,371.142,214.4862,371.1423,220.143,365.4854,220.1433,374.678,223.6784" style="stroke: #A80036; stroke-width: 1.0;"/><line style="stroke: #A80036; stroke-width: 1.0;" x1="371.1423" x2="365.486" y1="220.143" y2="214.486"/><polygon fill="#A80036" points="315,164,316.4143,171.071,323.4854,172.4851,322.0711,165.4141,315,164" style="stroke: #A80036; stroke-width: 1.0;"/><!--
@startuml
class Todo1
class "Parte1/Todo2" as Parte1Todo2
class "Parte2/Todo3" as Parte2Todo3
class "Parte2/1" as Parte21
class "Parte2/2" as Parte22
class "Parte3/1" as Parte31
class "Parte3/2" as Parte32

Todo1 *-down-> Parte1Todo2
Todo1 *-down-> Parte2Todo3
Parte1Todo2 *-down-> Parte21
Parte1Todo2 *-down-> Parte22
Parte2Todo3 *-down-> Parte31
Parte2Todo3 *-down-> Parte32
@enduml

PlantUML version 1.2019.05(Sat Apr 20 18:45:36 CEST 2019)
(GPL source distribution)
Java Runtime: OpenJDK Runtime Environment
JVM: OpenJDK 64-Bit Server VM
Java Version: 1.8.0_222-b10
Operating System: Windows 10
OS Version: 10.0
Default Encoding: windows-1252
Language: es
Country: ES
--></g></svg>