<?xml version="1.0" encoding="UTF-8" standalone="no"?><svg xmlns="http://www.w3.org/2000/svg" xmlns:xlink="http://www.w3.org/1999/xlink" contentScriptType="application/ecmascript" contentStyleType="text/css" height="193px" preserveAspectRatio="none" style="width:383px;height:193px;" version="1.1" viewBox="0 0 383 193" width="383px" zoomAndPan="magnify"><defs><filter height="300%" id="f12rc38uwdaz5q" width="300%" x="-1" y="-1"><feGaussianBlur result="blurOut" stdDeviation="2.0"/><feColorMatrix in="blurOut" result="blurOut2" type="matrix" values="0 0 0 0 0 0 0 0 0 0 0 0 0 0 0 0 0 0 .4 0"/><feOffset dx="4.0" dy="4.0" in="blurOut2" result="blurOut3"/><feBlend in="SourceGraphic" in2="blurOut3" mode="normal"/></filter></defs><g><!--class Incognita--><rect fill="#FEFECE" filter="url(#f12rc38uwdaz5q)" height="48" id="Incognita" style="stroke: #A80036; stroke-width: 1.5;" width="46" x="149.5" y="8"/><ellipse cx="164.5" cy="24" fill="#ADD1B2" rx="11" ry="11" style="stroke: #A80036; stroke-width: 1.0;"/><path d="M167.2656,19.875 Q167.4219,19.6563 167.6094,19.5469 Q167.7969,19.4375 168.0156,19.4375 Q168.3906,19.4375 168.625,19.6953 Q168.8594,19.9531 168.8594,20.5625 L168.8594,22.0156 Q168.8594,22.625 168.625,22.8906 Q168.3906,23.1563 168.0156,23.1563 Q167.6719,23.1563 167.4688,22.9531 Q167.2656,22.7656 167.1563,22.25 Q167.1094,21.8906 166.9219,21.7031 Q166.5938,21.3281 165.9844,21.1094 Q165.375,20.8906 164.75,20.8906 Q163.9844,20.8906 163.3516,21.2188 Q162.7188,21.5469 162.2266,22.2969 Q161.7344,23.0469 161.7344,24.0781 L161.7344,25.1719 Q161.7344,26.4063 162.625,27.2266 Q163.5156,28.0469 165.1094,28.0469 Q166.0469,28.0469 166.7031,27.7969 Q167.0938,27.6406 167.5156,27.2031 Q167.7813,26.9375 167.9297,26.8594 Q168.0781,26.7813 168.2813,26.7813 Q168.6094,26.7813 168.8672,27.0391 Q169.125,27.2969 169.125,27.6406 Q169.125,27.9844 168.7813,28.3906 Q168.2813,28.9688 167.4844,29.2969 Q166.4063,29.75 165.1094,29.75 Q163.5938,29.75 162.3906,29.125 Q161.4063,28.625 160.7188,27.5547 Q160.0313,26.4844 160.0313,25.2031 L160.0313,24.0469 Q160.0313,22.7188 160.6484,21.5703 Q161.2656,20.4219 162.3594,19.8047 Q163.4531,19.1875 164.6875,19.1875 Q165.4219,19.1875 166.0703,19.3516 Q166.7188,19.5156 167.2656,19.875 Z "/><text fill="#000000" font-family="sans-serif" font-size="12" lengthAdjust="spacingAndGlyphs" textLength="14" x="178.5" y="28.9102">¿?</text><line style="stroke: #A80036; stroke-width: 1.5;" x1="150.5" x2="194.5" y1="40" y2="40"/><line style="stroke: #A80036; stroke-width: 1.5;" x1="150.5" x2="194.5" y1="48" y2="48"/><!--class Aferente--><rect fill="#FEFECE" filter="url(#f12rc38uwdaz5q)" height="48" id="Aferente" style="stroke: #A80036; stroke-width: 1.5;" width="77" x="15" y="8"/><ellipse cx="30" cy="24" fill="#ADD1B2" rx="11" ry="11" style="stroke: #A80036; stroke-width: 1.0;"/><path d="M32.7656,19.875 Q32.9219,19.6563 33.1094,19.5469 Q33.2969,19.4375 33.5156,19.4375 Q33.8906,19.4375 34.125,19.6953 Q34.3594,19.9531 34.3594,20.5625 L34.3594,22.0156 Q34.3594,22.625 34.125,22.8906 Q33.8906,23.1563 33.5156,23.1563 Q33.1719,23.1563 32.9688,22.9531 Q32.7656,22.7656 32.6563,22.25 Q32.6094,21.8906 32.4219,21.7031 Q32.0938,21.3281 31.4844,21.1094 Q30.875,20.8906 30.25,20.8906 Q29.4844,20.8906 28.8516,21.2188 Q28.2188,21.5469 27.7266,22.2969 Q27.2344,23.0469 27.2344,24.0781 L27.2344,25.1719 Q27.2344,26.4063 28.125,27.2266 Q29.0156,28.0469 30.6094,28.0469 Q31.5469,28.0469 32.2031,27.7969 Q32.5938,27.6406 33.0156,27.2031 Q33.2813,26.9375 33.4297,26.8594 Q33.5781,26.7813 33.7813,26.7813 Q34.1094,26.7813 34.3672,27.0391 Q34.625,27.2969 34.625,27.6406 Q34.625,27.9844 34.2813,28.3906 Q33.7813,28.9688 32.9844,29.2969 Q31.9063,29.75 30.6094,29.75 Q29.0938,29.75 27.8906,29.125 Q26.9063,28.625 26.2188,27.5547 Q25.5313,26.4844 25.5313,25.2031 L25.5313,24.0469 Q25.5313,22.7188 26.1484,21.5703 Q26.7656,20.4219 27.8594,19.8047 Q28.9531,19.1875 30.1875,19.1875 Q30.9219,19.1875 31.5703,19.3516 Q32.2188,19.5156 32.7656,19.875 Z "/><text fill="#000000" font-family="sans-serif" font-size="12" lengthAdjust="spacingAndGlyphs" textLength="45" x="44" y="28.9102">Aferente</text><line style="stroke: #A80036; stroke-width: 1.5;" x1="16" x2="91" y1="40" y2="40"/><line style="stroke: #A80036; stroke-width: 1.5;" x1="16" x2="91" y1="48" y2="48"/><!--class Eferente--><rect fill="#FEFECE" filter="url(#f12rc38uwdaz5q)" height="48" id="Eferente" style="stroke: #A80036; stroke-width: 1.5;" width="78" x="294.5" y="8"/><ellipse cx="309.5" cy="24" fill="#ADD1B2" rx="11" ry="11" style="stroke: #A80036; stroke-width: 1.0;"/><path d="M312.2656,19.875 Q312.4219,19.6563 312.6094,19.5469 Q312.7969,19.4375 313.0156,19.4375 Q313.3906,19.4375 313.625,19.6953 Q313.8594,19.9531 313.8594,20.5625 L313.8594,22.0156 Q313.8594,22.625 313.625,22.8906 Q313.3906,23.1563 313.0156,23.1563 Q312.6719,23.1563 312.4688,22.9531 Q312.2656,22.7656 312.1563,22.25 Q312.1094,21.8906 311.9219,21.7031 Q311.5938,21.3281 310.9844,21.1094 Q310.375,20.8906 309.75,20.8906 Q308.9844,20.8906 308.3516,21.2188 Q307.7188,21.5469 307.2266,22.2969 Q306.7344,23.0469 306.7344,24.0781 L306.7344,25.1719 Q306.7344,26.4063 307.625,27.2266 Q308.5156,28.0469 310.1094,28.0469 Q311.0469,28.0469 311.7031,27.7969 Q312.0938,27.6406 312.5156,27.2031 Q312.7813,26.9375 312.9297,26.8594 Q313.0781,26.7813 313.2813,26.7813 Q313.6094,26.7813 313.8672,27.0391 Q314.125,27.2969 314.125,27.6406 Q314.125,27.9844 313.7813,28.3906 Q313.2813,28.9688 312.4844,29.2969 Q311.4063,29.75 310.1094,29.75 Q308.5938,29.75 307.3906,29.125 Q306.4063,28.625 305.7188,27.5547 Q305.0313,26.4844 305.0313,25.2031 L305.0313,24.0469 Q305.0313,22.7188 305.6484,21.5703 Q306.2656,20.4219 307.3594,19.8047 Q308.4531,19.1875 309.6875,19.1875 Q310.4219,19.1875 311.0703,19.3516 Q311.7188,19.5156 312.2656,19.875 Z "/><text fill="#000000" font-family="sans-serif" font-size="12" lengthAdjust="spacingAndGlyphs" textLength="46" x="323.5" y="28.9102">Eferente</text><line style="stroke: #A80036; stroke-width: 1.5;" x1="295.5" x2="371.5" y1="40" y2="40"/><line style="stroke: #A80036; stroke-width: 1.5;" x1="295.5" x2="371.5" y1="48" y2="48"/><!--class Elemento--><rect fill="#FEFECE" filter="url(#f12rc38uwdaz5q)" height="48" id="Elemento" style="stroke: #A80036; stroke-width: 1.5;" width="85" x="6" y="134"/><ellipse cx="21" cy="150" fill="#ADD1B2" rx="11" ry="11" style="stroke: #A80036; stroke-width: 1.0;"/><path d="M23.7656,145.875 Q23.9219,145.6563 24.1094,145.5469 Q24.2969,145.4375 24.5156,145.4375 Q24.8906,145.4375 25.125,145.6953 Q25.3594,145.9531 25.3594,146.5625 L25.3594,148.0156 Q25.3594,148.625 25.125,148.8906 Q24.8906,149.1563 24.5156,149.1563 Q24.1719,149.1563 23.9688,148.9531 Q23.7656,148.7656 23.6563,148.25 Q23.6094,147.8906 23.4219,147.7031 Q23.0938,147.3281 22.4844,147.1094 Q21.875,146.8906 21.25,146.8906 Q20.4844,146.8906 19.8516,147.2188 Q19.2188,147.5469 18.7266,148.2969 Q18.2344,149.0469 18.2344,150.0781 L18.2344,151.1719 Q18.2344,152.4063 19.125,153.2266 Q20.0156,154.0469 21.6094,154.0469 Q22.5469,154.0469 23.2031,153.7969 Q23.5938,153.6406 24.0156,153.2031 Q24.2813,152.9375 24.4297,152.8594 Q24.5781,152.7813 24.7813,152.7813 Q25.1094,152.7813 25.3672,153.0391 Q25.625,153.2969 25.625,153.6406 Q25.625,153.9844 25.2813,154.3906 Q24.7813,154.9688 23.9844,155.2969 Q22.9063,155.75 21.6094,155.75 Q20.0938,155.75 18.8906,155.125 Q17.9063,154.625 17.2188,153.5547 Q16.5313,152.4844 16.5313,151.2031 L16.5313,150.0469 Q16.5313,148.7188 17.1484,147.5703 Q17.7656,146.4219 18.8594,145.8047 Q19.9531,145.1875 21.1875,145.1875 Q21.9219,145.1875 22.5703,145.3516 Q23.2188,145.5156 23.7656,145.875 Z "/><text fill="#000000" font-family="sans-serif" font-size="12" lengthAdjust="spacingAndGlyphs" textLength="53" x="35" y="154.9102">Elemento</text><line style="stroke: #A80036; stroke-width: 1.5;" x1="7" x2="90" y1="166" y2="166"/><line style="stroke: #A80036; stroke-width: 1.5;" x1="7" x2="90" y1="174" y2="174"/><path d="M126.5,145 L126.5,154 L91.2656,158 L126.5,162 L126.5,171.3516 A0,0 0 0 0 126.5,171.3516 L154.5,171.3516 A0,0 0 0 0 154.5,171.3516 L154.5,155 L144.5,145 L126.5,145 A0,0 0 0 0 126.5,145 " fill="#FBFB77" filter="url(#f12rc38uwdaz5q)" style="stroke: #A80036; stroke-width: 1.0;"/><path d="M144.5,145 L144.5,155 L154.5,155 L144.5,145 " fill="#FBFB77" style="stroke: #A80036; stroke-width: 1.0;"/><text fill="#000000" font-family="sans-serif" font-size="13" lengthAdjust="spacingAndGlyphs" textLength="7" x="132.5" y="163.4951">1</text><!--class Conjunto--><rect fill="#FEFECE" filter="url(#f12rc38uwdaz5q)" height="48" id="Conjunto" style="stroke: #A80036; stroke-width: 1.5;" width="82" x="189.5" y="134"/><ellipse cx="204.5" cy="150" fill="#ADD1B2" rx="11" ry="11" style="stroke: #A80036; stroke-width: 1.0;"/><path d="M207.2656,145.875 Q207.4219,145.6563 207.6094,145.5469 Q207.7969,145.4375 208.0156,145.4375 Q208.3906,145.4375 208.625,145.6953 Q208.8594,145.9531 208.8594,146.5625 L208.8594,148.0156 Q208.8594,148.625 208.625,148.8906 Q208.3906,149.1563 208.0156,149.1563 Q207.6719,149.1563 207.4688,148.9531 Q207.2656,148.7656 207.1563,148.25 Q207.1094,147.8906 206.9219,147.7031 Q206.5938,147.3281 205.9844,147.1094 Q205.375,146.8906 204.75,146.8906 Q203.9844,146.8906 203.3516,147.2188 Q202.7188,147.5469 202.2266,148.2969 Q201.7344,149.0469 201.7344,150.0781 L201.7344,151.1719 Q201.7344,152.4063 202.625,153.2266 Q203.5156,154.0469 205.1094,154.0469 Q206.0469,154.0469 206.7031,153.7969 Q207.0938,153.6406 207.5156,153.2031 Q207.7813,152.9375 207.9297,152.8594 Q208.0781,152.7813 208.2813,152.7813 Q208.6094,152.7813 208.8672,153.0391 Q209.125,153.2969 209.125,153.6406 Q209.125,153.9844 208.7813,154.3906 Q208.2813,154.9688 207.4844,155.2969 Q206.4063,155.75 205.1094,155.75 Q203.5938,155.75 202.3906,155.125 Q201.4063,154.625 200.7188,153.5547 Q200.0313,152.4844 200.0313,151.2031 L200.0313,150.0469 Q200.0313,148.7188 200.6484,147.5703 Q201.2656,146.4219 202.3594,145.8047 Q203.4531,145.1875 204.6875,145.1875 Q205.4219,145.1875 206.0703,145.3516 Q206.7188,145.5156 207.2656,145.875 Z "/><text fill="#000000" font-family="sans-serif" font-size="12" lengthAdjust="spacingAndGlyphs" textLength="50" x="218.5" y="154.9102">Conjunto</text><line style="stroke: #A80036; stroke-width: 1.5;" x1="190.5" x2="270.5" y1="166" y2="166"/><line style="stroke: #A80036; stroke-width: 1.5;" x1="190.5" x2="270.5" y1="174" y2="174"/><!--link Aferente to Incognita--><path d="M92.1359,32 C109.086,32 128.624,32 144.19,32 " fill="none" id="Aferente-Incognita" style="stroke: #A80036; stroke-width: 1.0; stroke-dasharray: 7.0,7.0;"/><polygon fill="#A80036" points="149.307,32,140.307,28,144.307,32,140.307,36,149.307,32" style="stroke: #A80036; stroke-width: 1.0;"/><text fill="#000000" font-family="sans-serif" font-size="13" lengthAdjust="spacingAndGlyphs" textLength="21" x="110.25" y="25.4951">uso</text><!--link Incognita to Eferente--><path d="M195.567,32 C219.897,32 258.83,32 289.139,32 " fill="none" id="Incognita-Eferente" style="stroke: #A80036; stroke-width: 1.0;"/><polygon fill="#A80036" points="294.308,32,285.308,28,289.308,32,285.308,36,294.308,32" style="stroke: #A80036; stroke-width: 1.0;"/><text fill="#000000" font-family="sans-serif" font-size="13" lengthAdjust="spacingAndGlyphs" textLength="62" x="214" y="25.4951">asociación</text><!--link Incognita to Elemento--><path d="M135.089,70.411 C114.516,90.9842 89.6328,115.8672 71.8303,133.6697 " fill="none" id="Incognita-Elemento" style="stroke: #A80036; stroke-width: 1.0;"/><polygon fill="none" points="130.375,65.225,149.467,56.033,140.275,75.125,130.375,65.225" style="stroke: #A80036; stroke-width: 1.0;"/><text fill="#000000" font-family="sans-serif" font-size="13" lengthAdjust="spacingAndGlyphs" textLength="49" x="118.5" y="100.4951">herencia</text><!--link Incognita to Conjunto--><path d="M183.365,75.333 C186.45,84.9666 190.172,95.0065 194.5,104 C199.469,114.3236 206.267,124.9195 212.618,133.8976 " fill="none" id="Incognita-Conjunto" style="stroke: #A80036; stroke-width: 1.0;"/><polygon fill="none" points="176.615,77.19,177.785,56.033,190.064,73.302,176.615,77.19" style="stroke: #A80036; stroke-width: 1.0;"/><!--link Conjunto to Incognita--><path d="M213.923,121.5589 C206.067,104.7644 196.712,84.764 188.882,68.023 " fill="none" id="Conjunto-Incognita" style="stroke: #A80036; stroke-width: 1.0;"/><polygon fill="#A80036" points="183.273,56.033,183.4623,65.88,185.3912,60.5622,190.709,62.491,183.273,56.033" style="stroke: #A80036; stroke-width: 1.0;"/><line style="stroke: #A80036; stroke-width: 1.0;" x1="185.3912" x2="188.7815" y1="60.5622" y2="67.8085"/><polygon fill="#A80036" points="219.587,133.6697,220.6681,126.5401,214.5028,122.8,213.4216,129.9296,219.587,133.6697" style="stroke: #A80036; stroke-width: 1.0;"/><text fill="#000000" font-family="sans-serif" font-size="13" lengthAdjust="spacingAndGlyphs" textLength="73" x="205.5" y="100.4951">composición</text><text fill="#000000" font-family="sans-serif" font-size="13" lengthAdjust="spacingAndGlyphs" textLength="29" x="153.3645" y="77.379">0..oo</text><!--
@startuml
class "¿?" as Incognita
class Aferente
class Eferente

Aferente .right.> Incognita : uso
Incognita -right-> Eferente : asociación

class Elemento
note left {
    1
}
class Conjunto

Incognita <|- - Elemento : herencia
Incognita <|- - Conjunto
Conjunto *- -> "0..oo" Incognita : composición
@enduml

PlantUML version 1.2019.05(Sat Apr 20 18:45:36 CEST 2019)
(GPL source distribution)
Java Runtime: OpenJDK Runtime Environment
JVM: OpenJDK 64-Bit Server VM
Java Version: 1.8.0_222-b10
Operating System: Windows 10
OS Version: 10.0
Default Encoding: windows-1252
Language: es
Country: ES
--></g></svg>