<?xml version="1.0" encoding="UTF-8" standalone="no"?><svg xmlns="http://www.w3.org/2000/svg" xmlns:xlink="http://www.w3.org/1999/xlink" contentScriptType="application/ecmascript" contentStyleType="text/css" height="738px" preserveAspectRatio="none" style="width:780px;height:738px;" version="1.1" viewBox="0 0 780 738" width="780px" zoomAndPan="magnify"><defs><filter height="300%" id="fhadzju1v0gvt" width="300%" x="-1" y="-1"><feGaussianBlur result="blurOut" stdDeviation="2.0"/><feColorMatrix in="blurOut" result="blurOut2" type="matrix" values="0 0 0 0 0 0 0 0 0 0 0 0 0 0 0 0 0 0 .4 0"/><feOffset dx="4.0" dy="4.0" in="blurOut2" result="blurOut3"/><feBlend in="SourceGraphic" in2="blurOut3" mode="normal"/></filter></defs><g><!--class Sabiduría--><rect fill="#FEFECE" filter="url(#fhadzju1v0gvt)" height="48" id="Sabiduría" style="stroke: #A80036; stroke-width: 1.5;" width="85" x="408.5" y="8"/><ellipse cx="423.5" cy="24" fill="#ADD1B2" rx="11" ry="11" style="stroke: #A80036; stroke-width: 1.0;"/><path d="M426.2656,19.875 Q426.4219,19.6563 426.6094,19.5469 Q426.7969,19.4375 427.0156,19.4375 Q427.3906,19.4375 427.625,19.6953 Q427.8594,19.9531 427.8594,20.5625 L427.8594,22.0156 Q427.8594,22.625 427.625,22.8906 Q427.3906,23.1563 427.0156,23.1563 Q426.6719,23.1563 426.4688,22.9531 Q426.2656,22.7656 426.1563,22.25 Q426.1094,21.8906 425.9219,21.7031 Q425.5938,21.3281 424.9844,21.1094 Q424.375,20.8906 423.75,20.8906 Q422.9844,20.8906 422.3516,21.2188 Q421.7188,21.5469 421.2266,22.2969 Q420.7344,23.0469 420.7344,24.0781 L420.7344,25.1719 Q420.7344,26.4063 421.625,27.2266 Q422.5156,28.0469 424.1094,28.0469 Q425.0469,28.0469 425.7031,27.7969 Q426.0938,27.6406 426.5156,27.2031 Q426.7813,26.9375 426.9297,26.8594 Q427.0781,26.7813 427.2813,26.7813 Q427.6094,26.7813 427.8672,27.0391 Q428.125,27.2969 428.125,27.6406 Q428.125,27.9844 427.7813,28.3906 Q427.2813,28.9688 426.4844,29.2969 Q425.4063,29.75 424.1094,29.75 Q422.5938,29.75 421.3906,29.125 Q420.4063,28.625 419.7188,27.5547 Q419.0313,26.4844 419.0313,25.2031 L419.0313,24.0469 Q419.0313,22.7188 419.6484,21.5703 Q420.2656,20.4219 421.3594,19.8047 Q422.4531,19.1875 423.6875,19.1875 Q424.4219,19.1875 425.0703,19.3516 Q425.7188,19.5156 426.2656,19.875 Z "/><text fill="#000000" font-family="sans-serif" font-size="12" lengthAdjust="spacingAndGlyphs" textLength="53" x="437.5" y="28.9102">Sabiduría</text><line style="stroke: #A80036; stroke-width: 1.5;" x1="409.5" x2="492.5" y1="40" y2="40"/><line style="stroke: #A80036; stroke-width: 1.5;" x1="409.5" x2="492.5" y1="48" y2="48"/><!--class Conocimiento--><rect fill="#FEFECE" filter="url(#fhadzju1v0gvt)" height="48" id="Conocimiento" style="stroke: #A80036; stroke-width: 1.5;" width="109" x="396.5" y="117"/><ellipse cx="411.5" cy="133" fill="#ADD1B2" rx="11" ry="11" style="stroke: #A80036; stroke-width: 1.0;"/><path d="M414.2656,128.875 Q414.4219,128.6563 414.6094,128.5469 Q414.7969,128.4375 415.0156,128.4375 Q415.3906,128.4375 415.625,128.6953 Q415.8594,128.9531 415.8594,129.5625 L415.8594,131.0156 Q415.8594,131.625 415.625,131.8906 Q415.3906,132.1563 415.0156,132.1563 Q414.6719,132.1563 414.4688,131.9531 Q414.2656,131.7656 414.1563,131.25 Q414.1094,130.8906 413.9219,130.7031 Q413.5938,130.3281 412.9844,130.1094 Q412.375,129.8906 411.75,129.8906 Q410.9844,129.8906 410.3516,130.2188 Q409.7188,130.5469 409.2266,131.2969 Q408.7344,132.0469 408.7344,133.0781 L408.7344,134.1719 Q408.7344,135.4063 409.625,136.2266 Q410.5156,137.0469 412.1094,137.0469 Q413.0469,137.0469 413.7031,136.7969 Q414.0938,136.6406 414.5156,136.2031 Q414.7813,135.9375 414.9297,135.8594 Q415.0781,135.7813 415.2813,135.7813 Q415.6094,135.7813 415.8672,136.0391 Q416.125,136.2969 416.125,136.6406 Q416.125,136.9844 415.7813,137.3906 Q415.2813,137.9688 414.4844,138.2969 Q413.4063,138.75 412.1094,138.75 Q410.5938,138.75 409.3906,138.125 Q408.4063,137.625 407.7188,136.5547 Q407.0313,135.4844 407.0313,134.2031 L407.0313,133.0469 Q407.0313,131.7188 407.6484,130.5703 Q408.2656,129.4219 409.3594,128.8047 Q410.4531,128.1875 411.6875,128.1875 Q412.4219,128.1875 413.0703,128.3516 Q413.7188,128.5156 414.2656,128.875 Z "/><text fill="#000000" font-family="sans-serif" font-size="12" lengthAdjust="spacingAndGlyphs" textLength="77" x="425.5" y="137.9102">Conocimiento</text><line style="stroke: #A80036; stroke-width: 1.5;" x1="397.5" x2="504.5" y1="149" y2="149"/><line style="stroke: #A80036; stroke-width: 1.5;" x1="397.5" x2="504.5" y1="157" y2="157"/><!--class Información--><rect fill="#FEFECE" filter="url(#fhadzju1v0gvt)" height="48" id="Información" style="stroke: #A80036; stroke-width: 1.5;" width="97" x="396.5" y="226"/><ellipse cx="411.5" cy="242" fill="#ADD1B2" rx="11" ry="11" style="stroke: #A80036; stroke-width: 1.0;"/><path d="M414.2656,237.875 Q414.4219,237.6563 414.6094,237.5469 Q414.7969,237.4375 415.0156,237.4375 Q415.3906,237.4375 415.625,237.6953 Q415.8594,237.9531 415.8594,238.5625 L415.8594,240.0156 Q415.8594,240.625 415.625,240.8906 Q415.3906,241.1563 415.0156,241.1563 Q414.6719,241.1563 414.4688,240.9531 Q414.2656,240.7656 414.1563,240.25 Q414.1094,239.8906 413.9219,239.7031 Q413.5938,239.3281 412.9844,239.1094 Q412.375,238.8906 411.75,238.8906 Q410.9844,238.8906 410.3516,239.2188 Q409.7188,239.5469 409.2266,240.2969 Q408.7344,241.0469 408.7344,242.0781 L408.7344,243.1719 Q408.7344,244.4063 409.625,245.2266 Q410.5156,246.0469 412.1094,246.0469 Q413.0469,246.0469 413.7031,245.7969 Q414.0938,245.6406 414.5156,245.2031 Q414.7813,244.9375 414.9297,244.8594 Q415.0781,244.7813 415.2813,244.7813 Q415.6094,244.7813 415.8672,245.0391 Q416.125,245.2969 416.125,245.6406 Q416.125,245.9844 415.7813,246.3906 Q415.2813,246.9688 414.4844,247.2969 Q413.4063,247.75 412.1094,247.75 Q410.5938,247.75 409.3906,247.125 Q408.4063,246.625 407.7188,245.5547 Q407.0313,244.4844 407.0313,243.2031 L407.0313,242.0469 Q407.0313,240.7188 407.6484,239.5703 Q408.2656,238.4219 409.3594,237.8047 Q410.4531,237.1875 411.6875,237.1875 Q412.4219,237.1875 413.0703,237.3516 Q413.7188,237.5156 414.2656,237.875 Z "/><text fill="#000000" font-family="sans-serif" font-size="12" lengthAdjust="spacingAndGlyphs" textLength="65" x="425.5" y="246.9102">Información</text><line style="stroke: #A80036; stroke-width: 1.5;" x1="397.5" x2="492.5" y1="258" y2="258"/><line style="stroke: #A80036; stroke-width: 1.5;" x1="397.5" x2="492.5" y1="266" y2="266"/><!--class Dato--><rect fill="#FEFECE" filter="url(#fhadzju1v0gvt)" height="48" id="Dato" style="stroke: #A80036; stroke-width: 1.5;" width="58" x="318" y="352"/><ellipse cx="333" cy="368" fill="#ADD1B2" rx="11" ry="11" style="stroke: #A80036; stroke-width: 1.0;"/><path d="M335.7656,363.875 Q335.9219,363.6563 336.1094,363.5469 Q336.2969,363.4375 336.5156,363.4375 Q336.8906,363.4375 337.125,363.6953 Q337.3594,363.9531 337.3594,364.5625 L337.3594,366.0156 Q337.3594,366.625 337.125,366.8906 Q336.8906,367.1563 336.5156,367.1563 Q336.1719,367.1563 335.9688,366.9531 Q335.7656,366.7656 335.6563,366.25 Q335.6094,365.8906 335.4219,365.7031 Q335.0938,365.3281 334.4844,365.1094 Q333.875,364.8906 333.25,364.8906 Q332.4844,364.8906 331.8516,365.2188 Q331.2188,365.5469 330.7266,366.2969 Q330.2344,367.0469 330.2344,368.0781 L330.2344,369.1719 Q330.2344,370.4063 331.125,371.2266 Q332.0156,372.0469 333.6094,372.0469 Q334.5469,372.0469 335.2031,371.7969 Q335.5938,371.6406 336.0156,371.2031 Q336.2813,370.9375 336.4297,370.8594 Q336.5781,370.7813 336.7813,370.7813 Q337.1094,370.7813 337.3672,371.0391 Q337.625,371.2969 337.625,371.6406 Q337.625,371.9844 337.2813,372.3906 Q336.7813,372.9688 335.9844,373.2969 Q334.9063,373.75 333.6094,373.75 Q332.0938,373.75 330.8906,373.125 Q329.9063,372.625 329.2188,371.5547 Q328.5313,370.4844 328.5313,369.2031 L328.5313,368.0469 Q328.5313,366.7188 329.1484,365.5703 Q329.7656,364.4219 330.8594,363.8047 Q331.9531,363.1875 333.1875,363.1875 Q333.9219,363.1875 334.5703,363.3516 Q335.2188,363.5156 335.7656,363.875 Z "/><text fill="#000000" font-family="sans-serif" font-size="12" lengthAdjust="spacingAndGlyphs" textLength="26" x="347" y="372.9102">Dato</text><line style="stroke: #A80036; stroke-width: 1.5;" x1="319" x2="375" y1="384" y2="384"/><line style="stroke: #A80036; stroke-width: 1.5;" x1="319" x2="375" y1="392" y2="392"/><!--class Lenguaje--><rect fill="#FEFECE" filter="url(#fhadzju1v0gvt)" height="48" id="Lenguaje" style="stroke: #A80036; stroke-width: 1.5;" width="84" x="512" y="352"/><ellipse cx="527" cy="368" fill="#ADD1B2" rx="11" ry="11" style="stroke: #A80036; stroke-width: 1.0;"/><path d="M529.7656,363.875 Q529.9219,363.6563 530.1094,363.5469 Q530.2969,363.4375 530.5156,363.4375 Q530.8906,363.4375 531.125,363.6953 Q531.3594,363.9531 531.3594,364.5625 L531.3594,366.0156 Q531.3594,366.625 531.125,366.8906 Q530.8906,367.1563 530.5156,367.1563 Q530.1719,367.1563 529.9688,366.9531 Q529.7656,366.7656 529.6563,366.25 Q529.6094,365.8906 529.4219,365.7031 Q529.0938,365.3281 528.4844,365.1094 Q527.875,364.8906 527.25,364.8906 Q526.4844,364.8906 525.8516,365.2188 Q525.2188,365.5469 524.7266,366.2969 Q524.2344,367.0469 524.2344,368.0781 L524.2344,369.1719 Q524.2344,370.4063 525.125,371.2266 Q526.0156,372.0469 527.6094,372.0469 Q528.5469,372.0469 529.2031,371.7969 Q529.5938,371.6406 530.0156,371.2031 Q530.2813,370.9375 530.4297,370.8594 Q530.5781,370.7813 530.7813,370.7813 Q531.1094,370.7813 531.3672,371.0391 Q531.625,371.2969 531.625,371.6406 Q531.625,371.9844 531.2813,372.3906 Q530.7813,372.9688 529.9844,373.2969 Q528.9063,373.75 527.6094,373.75 Q526.0938,373.75 524.8906,373.125 Q523.9063,372.625 523.2188,371.5547 Q522.5313,370.4844 522.5313,369.2031 L522.5313,368.0469 Q522.5313,366.7188 523.1484,365.5703 Q523.7656,364.4219 524.8594,363.8047 Q525.9531,363.1875 527.1875,363.1875 Q527.9219,363.1875 528.5703,363.3516 Q529.2188,363.5156 529.7656,363.875 Z "/><text fill="#000000" font-family="sans-serif" font-size="12" lengthAdjust="spacingAndGlyphs" textLength="52" x="541" y="372.9102">Lenguaje</text><line style="stroke: #A80036; stroke-width: 1.5;" x1="513" x2="595" y1="384" y2="384"/><line style="stroke: #A80036; stroke-width: 1.5;" x1="513" x2="595" y1="392" y2="392"/><!--class Conjunto--><rect fill="#FEFECE" filter="url(#fhadzju1v0gvt)" height="48" id="Conjunto" style="stroke: #A80036; stroke-width: 1.5;" width="82" x="12" y="8"/><ellipse cx="27" cy="24" fill="#ADD1B2" rx="11" ry="11" style="stroke: #A80036; stroke-width: 1.0;"/><path d="M29.7656,19.875 Q29.9219,19.6563 30.1094,19.5469 Q30.2969,19.4375 30.5156,19.4375 Q30.8906,19.4375 31.125,19.6953 Q31.3594,19.9531 31.3594,20.5625 L31.3594,22.0156 Q31.3594,22.625 31.125,22.8906 Q30.8906,23.1563 30.5156,23.1563 Q30.1719,23.1563 29.9688,22.9531 Q29.7656,22.7656 29.6563,22.25 Q29.6094,21.8906 29.4219,21.7031 Q29.0938,21.3281 28.4844,21.1094 Q27.875,20.8906 27.25,20.8906 Q26.4844,20.8906 25.8516,21.2188 Q25.2188,21.5469 24.7266,22.2969 Q24.2344,23.0469 24.2344,24.0781 L24.2344,25.1719 Q24.2344,26.4063 25.125,27.2266 Q26.0156,28.0469 27.6094,28.0469 Q28.5469,28.0469 29.2031,27.7969 Q29.5938,27.6406 30.0156,27.2031 Q30.2813,26.9375 30.4297,26.8594 Q30.5781,26.7813 30.7813,26.7813 Q31.1094,26.7813 31.3672,27.0391 Q31.625,27.2969 31.625,27.6406 Q31.625,27.9844 31.2813,28.3906 Q30.7813,28.9688 29.9844,29.2969 Q28.9063,29.75 27.6094,29.75 Q26.0938,29.75 24.8906,29.125 Q23.9063,28.625 23.2188,27.5547 Q22.5313,26.4844 22.5313,25.2031 L22.5313,24.0469 Q22.5313,22.7188 23.1484,21.5703 Q23.7656,20.4219 24.8594,19.8047 Q25.9531,19.1875 27.1875,19.1875 Q27.9219,19.1875 28.5703,19.3516 Q29.2188,19.5156 29.7656,19.875 Z "/><text fill="#000000" font-family="sans-serif" font-size="12" lengthAdjust="spacingAndGlyphs" textLength="50" x="41" y="28.9102">Conjunto</text><line style="stroke: #A80036; stroke-width: 1.5;" x1="13" x2="93" y1="40" y2="40"/><line style="stroke: #A80036; stroke-width: 1.5;" x1="13" x2="93" y1="48" y2="48"/><!--class Objeto--><rect fill="#FEFECE" filter="url(#fhadzju1v0gvt)" height="48" id="Objeto" style="stroke: #A80036; stroke-width: 1.5;" width="68" x="355" y="461"/><ellipse cx="370" cy="477" fill="#ADD1B2" rx="11" ry="11" style="stroke: #A80036; stroke-width: 1.0;"/><path d="M372.7656,472.875 Q372.9219,472.6563 373.1094,472.5469 Q373.2969,472.4375 373.5156,472.4375 Q373.8906,472.4375 374.125,472.6953 Q374.3594,472.9531 374.3594,473.5625 L374.3594,475.0156 Q374.3594,475.625 374.125,475.8906 Q373.8906,476.1563 373.5156,476.1563 Q373.1719,476.1563 372.9688,475.9531 Q372.7656,475.7656 372.6563,475.25 Q372.6094,474.8906 372.4219,474.7031 Q372.0938,474.3281 371.4844,474.1094 Q370.875,473.8906 370.25,473.8906 Q369.4844,473.8906 368.8516,474.2188 Q368.2188,474.5469 367.7266,475.2969 Q367.2344,476.0469 367.2344,477.0781 L367.2344,478.1719 Q367.2344,479.4063 368.125,480.2266 Q369.0156,481.0469 370.6094,481.0469 Q371.5469,481.0469 372.2031,480.7969 Q372.5938,480.6406 373.0156,480.2031 Q373.2813,479.9375 373.4297,479.8594 Q373.5781,479.7813 373.7813,479.7813 Q374.1094,479.7813 374.3672,480.0391 Q374.625,480.2969 374.625,480.6406 Q374.625,480.9844 374.2813,481.3906 Q373.7813,481.9688 372.9844,482.2969 Q371.9063,482.75 370.6094,482.75 Q369.0938,482.75 367.8906,482.125 Q366.9063,481.625 366.2188,480.5547 Q365.5313,479.4844 365.5313,478.2031 L365.5313,477.0469 Q365.5313,475.7188 366.1484,474.5703 Q366.7656,473.4219 367.8594,472.8047 Q368.9531,472.1875 370.1875,472.1875 Q370.9219,472.1875 371.5703,472.3516 Q372.2188,472.5156 372.7656,472.875 Z "/><text fill="#000000" font-family="sans-serif" font-size="12" lengthAdjust="spacingAndGlyphs" textLength="36" x="384" y="481.9102">Objeto</text><line style="stroke: #A80036; stroke-width: 1.5;" x1="356" x2="422" y1="493" y2="493"/><line style="stroke: #A80036; stroke-width: 1.5;" x1="356" x2="422" y1="501" y2="501"/><!--class Clase--><rect fill="#FEFECE" filter="url(#fhadzju1v0gvt)" height="48" id="Clase" style="stroke: #A80036; stroke-width: 1.5;" width="65" x="411.5" y="352"/><ellipse cx="426.5" cy="368" fill="#ADD1B2" rx="11" ry="11" style="stroke: #A80036; stroke-width: 1.0;"/><path d="M429.2656,363.875 Q429.4219,363.6563 429.6094,363.5469 Q429.7969,363.4375 430.0156,363.4375 Q430.3906,363.4375 430.625,363.6953 Q430.8594,363.9531 430.8594,364.5625 L430.8594,366.0156 Q430.8594,366.625 430.625,366.8906 Q430.3906,367.1563 430.0156,367.1563 Q429.6719,367.1563 429.4688,366.9531 Q429.2656,366.7656 429.1563,366.25 Q429.1094,365.8906 428.9219,365.7031 Q428.5938,365.3281 427.9844,365.1094 Q427.375,364.8906 426.75,364.8906 Q425.9844,364.8906 425.3516,365.2188 Q424.7188,365.5469 424.2266,366.2969 Q423.7344,367.0469 423.7344,368.0781 L423.7344,369.1719 Q423.7344,370.4063 424.625,371.2266 Q425.5156,372.0469 427.1094,372.0469 Q428.0469,372.0469 428.7031,371.7969 Q429.0938,371.6406 429.5156,371.2031 Q429.7813,370.9375 429.9297,370.8594 Q430.0781,370.7813 430.2813,370.7813 Q430.6094,370.7813 430.8672,371.0391 Q431.125,371.2969 431.125,371.6406 Q431.125,371.9844 430.7813,372.3906 Q430.2813,372.9688 429.4844,373.2969 Q428.4063,373.75 427.1094,373.75 Q425.5938,373.75 424.3906,373.125 Q423.4063,372.625 422.7188,371.5547 Q422.0313,370.4844 422.0313,369.2031 L422.0313,368.0469 Q422.0313,366.7188 422.6484,365.5703 Q423.2656,364.4219 424.3594,363.8047 Q425.4531,363.1875 426.6875,363.1875 Q427.4219,363.1875 428.0703,363.3516 Q428.7188,363.5156 429.2656,363.875 Z "/><text fill="#000000" font-family="sans-serif" font-size="12" lengthAdjust="spacingAndGlyphs" textLength="33" x="440.5" y="372.9102">Clase</text><line style="stroke: #A80036; stroke-width: 1.5;" x1="412.5" x2="475.5" y1="384" y2="384"/><line style="stroke: #A80036; stroke-width: 1.5;" x1="412.5" x2="475.5" y1="392" y2="392"/><!--class Composición--><rect fill="#FEFECE" filter="url(#fhadzju1v0gvt)" height="48" id="Composición" style="stroke: #A80036; stroke-width: 1.5;" width="106" x="129" y="8"/><ellipse cx="144" cy="24" fill="#ADD1B2" rx="11" ry="11" style="stroke: #A80036; stroke-width: 1.0;"/><path d="M146.7656,19.875 Q146.9219,19.6563 147.1094,19.5469 Q147.2969,19.4375 147.5156,19.4375 Q147.8906,19.4375 148.125,19.6953 Q148.3594,19.9531 148.3594,20.5625 L148.3594,22.0156 Q148.3594,22.625 148.125,22.8906 Q147.8906,23.1563 147.5156,23.1563 Q147.1719,23.1563 146.9688,22.9531 Q146.7656,22.7656 146.6563,22.25 Q146.6094,21.8906 146.4219,21.7031 Q146.0938,21.3281 145.4844,21.1094 Q144.875,20.8906 144.25,20.8906 Q143.4844,20.8906 142.8516,21.2188 Q142.2188,21.5469 141.7266,22.2969 Q141.2344,23.0469 141.2344,24.0781 L141.2344,25.1719 Q141.2344,26.4063 142.125,27.2266 Q143.0156,28.0469 144.6094,28.0469 Q145.5469,28.0469 146.2031,27.7969 Q146.5938,27.6406 147.0156,27.2031 Q147.2813,26.9375 147.4297,26.8594 Q147.5781,26.7813 147.7813,26.7813 Q148.1094,26.7813 148.3672,27.0391 Q148.625,27.2969 148.625,27.6406 Q148.625,27.9844 148.2813,28.3906 Q147.7813,28.9688 146.9844,29.2969 Q145.9063,29.75 144.6094,29.75 Q143.0938,29.75 141.8906,29.125 Q140.9063,28.625 140.2188,27.5547 Q139.5313,26.4844 139.5313,25.2031 L139.5313,24.0469 Q139.5313,22.7188 140.1484,21.5703 Q140.7656,20.4219 141.8594,19.8047 Q142.9531,19.1875 144.1875,19.1875 Q144.9219,19.1875 145.5703,19.3516 Q146.2188,19.5156 146.7656,19.875 Z "/><text fill="#000000" font-family="sans-serif" font-size="12" lengthAdjust="spacingAndGlyphs" textLength="74" x="158" y="28.9102">Composición</text><line style="stroke: #A80036; stroke-width: 1.5;" x1="130" x2="234" y1="40" y2="40"/><line style="stroke: #A80036; stroke-width: 1.5;" x1="130" x2="234" y1="48" y2="48"/><!--class Clasificación--><rect fill="#FEFECE" filter="url(#fhadzju1v0gvt)" height="48" id="Clasificación" style="stroke: #A80036; stroke-width: 1.5;" width="103" x="270.5" y="8"/><ellipse cx="285.5" cy="24" fill="#ADD1B2" rx="11" ry="11" style="stroke: #A80036; stroke-width: 1.0;"/><path d="M288.2656,19.875 Q288.4219,19.6563 288.6094,19.5469 Q288.7969,19.4375 289.0156,19.4375 Q289.3906,19.4375 289.625,19.6953 Q289.8594,19.9531 289.8594,20.5625 L289.8594,22.0156 Q289.8594,22.625 289.625,22.8906 Q289.3906,23.1563 289.0156,23.1563 Q288.6719,23.1563 288.4688,22.9531 Q288.2656,22.7656 288.1563,22.25 Q288.1094,21.8906 287.9219,21.7031 Q287.5938,21.3281 286.9844,21.1094 Q286.375,20.8906 285.75,20.8906 Q284.9844,20.8906 284.3516,21.2188 Q283.7188,21.5469 283.2266,22.2969 Q282.7344,23.0469 282.7344,24.0781 L282.7344,25.1719 Q282.7344,26.4063 283.625,27.2266 Q284.5156,28.0469 286.1094,28.0469 Q287.0469,28.0469 287.7031,27.7969 Q288.0938,27.6406 288.5156,27.2031 Q288.7813,26.9375 288.9297,26.8594 Q289.0781,26.7813 289.2813,26.7813 Q289.6094,26.7813 289.8672,27.0391 Q290.125,27.2969 290.125,27.6406 Q290.125,27.9844 289.7813,28.3906 Q289.2813,28.9688 288.4844,29.2969 Q287.4063,29.75 286.1094,29.75 Q284.5938,29.75 283.3906,29.125 Q282.4063,28.625 281.7188,27.5547 Q281.0313,26.4844 281.0313,25.2031 L281.0313,24.0469 Q281.0313,22.7188 281.6484,21.5703 Q282.2656,20.4219 283.3594,19.8047 Q284.4531,19.1875 285.6875,19.1875 Q286.4219,19.1875 287.0703,19.3516 Q287.7188,19.5156 288.2656,19.875 Z "/><text fill="#000000" font-family="sans-serif" font-size="12" lengthAdjust="spacingAndGlyphs" textLength="71" x="299.5" y="28.9102">Clasificación</text><line style="stroke: #A80036; stroke-width: 1.5;" x1="271.5" x2="372.5" y1="40" y2="40"/><line style="stroke: #A80036; stroke-width: 1.5;" x1="271.5" x2="372.5" y1="48" y2="48"/><!--class Agregación--><rect fill="#FEFECE" filter="url(#fhadzju1v0gvt)" height="48" id="Agregación" style="stroke: #A80036; stroke-width: 1.5;" width="94" x="6" y="117"/><ellipse cx="21" cy="133" fill="#ADD1B2" rx="11" ry="11" style="stroke: #A80036; stroke-width: 1.0;"/><path d="M23.7656,128.875 Q23.9219,128.6563 24.1094,128.5469 Q24.2969,128.4375 24.5156,128.4375 Q24.8906,128.4375 25.125,128.6953 Q25.3594,128.9531 25.3594,129.5625 L25.3594,131.0156 Q25.3594,131.625 25.125,131.8906 Q24.8906,132.1563 24.5156,132.1563 Q24.1719,132.1563 23.9688,131.9531 Q23.7656,131.7656 23.6563,131.25 Q23.6094,130.8906 23.4219,130.7031 Q23.0938,130.3281 22.4844,130.1094 Q21.875,129.8906 21.25,129.8906 Q20.4844,129.8906 19.8516,130.2188 Q19.2188,130.5469 18.7266,131.2969 Q18.2344,132.0469 18.2344,133.0781 L18.2344,134.1719 Q18.2344,135.4063 19.125,136.2266 Q20.0156,137.0469 21.6094,137.0469 Q22.5469,137.0469 23.2031,136.7969 Q23.5938,136.6406 24.0156,136.2031 Q24.2813,135.9375 24.4297,135.8594 Q24.5781,135.7813 24.7813,135.7813 Q25.1094,135.7813 25.3672,136.0391 Q25.625,136.2969 25.625,136.6406 Q25.625,136.9844 25.2813,137.3906 Q24.7813,137.9688 23.9844,138.2969 Q22.9063,138.75 21.6094,138.75 Q20.0938,138.75 18.8906,138.125 Q17.9063,137.625 17.2188,136.5547 Q16.5313,135.4844 16.5313,134.2031 L16.5313,133.0469 Q16.5313,131.7188 17.1484,130.5703 Q17.7656,129.4219 18.8594,128.8047 Q19.9531,128.1875 21.1875,128.1875 Q21.9219,128.1875 22.5703,128.3516 Q23.2188,128.5156 23.7656,128.875 Z "/><text fill="#000000" font-family="sans-serif" font-size="12" lengthAdjust="spacingAndGlyphs" textLength="62" x="35" y="137.9102">Agregación</text><line style="stroke: #A80036; stroke-width: 1.5;" x1="7" x2="99" y1="149" y2="149"/><line style="stroke: #A80036; stroke-width: 1.5;" x1="7" x2="99" y1="157" y2="157"/><!--class Asociación--><rect fill="#FEFECE" filter="url(#fhadzju1v0gvt)" height="48" id="Asociación" style="stroke: #A80036; stroke-width: 1.5;" width="92" x="135" y="117"/><ellipse cx="150" cy="133" fill="#ADD1B2" rx="11" ry="11" style="stroke: #A80036; stroke-width: 1.0;"/><path d="M152.7656,128.875 Q152.9219,128.6563 153.1094,128.5469 Q153.2969,128.4375 153.5156,128.4375 Q153.8906,128.4375 154.125,128.6953 Q154.3594,128.9531 154.3594,129.5625 L154.3594,131.0156 Q154.3594,131.625 154.125,131.8906 Q153.8906,132.1563 153.5156,132.1563 Q153.1719,132.1563 152.9688,131.9531 Q152.7656,131.7656 152.6563,131.25 Q152.6094,130.8906 152.4219,130.7031 Q152.0938,130.3281 151.4844,130.1094 Q150.875,129.8906 150.25,129.8906 Q149.4844,129.8906 148.8516,130.2188 Q148.2188,130.5469 147.7266,131.2969 Q147.2344,132.0469 147.2344,133.0781 L147.2344,134.1719 Q147.2344,135.4063 148.125,136.2266 Q149.0156,137.0469 150.6094,137.0469 Q151.5469,137.0469 152.2031,136.7969 Q152.5938,136.6406 153.0156,136.2031 Q153.2813,135.9375 153.4297,135.8594 Q153.5781,135.7813 153.7813,135.7813 Q154.1094,135.7813 154.3672,136.0391 Q154.625,136.2969 154.625,136.6406 Q154.625,136.9844 154.2813,137.3906 Q153.7813,137.9688 152.9844,138.2969 Q151.9063,138.75 150.6094,138.75 Q149.0938,138.75 147.8906,138.125 Q146.9063,137.625 146.2188,136.5547 Q145.5313,135.4844 145.5313,134.2031 L145.5313,133.0469 Q145.5313,131.7188 146.1484,130.5703 Q146.7656,129.4219 147.8594,128.8047 Q148.9531,128.1875 150.1875,128.1875 Q150.9219,128.1875 151.5703,128.3516 Q152.2188,128.5156 152.7656,128.875 Z "/><text fill="#000000" font-family="sans-serif" font-size="12" lengthAdjust="spacingAndGlyphs" textLength="60" x="164" y="137.9102">Asociación</text><line style="stroke: #A80036; stroke-width: 1.5;" x1="136" x2="226" y1="149" y2="149"/><line style="stroke: #A80036; stroke-width: 1.5;" x1="136" x2="226" y1="157" y2="157"/><!--class Orden--><rect fill="#FEFECE" filter="url(#fhadzju1v0gvt)" height="48" id="Orden" style="stroke: #A80036; stroke-width: 1.5;" width="66" x="262" y="117"/><ellipse cx="277" cy="133" fill="#ADD1B2" rx="11" ry="11" style="stroke: #A80036; stroke-width: 1.0;"/><path d="M279.7656,128.875 Q279.9219,128.6563 280.1094,128.5469 Q280.2969,128.4375 280.5156,128.4375 Q280.8906,128.4375 281.125,128.6953 Q281.3594,128.9531 281.3594,129.5625 L281.3594,131.0156 Q281.3594,131.625 281.125,131.8906 Q280.8906,132.1563 280.5156,132.1563 Q280.1719,132.1563 279.9688,131.9531 Q279.7656,131.7656 279.6563,131.25 Q279.6094,130.8906 279.4219,130.7031 Q279.0938,130.3281 278.4844,130.1094 Q277.875,129.8906 277.25,129.8906 Q276.4844,129.8906 275.8516,130.2188 Q275.2188,130.5469 274.7266,131.2969 Q274.2344,132.0469 274.2344,133.0781 L274.2344,134.1719 Q274.2344,135.4063 275.125,136.2266 Q276.0156,137.0469 277.6094,137.0469 Q278.5469,137.0469 279.2031,136.7969 Q279.5938,136.6406 280.0156,136.2031 Q280.2813,135.9375 280.4297,135.8594 Q280.5781,135.7813 280.7813,135.7813 Q281.1094,135.7813 281.3672,136.0391 Q281.625,136.2969 281.625,136.6406 Q281.625,136.9844 281.2813,137.3906 Q280.7813,137.9688 279.9844,138.2969 Q278.9063,138.75 277.6094,138.75 Q276.0938,138.75 274.8906,138.125 Q273.9063,137.625 273.2188,136.5547 Q272.5313,135.4844 272.5313,134.2031 L272.5313,133.0469 Q272.5313,131.7188 273.1484,130.5703 Q273.7656,129.4219 274.8594,128.8047 Q275.9531,128.1875 277.1875,128.1875 Q277.9219,128.1875 278.5703,128.3516 Q279.2188,128.5156 279.7656,128.875 Z "/><text fill="#000000" font-family="sans-serif" font-size="12" lengthAdjust="spacingAndGlyphs" textLength="34" x="291" y="137.9102">Orden</text><line style="stroke: #A80036; stroke-width: 1.5;" x1="263" x2="327" y1="149" y2="149"/><line style="stroke: #A80036; stroke-width: 1.5;" x1="263" x2="327" y1="157" y2="157"/><!--class Grafo--><rect fill="#FEFECE" filter="url(#fhadzju1v0gvt)" height="48" id="Grafo" style="stroke: #A80036; stroke-width: 1.5;" width="62" x="523" y="461"/><ellipse cx="538" cy="477" fill="#ADD1B2" rx="11" ry="11" style="stroke: #A80036; stroke-width: 1.0;"/><path d="M540.7656,472.875 Q540.9219,472.6563 541.1094,472.5469 Q541.2969,472.4375 541.5156,472.4375 Q541.8906,472.4375 542.125,472.6953 Q542.3594,472.9531 542.3594,473.5625 L542.3594,475.0156 Q542.3594,475.625 542.125,475.8906 Q541.8906,476.1563 541.5156,476.1563 Q541.1719,476.1563 540.9688,475.9531 Q540.7656,475.7656 540.6563,475.25 Q540.6094,474.8906 540.4219,474.7031 Q540.0938,474.3281 539.4844,474.1094 Q538.875,473.8906 538.25,473.8906 Q537.4844,473.8906 536.8516,474.2188 Q536.2188,474.5469 535.7266,475.2969 Q535.2344,476.0469 535.2344,477.0781 L535.2344,478.1719 Q535.2344,479.4063 536.125,480.2266 Q537.0156,481.0469 538.6094,481.0469 Q539.5469,481.0469 540.2031,480.7969 Q540.5938,480.6406 541.0156,480.2031 Q541.2813,479.9375 541.4297,479.8594 Q541.5781,479.7813 541.7813,479.7813 Q542.1094,479.7813 542.3672,480.0391 Q542.625,480.2969 542.625,480.6406 Q542.625,480.9844 542.2813,481.3906 Q541.7813,481.9688 540.9844,482.2969 Q539.9063,482.75 538.6094,482.75 Q537.0938,482.75 535.8906,482.125 Q534.9063,481.625 534.2188,480.5547 Q533.5313,479.4844 533.5313,478.2031 L533.5313,477.0469 Q533.5313,475.7188 534.1484,474.5703 Q534.7656,473.4219 535.8594,472.8047 Q536.9531,472.1875 538.1875,472.1875 Q538.9219,472.1875 539.5703,472.3516 Q540.2188,472.5156 540.7656,472.875 Z "/><text fill="#000000" font-family="sans-serif" font-size="12" lengthAdjust="spacingAndGlyphs" textLength="30" x="552" y="481.9102">Grafo</text><line style="stroke: #A80036; stroke-width: 1.5;" x1="524" x2="584" y1="493" y2="493"/><line style="stroke: #A80036; stroke-width: 1.5;" x1="524" x2="584" y1="501" y2="501"/><!--class Jerarquía--><rect fill="#FEFECE" filter="url(#fhadzju1v0gvt)" height="48" id="Jerarquía" style="stroke: #A80036; stroke-width: 1.5;" width="84" x="458" y="570"/><ellipse cx="473" cy="586" fill="#ADD1B2" rx="11" ry="11" style="stroke: #A80036; stroke-width: 1.0;"/><path d="M475.7656,581.875 Q475.9219,581.6563 476.1094,581.5469 Q476.2969,581.4375 476.5156,581.4375 Q476.8906,581.4375 477.125,581.6953 Q477.3594,581.9531 477.3594,582.5625 L477.3594,584.0156 Q477.3594,584.625 477.125,584.8906 Q476.8906,585.1563 476.5156,585.1563 Q476.1719,585.1563 475.9688,584.9531 Q475.7656,584.7656 475.6563,584.25 Q475.6094,583.8906 475.4219,583.7031 Q475.0938,583.3281 474.4844,583.1094 Q473.875,582.8906 473.25,582.8906 Q472.4844,582.8906 471.8516,583.2188 Q471.2188,583.5469 470.7266,584.2969 Q470.2344,585.0469 470.2344,586.0781 L470.2344,587.1719 Q470.2344,588.4063 471.125,589.2266 Q472.0156,590.0469 473.6094,590.0469 Q474.5469,590.0469 475.2031,589.7969 Q475.5938,589.6406 476.0156,589.2031 Q476.2813,588.9375 476.4297,588.8594 Q476.5781,588.7813 476.7813,588.7813 Q477.1094,588.7813 477.3672,589.0391 Q477.625,589.2969 477.625,589.6406 Q477.625,589.9844 477.2813,590.3906 Q476.7813,590.9688 475.9844,591.2969 Q474.9063,591.75 473.6094,591.75 Q472.0938,591.75 470.8906,591.125 Q469.9063,590.625 469.2188,589.5547 Q468.5313,588.4844 468.5313,587.2031 L468.5313,586.0469 Q468.5313,584.7188 469.1484,583.5703 Q469.7656,582.4219 470.8594,581.8047 Q471.9531,581.1875 473.1875,581.1875 Q473.9219,581.1875 474.5703,581.3516 Q475.2188,581.5156 475.7656,581.875 Z "/><text fill="#000000" font-family="sans-serif" font-size="12" lengthAdjust="spacingAndGlyphs" textLength="52" x="487" y="590.9102">Jerarquía</text><line style="stroke: #A80036; stroke-width: 1.5;" x1="459" x2="541" y1="602" y2="602"/><line style="stroke: #A80036; stroke-width: 1.5;" x1="459" x2="541" y1="610" y2="610"/><!--class Árbol--><rect fill="#FEFECE" filter="url(#fhadzju1v0gvt)" height="48" id="Árbol" style="stroke: #A80036; stroke-width: 1.5;" width="60" x="577" y="570"/><ellipse cx="592" cy="586" fill="#ADD1B2" rx="11" ry="11" style="stroke: #A80036; stroke-width: 1.0;"/><path d="M594.7656,581.875 Q594.9219,581.6563 595.1094,581.5469 Q595.2969,581.4375 595.5156,581.4375 Q595.8906,581.4375 596.125,581.6953 Q596.3594,581.9531 596.3594,582.5625 L596.3594,584.0156 Q596.3594,584.625 596.125,584.8906 Q595.8906,585.1563 595.5156,585.1563 Q595.1719,585.1563 594.9688,584.9531 Q594.7656,584.7656 594.6563,584.25 Q594.6094,583.8906 594.4219,583.7031 Q594.0938,583.3281 593.4844,583.1094 Q592.875,582.8906 592.25,582.8906 Q591.4844,582.8906 590.8516,583.2188 Q590.2188,583.5469 589.7266,584.2969 Q589.2344,585.0469 589.2344,586.0781 L589.2344,587.1719 Q589.2344,588.4063 590.125,589.2266 Q591.0156,590.0469 592.6094,590.0469 Q593.5469,590.0469 594.2031,589.7969 Q594.5938,589.6406 595.0156,589.2031 Q595.2813,588.9375 595.4297,588.8594 Q595.5781,588.7813 595.7813,588.7813 Q596.1094,588.7813 596.3672,589.0391 Q596.625,589.2969 596.625,589.6406 Q596.625,589.9844 596.2813,590.3906 Q595.7813,590.9688 594.9844,591.2969 Q593.9063,591.75 592.6094,591.75 Q591.0938,591.75 589.8906,591.125 Q588.9063,590.625 588.2188,589.5547 Q587.5313,588.4844 587.5313,587.2031 L587.5313,586.0469 Q587.5313,584.7188 588.1484,583.5703 Q588.7656,582.4219 589.8594,581.8047 Q590.9531,581.1875 592.1875,581.1875 Q592.9219,581.1875 593.5703,581.3516 Q594.2188,581.5156 594.7656,581.875 Z "/><text fill="#000000" font-family="sans-serif" font-size="12" lengthAdjust="spacingAndGlyphs" textLength="28" x="606" y="590.9102">Árbol</text><line style="stroke: #A80036; stroke-width: 1.5;" x1="578" x2="636" y1="602" y2="602"/><line style="stroke: #A80036; stroke-width: 1.5;" x1="578" x2="636" y1="610" y2="610"/><!--class Secuencia--><rect fill="#FEFECE" filter="url(#fhadzju1v0gvt)" height="48" id="Secuencia" style="stroke: #A80036; stroke-width: 1.5;" width="90" x="562" y="679"/><ellipse cx="577" cy="695" fill="#ADD1B2" rx="11" ry="11" style="stroke: #A80036; stroke-width: 1.0;"/><path d="M579.7656,690.875 Q579.9219,690.6563 580.1094,690.5469 Q580.2969,690.4375 580.5156,690.4375 Q580.8906,690.4375 581.125,690.6953 Q581.3594,690.9531 581.3594,691.5625 L581.3594,693.0156 Q581.3594,693.625 581.125,693.8906 Q580.8906,694.1563 580.5156,694.1563 Q580.1719,694.1563 579.9688,693.9531 Q579.7656,693.7656 579.6563,693.25 Q579.6094,692.8906 579.4219,692.7031 Q579.0938,692.3281 578.4844,692.1094 Q577.875,691.8906 577.25,691.8906 Q576.4844,691.8906 575.8516,692.2188 Q575.2188,692.5469 574.7266,693.2969 Q574.2344,694.0469 574.2344,695.0781 L574.2344,696.1719 Q574.2344,697.4063 575.125,698.2266 Q576.0156,699.0469 577.6094,699.0469 Q578.5469,699.0469 579.2031,698.7969 Q579.5938,698.6406 580.0156,698.2031 Q580.2813,697.9375 580.4297,697.8594 Q580.5781,697.7813 580.7813,697.7813 Q581.1094,697.7813 581.3672,698.0391 Q581.625,698.2969 581.625,698.6406 Q581.625,698.9844 581.2813,699.3906 Q580.7813,699.9688 579.9844,700.2969 Q578.9063,700.75 577.6094,700.75 Q576.0938,700.75 574.8906,700.125 Q573.9063,699.625 573.2188,698.5547 Q572.5313,697.4844 572.5313,696.2031 L572.5313,695.0469 Q572.5313,693.7188 573.1484,692.5703 Q573.7656,691.4219 574.8594,690.8047 Q575.9531,690.1875 577.1875,690.1875 Q577.9219,690.1875 578.5703,690.3516 Q579.2188,690.5156 579.7656,690.875 Z "/><text fill="#000000" font-family="sans-serif" font-size="12" lengthAdjust="spacingAndGlyphs" textLength="58" x="591" y="699.9102">Secuencia</text><line style="stroke: #A80036; stroke-width: 1.5;" x1="563" x2="651" y1="711" y2="711"/><line style="stroke: #A80036; stroke-width: 1.5;" x1="563" x2="651" y1="719" y2="719"/><!--class Paradigma--><rect fill="#FEFECE" filter="url(#fhadzju1v0gvt)" height="48" id="Paradigma" style="stroke: #A80036; stroke-width: 1.5;" width="93" x="560.5" y="8"/><ellipse cx="575.5" cy="24" fill="#ADD1B2" rx="11" ry="11" style="stroke: #A80036; stroke-width: 1.0;"/><path d="M578.2656,19.875 Q578.4219,19.6563 578.6094,19.5469 Q578.7969,19.4375 579.0156,19.4375 Q579.3906,19.4375 579.625,19.6953 Q579.8594,19.9531 579.8594,20.5625 L579.8594,22.0156 Q579.8594,22.625 579.625,22.8906 Q579.3906,23.1563 579.0156,23.1563 Q578.6719,23.1563 578.4688,22.9531 Q578.2656,22.7656 578.1563,22.25 Q578.1094,21.8906 577.9219,21.7031 Q577.5938,21.3281 576.9844,21.1094 Q576.375,20.8906 575.75,20.8906 Q574.9844,20.8906 574.3516,21.2188 Q573.7188,21.5469 573.2266,22.2969 Q572.7344,23.0469 572.7344,24.0781 L572.7344,25.1719 Q572.7344,26.4063 573.625,27.2266 Q574.5156,28.0469 576.1094,28.0469 Q577.0469,28.0469 577.7031,27.7969 Q578.0938,27.6406 578.5156,27.2031 Q578.7813,26.9375 578.9297,26.8594 Q579.0781,26.7813 579.2813,26.7813 Q579.6094,26.7813 579.8672,27.0391 Q580.125,27.2969 580.125,27.6406 Q580.125,27.9844 579.7813,28.3906 Q579.2813,28.9688 578.4844,29.2969 Q577.4063,29.75 576.1094,29.75 Q574.5938,29.75 573.3906,29.125 Q572.4063,28.625 571.7188,27.5547 Q571.0313,26.4844 571.0313,25.2031 L571.0313,24.0469 Q571.0313,22.7188 571.6484,21.5703 Q572.2656,20.4219 573.3594,19.8047 Q574.4531,19.1875 575.6875,19.1875 Q576.4219,19.1875 577.0703,19.3516 Q577.7188,19.5156 578.2656,19.875 Z "/><text fill="#000000" font-family="sans-serif" font-size="12" lengthAdjust="spacingAndGlyphs" textLength="61" x="589.5" y="28.9102">Paradigma</text><line style="stroke: #A80036; stroke-width: 1.5;" x1="561.5" x2="652.5" y1="40" y2="40"/><line style="stroke: #A80036; stroke-width: 1.5;" x1="561.5" x2="652.5" y1="48" y2="48"/><!--class Tesis--><rect fill="#FEFECE" filter="url(#fhadzju1v0gvt)" height="48" id="Tesis" style="stroke: #A80036; stroke-width: 1.5;" width="63" x="631.5" y="352"/><ellipse cx="646.5" cy="368" fill="#ADD1B2" rx="11" ry="11" style="stroke: #A80036; stroke-width: 1.0;"/><path d="M649.2656,363.875 Q649.4219,363.6563 649.6094,363.5469 Q649.7969,363.4375 650.0156,363.4375 Q650.3906,363.4375 650.625,363.6953 Q650.8594,363.9531 650.8594,364.5625 L650.8594,366.0156 Q650.8594,366.625 650.625,366.8906 Q650.3906,367.1563 650.0156,367.1563 Q649.6719,367.1563 649.4688,366.9531 Q649.2656,366.7656 649.1563,366.25 Q649.1094,365.8906 648.9219,365.7031 Q648.5938,365.3281 647.9844,365.1094 Q647.375,364.8906 646.75,364.8906 Q645.9844,364.8906 645.3516,365.2188 Q644.7188,365.5469 644.2266,366.2969 Q643.7344,367.0469 643.7344,368.0781 L643.7344,369.1719 Q643.7344,370.4063 644.625,371.2266 Q645.5156,372.0469 647.1094,372.0469 Q648.0469,372.0469 648.7031,371.7969 Q649.0938,371.6406 649.5156,371.2031 Q649.7813,370.9375 649.9297,370.8594 Q650.0781,370.7813 650.2813,370.7813 Q650.6094,370.7813 650.8672,371.0391 Q651.125,371.2969 651.125,371.6406 Q651.125,371.9844 650.7813,372.3906 Q650.2813,372.9688 649.4844,373.2969 Q648.4063,373.75 647.1094,373.75 Q645.5938,373.75 644.3906,373.125 Q643.4063,372.625 642.7188,371.5547 Q642.0313,370.4844 642.0313,369.2031 L642.0313,368.0469 Q642.0313,366.7188 642.6484,365.5703 Q643.2656,364.4219 644.3594,363.8047 Q645.4531,363.1875 646.6875,363.1875 Q647.4219,363.1875 648.0703,363.3516 Q648.7188,363.5156 649.2656,363.875 Z "/><text fill="#000000" font-family="sans-serif" font-size="12" lengthAdjust="spacingAndGlyphs" textLength="31" x="660.5" y="372.9102">Tesis</text><line style="stroke: #A80036; stroke-width: 1.5;" x1="632.5" x2="693.5" y1="384" y2="384"/><line style="stroke: #A80036; stroke-width: 1.5;" x1="632.5" x2="693.5" y1="392" y2="392"/><!--class Antítesis--><rect fill="#FEFECE" filter="url(#fhadzju1v0gvt)" height="48" id="Antítesis" style="stroke: #A80036; stroke-width: 1.5;" width="79" x="621.5" y="226"/><ellipse cx="636.5" cy="242" fill="#ADD1B2" rx="11" ry="11" style="stroke: #A80036; stroke-width: 1.0;"/><path d="M639.2656,237.875 Q639.4219,237.6563 639.6094,237.5469 Q639.7969,237.4375 640.0156,237.4375 Q640.3906,237.4375 640.625,237.6953 Q640.8594,237.9531 640.8594,238.5625 L640.8594,240.0156 Q640.8594,240.625 640.625,240.8906 Q640.3906,241.1563 640.0156,241.1563 Q639.6719,241.1563 639.4688,240.9531 Q639.2656,240.7656 639.1563,240.25 Q639.1094,239.8906 638.9219,239.7031 Q638.5938,239.3281 637.9844,239.1094 Q637.375,238.8906 636.75,238.8906 Q635.9844,238.8906 635.3516,239.2188 Q634.7188,239.5469 634.2266,240.2969 Q633.7344,241.0469 633.7344,242.0781 L633.7344,243.1719 Q633.7344,244.4063 634.625,245.2266 Q635.5156,246.0469 637.1094,246.0469 Q638.0469,246.0469 638.7031,245.7969 Q639.0938,245.6406 639.5156,245.2031 Q639.7813,244.9375 639.9297,244.8594 Q640.0781,244.7813 640.2813,244.7813 Q640.6094,244.7813 640.8672,245.0391 Q641.125,245.2969 641.125,245.6406 Q641.125,245.9844 640.7813,246.3906 Q640.2813,246.9688 639.4844,247.2969 Q638.4063,247.75 637.1094,247.75 Q635.5938,247.75 634.3906,247.125 Q633.4063,246.625 632.7188,245.5547 Q632.0313,244.4844 632.0313,243.2031 L632.0313,242.0469 Q632.0313,240.7188 632.6484,239.5703 Q633.2656,238.4219 634.3594,237.8047 Q635.4531,237.1875 636.6875,237.1875 Q637.4219,237.1875 638.0703,237.3516 Q638.7188,237.5156 639.2656,237.875 Z "/><text fill="#000000" font-family="sans-serif" font-size="12" lengthAdjust="spacingAndGlyphs" textLength="47" x="650.5" y="246.9102">Antítesis</text><line style="stroke: #A80036; stroke-width: 1.5;" x1="622.5" x2="699.5" y1="258" y2="258"/><line style="stroke: #A80036; stroke-width: 1.5;" x1="622.5" x2="699.5" y1="266" y2="266"/><!--class Síntesis--><rect fill="#FEFECE" filter="url(#fhadzju1v0gvt)" height="48" id="Síntesis" style="stroke: #A80036; stroke-width: 1.5;" width="77" x="692.5" y="117"/><ellipse cx="707.5" cy="133" fill="#ADD1B2" rx="11" ry="11" style="stroke: #A80036; stroke-width: 1.0;"/><path d="M710.2656,128.875 Q710.4219,128.6563 710.6094,128.5469 Q710.7969,128.4375 711.0156,128.4375 Q711.3906,128.4375 711.625,128.6953 Q711.8594,128.9531 711.8594,129.5625 L711.8594,131.0156 Q711.8594,131.625 711.625,131.8906 Q711.3906,132.1563 711.0156,132.1563 Q710.6719,132.1563 710.4688,131.9531 Q710.2656,131.7656 710.1563,131.25 Q710.1094,130.8906 709.9219,130.7031 Q709.5938,130.3281 708.9844,130.1094 Q708.375,129.8906 707.75,129.8906 Q706.9844,129.8906 706.3516,130.2188 Q705.7188,130.5469 705.2266,131.2969 Q704.7344,132.0469 704.7344,133.0781 L704.7344,134.1719 Q704.7344,135.4063 705.625,136.2266 Q706.5156,137.0469 708.1094,137.0469 Q709.0469,137.0469 709.7031,136.7969 Q710.0938,136.6406 710.5156,136.2031 Q710.7813,135.9375 710.9297,135.8594 Q711.0781,135.7813 711.2813,135.7813 Q711.6094,135.7813 711.8672,136.0391 Q712.125,136.2969 712.125,136.6406 Q712.125,136.9844 711.7813,137.3906 Q711.2813,137.9688 710.4844,138.2969 Q709.4063,138.75 708.1094,138.75 Q706.5938,138.75 705.3906,138.125 Q704.4063,137.625 703.7188,136.5547 Q703.0313,135.4844 703.0313,134.2031 L703.0313,133.0469 Q703.0313,131.7188 703.6484,130.5703 Q704.2656,129.4219 705.3594,128.8047 Q706.4531,128.1875 707.6875,128.1875 Q708.4219,128.1875 709.0703,128.3516 Q709.7188,128.5156 710.2656,128.875 Z "/><text fill="#000000" font-family="sans-serif" font-size="12" lengthAdjust="spacingAndGlyphs" textLength="45" x="721.5" y="137.9102">Síntesis</text><line style="stroke: #A80036; stroke-width: 1.5;" x1="693.5" x2="768.5" y1="149" y2="149"/><line style="stroke: #A80036; stroke-width: 1.5;" x1="693.5" x2="768.5" y1="157" y2="157"/><!--link Grafo to Jerarquía--><path d="M533.244,527.127 C525.939,541.602 517.988,557.357 511.694,569.828 " fill="none" id="Grafo-Jerarquía" style="stroke: #A80036; stroke-width: 1.0;"/><polygon fill="none" points="527.023,523.919,542.283,509.217,539.521,530.226,527.023,523.919" style="stroke: #A80036; stroke-width: 1.0;"/><!--link Grafo to Árbol--><path d="M574.613,527.615 C581.717,541.956 589.414,557.497 595.522,569.828 " fill="none" id="Grafo-Árbol" style="stroke: #A80036; stroke-width: 1.0;"/><polygon fill="none" points="568.105,530.246,565.5,509.217,580.65,524.032,568.105,530.246" style="stroke: #A80036; stroke-width: 1.0;"/><!--link Árbol to Secuencia--><path d="M607,638.5778 C607,652.3622 607,667.0574 607,678.8279 " fill="none" id="Árbol-Secuencia" style="stroke: #A80036; stroke-width: 1.0;"/><polygon fill="none" points="600,638.2174,607,618.217,614,638.2174,600,638.2174" style="stroke: #A80036; stroke-width: 1.0;"/><!--link Paradigma to Tesis--><path d="M599.482,76.114 C592.541,125.033 585.797,206.751 604,274 C611.853,303.011 630.345,332.235 644.551,351.73 " fill="none" id="Paradigma-Tesis" style="stroke: #A80036; stroke-width: 1.0;"/><polygon fill="none" points="592.602,74.801,602.595,56.116,606.435,76.955,592.602,74.801" style="stroke: #A80036; stroke-width: 1.0;"/><!--link Paradigma to Antítesis--><path d="M617.682,75.727 C628.931,120.723 646.227,189.909 655.181,225.724 " fill="none" id="Paradigma-Antítesis" style="stroke: #A80036; stroke-width: 1.0;"/><polygon fill="none" points="610.839,77.216,612.779,56.116,624.421,73.821,610.839,77.216" style="stroke: #A80036; stroke-width: 1.0;"/><!--link Paradigma to Síntesis--><path d="M649.07,69.302 C667.286,85.021 688.07,102.955 704.146,116.828 " fill="none" id="Paradigma-Síntesis" style="stroke: #A80036; stroke-width: 1.0;"/><polygon fill="none" points="644.475,74.583,633.906,56.217,653.621,63.984,644.475,74.583" style="stroke: #A80036; stroke-width: 1.0;"/><!--link Paradigma to Conocimiento--><path d="M562.248,63.695 C541.34,78.036 516.512,95.066 495.62,109.395 " fill="none" id="Paradigma-Conocimiento" style="stroke: #A80036; stroke-width: 1.0;"/><polygon fill="#A80036" points="484.784,116.828,494.4686,115.0365,488.9075,114.0001,489.9439,108.439,484.784,116.828" style="stroke: #A80036; stroke-width: 1.0;"/><line style="stroke: #A80036; stroke-width: 1.0;" x1="488.9075" x2="495.5045" y1="114.0001" y2="109.4745"/><polygon fill="#A80036" points="573.15,56.217,565.9395,56.3117,563.2537,63.004,570.4642,62.9093,573.15,56.217" style="stroke: #A80036; stroke-width: 1.0;"/><!--link Información to Lenguaje--><path d="M478.682,289.317 C496.609,309.711 518.072,334.128 533.492,351.67 " fill="none" id="Información-Lenguaje" style="stroke: #A80036; stroke-width: 1.0;"/><polygon fill="none" points="473.193,293.676,465.247,274.033,483.709,284.433,473.193,293.676" style="stroke: #A80036; stroke-width: 1.0;"/><!--link Lenguaje to Grafo--><path d="M554,413.302 C554,424.354 554,436.502 554,447.563 " fill="none" id="Lenguaje-Grafo" style="stroke: #A80036; stroke-width: 1.0;"/><polygon fill="#A80036" points="554,460.828,558,451.828,554,455.828,550,451.828,554,460.828" style="stroke: #A80036; stroke-width: 1.0;"/><line style="stroke: #A80036; stroke-width: 1.0;" x1="554" x2="554" y1="455.828" y2="447.828"/><polygon fill="#A80036" points="554,400.217,550,406.217,554,412.217,558,406.217,554,400.217" style="stroke: #A80036; stroke-width: 1.0;"/><!--link Síntesis to Tesis--><path d="M736.059,178.286 C739.665,216.068 740.624,276.038 719,322 C715.373,329.71 710.087,336.863 704.191,343.259 " fill="none" id="Síntesis-Tesis" style="stroke: #A80036; stroke-width: 1.0;"/><polygon fill="#A80036" points="694.576,352.658,703.8082,349.2277,698.1517,349.1631,698.2163,343.5066,694.576,352.658" style="stroke: #A80036; stroke-width: 1.0;"/><line style="stroke: #A80036; stroke-width: 1.0;" x1="698.1517" x2="703.8725" y1="349.1631" y2="343.571"/><polygon fill="#A80036" points="734.618,165.203,731.2987,171.6047,735.9313,177.1309,739.2506,170.7292,734.618,165.203" style="stroke: #A80036; stroke-width: 1.0;"/><!--link Síntesis to Antítesis--><path d="M708.49,176.408 C700.48,188.652 691.466,202.431 683.46,214.668 " fill="none" id="Síntesis-Antítesis" style="stroke: #A80036; stroke-width: 1.0;"/><polygon fill="#A80036" points="676.159,225.828,684.4336,220.4865,678.8964,221.6439,677.739,216.1067,676.159,225.828" style="stroke: #A80036; stroke-width: 1.0;"/><line style="stroke: #A80036; stroke-width: 1.0;" x1="678.8964" x2="683.2765" y1="221.6439" y2="214.949"/><polygon fill="#A80036" points="715.811,165.217,709.179,168.0484,709.2419,175.2592,715.8739,172.4278,715.811,165.217" style="stroke: #A80036; stroke-width: 1.0;"/><!--link Antítesis to Tesis--><path d="M661.371,274.033 C661.702,294.522 662.186,324.561 662.541,346.546 " fill="none" id="Antítesis-Tesis" style="stroke: #A80036; stroke-width: 1.0;"/><polygon fill="#A80036" points="662.624,351.67,666.4769,342.6061,662.5426,346.6707,658.478,342.7363,662.624,351.67" style="stroke: #A80036; stroke-width: 1.0;"/><text fill="#000000" font-family="sans-serif" font-size="13" lengthAdjust="spacingAndGlyphs" textLength="46" x="664" y="318.4951">opuesto</text><!--link Sabiduría to Conocimiento--><path d="M451,69.302 C451,80.354 451,92.502 451,103.563 " fill="none" id="Sabiduría-Conocimiento" style="stroke: #A80036; stroke-width: 1.0;"/><polygon fill="#A80036" points="451,116.828,455,107.828,451,111.828,447,107.828,451,116.828" style="stroke: #A80036; stroke-width: 1.0;"/><line style="stroke: #A80036; stroke-width: 1.0;" x1="451" x2="451" y1="111.828" y2="103.828"/><polygon fill="#A80036" points="451,56.217,447,62.217,451,68.217,455,62.217,451,56.217" style="stroke: #A80036; stroke-width: 1.0;"/><text fill="#000000" font-family="sans-serif" font-size="13" lengthAdjust="spacingAndGlyphs" textLength="20" x="428.4375" y="106.1241">1..*</text><!--link Conocimiento to Información--><path d="M448.964,178.302 C448.345,189.354 447.663,201.502 447.043,212.563 " fill="none" id="Conocimiento-Información" style="stroke: #A80036; stroke-width: 1.0;"/><polygon fill="#A80036" points="446.299,225.828,450.7961,217.0658,446.5787,220.8358,442.8087,216.6184,446.299,225.828" style="stroke: #A80036; stroke-width: 1.0;"/><line style="stroke: #A80036; stroke-width: 1.0;" x1="446.5787" x2="447.027" y1="220.8358" y2="212.8485"/><polygon fill="#A80036" points="449.698,165.217,445.368,170.9834,449.0255,177.1981,453.3555,171.4317,449.698,165.217" style="stroke: #A80036; stroke-width: 1.0;"/><text fill="#000000" font-family="sans-serif" font-size="13" lengthAdjust="spacingAndGlyphs" textLength="20" x="424.0694" y="215.1241">1..*</text><!--link Información to Dato--><path d="M418.714,284.26 C404.712,301.976 387.534,323.712 373.501,341.468 " fill="none" id="Información-Dato" style="stroke: #A80036; stroke-width: 1.0;"/><polygon fill="#A80036" points="365.438,351.67,374.1568,347.0893,368.5383,347.7472,367.8803,342.1288,365.438,351.67" style="stroke: #A80036; stroke-width: 1.0;"/><line style="stroke: #A80036; stroke-width: 1.0;" x1="368.5383" x2="373.499" y1="347.7472" y2="341.4705"/><polygon fill="#A80036" points="426.797,274.033,419.9386,276.2607,419.3571,283.4483,426.2155,281.2206,426.797,274.033" style="stroke: #A80036; stroke-width: 1.0;"/><text fill="#000000" font-family="sans-serif" font-size="13" lengthAdjust="spacingAndGlyphs" textLength="20" x="347.4948" y="341.3275">1..*</text><!--link Información to Clase--><path d="M444.814,274.033 C444.649,294.522 444.407,324.561 444.229,346.546 " fill="none" id="Información-Clase" style="stroke: #A80036; stroke-width: 1.0;"/><polygon fill="#A80036" points="444.188,351.67,448.2599,342.7023,444.228,346.6702,440.2601,342.6383,444.188,351.67" style="stroke: #A80036; stroke-width: 1.0;"/><!--link Dato to Objeto--><path d="M356.113,400.217 C362.553,416.623 371.216,438.692 378.034,456.062 " fill="none" id="Dato-Objeto" style="stroke: #A80036; stroke-width: 1.0;"/><polygon fill="#A80036" points="379.904,460.828,380.3386,450.9887,378.0769,456.1738,372.8918,453.9121,379.904,460.828" style="stroke: #A80036; stroke-width: 1.0;"/><!--link Clase to Objeto--><path d="M432.066,400.217 C423.633,416.623 412.289,438.692 403.361,456.062 " fill="none" id="Clase-Objeto" style="stroke: #A80036; stroke-width: 1.0;"/><polygon fill="#A80036" points="400.911,460.828,408.5828,454.6519,403.1966,456.381,401.4676,450.9949,400.911,460.828" style="stroke: #A80036; stroke-width: 1.0;"/><!--link Conjunto to Composición--><!--link Composición to Clasificación--><!--link Conjunto to Agregación--><!--link Agregación to Asociación--><!--link Asociación to Orden--><!--
@startuml
class Sabiduría
class Conocimiento
class Información
class Dato

class Lenguaje

class Conjunto
class Objeto
class Clase

class Composición
class Clasificación

class Agregación
class Asociación

class Orden

class Grafo
class Jerarquía
class Árbol
class Secuencia

Grafo <|- - Jerarquía
Grafo <|- - Árbol
Árbol <|- - Secuencia

class Paradigma
class Tesis
class Antítesis
class Síntesis

Paradigma <|- - Tesis
Paradigma <|- - Antítesis
Paradigma <|- - Síntesis
Paradigma *- -> Conocimiento

Información <|- - Lenguaje
Lenguaje *- -> Grafo

Síntesis *- -> Tesis
Síntesis *- -> Antítesis
Antítesis - -> Tesis : opuesto

Sabiduría *- -> "1..*" Conocimiento
Conocimiento *- -> "1..*" Información
Información *- -> "1..*" Dato

Información - -> Clase
Dato - -> Objeto
Clase - -> Objeto
@enduml

PlantUML version 1.2019.05(Sat Apr 20 18:45:36 CEST 2019)
(GPL source distribution)
Java Runtime: OpenJDK Runtime Environment
JVM: OpenJDK 64-Bit Server VM
Java Version: 1.8.0_222-b10
Operating System: Windows 10
OS Version: 10.0
Default Encoding: windows-1252
Language: es
Country: ES
--></g></svg>