<?xml version="1.0" encoding="UTF-8" standalone="no"?><svg xmlns="http://www.w3.org/2000/svg" xmlns:xlink="http://www.w3.org/1999/xlink" contentScriptType="application/ecmascript" contentStyleType="text/css" height="499px" preserveAspectRatio="none" style="width:330px;height:499px;" version="1.1" viewBox="0 0 330 499" width="330px" zoomAndPan="magnify"><defs><filter height="300%" id="ffk3bahbjab28" width="300%" x="-1" y="-1"><feGaussianBlur result="blurOut" stdDeviation="2.0"/><feColorMatrix in="blurOut" result="blurOut2" type="matrix" values="0 0 0 0 0 0 0 0 0 0 0 0 0 0 0 0 0 0 .4 0"/><feOffset dx="4.0" dy="4.0" in="blurOut2" result="blurOut3"/><feBlend in="SourceGraphic" in2="blurOut3" mode="normal"/></filter></defs><g><!--class Sistema--><rect fill="#FEFECE" filter="url(#ffk3bahbjab28)" height="48" id="Sistema" style="stroke: #A80036; stroke-width: 1.5;" width="78" x="132" y="8"/><ellipse cx="147" cy="24" fill="#ADD1B2" rx="11" ry="11" style="stroke: #A80036; stroke-width: 1.0;"/><path d="M149.7656,19.875 Q149.9219,19.6563 150.1094,19.5469 Q150.2969,19.4375 150.5156,19.4375 Q150.8906,19.4375 151.125,19.6953 Q151.3594,19.9531 151.3594,20.5625 L151.3594,22.0156 Q151.3594,22.625 151.125,22.8906 Q150.8906,23.1563 150.5156,23.1563 Q150.1719,23.1563 149.9688,22.9531 Q149.7656,22.7656 149.6563,22.25 Q149.6094,21.8906 149.4219,21.7031 Q149.0938,21.3281 148.4844,21.1094 Q147.875,20.8906 147.25,20.8906 Q146.4844,20.8906 145.8516,21.2188 Q145.2188,21.5469 144.7266,22.2969 Q144.2344,23.0469 144.2344,24.0781 L144.2344,25.1719 Q144.2344,26.4063 145.125,27.2266 Q146.0156,28.0469 147.6094,28.0469 Q148.5469,28.0469 149.2031,27.7969 Q149.5938,27.6406 150.0156,27.2031 Q150.2813,26.9375 150.4297,26.8594 Q150.5781,26.7813 150.7813,26.7813 Q151.1094,26.7813 151.3672,27.0391 Q151.625,27.2969 151.625,27.6406 Q151.625,27.9844 151.2813,28.3906 Q150.7813,28.9688 149.9844,29.2969 Q148.9063,29.75 147.6094,29.75 Q146.0938,29.75 144.8906,29.125 Q143.9063,28.625 143.2188,27.5547 Q142.5313,26.4844 142.5313,25.2031 L142.5313,24.0469 Q142.5313,22.7188 143.1484,21.5703 Q143.7656,20.4219 144.8594,19.8047 Q145.9531,19.1875 147.1875,19.1875 Q147.9219,19.1875 148.5703,19.3516 Q149.2188,19.5156 149.7656,19.875 Z "/><text fill="#000000" font-family="sans-serif" font-size="12" lengthAdjust="spacingAndGlyphs" textLength="46" x="161" y="28.9102">Sistema</text><line style="stroke: #A80036; stroke-width: 1.5;" x1="133" x2="209" y1="40" y2="40"/><line style="stroke: #A80036; stroke-width: 1.5;" x1="133" x2="209" y1="48" y2="48"/><!--class SistemaComplejo--><rect fill="#FEFECE" filter="url(#ffk3bahbjab28)" height="48" id="SistemaComplejo" style="stroke: #A80036; stroke-width: 1.5;" width="135" x="24.5" y="116"/><ellipse cx="39.5" cy="132" fill="#ADD1B2" rx="11" ry="11" style="stroke: #A80036; stroke-width: 1.0;"/><path d="M42.2656,127.875 Q42.4219,127.6563 42.6094,127.5469 Q42.7969,127.4375 43.0156,127.4375 Q43.3906,127.4375 43.625,127.6953 Q43.8594,127.9531 43.8594,128.5625 L43.8594,130.0156 Q43.8594,130.625 43.625,130.8906 Q43.3906,131.1563 43.0156,131.1563 Q42.6719,131.1563 42.4688,130.9531 Q42.2656,130.7656 42.1563,130.25 Q42.1094,129.8906 41.9219,129.7031 Q41.5938,129.3281 40.9844,129.1094 Q40.375,128.8906 39.75,128.8906 Q38.9844,128.8906 38.3516,129.2188 Q37.7188,129.5469 37.2266,130.2969 Q36.7344,131.0469 36.7344,132.0781 L36.7344,133.1719 Q36.7344,134.4063 37.625,135.2266 Q38.5156,136.0469 40.1094,136.0469 Q41.0469,136.0469 41.7031,135.7969 Q42.0938,135.6406 42.5156,135.2031 Q42.7813,134.9375 42.9297,134.8594 Q43.0781,134.7813 43.2813,134.7813 Q43.6094,134.7813 43.8672,135.0391 Q44.125,135.2969 44.125,135.6406 Q44.125,135.9844 43.7813,136.3906 Q43.2813,136.9688 42.4844,137.2969 Q41.4063,137.75 40.1094,137.75 Q38.5938,137.75 37.3906,137.125 Q36.4063,136.625 35.7188,135.5547 Q35.0313,134.4844 35.0313,133.2031 L35.0313,132.0469 Q35.0313,130.7188 35.6484,129.5703 Q36.2656,128.4219 37.3594,127.8047 Q38.4531,127.1875 39.6875,127.1875 Q40.4219,127.1875 41.0703,127.3516 Q41.7188,127.5156 42.2656,127.875 Z "/><text fill="#000000" font-family="sans-serif" font-size="12" lengthAdjust="spacingAndGlyphs" textLength="103" x="53.5" y="136.9102">Sistema Complejo</text><line style="stroke: #A80036; stroke-width: 1.5;" x1="25.5" x2="158.5" y1="148" y2="148"/><line style="stroke: #A80036; stroke-width: 1.5;" x1="25.5" x2="158.5" y1="156" y2="156"/><!--class Software--><rect fill="#FEFECE" filter="url(#ffk3bahbjab28)" height="48" id="Software" style="stroke: #A80036; stroke-width: 1.5;" width="80" x="128" y="332"/><ellipse cx="143" cy="348" fill="#ADD1B2" rx="11" ry="11" style="stroke: #A80036; stroke-width: 1.0;"/><path d="M145.7656,343.875 Q145.9219,343.6563 146.1094,343.5469 Q146.2969,343.4375 146.5156,343.4375 Q146.8906,343.4375 147.125,343.6953 Q147.3594,343.9531 147.3594,344.5625 L147.3594,346.0156 Q147.3594,346.625 147.125,346.8906 Q146.8906,347.1563 146.5156,347.1563 Q146.1719,347.1563 145.9688,346.9531 Q145.7656,346.7656 145.6563,346.25 Q145.6094,345.8906 145.4219,345.7031 Q145.0938,345.3281 144.4844,345.1094 Q143.875,344.8906 143.25,344.8906 Q142.4844,344.8906 141.8516,345.2188 Q141.2188,345.5469 140.7266,346.2969 Q140.2344,347.0469 140.2344,348.0781 L140.2344,349.1719 Q140.2344,350.4063 141.125,351.2266 Q142.0156,352.0469 143.6094,352.0469 Q144.5469,352.0469 145.2031,351.7969 Q145.5938,351.6406 146.0156,351.2031 Q146.2813,350.9375 146.4297,350.8594 Q146.5781,350.7813 146.7813,350.7813 Q147.1094,350.7813 147.3672,351.0391 Q147.625,351.2969 147.625,351.6406 Q147.625,351.9844 147.2813,352.3906 Q146.7813,352.9688 145.9844,353.2969 Q144.9063,353.75 143.6094,353.75 Q142.0938,353.75 140.8906,353.125 Q139.9063,352.625 139.2188,351.5547 Q138.5313,350.4844 138.5313,349.2031 L138.5313,348.0469 Q138.5313,346.7188 139.1484,345.5703 Q139.7656,344.4219 140.8594,343.8047 Q141.9531,343.1875 143.1875,343.1875 Q143.9219,343.1875 144.5703,343.3516 Q145.2188,343.5156 145.7656,343.875 Z "/><text fill="#000000" font-family="sans-serif" font-size="12" lengthAdjust="spacingAndGlyphs" textLength="48" x="157" y="352.9102">Software</text><line style="stroke: #A80036; stroke-width: 1.5;" x1="129" x2="207" y1="364" y2="364"/><line style="stroke: #A80036; stroke-width: 1.5;" x1="129" x2="207" y1="372" y2="372"/><!--class Informacion--><rect fill="#FEFECE" filter="url(#ffk3bahbjab28)" height="48" id="Informacion" style="stroke: #A80036; stroke-width: 1.5;" width="97" x="222.5" y="224"/><ellipse cx="237.5" cy="240" fill="#ADD1B2" rx="11" ry="11" style="stroke: #A80036; stroke-width: 1.0;"/><path d="M240.2656,235.875 Q240.4219,235.6563 240.6094,235.5469 Q240.7969,235.4375 241.0156,235.4375 Q241.3906,235.4375 241.625,235.6953 Q241.8594,235.9531 241.8594,236.5625 L241.8594,238.0156 Q241.8594,238.625 241.625,238.8906 Q241.3906,239.1563 241.0156,239.1563 Q240.6719,239.1563 240.4688,238.9531 Q240.2656,238.7656 240.1563,238.25 Q240.1094,237.8906 239.9219,237.7031 Q239.5938,237.3281 238.9844,237.1094 Q238.375,236.8906 237.75,236.8906 Q236.9844,236.8906 236.3516,237.2188 Q235.7188,237.5469 235.2266,238.2969 Q234.7344,239.0469 234.7344,240.0781 L234.7344,241.1719 Q234.7344,242.4063 235.625,243.2266 Q236.5156,244.0469 238.1094,244.0469 Q239.0469,244.0469 239.7031,243.7969 Q240.0938,243.6406 240.5156,243.2031 Q240.7813,242.9375 240.9297,242.8594 Q241.0781,242.7813 241.2813,242.7813 Q241.6094,242.7813 241.8672,243.0391 Q242.125,243.2969 242.125,243.6406 Q242.125,243.9844 241.7813,244.3906 Q241.2813,244.9688 240.4844,245.2969 Q239.4063,245.75 238.1094,245.75 Q236.5938,245.75 235.3906,245.125 Q234.4063,244.625 233.7188,243.5547 Q233.0313,242.4844 233.0313,241.2031 L233.0313,240.0469 Q233.0313,238.7188 233.6484,237.5703 Q234.2656,236.4219 235.3594,235.8047 Q236.4531,235.1875 237.6875,235.1875 Q238.4219,235.1875 239.0703,235.3516 Q239.7188,235.5156 240.2656,235.875 Z "/><text fill="#000000" font-family="sans-serif" font-size="12" lengthAdjust="spacingAndGlyphs" textLength="65" x="251.5" y="244.9102">Informaci贸n</text><line style="stroke: #A80036; stroke-width: 1.5;" x1="223.5" x2="318.5" y1="256" y2="256"/><line style="stroke: #A80036; stroke-width: 1.5;" x1="223.5" x2="318.5" y1="264" y2="264"/><!--class Usuario--><rect fill="#FEFECE" filter="url(#ffk3bahbjab28)" height="48" id="Usuario" style="stroke: #A80036; stroke-width: 1.5;" width="230" x="6" y="440"/><ellipse cx="21" cy="456" fill="#ADD1B2" rx="11" ry="11" style="stroke: #A80036; stroke-width: 1.0;"/><path d="M23.7656,451.875 Q23.9219,451.6563 24.1094,451.5469 Q24.2969,451.4375 24.5156,451.4375 Q24.8906,451.4375 25.125,451.6953 Q25.3594,451.9531 25.3594,452.5625 L25.3594,454.0156 Q25.3594,454.625 25.125,454.8906 Q24.8906,455.1563 24.5156,455.1563 Q24.1719,455.1563 23.9688,454.9531 Q23.7656,454.7656 23.6563,454.25 Q23.6094,453.8906 23.4219,453.7031 Q23.0938,453.3281 22.4844,453.1094 Q21.875,452.8906 21.25,452.8906 Q20.4844,452.8906 19.8516,453.2188 Q19.2188,453.5469 18.7266,454.2969 Q18.2344,455.0469 18.2344,456.0781 L18.2344,457.1719 Q18.2344,458.4063 19.125,459.2266 Q20.0156,460.0469 21.6094,460.0469 Q22.5469,460.0469 23.2031,459.7969 Q23.5938,459.6406 24.0156,459.2031 Q24.2813,458.9375 24.4297,458.8594 Q24.5781,458.7813 24.7813,458.7813 Q25.1094,458.7813 25.3672,459.0391 Q25.625,459.2969 25.625,459.6406 Q25.625,459.9844 25.2813,460.3906 Q24.7813,460.9688 23.9844,461.2969 Q22.9063,461.75 21.6094,461.75 Q20.0938,461.75 18.8906,461.125 Q17.9063,460.625 17.2188,459.5547 Q16.5313,458.4844 16.5313,457.2031 L16.5313,456.0469 Q16.5313,454.7188 17.1484,453.5703 Q17.7656,452.4219 18.8594,451.8047 Q19.9531,451.1875 21.1875,451.1875 Q21.9219,451.1875 22.5703,451.3516 Q23.2188,451.5156 23.7656,451.875 Z "/><text fill="#000000" font-family="sans-serif" font-size="12" lengthAdjust="spacingAndGlyphs" textLength="198" x="35" y="460.9102">Sistema de Informaci贸n del Usuario</text><line style="stroke: #A80036; stroke-width: 1.5;" x1="7" x2="235" y1="472" y2="472"/><line style="stroke: #A80036; stroke-width: 1.5;" x1="7" x2="235" y1="480" y2="480"/><!--class Hardware--><rect fill="#FEFECE" filter="url(#ffk3bahbjab28)" height="48" id="Hardware" style="stroke: #A80036; stroke-width: 1.5;" width="86" x="30" y="224"/><ellipse cx="45" cy="240" fill="#ADD1B2" rx="11" ry="11" style="stroke: #A80036; stroke-width: 1.0;"/><path d="M47.7656,235.875 Q47.9219,235.6563 48.1094,235.5469 Q48.2969,235.4375 48.5156,235.4375 Q48.8906,235.4375 49.125,235.6953 Q49.3594,235.9531 49.3594,236.5625 L49.3594,238.0156 Q49.3594,238.625 49.125,238.8906 Q48.8906,239.1563 48.5156,239.1563 Q48.1719,239.1563 47.9688,238.9531 Q47.7656,238.7656 47.6563,238.25 Q47.6094,237.8906 47.4219,237.7031 Q47.0938,237.3281 46.4844,237.1094 Q45.875,236.8906 45.25,236.8906 Q44.4844,236.8906 43.8516,237.2188 Q43.2188,237.5469 42.7266,238.2969 Q42.2344,239.0469 42.2344,240.0781 L42.2344,241.1719 Q42.2344,242.4063 43.125,243.2266 Q44.0156,244.0469 45.6094,244.0469 Q46.5469,244.0469 47.2031,243.7969 Q47.5938,243.6406 48.0156,243.2031 Q48.2813,242.9375 48.4297,242.8594 Q48.5781,242.7813 48.7813,242.7813 Q49.1094,242.7813 49.3672,243.0391 Q49.625,243.2969 49.625,243.6406 Q49.625,243.9844 49.2813,244.3906 Q48.7813,244.9688 47.9844,245.2969 Q46.9063,245.75 45.6094,245.75 Q44.0938,245.75 42.8906,245.125 Q41.9063,244.625 41.2188,243.5547 Q40.5313,242.4844 40.5313,241.2031 L40.5313,240.0469 Q40.5313,238.7188 41.1484,237.5703 Q41.7656,236.4219 42.8594,235.8047 Q43.9531,235.1875 45.1875,235.1875 Q45.9219,235.1875 46.5703,235.3516 Q47.2188,235.5156 47.7656,235.875 Z "/><text fill="#000000" font-family="sans-serif" font-size="12" lengthAdjust="spacingAndGlyphs" textLength="54" x="59" y="244.9102">Hardware</text><line style="stroke: #A80036; stroke-width: 1.5;" x1="31" x2="115" y1="256" y2="256"/><line style="stroke: #A80036; stroke-width: 1.5;" x1="31" x2="115" y1="264" y2="264"/><!--link Sistema to SistemaComplejo--><path d="M141.801,72.178 C130.904,86.8 118.883,102.929 109.381,115.678 " fill="none" id="Sistema-SistemaComplejo" style="stroke: #A80036; stroke-width: 1.0;"/><polygon fill="none" points="136.294,67.854,153.858,56,147.519,76.22,136.294,67.854" style="stroke: #A80036; stroke-width: 1.0;"/><!--link SistemaComplejo to Software--><path d="M114.213,181.918 C120.827,195.108 127.713,209.952 133,224 C146.847,260.794 157.522,305.331 163.271,331.85 " fill="none" id="SistemaComplejo-Software" style="stroke: #A80036; stroke-width: 1.0;"/><polygon fill="none" points="107.944,185.036,104.9331,164.062,120.367,178.58,107.944,185.036" style="stroke: #A80036; stroke-width: 1.0;"/><!--link SistemaComplejo to Usuario--><path d="M44.7786,177.801 C31.6214,190.821 19.0186,206.605 12,224 C4.0178,243.784 6.5302,251.38 12,272 C29.5713,338.241 76.0906,405.4931 102.324,439.7714 " fill="none" id="SistemaComplejo-Usuario" style="stroke: #A80036; stroke-width: 1.0;"/><polygon fill="none" points="40.0903,172.603,59.601,164.337,49.5037,182.966,40.0903,172.603" style="stroke: #A80036; stroke-width: 1.0;"/><!--link Sistema to Informacion--><path d="M190.406,74.53 C211.184,118.994 243.411,187.959 260.121,223.72 " fill="none" id="Sistema-Informacion" style="stroke: #A80036; stroke-width: 1.0;"/><polygon fill="none" points="184.017,77.392,181.892,56.309,196.701,71.465,184.017,77.392" style="stroke: #A80036; stroke-width: 1.0;"/><!--link Informacion to Software--><path d="M234.315,286.753 C219.749,301.744 203.454,318.514 190.662,331.678 " fill="none" id="Informacion-Software" style="stroke: #A80036; stroke-width: 1.0;"/><polygon fill="none" points="229.693,281.466,248.651,272,239.733,291.222,229.693,281.466" style="stroke: #A80036; stroke-width: 1.0;"/><!--link Informacion to Usuario--><path d="M262.379,291.869 C255.452,318.934 243.72,353.637 225,380 C207.747,404.2974 181.474,425.1831 159.652,439.9257 " fill="none" id="Informacion-Usuario" style="stroke: #A80036; stroke-width: 1.0;"/><polygon fill="none" points="255.623,290.017,266.946,272.107,269.263,293.17,255.623,290.017" style="stroke: #A80036; stroke-width: 1.0;"/><!--link Software to Usuario--><path d="M157.802,380 C150.645,396.1409 141.034,417.8162 133.429,434.9688 " fill="none" id="Software-Usuario" style="stroke: #A80036; stroke-width: 1.0;"/><polygon fill="#A80036" points="131.341,439.6784,138.6462,433.0728,133.368,435.1077,131.3331,429.8295,131.341,439.6784" style="stroke: #A80036; stroke-width: 1.0;"/><!--link SistemaComplejo to Hardware--><path d="M84.2882,184.024 C81.8584,197.579 79.2668,212.038 77.1803,223.678 " fill="none" id="SistemaComplejo-Hardware" style="stroke: #A80036; stroke-width: 1.0;"/><polygon fill="none" points="77.4583,182.452,87.8773,164,91.2387,184.922,77.4583,182.452" style="stroke: #A80036; stroke-width: 1.0;"/><!--link Hardware to Software--><path d="M102.6511,282.084 C114.029,294.78 127.006,309.259 138.381,321.951 " fill="none" id="Hardware-Software" style="stroke: #A80036; stroke-width: 1.0;"/><polygon fill="#A80036" points="147.099,331.678,144.0716,322.306,143.7622,327.9544,138.1138,327.6449,147.099,331.678" style="stroke: #A80036; stroke-width: 1.0;"/><line style="stroke: #A80036; stroke-width: 1.0;" x1="143.7622" x2="138.4225" y1="327.9544" y2="321.9975"/><polygon fill="#A80036" points="93.6136,272,94.639,279.1378,101.6222,280.9366,100.5968,273.7988,93.6136,272" style="stroke: #A80036; stroke-width: 1.0;"/><!--link Hardware to Usuario--><path d="M81.1327,285.258 C89.9814,324.709 104.0442,387.405 112.886,426.8239 " fill="none" id="Hardware-Usuario" style="stroke: #A80036; stroke-width: 1.0;"/><polygon fill="#A80036" points="115.778,439.7196,117.7114,430.0624,114.6837,434.8408,109.9053,431.8132,115.778,439.7196" style="stroke: #A80036; stroke-width: 1.0;"/><line style="stroke: #A80036; stroke-width: 1.0;" x1="114.6837" x2="112.933" y1="434.8408" y2="427.0348"/><polygon fill="#A80036" points="78.2282,272.309,75.6386,279.0391,80.855,284.018,83.4446,277.2879,78.2282,272.309" style="stroke: #A80036; stroke-width: 1.0;"/><!--
@startuml
class Sistema
class "Sistema Complejo" as SistemaComplejo

Sistema <|-down- SistemaComplejo
SistemaComplejo <|-down- Software
class "Informaci贸n" as Informacion
class Software
class "Sistema de Informaci贸n del Usuario" as Usuario

SistemaComplejo <|-down- Usuario
Sistema <|-down- Informacion
Informacion <|-down- Software
Informacion <|-down- Usuario
Software -down-> Usuario

class Hardware
SistemaComplejo <|-down- Hardware

Hardware *-down-> Software
Hardware *-down-> Usuario

@enduml

PlantUML version 1.2019.05(Sat Apr 20 18:45:36 CEST 2019)
(GPL source distribution)
Java Runtime: OpenJDK Runtime Environment
JVM: OpenJDK 64-Bit Server VM
Java Version: 1.8.0_222-b10
Operating System: Windows 10
OS Version: 10.0
Default Encoding: windows-1252
Language: es
Country: ES
--></g></svg>