<?xml version="1.0" encoding="UTF-8" standalone="no"?><svg xmlns="http://www.w3.org/2000/svg" xmlns:xlink="http://www.w3.org/1999/xlink" contentScriptType="application/ecmascript" contentStyleType="text/css" height="715px" preserveAspectRatio="none" style="width:151px;height:715px;" version="1.1" viewBox="0 0 151 715" width="151px" zoomAndPan="magnify"><defs><filter height="300%" id="f2tkxxhrtusob" width="300%" x="-1" y="-1"><feGaussianBlur result="blurOut" stdDeviation="2.0"/><feColorMatrix in="blurOut" result="blurOut2" type="matrix" values="0 0 0 0 0 0 0 0 0 0 0 0 0 0 0 0 0 0 .4 0"/><feOffset dx="4.0" dy="4.0" in="blurOut2" result="blurOut3"/><feBlend in="SourceGraphic" in2="blurOut3" mode="normal"/></filter></defs><g><!--class Proyecto--><rect fill="#FEFECE" filter="url(#f2tkxxhrtusob)" height="48" id="Proyecto" style="stroke: #A80036; stroke-width: 1.5;" width="79" x="6" y="8"/><ellipse cx="21" cy="24" fill="#ADD1B2" rx="11" ry="11" style="stroke: #A80036; stroke-width: 1.0;"/><path d="M23.7656,19.875 Q23.9219,19.6563 24.1094,19.5469 Q24.2969,19.4375 24.5156,19.4375 Q24.8906,19.4375 25.125,19.6953 Q25.3594,19.9531 25.3594,20.5625 L25.3594,22.0156 Q25.3594,22.625 25.125,22.8906 Q24.8906,23.1563 24.5156,23.1563 Q24.1719,23.1563 23.9688,22.9531 Q23.7656,22.7656 23.6563,22.25 Q23.6094,21.8906 23.4219,21.7031 Q23.0938,21.3281 22.4844,21.1094 Q21.875,20.8906 21.25,20.8906 Q20.4844,20.8906 19.8516,21.2188 Q19.2188,21.5469 18.7266,22.2969 Q18.2344,23.0469 18.2344,24.0781 L18.2344,25.1719 Q18.2344,26.4063 19.125,27.2266 Q20.0156,28.0469 21.6094,28.0469 Q22.5469,28.0469 23.2031,27.7969 Q23.5938,27.6406 24.0156,27.2031 Q24.2813,26.9375 24.4297,26.8594 Q24.5781,26.7813 24.7813,26.7813 Q25.1094,26.7813 25.3672,27.0391 Q25.625,27.2969 25.625,27.6406 Q25.625,27.9844 25.2813,28.3906 Q24.7813,28.9688 23.9844,29.2969 Q22.9063,29.75 21.6094,29.75 Q20.0938,29.75 18.8906,29.125 Q17.9063,28.625 17.2188,27.5547 Q16.5313,26.4844 16.5313,25.2031 L16.5313,24.0469 Q16.5313,22.7188 17.1484,21.5703 Q17.7656,20.4219 18.8594,19.8047 Q19.9531,19.1875 21.1875,19.1875 Q21.9219,19.1875 22.5703,19.3516 Q23.2188,19.5156 23.7656,19.875 Z "/><text fill="#000000" font-family="sans-serif" font-size="12" lengthAdjust="spacingAndGlyphs" textLength="47" x="35" y="28.9102">Proyecto</text><line style="stroke: #A80036; stroke-width: 1.5;" x1="7" x2="84" y1="40" y2="40"/><line style="stroke: #A80036; stroke-width: 1.5;" x1="7" x2="84" y1="48" y2="48"/><!--class Paquete--><rect fill="#FEFECE" filter="url(#f2tkxxhrtusob)" height="48" id="Paquete" style="stroke: #A80036; stroke-width: 1.5;" width="78" x="6.5" y="116"/><ellipse cx="21.5" cy="132" fill="#ADD1B2" rx="11" ry="11" style="stroke: #A80036; stroke-width: 1.0;"/><path d="M24.2656,127.875 Q24.4219,127.6563 24.6094,127.5469 Q24.7969,127.4375 25.0156,127.4375 Q25.3906,127.4375 25.625,127.6953 Q25.8594,127.9531 25.8594,128.5625 L25.8594,130.0156 Q25.8594,130.625 25.625,130.8906 Q25.3906,131.1563 25.0156,131.1563 Q24.6719,131.1563 24.4688,130.9531 Q24.2656,130.7656 24.1563,130.25 Q24.1094,129.8906 23.9219,129.7031 Q23.5938,129.3281 22.9844,129.1094 Q22.375,128.8906 21.75,128.8906 Q20.9844,128.8906 20.3516,129.2188 Q19.7188,129.5469 19.2266,130.2969 Q18.7344,131.0469 18.7344,132.0781 L18.7344,133.1719 Q18.7344,134.4063 19.625,135.2266 Q20.5156,136.0469 22.1094,136.0469 Q23.0469,136.0469 23.7031,135.7969 Q24.0938,135.6406 24.5156,135.2031 Q24.7813,134.9375 24.9297,134.8594 Q25.0781,134.7813 25.2813,134.7813 Q25.6094,134.7813 25.8672,135.0391 Q26.125,135.2969 26.125,135.6406 Q26.125,135.9844 25.7813,136.3906 Q25.2813,136.9688 24.4844,137.2969 Q23.4063,137.75 22.1094,137.75 Q20.5938,137.75 19.3906,137.125 Q18.4063,136.625 17.7188,135.5547 Q17.0313,134.4844 17.0313,133.2031 L17.0313,132.0469 Q17.0313,130.7188 17.6484,129.5703 Q18.2656,128.4219 19.3594,127.8047 Q20.4531,127.1875 21.6875,127.1875 Q22.4219,127.1875 23.0703,127.3516 Q23.7188,127.5156 24.2656,127.875 Z "/><text fill="#000000" font-family="sans-serif" font-size="12" lengthAdjust="spacingAndGlyphs" textLength="46" x="35.5" y="136.9102">Paquete</text><line style="stroke: #A80036; stroke-width: 1.5;" x1="7.5" x2="83.5" y1="148" y2="148"/><line style="stroke: #A80036; stroke-width: 1.5;" x1="7.5" x2="83.5" y1="156" y2="156"/><!--class Clase--><rect fill="#FEFECE" filter="url(#f2tkxxhrtusob)" height="48" id="Clase" style="stroke: #A80036; stroke-width: 1.5;" width="65" x="13" y="224"/><ellipse cx="28" cy="240" fill="#ADD1B2" rx="11" ry="11" style="stroke: #A80036; stroke-width: 1.0;"/><path d="M30.7656,235.875 Q30.9219,235.6563 31.1094,235.5469 Q31.2969,235.4375 31.5156,235.4375 Q31.8906,235.4375 32.125,235.6953 Q32.3594,235.9531 32.3594,236.5625 L32.3594,238.0156 Q32.3594,238.625 32.125,238.8906 Q31.8906,239.1563 31.5156,239.1563 Q31.1719,239.1563 30.9688,238.9531 Q30.7656,238.7656 30.6563,238.25 Q30.6094,237.8906 30.4219,237.7031 Q30.0938,237.3281 29.4844,237.1094 Q28.875,236.8906 28.25,236.8906 Q27.4844,236.8906 26.8516,237.2188 Q26.2188,237.5469 25.7266,238.2969 Q25.2344,239.0469 25.2344,240.0781 L25.2344,241.1719 Q25.2344,242.4063 26.125,243.2266 Q27.0156,244.0469 28.6094,244.0469 Q29.5469,244.0469 30.2031,243.7969 Q30.5938,243.6406 31.0156,243.2031 Q31.2813,242.9375 31.4297,242.8594 Q31.5781,242.7813 31.7813,242.7813 Q32.1094,242.7813 32.3672,243.0391 Q32.625,243.2969 32.625,243.6406 Q32.625,243.9844 32.2813,244.3906 Q31.7813,244.9688 30.9844,245.2969 Q29.9063,245.75 28.6094,245.75 Q27.0938,245.75 25.8906,245.125 Q24.9063,244.625 24.2188,243.5547 Q23.5313,242.4844 23.5313,241.2031 L23.5313,240.0469 Q23.5313,238.7188 24.1484,237.5703 Q24.7656,236.4219 25.8594,235.8047 Q26.9531,235.1875 28.1875,235.1875 Q28.9219,235.1875 29.5703,235.3516 Q30.2188,235.5156 30.7656,235.875 Z "/><text fill="#000000" font-family="sans-serif" font-size="12" lengthAdjust="spacingAndGlyphs" textLength="33" x="42" y="244.9102">Clase</text><line style="stroke: #A80036; stroke-width: 1.5;" x1="14" x2="77" y1="256" y2="256"/><line style="stroke: #A80036; stroke-width: 1.5;" x1="14" x2="77" y1="264" y2="264"/><!--class Atributo--><rect fill="#FEFECE" filter="url(#f2tkxxhrtusob)" height="48" id="Atributo" style="stroke: #A80036; stroke-width: 1.5;" width="73" x="11" y="656"/><ellipse cx="26" cy="672" fill="#ADD1B2" rx="11" ry="11" style="stroke: #A80036; stroke-width: 1.0;"/><path d="M28.7656,667.875 Q28.9219,667.6563 29.1094,667.5469 Q29.2969,667.4375 29.5156,667.4375 Q29.8906,667.4375 30.125,667.6953 Q30.3594,667.9531 30.3594,668.5625 L30.3594,670.0156 Q30.3594,670.625 30.125,670.8906 Q29.8906,671.1563 29.5156,671.1563 Q29.1719,671.1563 28.9688,670.9531 Q28.7656,670.7656 28.6563,670.25 Q28.6094,669.8906 28.4219,669.7031 Q28.0938,669.3281 27.4844,669.1094 Q26.875,668.8906 26.25,668.8906 Q25.4844,668.8906 24.8516,669.2188 Q24.2188,669.5469 23.7266,670.2969 Q23.2344,671.0469 23.2344,672.0781 L23.2344,673.1719 Q23.2344,674.4063 24.125,675.2266 Q25.0156,676.0469 26.6094,676.0469 Q27.5469,676.0469 28.2031,675.7969 Q28.5938,675.6406 29.0156,675.2031 Q29.2813,674.9375 29.4297,674.8594 Q29.5781,674.7813 29.7813,674.7813 Q30.1094,674.7813 30.3672,675.0391 Q30.625,675.2969 30.625,675.6406 Q30.625,675.9844 30.2813,676.3906 Q29.7813,676.9688 28.9844,677.2969 Q27.9063,677.75 26.6094,677.75 Q25.0938,677.75 23.8906,677.125 Q22.9063,676.625 22.2188,675.5547 Q21.5313,674.4844 21.5313,673.2031 L21.5313,672.0469 Q21.5313,670.7188 22.1484,669.5703 Q22.7656,668.4219 23.8594,667.8047 Q24.9531,667.1875 26.1875,667.1875 Q26.9219,667.1875 27.5703,667.3516 Q28.2188,667.5156 28.7656,667.875 Z "/><text fill="#000000" font-family="sans-serif" font-size="12" lengthAdjust="spacingAndGlyphs" textLength="41" x="40" y="676.9102">Atributo</text><line style="stroke: #A80036; stroke-width: 1.5;" x1="12" x2="83" y1="688" y2="688"/><line style="stroke: #A80036; stroke-width: 1.5;" x1="12" x2="83" y1="696" y2="696"/><!--class Metodo--><rect fill="#FEFECE" filter="url(#f2tkxxhrtusob)" height="48" id="Metodo" style="stroke: #A80036; stroke-width: 1.5;" width="72" x="56.5" y="332"/><ellipse cx="71.5" cy="348" fill="#ADD1B2" rx="11" ry="11" style="stroke: #A80036; stroke-width: 1.0;"/><path d="M74.2656,343.875 Q74.4219,343.6563 74.6094,343.5469 Q74.7969,343.4375 75.0156,343.4375 Q75.3906,343.4375 75.625,343.6953 Q75.8594,343.9531 75.8594,344.5625 L75.8594,346.0156 Q75.8594,346.625 75.625,346.8906 Q75.3906,347.1563 75.0156,347.1563 Q74.6719,347.1563 74.4688,346.9531 Q74.2656,346.7656 74.1563,346.25 Q74.1094,345.8906 73.9219,345.7031 Q73.5938,345.3281 72.9844,345.1094 Q72.375,344.8906 71.75,344.8906 Q70.9844,344.8906 70.3516,345.2188 Q69.7188,345.5469 69.2266,346.2969 Q68.7344,347.0469 68.7344,348.0781 L68.7344,349.1719 Q68.7344,350.4063 69.625,351.2266 Q70.5156,352.0469 72.1094,352.0469 Q73.0469,352.0469 73.7031,351.7969 Q74.0938,351.6406 74.5156,351.2031 Q74.7813,350.9375 74.9297,350.8594 Q75.0781,350.7813 75.2813,350.7813 Q75.6094,350.7813 75.8672,351.0391 Q76.125,351.2969 76.125,351.6406 Q76.125,351.9844 75.7813,352.3906 Q75.2813,352.9688 74.4844,353.2969 Q73.4063,353.75 72.1094,353.75 Q70.5938,353.75 69.3906,353.125 Q68.4063,352.625 67.7188,351.5547 Q67.0313,350.4844 67.0313,349.2031 L67.0313,348.0469 Q67.0313,346.7188 67.6484,345.5703 Q68.2656,344.4219 69.3594,343.8047 Q70.4531,343.1875 71.6875,343.1875 Q72.4219,343.1875 73.0703,343.3516 Q73.7188,343.5156 74.2656,343.875 Z "/><text fill="#000000" font-family="sans-serif" font-size="12" lengthAdjust="spacingAndGlyphs" textLength="40" x="85.5" y="352.9102">Método</text><line style="stroke: #A80036; stroke-width: 1.5;" x1="57.5" x2="127.5" y1="364" y2="364"/><line style="stroke: #A80036; stroke-width: 1.5;" x1="57.5" x2="127.5" y1="372" y2="372"/><!--class Sentencia--><rect fill="#FEFECE" filter="url(#f2tkxxhrtusob)" height="48" id="Sentencia" style="stroke: #A80036; stroke-width: 1.5;" width="87" x="53" y="440"/><ellipse cx="68" cy="456" fill="#ADD1B2" rx="11" ry="11" style="stroke: #A80036; stroke-width: 1.0;"/><path d="M70.7656,451.875 Q70.9219,451.6563 71.1094,451.5469 Q71.2969,451.4375 71.5156,451.4375 Q71.8906,451.4375 72.125,451.6953 Q72.3594,451.9531 72.3594,452.5625 L72.3594,454.0156 Q72.3594,454.625 72.125,454.8906 Q71.8906,455.1563 71.5156,455.1563 Q71.1719,455.1563 70.9688,454.9531 Q70.7656,454.7656 70.6563,454.25 Q70.6094,453.8906 70.4219,453.7031 Q70.0938,453.3281 69.4844,453.1094 Q68.875,452.8906 68.25,452.8906 Q67.4844,452.8906 66.8516,453.2188 Q66.2188,453.5469 65.7266,454.2969 Q65.2344,455.0469 65.2344,456.0781 L65.2344,457.1719 Q65.2344,458.4063 66.125,459.2266 Q67.0156,460.0469 68.6094,460.0469 Q69.5469,460.0469 70.2031,459.7969 Q70.5938,459.6406 71.0156,459.2031 Q71.2813,458.9375 71.4297,458.8594 Q71.5781,458.7813 71.7813,458.7813 Q72.1094,458.7813 72.3672,459.0391 Q72.625,459.2969 72.625,459.6406 Q72.625,459.9844 72.2813,460.3906 Q71.7813,460.9688 70.9844,461.2969 Q69.9063,461.75 68.6094,461.75 Q67.0938,461.75 65.8906,461.125 Q64.9063,460.625 64.2188,459.5547 Q63.5313,458.4844 63.5313,457.2031 L63.5313,456.0469 Q63.5313,454.7188 64.1484,453.5703 Q64.7656,452.4219 65.8594,451.8047 Q66.9531,451.1875 68.1875,451.1875 Q68.9219,451.1875 69.5703,451.3516 Q70.2188,451.5156 70.7656,451.875 Z "/><text fill="#000000" font-family="sans-serif" font-size="12" lengthAdjust="spacingAndGlyphs" textLength="55" x="82" y="460.9102">Sentencia</text><line style="stroke: #A80036; stroke-width: 1.5;" x1="54" x2="139" y1="472" y2="472"/><line style="stroke: #A80036; stroke-width: 1.5;" x1="54" x2="139" y1="480" y2="480"/><!--class Expresion--><rect fill="#FEFECE" filter="url(#f2tkxxhrtusob)" height="48" id="Expresion" style="stroke: #A80036; stroke-width: 1.5;" width="87" x="53" y="548"/><ellipse cx="68" cy="564" fill="#ADD1B2" rx="11" ry="11" style="stroke: #A80036; stroke-width: 1.0;"/><path d="M70.7656,559.875 Q70.9219,559.6563 71.1094,559.5469 Q71.2969,559.4375 71.5156,559.4375 Q71.8906,559.4375 72.125,559.6953 Q72.3594,559.9531 72.3594,560.5625 L72.3594,562.0156 Q72.3594,562.625 72.125,562.8906 Q71.8906,563.1563 71.5156,563.1563 Q71.1719,563.1563 70.9688,562.9531 Q70.7656,562.7656 70.6563,562.25 Q70.6094,561.8906 70.4219,561.7031 Q70.0938,561.3281 69.4844,561.1094 Q68.875,560.8906 68.25,560.8906 Q67.4844,560.8906 66.8516,561.2188 Q66.2188,561.5469 65.7266,562.2969 Q65.2344,563.0469 65.2344,564.0781 L65.2344,565.1719 Q65.2344,566.4063 66.125,567.2266 Q67.0156,568.0469 68.6094,568.0469 Q69.5469,568.0469 70.2031,567.7969 Q70.5938,567.6406 71.0156,567.2031 Q71.2813,566.9375 71.4297,566.8594 Q71.5781,566.7813 71.7813,566.7813 Q72.1094,566.7813 72.3672,567.0391 Q72.625,567.2969 72.625,567.6406 Q72.625,567.9844 72.2813,568.3906 Q71.7813,568.9688 70.9844,569.2969 Q69.9063,569.75 68.6094,569.75 Q67.0938,569.75 65.8906,569.125 Q64.9063,568.625 64.2188,567.5547 Q63.5313,566.4844 63.5313,565.2031 L63.5313,564.0469 Q63.5313,562.7188 64.1484,561.5703 Q64.7656,560.4219 65.8594,559.8047 Q66.9531,559.1875 68.1875,559.1875 Q68.9219,559.1875 69.5703,559.3516 Q70.2188,559.5156 70.7656,559.875 Z "/><text fill="#000000" font-family="sans-serif" font-size="12" lengthAdjust="spacingAndGlyphs" textLength="55" x="82" y="568.9102">Expresion</text><line style="stroke: #A80036; stroke-width: 1.5;" x1="54" x2="139" y1="580" y2="580"/><line style="stroke: #A80036; stroke-width: 1.5;" x1="54" x2="139" y1="588" y2="588"/><!--link Proyecto to Paquete--><path d="M45.5,69.338 C45.5,80.006 45.5,91.677 45.5,102.364 " fill="none" id="Proyecto-Paquete" style="stroke: #A80036; stroke-width: 1.0;"/><polygon fill="#A80036" points="45.5,115.678,49.5,106.678,45.5,110.678,41.5,106.678,45.5,115.678" style="stroke: #A80036; stroke-width: 1.0;"/><line style="stroke: #A80036; stroke-width: 1.0;" x1="45.5" x2="45.5001" y1="110.678" y2="102.678"/><polygon fill="#A80036" points="45.5,56,41.5,62,45.5,68,49.5,62,45.5,56" style="stroke: #A80036; stroke-width: 1.0;"/><!--link Paquete to Clase--><path d="M45.5,177.338 C45.5,188.006 45.5,199.677 45.5,210.364 " fill="none" id="Paquete-Clase" style="stroke: #A80036; stroke-width: 1.0;"/><polygon fill="#A80036" points="45.5,223.678,49.5,214.678,45.5,218.678,41.5,214.678,45.5,223.678" style="stroke: #A80036; stroke-width: 1.0;"/><line style="stroke: #A80036; stroke-width: 1.0;" x1="45.5" x2="45.5001" y1="218.678" y2="210.678"/><polygon fill="#A80036" points="45.5,164,41.5,170,45.5,176,49.5,170,45.5,164" style="stroke: #A80036; stroke-width: 1.0;"/><!--link Paquete to Paquete--><path d="M97.961,120.139 C110.35,121.752 119.5,128.372 119.5,140 C119.5,151.628 110.35,158.248 97.961,159.861 " fill="none" id="Paquete-Paquete" style="stroke: #A80036; stroke-width: 1.0;"/><polygon fill="#A80036" points="84.7112,159.804,93.694,163.8425,89.7112,159.8254,93.7283,155.8426,84.7112,159.804" style="stroke: #A80036; stroke-width: 1.0;"/><line style="stroke: #A80036; stroke-width: 1.0;" x1="89.7112" x2="97.7111" y1="159.8254" y2="159.86"/><polygon fill="#A80036" points="84.7112,120.196,90.7283,124.1702,96.7111,120.1446,90.694,116.1703,84.7112,120.196" style="stroke: #A80036; stroke-width: 1.0;"/><!--link Clase to Metodo--><path d="M60.9902,283.935 C66.0946,295.447 71.7717,308.251 76.8854,319.784 " fill="none" id="Clase-Metodo" style="stroke: #A80036; stroke-width: 1.0;"/><polygon fill="#A80036" points="82.1593,331.678,82.1675,321.8291,80.1324,327.1073,74.8543,325.0722,82.1593,331.678" style="stroke: #A80036; stroke-width: 1.0;"/><line style="stroke: #A80036; stroke-width: 1.0;" x1="80.1324" x2="76.8899" y1="327.1073" y2="319.7945"/><polygon fill="#A80036" points="55.6983,272,54.474,279.1064,60.5628,282.9698,61.7872,275.8634,55.6983,272" style="stroke: #A80036; stroke-width: 1.0;"/><!--link Metodo to Sentencia--><path d="M93.8713,393.338 C94.2738,404.006 94.7142,415.677 95.1175,426.364 " fill="none" id="Metodo-Sentencia" style="stroke: #A80036; stroke-width: 1.0;"/><polygon fill="#A80036" points="95.6199,439.678,99.2778,430.5336,95.4314,434.6816,91.2835,430.8352,95.6199,439.678" style="stroke: #A80036; stroke-width: 1.0;"/><line style="stroke: #A80036; stroke-width: 1.0;" x1="95.4314" x2="95.1297" y1="434.6816" y2="426.6875"/><polygon fill="#A80036" points="93.3679,380,89.5969,386.1465,93.8202,391.9915,97.5912,385.845,93.3679,380" style="stroke: #A80036; stroke-width: 1.0;"/><!--link Sentencia to Expresion--><path d="M96.5,501.338 C96.5,512.006 96.5,523.677 96.5,534.364 " fill="none" id="Sentencia-Expresion" style="stroke: #A80036; stroke-width: 1.0;"/><polygon fill="#A80036" points="96.5,547.678,100.5,538.678,96.5,542.678,92.5,538.678,96.5,547.678" style="stroke: #A80036; stroke-width: 1.0;"/><line style="stroke: #A80036; stroke-width: 1.0;" x1="96.5" x2="96.5001" y1="542.678" y2="534.678"/><polygon fill="#A80036" points="96.5,488,92.5,494,96.5,500,100.5,494,96.5,488" style="stroke: #A80036; stroke-width: 1.0;"/><!--link Expresion to Atributo--><path d="M85.8677,596 C78.4066,612.1409 68.3869,633.8162 60.4578,650.9688 " fill="none" id="Expresion-Atributo" style="stroke: #A80036; stroke-width: 1.0;"/><polygon fill="#A80036" points="58.2807,655.6784,65.6881,649.1876,60.3788,651.1399,58.4265,645.8306,58.2807,655.6784" style="stroke: #A80036; stroke-width: 1.0;"/><!--link Clase to Atributo--><path d="M42.0606,285.258 C36.6011,348.449 27.3614,482.831 35.5,596 C36.608,611.407 38.8586,628.2991 41.1145,642.7993 " fill="none" id="Clase-Atributo" style="stroke: #A80036; stroke-width: 1.0;"/><polygon fill="#A80036" points="43.2419,655.842,45.7408,646.3154,42.437,650.9072,37.8452,647.6034,43.2419,655.842" style="stroke: #A80036; stroke-width: 1.0;"/><line style="stroke: #A80036; stroke-width: 1.0;" x1="42.437" x2="41.1491" y1="650.9072" y2="643.0115"/><polygon fill="#A80036" points="43.2253,272.182,38.709,277.8036,42.1611,284.1347,46.6774,278.5131,43.2253,272.182" style="stroke: #A80036; stroke-width: 1.0;"/><!--
@startuml
class Proyecto
class Paquete
class Clase
class Atributo
class "Método" as Metodo
class Sentencia
class Expresion

Proyecto *-down-> Paquete
Paquete *-down-> Clase
Paquete *-down-> Paquete
Clase *-down-> Metodo
Metodo *-down-> Sentencia
Sentencia *-down-> Expresion
Expresion -down-> Atributo
Clase *-down-> Atributo

@enduml

PlantUML version 1.2019.05(Sat Apr 20 18:45:36 CEST 2019)
(GPL source distribution)
Java Runtime: OpenJDK Runtime Environment
JVM: OpenJDK 64-Bit Server VM
Java Version: 1.8.0_222-b10
Operating System: Windows 10
OS Version: 10.0
Default Encoding: windows-1252
Language: es
Country: ES
--></g></svg>