<?xml version="1.0" encoding="UTF-8" standalone="no"?><svg xmlns="http://www.w3.org/2000/svg" xmlns:xlink="http://www.w3.org/1999/xlink" contentScriptType="application/ecmascript" contentStyleType="text/css" height="327px" preserveAspectRatio="none" style="width:423px;height:327px;" version="1.1" viewBox="0 0 423 327" width="423px" zoomAndPan="magnify"><defs><filter height="300%" id="f3jbcergszh70" width="300%" x="-1" y="-1"><feGaussianBlur result="blurOut" stdDeviation="2.0"/><feColorMatrix in="blurOut" result="blurOut2" type="matrix" values="0 0 0 0 0 0 0 0 0 0 0 0 0 0 0 0 0 0 .4 0"/><feOffset dx="4.0" dy="4.0" in="blurOut2" result="blurOut3"/><feBlend in="SourceGraphic" in2="blurOut3" mode="normal"/></filter></defs><g><!--class Mantenibilidad--><rect fill="#FEFECE" filter="url(#f3jbcergszh70)" height="48" id="Mantenibilidad" style="stroke: #A80036; stroke-width: 1.5;" width="112" x="153" y="8"/><ellipse cx="168" cy="24" fill="#ADD1B2" rx="11" ry="11" style="stroke: #A80036; stroke-width: 1.0;"/><path d="M170.7656,19.875 Q170.9219,19.6563 171.1094,19.5469 Q171.2969,19.4375 171.5156,19.4375 Q171.8906,19.4375 172.125,19.6953 Q172.3594,19.9531 172.3594,20.5625 L172.3594,22.0156 Q172.3594,22.625 172.125,22.8906 Q171.8906,23.1563 171.5156,23.1563 Q171.1719,23.1563 170.9688,22.9531 Q170.7656,22.7656 170.6563,22.25 Q170.6094,21.8906 170.4219,21.7031 Q170.0938,21.3281 169.4844,21.1094 Q168.875,20.8906 168.25,20.8906 Q167.4844,20.8906 166.8516,21.2188 Q166.2188,21.5469 165.7266,22.2969 Q165.2344,23.0469 165.2344,24.0781 L165.2344,25.1719 Q165.2344,26.4063 166.125,27.2266 Q167.0156,28.0469 168.6094,28.0469 Q169.5469,28.0469 170.2031,27.7969 Q170.5938,27.6406 171.0156,27.2031 Q171.2813,26.9375 171.4297,26.8594 Q171.5781,26.7813 171.7813,26.7813 Q172.1094,26.7813 172.3672,27.0391 Q172.625,27.2969 172.625,27.6406 Q172.625,27.9844 172.2813,28.3906 Q171.7813,28.9688 170.9844,29.2969 Q169.9063,29.75 168.6094,29.75 Q167.0938,29.75 165.8906,29.125 Q164.9063,28.625 164.2188,27.5547 Q163.5313,26.4844 163.5313,25.2031 L163.5313,24.0469 Q163.5313,22.7188 164.1484,21.5703 Q164.7656,20.4219 165.8594,19.8047 Q166.9531,19.1875 168.1875,19.1875 Q168.9219,19.1875 169.5703,19.3516 Q170.2188,19.5156 170.7656,19.875 Z "/><text fill="#000000" font-family="sans-serif" font-size="12" lengthAdjust="spacingAndGlyphs" textLength="80" x="182" y="28.9102">Mantenibilidad</text><line style="stroke: #A80036; stroke-width: 1.5;" x1="154" x2="264" y1="40" y2="40"/><line style="stroke: #A80036; stroke-width: 1.5;" x1="154" x2="264" y1="48" y2="48"/><!--class MantenibilidadCorrectiva--><rect fill="#FEFECE" filter="url(#f3jbcergszh70)" height="56.1875" id="MantenibilidadCorrectiva" style="stroke: #A80036; stroke-width: 1.5;" width="112" x="6" y="116"/><ellipse cx="21" cy="136.0938" fill="#ADD1B2" rx="11" ry="11" style="stroke: #A80036; stroke-width: 1.0;"/><path d="M23.7656,131.9688 Q23.9219,131.75 24.1094,131.6406 Q24.2969,131.5313 24.5156,131.5313 Q24.8906,131.5313 25.125,131.7891 Q25.3594,132.0469 25.3594,132.6563 L25.3594,134.1094 Q25.3594,134.7188 25.125,134.9844 Q24.8906,135.25 24.5156,135.25 Q24.1719,135.25 23.9688,135.0469 Q23.7656,134.8594 23.6563,134.3438 Q23.6094,133.9844 23.4219,133.7969 Q23.0938,133.4219 22.4844,133.2031 Q21.875,132.9844 21.25,132.9844 Q20.4844,132.9844 19.8516,133.3125 Q19.2188,133.6406 18.7266,134.3906 Q18.2344,135.1406 18.2344,136.1719 L18.2344,137.2656 Q18.2344,138.5 19.125,139.3203 Q20.0156,140.1406 21.6094,140.1406 Q22.5469,140.1406 23.2031,139.8906 Q23.5938,139.7344 24.0156,139.2969 Q24.2813,139.0313 24.4297,138.9531 Q24.5781,138.875 24.7813,138.875 Q25.1094,138.875 25.3672,139.1328 Q25.625,139.3906 25.625,139.7344 Q25.625,140.0781 25.2813,140.4844 Q24.7813,141.0625 23.9844,141.3906 Q22.9063,141.8438 21.6094,141.8438 Q20.0938,141.8438 18.8906,141.2188 Q17.9063,140.7188 17.2188,139.6484 Q16.5313,138.5781 16.5313,137.2969 L16.5313,136.1406 Q16.5313,134.8125 17.1484,133.6641 Q17.7656,132.5156 18.8594,131.8984 Q19.9531,131.2813 21.1875,131.2813 Q21.9219,131.2813 22.5703,131.4453 Q23.2188,131.6094 23.7656,131.9688 Z "/><text fill="#000000" font-family="sans-serif" font-size="12" lengthAdjust="spacingAndGlyphs" textLength="80" x="35" y="133.457">Mantenibilidad</text><text fill="#000000" font-family="sans-serif" font-size="12" lengthAdjust="spacingAndGlyphs" textLength="55" x="47.5" y="148.5508">Correctiva</text><line style="stroke: #A80036; stroke-width: 1.5;" x1="7" x2="117" y1="156.1875" y2="156.1875"/><line style="stroke: #A80036; stroke-width: 1.5;" x1="7" x2="117" y1="164.1875" y2="164.1875"/><!--class MantenibilidadAdaptativa--><rect fill="#FEFECE" filter="url(#f3jbcergszh70)" height="56.1875" id="MantenibilidadAdaptativa" style="stroke: #A80036; stroke-width: 1.5;" width="112" x="153" y="116"/><ellipse cx="168" cy="136.0938" fill="#ADD1B2" rx="11" ry="11" style="stroke: #A80036; stroke-width: 1.0;"/><path d="M170.7656,131.9688 Q170.9219,131.75 171.1094,131.6406 Q171.2969,131.5313 171.5156,131.5313 Q171.8906,131.5313 172.125,131.7891 Q172.3594,132.0469 172.3594,132.6563 L172.3594,134.1094 Q172.3594,134.7188 172.125,134.9844 Q171.8906,135.25 171.5156,135.25 Q171.1719,135.25 170.9688,135.0469 Q170.7656,134.8594 170.6563,134.3438 Q170.6094,133.9844 170.4219,133.7969 Q170.0938,133.4219 169.4844,133.2031 Q168.875,132.9844 168.25,132.9844 Q167.4844,132.9844 166.8516,133.3125 Q166.2188,133.6406 165.7266,134.3906 Q165.2344,135.1406 165.2344,136.1719 L165.2344,137.2656 Q165.2344,138.5 166.125,139.3203 Q167.0156,140.1406 168.6094,140.1406 Q169.5469,140.1406 170.2031,139.8906 Q170.5938,139.7344 171.0156,139.2969 Q171.2813,139.0313 171.4297,138.9531 Q171.5781,138.875 171.7813,138.875 Q172.1094,138.875 172.3672,139.1328 Q172.625,139.3906 172.625,139.7344 Q172.625,140.0781 172.2813,140.4844 Q171.7813,141.0625 170.9844,141.3906 Q169.9063,141.8438 168.6094,141.8438 Q167.0938,141.8438 165.8906,141.2188 Q164.9063,140.7188 164.2188,139.6484 Q163.5313,138.5781 163.5313,137.2969 L163.5313,136.1406 Q163.5313,134.8125 164.1484,133.6641 Q164.7656,132.5156 165.8594,131.8984 Q166.9531,131.2813 168.1875,131.2813 Q168.9219,131.2813 169.5703,131.4453 Q170.2188,131.6094 170.7656,131.9688 Z "/><text fill="#000000" font-family="sans-serif" font-size="12" lengthAdjust="spacingAndGlyphs" textLength="80" x="182" y="133.457">Mantenibilidad</text><text fill="#000000" font-family="sans-serif" font-size="12" lengthAdjust="spacingAndGlyphs" textLength="56" x="194" y="148.5508">Adaptativa</text><line style="stroke: #A80036; stroke-width: 1.5;" x1="154" x2="264" y1="156.1875" y2="156.1875"/><line style="stroke: #A80036; stroke-width: 1.5;" x1="154" x2="264" y1="164.1875" y2="164.1875"/><!--class MantenibilidadPerfectiva--><rect fill="#FEFECE" filter="url(#f3jbcergszh70)" height="56.1875" id="MantenibilidadPerfectiva" style="stroke: #A80036; stroke-width: 1.5;" width="112" x="300" y="116"/><ellipse cx="315" cy="136.0938" fill="#ADD1B2" rx="11" ry="11" style="stroke: #A80036; stroke-width: 1.0;"/><path d="M317.7656,131.9688 Q317.9219,131.75 318.1094,131.6406 Q318.2969,131.5313 318.5156,131.5313 Q318.8906,131.5313 319.125,131.7891 Q319.3594,132.0469 319.3594,132.6563 L319.3594,134.1094 Q319.3594,134.7188 319.125,134.9844 Q318.8906,135.25 318.5156,135.25 Q318.1719,135.25 317.9688,135.0469 Q317.7656,134.8594 317.6563,134.3438 Q317.6094,133.9844 317.4219,133.7969 Q317.0938,133.4219 316.4844,133.2031 Q315.875,132.9844 315.25,132.9844 Q314.4844,132.9844 313.8516,133.3125 Q313.2188,133.6406 312.7266,134.3906 Q312.2344,135.1406 312.2344,136.1719 L312.2344,137.2656 Q312.2344,138.5 313.125,139.3203 Q314.0156,140.1406 315.6094,140.1406 Q316.5469,140.1406 317.2031,139.8906 Q317.5938,139.7344 318.0156,139.2969 Q318.2813,139.0313 318.4297,138.9531 Q318.5781,138.875 318.7813,138.875 Q319.1094,138.875 319.3672,139.1328 Q319.625,139.3906 319.625,139.7344 Q319.625,140.0781 319.2813,140.4844 Q318.7813,141.0625 317.9844,141.3906 Q316.9063,141.8438 315.6094,141.8438 Q314.0938,141.8438 312.8906,141.2188 Q311.9063,140.7188 311.2188,139.6484 Q310.5313,138.5781 310.5313,137.2969 L310.5313,136.1406 Q310.5313,134.8125 311.1484,133.6641 Q311.7656,132.5156 312.8594,131.8984 Q313.9531,131.2813 315.1875,131.2813 Q315.9219,131.2813 316.5703,131.4453 Q317.2188,131.6094 317.7656,131.9688 Z "/><text fill="#000000" font-family="sans-serif" font-size="12" lengthAdjust="spacingAndGlyphs" textLength="80" x="329" y="133.457">Mantenibilidad</text><text fill="#000000" font-family="sans-serif" font-size="12" lengthAdjust="spacingAndGlyphs" textLength="53" x="342.5" y="148.5508">Perfectiva</text><line style="stroke: #A80036; stroke-width: 1.5;" x1="301" x2="411" y1="156.1875" y2="156.1875"/><line style="stroke: #A80036; stroke-width: 1.5;" x1="301" x2="411" y1="164.1875" y2="164.1875"/><!--entity Usuario--><ellipse cx="62" cy="242" fill="#FEFECE" filter="url(#f3jbcergszh70)" rx="8" ry="8" style="stroke: #A80036; stroke-width: 2.0;"/><path d="M62,250 L62,277 M49,258 L75,258 M62,277 L49,292 M62,277 L75,292 " fill="none" filter="url(#f3jbcergszh70)" style="stroke: #A80036; stroke-width: 2.0;"/><text fill="#000000" font-family="sans-serif" font-size="14" lengthAdjust="spacingAndGlyphs" textLength="48" x="38" y="313.5332">Usuario</text><!--entity Desarrollador--><ellipse cx="209" cy="242" fill="#FEFECE" filter="url(#f3jbcergszh70)" rx="8" ry="8" style="stroke: #A80036; stroke-width: 2.0;"/><path d="M209,250 L209,277 M196,258 L222,258 M209,277 L196,292 M209,277 L222,292 " fill="none" filter="url(#f3jbcergszh70)" style="stroke: #A80036; stroke-width: 2.0;"/><text fill="#000000" font-family="sans-serif" font-size="14" lengthAdjust="spacingAndGlyphs" textLength="86" x="166" y="313.5332">Desarrollador</text><!--entity Cliente--><ellipse cx="356" cy="242" fill="#FEFECE" filter="url(#f3jbcergszh70)" rx="8" ry="8" style="stroke: #A80036; stroke-width: 2.0;"/><path d="M356,250 L356,277 M343,258 L369,258 M356,277 L343,292 M356,277 L369,292 " fill="none" filter="url(#f3jbcergszh70)" style="stroke: #A80036; stroke-width: 2.0;"/><text fill="#000000" font-family="sans-serif" font-size="14" lengthAdjust="spacingAndGlyphs" textLength="44" x="334" y="313.5332">Cliente</text><!--link Mantenibilidad to MantenibilidadCorrectiva--><path d="M162.1,68.095 C141.421,83.569 117.496,101.473 98.2214,115.896 " fill="none" id="Mantenibilidad-MantenibilidadCorrectiva" style="stroke: #A80036; stroke-width: 1.0;"/><polygon fill="none" points="157.977,62.438,178.184,56.06,166.365,73.647,157.977,62.438" style="stroke: #A80036; stroke-width: 1.0;"/><!--link Mantenibilidad to MantenibilidadAdaptativa--><path d="M209,76.29 C209,89.568 209,103.802 209,115.696 " fill="none" id="Mantenibilidad-MantenibilidadAdaptativa" style="stroke: #A80036; stroke-width: 1.0;"/><polygon fill="none" points="202,76.06,209,56.06,216,76.06,202,76.06" style="stroke: #A80036; stroke-width: 1.0;"/><!--link Mantenibilidad to MantenibilidadPerfectiva--><path d="M255.9,68.095 C276.579,83.569 300.504,101.473 319.779,115.896 " fill="none" id="Mantenibilidad-MantenibilidadPerfectiva" style="stroke: #A80036; stroke-width: 1.0;"/><polygon fill="none" points="251.635,73.647,239.816,56.06,260.023,62.438,251.635,73.647" style="stroke: #A80036; stroke-width: 1.0;"/><!--link MantenibilidadCorrectiva to Usuario--><path d="M62,172.252 C62,188.009 62,208.271 62,226.5237 " fill="none" id="MantenibilidadCorrectiva-Usuario" style="stroke: #A80036; stroke-width: 1.0;"/><polygon fill="#A80036" points="62,231.6132,66,222.6132,62,226.6132,58,222.6132,62,231.6132" style="stroke: #A80036; stroke-width: 1.0;"/><!--link MantenibilidadCorrectiva to Desarrollador--><path d="M93.1749,172.252 C113.172,189.732 139.51,212.755 162.016,232.4294 " fill="none" id="MantenibilidadCorrectiva-Desarrollador" style="stroke: #A80036; stroke-width: 1.0;"/><polygon fill="#A80036" points="165.882,235.8086,161.7376,226.8742,162.1172,232.5183,156.4731,232.8979,165.882,235.8086" style="stroke: #A80036; stroke-width: 1.0;"/><!--link MantenibilidadAdaptativa to Desarrollador--><path d="M209,172.252 C209,188.009 209,208.271 209,226.5237 " fill="none" id="MantenibilidadAdaptativa-Desarrollador" style="stroke: #A80036; stroke-width: 1.0;"/><polygon fill="#A80036" points="209,231.6132,213,222.6132,209,226.6132,205,222.6132,209,231.6132" style="stroke: #A80036; stroke-width: 1.0;"/><!--link MantenibilidadPerfectiva to Desarrollador--><path d="M324.825,172.252 C304.828,189.732 278.49,212.755 255.984,232.4294 " fill="none" id="MantenibilidadPerfectiva-Desarrollador" style="stroke: #A80036; stroke-width: 1.0;"/><polygon fill="#A80036" points="252.118,235.8086,261.5269,232.8979,255.8828,232.5183,256.2624,226.8742,252.118,235.8086" style="stroke: #A80036; stroke-width: 1.0;"/><!--link MantenibilidadPerfectiva to Cliente--><path d="M356,172.252 C356,188.009 356,208.271 356,226.5237 " fill="none" id="MantenibilidadPerfectiva-Cliente" style="stroke: #A80036; stroke-width: 1.0;"/><polygon fill="#A80036" points="356,231.6132,360,222.6132,356,226.6132,352,222.6132,356,231.6132" style="stroke: #A80036; stroke-width: 1.0;"/><!--
@startuml
allow_mixing

class Mantenibilidad
class "Mantenibilidad\nCorrectiva" as MantenibilidadCorrectiva
class "Mantenibilidad\nAdaptativa" as MantenibilidadAdaptativa
class "Mantenibilidad\nPerfectiva" as MantenibilidadPerfectiva

Mantenibilidad <|-down- MantenibilidadCorrectiva
Mantenibilidad <|-down- MantenibilidadAdaptativa
Mantenibilidad <|-down- MantenibilidadPerfectiva

actor Usuario
actor Desarrollador
actor Cliente

MantenibilidadCorrectiva - -> Usuario
MantenibilidadCorrectiva - -> Desarrollador
MantenibilidadAdaptativa - -> Desarrollador
MantenibilidadPerfectiva - -> Desarrollador
MantenibilidadPerfectiva - -> Cliente
@enduml

PlantUML version 1.2019.05(Sat Apr 20 18:45:36 CEST 2019)
(GPL source distribution)
Java Runtime: OpenJDK Runtime Environment
JVM: OpenJDK 64-Bit Server VM
Java Version: 1.8.0_222-b10
Operating System: Windows 10
OS Version: 10.0
Default Encoding: windows-1252
Language: es
Country: ES
--></g></svg>