<?xml version="1.0" encoding="UTF-8" standalone="no"?><svg xmlns="http://www.w3.org/2000/svg" xmlns:xlink="http://www.w3.org/1999/xlink" contentScriptType="application/ecmascript" contentStyleType="text/css" height="715px" preserveAspectRatio="none" style="width:1404px;height:715px;" version="1.1" viewBox="0 0 1404 715" width="1404px" zoomAndPan="magnify"><defs><filter height="300%" id="f1lyut72miocua" width="300%" x="-1" y="-1"><feGaussianBlur result="blurOut" stdDeviation="2.0"/><feColorMatrix in="blurOut" result="blurOut2" type="matrix" values="0 0 0 0 0 0 0 0 0 0 0 0 0 0 0 0 0 0 .4 0"/><feOffset dx="4.0" dy="4.0" in="blurOut2" result="blurOut3"/><feBlend in="SourceGraphic" in2="blurOut3" mode="normal"/></filter></defs><g><!--class Hardware--><rect fill="#FEFECE" filter="url(#f1lyut72miocua)" height="48" id="Hardware" style="stroke: #A80036; stroke-width: 1.5;" width="86" x="491.5" y="224"/><ellipse cx="506.5" cy="240" fill="#ADD1B2" rx="11" ry="11" style="stroke: #A80036; stroke-width: 1.0;"/><path d="M509.2656,235.875 Q509.4219,235.6563 509.6094,235.5469 Q509.7969,235.4375 510.0156,235.4375 Q510.3906,235.4375 510.625,235.6953 Q510.8594,235.9531 510.8594,236.5625 L510.8594,238.0156 Q510.8594,238.625 510.625,238.8906 Q510.3906,239.1563 510.0156,239.1563 Q509.6719,239.1563 509.4688,238.9531 Q509.2656,238.7656 509.1563,238.25 Q509.1094,237.8906 508.9219,237.7031 Q508.5938,237.3281 507.9844,237.1094 Q507.375,236.8906 506.75,236.8906 Q505.9844,236.8906 505.3516,237.2188 Q504.7188,237.5469 504.2266,238.2969 Q503.7344,239.0469 503.7344,240.0781 L503.7344,241.1719 Q503.7344,242.4063 504.625,243.2266 Q505.5156,244.0469 507.1094,244.0469 Q508.0469,244.0469 508.7031,243.7969 Q509.0938,243.6406 509.5156,243.2031 Q509.7813,242.9375 509.9297,242.8594 Q510.0781,242.7813 510.2813,242.7813 Q510.6094,242.7813 510.8672,243.0391 Q511.125,243.2969 511.125,243.6406 Q511.125,243.9844 510.7813,244.3906 Q510.2813,244.9688 509.4844,245.2969 Q508.4063,245.75 507.1094,245.75 Q505.5938,245.75 504.3906,245.125 Q503.4063,244.625 502.7188,243.5547 Q502.0313,242.4844 502.0313,241.2031 L502.0313,240.0469 Q502.0313,238.7188 502.6484,237.5703 Q503.2656,236.4219 504.3594,235.8047 Q505.4531,235.1875 506.6875,235.1875 Q507.4219,235.1875 508.0703,235.3516 Q508.7188,235.5156 509.2656,235.875 Z "/><text fill="#000000" font-family="sans-serif" font-size="12" lengthAdjust="spacingAndGlyphs" textLength="54" x="520.5" y="244.9102">Hardware</text><line style="stroke: #A80036; stroke-width: 1.5;" x1="492.5" x2="576.5" y1="256" y2="256"/><line style="stroke: #A80036; stroke-width: 1.5;" x1="492.5" x2="576.5" y1="264" y2="264"/><!--class Software--><rect fill="#FEFECE" filter="url(#f1lyut72miocua)" height="48" id="Software" style="stroke: #A80036; stroke-width: 1.5;" width="80" x="494.5" y="332"/><ellipse cx="509.5" cy="348" fill="#ADD1B2" rx="11" ry="11" style="stroke: #A80036; stroke-width: 1.0;"/><path d="M512.2656,343.875 Q512.4219,343.6563 512.6094,343.5469 Q512.7969,343.4375 513.0156,343.4375 Q513.3906,343.4375 513.625,343.6953 Q513.8594,343.9531 513.8594,344.5625 L513.8594,346.0156 Q513.8594,346.625 513.625,346.8906 Q513.3906,347.1563 513.0156,347.1563 Q512.6719,347.1563 512.4688,346.9531 Q512.2656,346.7656 512.1563,346.25 Q512.1094,345.8906 511.9219,345.7031 Q511.5938,345.3281 510.9844,345.1094 Q510.375,344.8906 509.75,344.8906 Q508.9844,344.8906 508.3516,345.2188 Q507.7188,345.5469 507.2266,346.2969 Q506.7344,347.0469 506.7344,348.0781 L506.7344,349.1719 Q506.7344,350.4063 507.625,351.2266 Q508.5156,352.0469 510.1094,352.0469 Q511.0469,352.0469 511.7031,351.7969 Q512.0938,351.6406 512.5156,351.2031 Q512.7813,350.9375 512.9297,350.8594 Q513.0781,350.7813 513.2813,350.7813 Q513.6094,350.7813 513.8672,351.0391 Q514.125,351.2969 514.125,351.6406 Q514.125,351.9844 513.7813,352.3906 Q513.2813,352.9688 512.4844,353.2969 Q511.4063,353.75 510.1094,353.75 Q508.5938,353.75 507.3906,353.125 Q506.4063,352.625 505.7188,351.5547 Q505.0313,350.4844 505.0313,349.2031 L505.0313,348.0469 Q505.0313,346.7188 505.6484,345.5703 Q506.2656,344.4219 507.3594,343.8047 Q508.4531,343.1875 509.6875,343.1875 Q510.4219,343.1875 511.0703,343.3516 Q511.7188,343.5156 512.2656,343.875 Z "/><text fill="#000000" font-family="sans-serif" font-size="12" lengthAdjust="spacingAndGlyphs" textLength="48" x="523.5" y="352.9102">Software</text><line style="stroke: #A80036; stroke-width: 1.5;" x1="495.5" x2="573.5" y1="364" y2="364"/><line style="stroke: #A80036; stroke-width: 1.5;" x1="495.5" x2="573.5" y1="372" y2="372"/><!--class Gestión--><rect fill="#FEFECE" filter="url(#f1lyut72miocua)" height="48" id="Gestión" style="stroke: #A80036; stroke-width: 1.5;" width="75" x="629" y="440"/><ellipse cx="644" cy="456" fill="#ADD1B2" rx="11" ry="11" style="stroke: #A80036; stroke-width: 1.0;"/><path d="M646.7656,451.875 Q646.9219,451.6563 647.1094,451.5469 Q647.2969,451.4375 647.5156,451.4375 Q647.8906,451.4375 648.125,451.6953 Q648.3594,451.9531 648.3594,452.5625 L648.3594,454.0156 Q648.3594,454.625 648.125,454.8906 Q647.8906,455.1563 647.5156,455.1563 Q647.1719,455.1563 646.9688,454.9531 Q646.7656,454.7656 646.6563,454.25 Q646.6094,453.8906 646.4219,453.7031 Q646.0938,453.3281 645.4844,453.1094 Q644.875,452.8906 644.25,452.8906 Q643.4844,452.8906 642.8516,453.2188 Q642.2188,453.5469 641.7266,454.2969 Q641.2344,455.0469 641.2344,456.0781 L641.2344,457.1719 Q641.2344,458.4063 642.125,459.2266 Q643.0156,460.0469 644.6094,460.0469 Q645.5469,460.0469 646.2031,459.7969 Q646.5938,459.6406 647.0156,459.2031 Q647.2813,458.9375 647.4297,458.8594 Q647.5781,458.7813 647.7813,458.7813 Q648.1094,458.7813 648.3672,459.0391 Q648.625,459.2969 648.625,459.6406 Q648.625,459.9844 648.2813,460.3906 Q647.7813,460.9688 646.9844,461.2969 Q645.9063,461.75 644.6094,461.75 Q643.0938,461.75 641.8906,461.125 Q640.9063,460.625 640.2188,459.5547 Q639.5313,458.4844 639.5313,457.2031 L639.5313,456.0469 Q639.5313,454.7188 640.1484,453.5703 Q640.7656,452.4219 641.8594,451.8047 Q642.9531,451.1875 644.1875,451.1875 Q644.9219,451.1875 645.5703,451.3516 Q646.2188,451.5156 646.7656,451.875 Z "/><text fill="#000000" font-family="sans-serif" font-size="12" lengthAdjust="spacingAndGlyphs" textLength="43" x="658" y="460.9102">Gestión</text><line style="stroke: #A80036; stroke-width: 1.5;" x1="630" x2="703" y1="472" y2="472"/><line style="stroke: #A80036; stroke-width: 1.5;" x1="630" x2="703" y1="480" y2="480"/><!--class Alta--><rect fill="#FEFECE" filter="url(#f1lyut72miocua)" height="48" id="Alta" style="stroke: #A80036; stroke-width: 1.5;" width="52" x="436.5" y="548"/><ellipse cx="451.5" cy="564" fill="#ADD1B2" rx="11" ry="11" style="stroke: #A80036; stroke-width: 1.0;"/><path d="M454.2656,559.875 Q454.4219,559.6563 454.6094,559.5469 Q454.7969,559.4375 455.0156,559.4375 Q455.3906,559.4375 455.625,559.6953 Q455.8594,559.9531 455.8594,560.5625 L455.8594,562.0156 Q455.8594,562.625 455.625,562.8906 Q455.3906,563.1563 455.0156,563.1563 Q454.6719,563.1563 454.4688,562.9531 Q454.2656,562.7656 454.1563,562.25 Q454.1094,561.8906 453.9219,561.7031 Q453.5938,561.3281 452.9844,561.1094 Q452.375,560.8906 451.75,560.8906 Q450.9844,560.8906 450.3516,561.2188 Q449.7188,561.5469 449.2266,562.2969 Q448.7344,563.0469 448.7344,564.0781 L448.7344,565.1719 Q448.7344,566.4063 449.625,567.2266 Q450.5156,568.0469 452.1094,568.0469 Q453.0469,568.0469 453.7031,567.7969 Q454.0938,567.6406 454.5156,567.2031 Q454.7813,566.9375 454.9297,566.8594 Q455.0781,566.7813 455.2813,566.7813 Q455.6094,566.7813 455.8672,567.0391 Q456.125,567.2969 456.125,567.6406 Q456.125,567.9844 455.7813,568.3906 Q455.2813,568.9688 454.4844,569.2969 Q453.4063,569.75 452.1094,569.75 Q450.5938,569.75 449.3906,569.125 Q448.4063,568.625 447.7188,567.5547 Q447.0313,566.4844 447.0313,565.2031 L447.0313,564.0469 Q447.0313,562.7188 447.6484,561.5703 Q448.2656,560.4219 449.3594,559.8047 Q450.4531,559.1875 451.6875,559.1875 Q452.4219,559.1875 453.0703,559.3516 Q453.7188,559.5156 454.2656,559.875 Z "/><text fill="#000000" font-family="sans-serif" font-size="12" lengthAdjust="spacingAndGlyphs" textLength="20" x="465.5" y="568.9102">Alta</text><line style="stroke: #A80036; stroke-width: 1.5;" x1="437.5" x2="487.5" y1="580" y2="580"/><line style="stroke: #A80036; stroke-width: 1.5;" x1="437.5" x2="487.5" y1="588" y2="588"/><!--class Baja--><rect fill="#FEFECE" filter="url(#f1lyut72miocua)" height="48" id="Baja" style="stroke: #A80036; stroke-width: 1.5;" width="57" x="524" y="548"/><ellipse cx="539" cy="564" fill="#ADD1B2" rx="11" ry="11" style="stroke: #A80036; stroke-width: 1.0;"/><path d="M541.7656,559.875 Q541.9219,559.6563 542.1094,559.5469 Q542.2969,559.4375 542.5156,559.4375 Q542.8906,559.4375 543.125,559.6953 Q543.3594,559.9531 543.3594,560.5625 L543.3594,562.0156 Q543.3594,562.625 543.125,562.8906 Q542.8906,563.1563 542.5156,563.1563 Q542.1719,563.1563 541.9688,562.9531 Q541.7656,562.7656 541.6563,562.25 Q541.6094,561.8906 541.4219,561.7031 Q541.0938,561.3281 540.4844,561.1094 Q539.875,560.8906 539.25,560.8906 Q538.4844,560.8906 537.8516,561.2188 Q537.2188,561.5469 536.7266,562.2969 Q536.2344,563.0469 536.2344,564.0781 L536.2344,565.1719 Q536.2344,566.4063 537.125,567.2266 Q538.0156,568.0469 539.6094,568.0469 Q540.5469,568.0469 541.2031,567.7969 Q541.5938,567.6406 542.0156,567.2031 Q542.2813,566.9375 542.4297,566.8594 Q542.5781,566.7813 542.7813,566.7813 Q543.1094,566.7813 543.3672,567.0391 Q543.625,567.2969 543.625,567.6406 Q543.625,567.9844 543.2813,568.3906 Q542.7813,568.9688 541.9844,569.2969 Q540.9063,569.75 539.6094,569.75 Q538.0938,569.75 536.8906,569.125 Q535.9063,568.625 535.2188,567.5547 Q534.5313,566.4844 534.5313,565.2031 L534.5313,564.0469 Q534.5313,562.7188 535.1484,561.5703 Q535.7656,560.4219 536.8594,559.8047 Q537.9531,559.1875 539.1875,559.1875 Q539.9219,559.1875 540.5703,559.3516 Q541.2188,559.5156 541.7656,559.875 Z "/><text fill="#000000" font-family="sans-serif" font-size="12" lengthAdjust="spacingAndGlyphs" textLength="25" x="553" y="568.9102">Baja</text><line style="stroke: #A80036; stroke-width: 1.5;" x1="525" x2="580" y1="580" y2="580"/><line style="stroke: #A80036; stroke-width: 1.5;" x1="525" x2="580" y1="588" y2="588"/><!--class Modificación--><rect fill="#FEFECE" filter="url(#f1lyut72miocua)" height="48" id="Modificación" style="stroke: #A80036; stroke-width: 1.5;" width="100" x="616.5" y="548"/><ellipse cx="631.5" cy="564" fill="#ADD1B2" rx="11" ry="11" style="stroke: #A80036; stroke-width: 1.0;"/><path d="M634.2656,559.875 Q634.4219,559.6563 634.6094,559.5469 Q634.7969,559.4375 635.0156,559.4375 Q635.3906,559.4375 635.625,559.6953 Q635.8594,559.9531 635.8594,560.5625 L635.8594,562.0156 Q635.8594,562.625 635.625,562.8906 Q635.3906,563.1563 635.0156,563.1563 Q634.6719,563.1563 634.4688,562.9531 Q634.2656,562.7656 634.1563,562.25 Q634.1094,561.8906 633.9219,561.7031 Q633.5938,561.3281 632.9844,561.1094 Q632.375,560.8906 631.75,560.8906 Q630.9844,560.8906 630.3516,561.2188 Q629.7188,561.5469 629.2266,562.2969 Q628.7344,563.0469 628.7344,564.0781 L628.7344,565.1719 Q628.7344,566.4063 629.625,567.2266 Q630.5156,568.0469 632.1094,568.0469 Q633.0469,568.0469 633.7031,567.7969 Q634.0938,567.6406 634.5156,567.2031 Q634.7813,566.9375 634.9297,566.8594 Q635.0781,566.7813 635.2813,566.7813 Q635.6094,566.7813 635.8672,567.0391 Q636.125,567.2969 636.125,567.6406 Q636.125,567.9844 635.7813,568.3906 Q635.2813,568.9688 634.4844,569.2969 Q633.4063,569.75 632.1094,569.75 Q630.5938,569.75 629.3906,569.125 Q628.4063,568.625 627.7188,567.5547 Q627.0313,566.4844 627.0313,565.2031 L627.0313,564.0469 Q627.0313,562.7188 627.6484,561.5703 Q628.2656,560.4219 629.3594,559.8047 Q630.4531,559.1875 631.6875,559.1875 Q632.4219,559.1875 633.0703,559.3516 Q633.7188,559.5156 634.2656,559.875 Z "/><text fill="#000000" font-family="sans-serif" font-size="12" lengthAdjust="spacingAndGlyphs" textLength="68" x="645.5" y="568.9102">Modificación</text><line style="stroke: #A80036; stroke-width: 1.5;" x1="617.5" x2="715.5" y1="580" y2="580"/><line style="stroke: #A80036; stroke-width: 1.5;" x1="617.5" x2="715.5" y1="588" y2="588"/><!--class Consulta--><rect fill="#FEFECE" filter="url(#f1lyut72miocua)" height="48" id="Consulta" style="stroke: #A80036; stroke-width: 1.5;" width="82" x="751.5" y="548"/><ellipse cx="766.5" cy="564" fill="#ADD1B2" rx="11" ry="11" style="stroke: #A80036; stroke-width: 1.0;"/><path d="M769.2656,559.875 Q769.4219,559.6563 769.6094,559.5469 Q769.7969,559.4375 770.0156,559.4375 Q770.3906,559.4375 770.625,559.6953 Q770.8594,559.9531 770.8594,560.5625 L770.8594,562.0156 Q770.8594,562.625 770.625,562.8906 Q770.3906,563.1563 770.0156,563.1563 Q769.6719,563.1563 769.4688,562.9531 Q769.2656,562.7656 769.1563,562.25 Q769.1094,561.8906 768.9219,561.7031 Q768.5938,561.3281 767.9844,561.1094 Q767.375,560.8906 766.75,560.8906 Q765.9844,560.8906 765.3516,561.2188 Q764.7188,561.5469 764.2266,562.2969 Q763.7344,563.0469 763.7344,564.0781 L763.7344,565.1719 Q763.7344,566.4063 764.625,567.2266 Q765.5156,568.0469 767.1094,568.0469 Q768.0469,568.0469 768.7031,567.7969 Q769.0938,567.6406 769.5156,567.2031 Q769.7813,566.9375 769.9297,566.8594 Q770.0781,566.7813 770.2813,566.7813 Q770.6094,566.7813 770.8672,567.0391 Q771.125,567.2969 771.125,567.6406 Q771.125,567.9844 770.7813,568.3906 Q770.2813,568.9688 769.4844,569.2969 Q768.4063,569.75 767.1094,569.75 Q765.5938,569.75 764.3906,569.125 Q763.4063,568.625 762.7188,567.5547 Q762.0313,566.4844 762.0313,565.2031 L762.0313,564.0469 Q762.0313,562.7188 762.6484,561.5703 Q763.2656,560.4219 764.3594,559.8047 Q765.4531,559.1875 766.6875,559.1875 Q767.4219,559.1875 768.0703,559.3516 Q768.7188,559.5156 769.2656,559.875 Z "/><text fill="#000000" font-family="sans-serif" font-size="12" lengthAdjust="spacingAndGlyphs" textLength="50" x="780.5" y="568.9102">Consulta</text><line style="stroke: #A80036; stroke-width: 1.5;" x1="752.5" x2="832.5" y1="580" y2="580"/><line style="stroke: #A80036; stroke-width: 1.5;" x1="752.5" x2="832.5" y1="588" y2="588"/><!--class OrientadoDatos--><rect fill="#FEFECE" filter="url(#f1lyut72miocua)" height="48" id="OrientadoDatos" style="stroke: #A80036; stroke-width: 1.5;" width="119" x="344" y="440"/><ellipse cx="359" cy="456" fill="#ADD1B2" rx="11" ry="11" style="stroke: #A80036; stroke-width: 1.0;"/><path d="M361.7656,451.875 Q361.9219,451.6563 362.1094,451.5469 Q362.2969,451.4375 362.5156,451.4375 Q362.8906,451.4375 363.125,451.6953 Q363.3594,451.9531 363.3594,452.5625 L363.3594,454.0156 Q363.3594,454.625 363.125,454.8906 Q362.8906,455.1563 362.5156,455.1563 Q362.1719,455.1563 361.9688,454.9531 Q361.7656,454.7656 361.6563,454.25 Q361.6094,453.8906 361.4219,453.7031 Q361.0938,453.3281 360.4844,453.1094 Q359.875,452.8906 359.25,452.8906 Q358.4844,452.8906 357.8516,453.2188 Q357.2188,453.5469 356.7266,454.2969 Q356.2344,455.0469 356.2344,456.0781 L356.2344,457.1719 Q356.2344,458.4063 357.125,459.2266 Q358.0156,460.0469 359.6094,460.0469 Q360.5469,460.0469 361.2031,459.7969 Q361.5938,459.6406 362.0156,459.2031 Q362.2813,458.9375 362.4297,458.8594 Q362.5781,458.7813 362.7813,458.7813 Q363.1094,458.7813 363.3672,459.0391 Q363.625,459.2969 363.625,459.6406 Q363.625,459.9844 363.2813,460.3906 Q362.7813,460.9688 361.9844,461.2969 Q360.9063,461.75 359.6094,461.75 Q358.0938,461.75 356.8906,461.125 Q355.9063,460.625 355.2188,459.5547 Q354.5313,458.4844 354.5313,457.2031 L354.5313,456.0469 Q354.5313,454.7188 355.1484,453.5703 Q355.7656,452.4219 356.8594,451.8047 Q357.9531,451.1875 359.1875,451.1875 Q359.9219,451.1875 360.5703,451.3516 Q361.2188,451.5156 361.7656,451.875 Z "/><text fill="#000000" font-family="sans-serif" font-size="12" lengthAdjust="spacingAndGlyphs" textLength="87" x="373" y="460.9102">OrientadoDatos</text><line style="stroke: #A80036; stroke-width: 1.5;" x1="345" x2="462" y1="472" y2="472"/><line style="stroke: #A80036; stroke-width: 1.5;" x1="345" x2="462" y1="480" y2="480"/><!--class OrientadoObjetos--><rect fill="#FEFECE" filter="url(#f1lyut72miocua)" height="48" id="OrientadoObjetos" style="stroke: #A80036; stroke-width: 1.5;" width="129" x="6" y="440"/><ellipse cx="21" cy="456" fill="#ADD1B2" rx="11" ry="11" style="stroke: #A80036; stroke-width: 1.0;"/><path d="M23.7656,451.875 Q23.9219,451.6563 24.1094,451.5469 Q24.2969,451.4375 24.5156,451.4375 Q24.8906,451.4375 25.125,451.6953 Q25.3594,451.9531 25.3594,452.5625 L25.3594,454.0156 Q25.3594,454.625 25.125,454.8906 Q24.8906,455.1563 24.5156,455.1563 Q24.1719,455.1563 23.9688,454.9531 Q23.7656,454.7656 23.6563,454.25 Q23.6094,453.8906 23.4219,453.7031 Q23.0938,453.3281 22.4844,453.1094 Q21.875,452.8906 21.25,452.8906 Q20.4844,452.8906 19.8516,453.2188 Q19.2188,453.5469 18.7266,454.2969 Q18.2344,455.0469 18.2344,456.0781 L18.2344,457.1719 Q18.2344,458.4063 19.125,459.2266 Q20.0156,460.0469 21.6094,460.0469 Q22.5469,460.0469 23.2031,459.7969 Q23.5938,459.6406 24.0156,459.2031 Q24.2813,458.9375 24.4297,458.8594 Q24.5781,458.7813 24.7813,458.7813 Q25.1094,458.7813 25.3672,459.0391 Q25.625,459.2969 25.625,459.6406 Q25.625,459.9844 25.2813,460.3906 Q24.7813,460.9688 23.9844,461.2969 Q22.9063,461.75 21.6094,461.75 Q20.0938,461.75 18.8906,461.125 Q17.9063,460.625 17.2188,459.5547 Q16.5313,458.4844 16.5313,457.2031 L16.5313,456.0469 Q16.5313,454.7188 17.1484,453.5703 Q17.7656,452.4219 18.8594,451.8047 Q19.9531,451.1875 21.1875,451.1875 Q21.9219,451.1875 22.5703,451.3516 Q23.2188,451.5156 23.7656,451.875 Z "/><text fill="#000000" font-family="sans-serif" font-size="12" lengthAdjust="spacingAndGlyphs" textLength="97" x="35" y="460.9102">OrientadoObjetos</text><line style="stroke: #A80036; stroke-width: 1.5;" x1="7" x2="134" y1="472" y2="472"/><line style="stroke: #A80036; stroke-width: 1.5;" x1="7" x2="134" y1="480" y2="480"/><!--class OrientadoProcesos--><rect fill="#FEFECE" filter="url(#f1lyut72miocua)" height="48" id="OrientadoProcesos" style="stroke: #A80036; stroke-width: 1.5;" width="139" x="170" y="440"/><ellipse cx="185" cy="456" fill="#ADD1B2" rx="11" ry="11" style="stroke: #A80036; stroke-width: 1.0;"/><path d="M187.7656,451.875 Q187.9219,451.6563 188.1094,451.5469 Q188.2969,451.4375 188.5156,451.4375 Q188.8906,451.4375 189.125,451.6953 Q189.3594,451.9531 189.3594,452.5625 L189.3594,454.0156 Q189.3594,454.625 189.125,454.8906 Q188.8906,455.1563 188.5156,455.1563 Q188.1719,455.1563 187.9688,454.9531 Q187.7656,454.7656 187.6563,454.25 Q187.6094,453.8906 187.4219,453.7031 Q187.0938,453.3281 186.4844,453.1094 Q185.875,452.8906 185.25,452.8906 Q184.4844,452.8906 183.8516,453.2188 Q183.2188,453.5469 182.7266,454.2969 Q182.2344,455.0469 182.2344,456.0781 L182.2344,457.1719 Q182.2344,458.4063 183.125,459.2266 Q184.0156,460.0469 185.6094,460.0469 Q186.5469,460.0469 187.2031,459.7969 Q187.5938,459.6406 188.0156,459.2031 Q188.2813,458.9375 188.4297,458.8594 Q188.5781,458.7813 188.7813,458.7813 Q189.1094,458.7813 189.3672,459.0391 Q189.625,459.2969 189.625,459.6406 Q189.625,459.9844 189.2813,460.3906 Q188.7813,460.9688 187.9844,461.2969 Q186.9063,461.75 185.6094,461.75 Q184.0938,461.75 182.8906,461.125 Q181.9063,460.625 181.2188,459.5547 Q180.5313,458.4844 180.5313,457.2031 L180.5313,456.0469 Q180.5313,454.7188 181.1484,453.5703 Q181.7656,452.4219 182.8594,451.8047 Q183.9531,451.1875 185.1875,451.1875 Q185.9219,451.1875 186.5703,451.3516 Q187.2188,451.5156 187.7656,451.875 Z "/><text fill="#000000" font-family="sans-serif" font-size="12" lengthAdjust="spacingAndGlyphs" textLength="107" x="199" y="460.9102">OrientadoProcesos</text><line style="stroke: #A80036; stroke-width: 1.5;" x1="171" x2="308" y1="472" y2="472"/><line style="stroke: #A80036; stroke-width: 1.5;" x1="171" x2="308" y1="480" y2="480"/><!--class Desarrollador--><rect fill="#FEFECE" filter="url(#f1lyut72miocua)" height="48" id="Desarrollador" style="stroke: #A80036; stroke-width: 1.5;" width="108" x="480.5" y="116"/><ellipse cx="495.5" cy="132" fill="#ADD1B2" rx="11" ry="11" style="stroke: #A80036; stroke-width: 1.0;"/><path d="M498.2656,127.875 Q498.4219,127.6563 498.6094,127.5469 Q498.7969,127.4375 499.0156,127.4375 Q499.3906,127.4375 499.625,127.6953 Q499.8594,127.9531 499.8594,128.5625 L499.8594,130.0156 Q499.8594,130.625 499.625,130.8906 Q499.3906,131.1563 499.0156,131.1563 Q498.6719,131.1563 498.4688,130.9531 Q498.2656,130.7656 498.1563,130.25 Q498.1094,129.8906 497.9219,129.7031 Q497.5938,129.3281 496.9844,129.1094 Q496.375,128.8906 495.75,128.8906 Q494.9844,128.8906 494.3516,129.2188 Q493.7188,129.5469 493.2266,130.2969 Q492.7344,131.0469 492.7344,132.0781 L492.7344,133.1719 Q492.7344,134.4063 493.625,135.2266 Q494.5156,136.0469 496.1094,136.0469 Q497.0469,136.0469 497.7031,135.7969 Q498.0938,135.6406 498.5156,135.2031 Q498.7813,134.9375 498.9297,134.8594 Q499.0781,134.7813 499.2813,134.7813 Q499.6094,134.7813 499.8672,135.0391 Q500.125,135.2969 500.125,135.6406 Q500.125,135.9844 499.7813,136.3906 Q499.2813,136.9688 498.4844,137.2969 Q497.4063,137.75 496.1094,137.75 Q494.5938,137.75 493.3906,137.125 Q492.4063,136.625 491.7188,135.5547 Q491.0313,134.4844 491.0313,133.2031 L491.0313,132.0469 Q491.0313,130.7188 491.6484,129.5703 Q492.2656,128.4219 493.3594,127.8047 Q494.4531,127.1875 495.6875,127.1875 Q496.4219,127.1875 497.0703,127.3516 Q497.7188,127.5156 498.2656,127.875 Z "/><text fill="#000000" font-family="sans-serif" font-size="12" lengthAdjust="spacingAndGlyphs" textLength="76" x="509.5" y="136.9102">Desarrollador</text><line style="stroke: #A80036; stroke-width: 1.5;" x1="481.5" x2="587.5" y1="148" y2="148"/><line style="stroke: #A80036; stroke-width: 1.5;" x1="481.5" x2="587.5" y1="156" y2="156"/><!--class ProeyectoSoftware--><rect fill="#FEFECE" filter="url(#f1lyut72miocua)" height="48" id="ProeyectoSoftware" style="stroke: #A80036; stroke-width: 1.5;" width="134" x="720.5" y="8"/><ellipse cx="735.5" cy="24" fill="#ADD1B2" rx="11" ry="11" style="stroke: #A80036; stroke-width: 1.0;"/><path d="M738.2656,19.875 Q738.4219,19.6563 738.6094,19.5469 Q738.7969,19.4375 739.0156,19.4375 Q739.3906,19.4375 739.625,19.6953 Q739.8594,19.9531 739.8594,20.5625 L739.8594,22.0156 Q739.8594,22.625 739.625,22.8906 Q739.3906,23.1563 739.0156,23.1563 Q738.6719,23.1563 738.4688,22.9531 Q738.2656,22.7656 738.1563,22.25 Q738.1094,21.8906 737.9219,21.7031 Q737.5938,21.3281 736.9844,21.1094 Q736.375,20.8906 735.75,20.8906 Q734.9844,20.8906 734.3516,21.2188 Q733.7188,21.5469 733.2266,22.2969 Q732.7344,23.0469 732.7344,24.0781 L732.7344,25.1719 Q732.7344,26.4063 733.625,27.2266 Q734.5156,28.0469 736.1094,28.0469 Q737.0469,28.0469 737.7031,27.7969 Q738.0938,27.6406 738.5156,27.2031 Q738.7813,26.9375 738.9297,26.8594 Q739.0781,26.7813 739.2813,26.7813 Q739.6094,26.7813 739.8672,27.0391 Q740.125,27.2969 740.125,27.6406 Q740.125,27.9844 739.7813,28.3906 Q739.2813,28.9688 738.4844,29.2969 Q737.4063,29.75 736.1094,29.75 Q734.5938,29.75 733.3906,29.125 Q732.4063,28.625 731.7188,27.5547 Q731.0313,26.4844 731.0313,25.2031 L731.0313,24.0469 Q731.0313,22.7188 731.6484,21.5703 Q732.2656,20.4219 733.3594,19.8047 Q734.4531,19.1875 735.6875,19.1875 Q736.4219,19.1875 737.0703,19.3516 Q737.7188,19.5156 738.2656,19.875 Z "/><text fill="#000000" font-family="sans-serif" font-size="12" lengthAdjust="spacingAndGlyphs" textLength="102" x="749.5" y="28.9102">ProeyectoSoftware</text><line style="stroke: #A80036; stroke-width: 1.5;" x1="721.5" x2="853.5" y1="40" y2="40"/><line style="stroke: #A80036; stroke-width: 1.5;" x1="721.5" x2="853.5" y1="48" y2="48"/><!--class Cliente--><rect fill="#FEFECE" filter="url(#f1lyut72miocua)" height="48" id="Cliente" style="stroke: #A80036; stroke-width: 1.5;" width="71" x="877" y="116"/><ellipse cx="892" cy="132" fill="#ADD1B2" rx="11" ry="11" style="stroke: #A80036; stroke-width: 1.0;"/><path d="M894.7656,127.875 Q894.9219,127.6563 895.1094,127.5469 Q895.2969,127.4375 895.5156,127.4375 Q895.8906,127.4375 896.125,127.6953 Q896.3594,127.9531 896.3594,128.5625 L896.3594,130.0156 Q896.3594,130.625 896.125,130.8906 Q895.8906,131.1563 895.5156,131.1563 Q895.1719,131.1563 894.9688,130.9531 Q894.7656,130.7656 894.6563,130.25 Q894.6094,129.8906 894.4219,129.7031 Q894.0938,129.3281 893.4844,129.1094 Q892.875,128.8906 892.25,128.8906 Q891.4844,128.8906 890.8516,129.2188 Q890.2188,129.5469 889.7266,130.2969 Q889.2344,131.0469 889.2344,132.0781 L889.2344,133.1719 Q889.2344,134.4063 890.125,135.2266 Q891.0156,136.0469 892.6094,136.0469 Q893.5469,136.0469 894.2031,135.7969 Q894.5938,135.6406 895.0156,135.2031 Q895.2813,134.9375 895.4297,134.8594 Q895.5781,134.7813 895.7813,134.7813 Q896.1094,134.7813 896.3672,135.0391 Q896.625,135.2969 896.625,135.6406 Q896.625,135.9844 896.2813,136.3906 Q895.7813,136.9688 894.9844,137.2969 Q893.9063,137.75 892.6094,137.75 Q891.0938,137.75 889.8906,137.125 Q888.9063,136.625 888.2188,135.5547 Q887.5313,134.4844 887.5313,133.2031 L887.5313,132.0469 Q887.5313,130.7188 888.1484,129.5703 Q888.7656,128.4219 889.8594,127.8047 Q890.9531,127.1875 892.1875,127.1875 Q892.9219,127.1875 893.5703,127.3516 Q894.2188,127.5156 894.7656,127.875 Z "/><text fill="#000000" font-family="sans-serif" font-size="12" lengthAdjust="spacingAndGlyphs" textLength="39" x="906" y="136.9102">Cliente</text><line style="stroke: #A80036; stroke-width: 1.5;" x1="878" x2="947" y1="148" y2="148"/><line style="stroke: #A80036; stroke-width: 1.5;" x1="878" x2="947" y1="156" y2="156"/><!--class Usuario--><rect fill="#FEFECE" filter="url(#f1lyut72miocua)" height="48" id="Usuario" style="stroke: #A80036; stroke-width: 1.5;" width="76" x="623.5" y="116"/><ellipse cx="638.5" cy="132" fill="#ADD1B2" rx="11" ry="11" style="stroke: #A80036; stroke-width: 1.0;"/><path d="M641.2656,127.875 Q641.4219,127.6563 641.6094,127.5469 Q641.7969,127.4375 642.0156,127.4375 Q642.3906,127.4375 642.625,127.6953 Q642.8594,127.9531 642.8594,128.5625 L642.8594,130.0156 Q642.8594,130.625 642.625,130.8906 Q642.3906,131.1563 642.0156,131.1563 Q641.6719,131.1563 641.4688,130.9531 Q641.2656,130.7656 641.1563,130.25 Q641.1094,129.8906 640.9219,129.7031 Q640.5938,129.3281 639.9844,129.1094 Q639.375,128.8906 638.75,128.8906 Q637.9844,128.8906 637.3516,129.2188 Q636.7188,129.5469 636.2266,130.2969 Q635.7344,131.0469 635.7344,132.0781 L635.7344,133.1719 Q635.7344,134.4063 636.625,135.2266 Q637.5156,136.0469 639.1094,136.0469 Q640.0469,136.0469 640.7031,135.7969 Q641.0938,135.6406 641.5156,135.2031 Q641.7813,134.9375 641.9297,134.8594 Q642.0781,134.7813 642.2813,134.7813 Q642.6094,134.7813 642.8672,135.0391 Q643.125,135.2969 643.125,135.6406 Q643.125,135.9844 642.7813,136.3906 Q642.2813,136.9688 641.4844,137.2969 Q640.4063,137.75 639.1094,137.75 Q637.5938,137.75 636.3906,137.125 Q635.4063,136.625 634.7188,135.5547 Q634.0313,134.4844 634.0313,133.2031 L634.0313,132.0469 Q634.0313,130.7188 634.6484,129.5703 Q635.2656,128.4219 636.3594,127.8047 Q637.4531,127.1875 638.6875,127.1875 Q639.4219,127.1875 640.0703,127.3516 Q640.7188,127.5156 641.2656,127.875 Z "/><text fill="#000000" font-family="sans-serif" font-size="12" lengthAdjust="spacingAndGlyphs" textLength="44" x="652.5" y="136.9102">Usuario</text><line style="stroke: #A80036; stroke-width: 1.5;" x1="624.5" x2="698.5" y1="148" y2="148"/><line style="stroke: #A80036; stroke-width: 1.5;" x1="624.5" x2="698.5" y1="156" y2="156"/><!--class Ámbito--><rect fill="#FEFECE" filter="url(#f1lyut72miocua)" height="48" id="Ámbito" style="stroke: #A80036; stroke-width: 1.5;" width="70" x="717.5" y="224"/><ellipse cx="732.5" cy="240" fill="#ADD1B2" rx="11" ry="11" style="stroke: #A80036; stroke-width: 1.0;"/><path d="M735.2656,235.875 Q735.4219,235.6563 735.6094,235.5469 Q735.7969,235.4375 736.0156,235.4375 Q736.3906,235.4375 736.625,235.6953 Q736.8594,235.9531 736.8594,236.5625 L736.8594,238.0156 Q736.8594,238.625 736.625,238.8906 Q736.3906,239.1563 736.0156,239.1563 Q735.6719,239.1563 735.4688,238.9531 Q735.2656,238.7656 735.1563,238.25 Q735.1094,237.8906 734.9219,237.7031 Q734.5938,237.3281 733.9844,237.1094 Q733.375,236.8906 732.75,236.8906 Q731.9844,236.8906 731.3516,237.2188 Q730.7188,237.5469 730.2266,238.2969 Q729.7344,239.0469 729.7344,240.0781 L729.7344,241.1719 Q729.7344,242.4063 730.625,243.2266 Q731.5156,244.0469 733.1094,244.0469 Q734.0469,244.0469 734.7031,243.7969 Q735.0938,243.6406 735.5156,243.2031 Q735.7813,242.9375 735.9297,242.8594 Q736.0781,242.7813 736.2813,242.7813 Q736.6094,242.7813 736.8672,243.0391 Q737.125,243.2969 737.125,243.6406 Q737.125,243.9844 736.7813,244.3906 Q736.2813,244.9688 735.4844,245.2969 Q734.4063,245.75 733.1094,245.75 Q731.5938,245.75 730.3906,245.125 Q729.4063,244.625 728.7188,243.5547 Q728.0313,242.4844 728.0313,241.2031 L728.0313,240.0469 Q728.0313,238.7188 728.6484,237.5703 Q729.2656,236.4219 730.3594,235.8047 Q731.4531,235.1875 732.6875,235.1875 Q733.4219,235.1875 734.0703,235.3516 Q734.7188,235.5156 735.2656,235.875 Z "/><text fill="#000000" font-family="sans-serif" font-size="12" lengthAdjust="spacingAndGlyphs" textLength="38" x="746.5" y="244.9102">Ámbito</text><line style="stroke: #A80036; stroke-width: 1.5;" x1="718.5" x2="786.5" y1="256" y2="256"/><line style="stroke: #A80036; stroke-width: 1.5;" x1="718.5" x2="786.5" y1="264" y2="264"/><!--class Coste--><rect fill="#FEFECE" filter="url(#f1lyut72miocua)" height="48" id="Coste" style="stroke: #A80036; stroke-width: 1.5;" width="65" x="845" y="224"/><ellipse cx="860" cy="240" fill="#ADD1B2" rx="11" ry="11" style="stroke: #A80036; stroke-width: 1.0;"/><path d="M862.7656,235.875 Q862.9219,235.6563 863.1094,235.5469 Q863.2969,235.4375 863.5156,235.4375 Q863.8906,235.4375 864.125,235.6953 Q864.3594,235.9531 864.3594,236.5625 L864.3594,238.0156 Q864.3594,238.625 864.125,238.8906 Q863.8906,239.1563 863.5156,239.1563 Q863.1719,239.1563 862.9688,238.9531 Q862.7656,238.7656 862.6563,238.25 Q862.6094,237.8906 862.4219,237.7031 Q862.0938,237.3281 861.4844,237.1094 Q860.875,236.8906 860.25,236.8906 Q859.4844,236.8906 858.8516,237.2188 Q858.2188,237.5469 857.7266,238.2969 Q857.2344,239.0469 857.2344,240.0781 L857.2344,241.1719 Q857.2344,242.4063 858.125,243.2266 Q859.0156,244.0469 860.6094,244.0469 Q861.5469,244.0469 862.2031,243.7969 Q862.5938,243.6406 863.0156,243.2031 Q863.2813,242.9375 863.4297,242.8594 Q863.5781,242.7813 863.7813,242.7813 Q864.1094,242.7813 864.3672,243.0391 Q864.625,243.2969 864.625,243.6406 Q864.625,243.9844 864.2813,244.3906 Q863.7813,244.9688 862.9844,245.2969 Q861.9063,245.75 860.6094,245.75 Q859.0938,245.75 857.8906,245.125 Q856.9063,244.625 856.2188,243.5547 Q855.5313,242.4844 855.5313,241.2031 L855.5313,240.0469 Q855.5313,238.7188 856.1484,237.5703 Q856.7656,236.4219 857.8594,235.8047 Q858.9531,235.1875 860.1875,235.1875 Q860.9219,235.1875 861.5703,235.3516 Q862.2188,235.5156 862.7656,235.875 Z "/><text fill="#000000" font-family="sans-serif" font-size="12" lengthAdjust="spacingAndGlyphs" textLength="33" x="874" y="244.9102">Coste</text><line style="stroke: #A80036; stroke-width: 1.5;" x1="846" x2="909" y1="256" y2="256"/><line style="stroke: #A80036; stroke-width: 1.5;" x1="846" x2="909" y1="264" y2="264"/><!--class Tiempo--><rect fill="#FEFECE" filter="url(#f1lyut72miocua)" height="48" id="Tiempo" style="stroke: #A80036; stroke-width: 1.5;" width="74" x="945.5" y="224"/><ellipse cx="960.5" cy="240" fill="#ADD1B2" rx="11" ry="11" style="stroke: #A80036; stroke-width: 1.0;"/><path d="M963.2656,235.875 Q963.4219,235.6563 963.6094,235.5469 Q963.7969,235.4375 964.0156,235.4375 Q964.3906,235.4375 964.625,235.6953 Q964.8594,235.9531 964.8594,236.5625 L964.8594,238.0156 Q964.8594,238.625 964.625,238.8906 Q964.3906,239.1563 964.0156,239.1563 Q963.6719,239.1563 963.4688,238.9531 Q963.2656,238.7656 963.1563,238.25 Q963.1094,237.8906 962.9219,237.7031 Q962.5938,237.3281 961.9844,237.1094 Q961.375,236.8906 960.75,236.8906 Q959.9844,236.8906 959.3516,237.2188 Q958.7188,237.5469 958.2266,238.2969 Q957.7344,239.0469 957.7344,240.0781 L957.7344,241.1719 Q957.7344,242.4063 958.625,243.2266 Q959.5156,244.0469 961.1094,244.0469 Q962.0469,244.0469 962.7031,243.7969 Q963.0938,243.6406 963.5156,243.2031 Q963.7813,242.9375 963.9297,242.8594 Q964.0781,242.7813 964.2813,242.7813 Q964.6094,242.7813 964.8672,243.0391 Q965.125,243.2969 965.125,243.6406 Q965.125,243.9844 964.7813,244.3906 Q964.2813,244.9688 963.4844,245.2969 Q962.4063,245.75 961.1094,245.75 Q959.5938,245.75 958.3906,245.125 Q957.4063,244.625 956.7188,243.5547 Q956.0313,242.4844 956.0313,241.2031 L956.0313,240.0469 Q956.0313,238.7188 956.6484,237.5703 Q957.2656,236.4219 958.3594,235.8047 Q959.4531,235.1875 960.6875,235.1875 Q961.4219,235.1875 962.0703,235.3516 Q962.7188,235.5156 963.2656,235.875 Z "/><text fill="#000000" font-family="sans-serif" font-size="12" lengthAdjust="spacingAndGlyphs" textLength="42" x="974.5" y="244.9102">Tiempo</text><line style="stroke: #A80036; stroke-width: 1.5;" x1="946.5" x2="1018.5" y1="256" y2="256"/><line style="stroke: #A80036; stroke-width: 1.5;" x1="946.5" x2="1018.5" y1="264" y2="264"/><!--class Calidad--><rect fill="#FEFECE" filter="url(#f1lyut72miocua)" height="48" id="Calidad" style="stroke: #A80036; stroke-width: 1.5;" width="75" x="945" y="440"/><ellipse cx="960" cy="456" fill="#ADD1B2" rx="11" ry="11" style="stroke: #A80036; stroke-width: 1.0;"/><path d="M962.7656,451.875 Q962.9219,451.6563 963.1094,451.5469 Q963.2969,451.4375 963.5156,451.4375 Q963.8906,451.4375 964.125,451.6953 Q964.3594,451.9531 964.3594,452.5625 L964.3594,454.0156 Q964.3594,454.625 964.125,454.8906 Q963.8906,455.1563 963.5156,455.1563 Q963.1719,455.1563 962.9688,454.9531 Q962.7656,454.7656 962.6563,454.25 Q962.6094,453.8906 962.4219,453.7031 Q962.0938,453.3281 961.4844,453.1094 Q960.875,452.8906 960.25,452.8906 Q959.4844,452.8906 958.8516,453.2188 Q958.2188,453.5469 957.7266,454.2969 Q957.2344,455.0469 957.2344,456.0781 L957.2344,457.1719 Q957.2344,458.4063 958.125,459.2266 Q959.0156,460.0469 960.6094,460.0469 Q961.5469,460.0469 962.2031,459.7969 Q962.5938,459.6406 963.0156,459.2031 Q963.2813,458.9375 963.4297,458.8594 Q963.5781,458.7813 963.7813,458.7813 Q964.1094,458.7813 964.3672,459.0391 Q964.625,459.2969 964.625,459.6406 Q964.625,459.9844 964.2813,460.3906 Q963.7813,460.9688 962.9844,461.2969 Q961.9063,461.75 960.6094,461.75 Q959.0938,461.75 957.8906,461.125 Q956.9063,460.625 956.2188,459.5547 Q955.5313,458.4844 955.5313,457.2031 L955.5313,456.0469 Q955.5313,454.7188 956.1484,453.5703 Q956.7656,452.4219 957.8594,451.8047 Q958.9531,451.1875 960.1875,451.1875 Q960.9219,451.1875 961.5703,451.3516 Q962.2188,451.5156 962.7656,451.875 Z "/><text fill="#000000" font-family="sans-serif" font-size="12" lengthAdjust="spacingAndGlyphs" textLength="43" x="974" y="460.9102">Calidad</text><line style="stroke: #A80036; stroke-width: 1.5;" x1="946" x2="1019" y1="472" y2="472"/><line style="stroke: #A80036; stroke-width: 1.5;" x1="946" x2="1019" y1="480" y2="480"/><!--class Mantenimiento--><rect fill="#FEFECE" filter="url(#f1lyut72miocua)" height="48" id="Mantenimiento" style="stroke: #A80036; stroke-width: 1.5;" width="113" x="163" y="548"/><ellipse cx="178" cy="564" fill="#ADD1B2" rx="11" ry="11" style="stroke: #A80036; stroke-width: 1.0;"/><path d="M180.7656,559.875 Q180.9219,559.6563 181.1094,559.5469 Q181.2969,559.4375 181.5156,559.4375 Q181.8906,559.4375 182.125,559.6953 Q182.3594,559.9531 182.3594,560.5625 L182.3594,562.0156 Q182.3594,562.625 182.125,562.8906 Q181.8906,563.1563 181.5156,563.1563 Q181.1719,563.1563 180.9688,562.9531 Q180.7656,562.7656 180.6563,562.25 Q180.6094,561.8906 180.4219,561.7031 Q180.0938,561.3281 179.4844,561.1094 Q178.875,560.8906 178.25,560.8906 Q177.4844,560.8906 176.8516,561.2188 Q176.2188,561.5469 175.7266,562.2969 Q175.2344,563.0469 175.2344,564.0781 L175.2344,565.1719 Q175.2344,566.4063 176.125,567.2266 Q177.0156,568.0469 178.6094,568.0469 Q179.5469,568.0469 180.2031,567.7969 Q180.5938,567.6406 181.0156,567.2031 Q181.2813,566.9375 181.4297,566.8594 Q181.5781,566.7813 181.7813,566.7813 Q182.1094,566.7813 182.3672,567.0391 Q182.625,567.2969 182.625,567.6406 Q182.625,567.9844 182.2813,568.3906 Q181.7813,568.9688 180.9844,569.2969 Q179.9063,569.75 178.6094,569.75 Q177.0938,569.75 175.8906,569.125 Q174.9063,568.625 174.2188,567.5547 Q173.5313,566.4844 173.5313,565.2031 L173.5313,564.0469 Q173.5313,562.7188 174.1484,561.5703 Q174.7656,560.4219 175.8594,559.8047 Q176.9531,559.1875 178.1875,559.1875 Q178.9219,559.1875 179.5703,559.3516 Q180.2188,559.5156 180.7656,559.875 Z "/><text fill="#000000" font-family="sans-serif" font-size="12" lengthAdjust="spacingAndGlyphs" textLength="81" x="192" y="568.9102">Mantenimiento</text><line style="stroke: #A80036; stroke-width: 1.5;" x1="164" x2="275" y1="580" y2="580"/><line style="stroke: #A80036; stroke-width: 1.5;" x1="164" x2="275" y1="588" y2="588"/><!--class Viscosidad--><rect fill="#FEFECE" filter="url(#f1lyut72miocua)" height="48" id="Viscosidad" style="stroke: #A80036; stroke-width: 1.5;" width="93" x="1300" y="548"/><ellipse cx="1315" cy="564" fill="#ADD1B2" rx="11" ry="11" style="stroke: #A80036; stroke-width: 1.0;"/><path d="M1317.7656,559.875 Q1317.9219,559.6563 1318.1094,559.5469 Q1318.2969,559.4375 1318.5156,559.4375 Q1318.8906,559.4375 1319.125,559.6953 Q1319.3594,559.9531 1319.3594,560.5625 L1319.3594,562.0156 Q1319.3594,562.625 1319.125,562.8906 Q1318.8906,563.1563 1318.5156,563.1563 Q1318.1719,563.1563 1317.9688,562.9531 Q1317.7656,562.7656 1317.6563,562.25 Q1317.6094,561.8906 1317.4219,561.7031 Q1317.0938,561.3281 1316.4844,561.1094 Q1315.875,560.8906 1315.25,560.8906 Q1314.4844,560.8906 1313.8516,561.2188 Q1313.2188,561.5469 1312.7266,562.2969 Q1312.2344,563.0469 1312.2344,564.0781 L1312.2344,565.1719 Q1312.2344,566.4063 1313.125,567.2266 Q1314.0156,568.0469 1315.6094,568.0469 Q1316.5469,568.0469 1317.2031,567.7969 Q1317.5938,567.6406 1318.0156,567.2031 Q1318.2813,566.9375 1318.4297,566.8594 Q1318.5781,566.7813 1318.7813,566.7813 Q1319.1094,566.7813 1319.3672,567.0391 Q1319.625,567.2969 1319.625,567.6406 Q1319.625,567.9844 1319.2813,568.3906 Q1318.7813,568.9688 1317.9844,569.2969 Q1316.9063,569.75 1315.6094,569.75 Q1314.0938,569.75 1312.8906,569.125 Q1311.9063,568.625 1311.2188,567.5547 Q1310.5313,566.4844 1310.5313,565.2031 L1310.5313,564.0469 Q1310.5313,562.7188 1311.1484,561.5703 Q1311.7656,560.4219 1312.8594,559.8047 Q1313.9531,559.1875 1315.1875,559.1875 Q1315.9219,559.1875 1316.5703,559.3516 Q1317.2188,559.5156 1317.7656,559.875 Z "/><text fill="#000000" font-family="sans-serif" font-size="12" lengthAdjust="spacingAndGlyphs" textLength="61" x="1329" y="568.9102">Viscosidad</text><line style="stroke: #A80036; stroke-width: 1.5;" x1="1301" x2="1392" y1="580" y2="580"/><line style="stroke: #A80036; stroke-width: 1.5;" x1="1301" x2="1392" y1="588" y2="588"/><!--class Rigidez--><rect fill="#FEFECE" filter="url(#f1lyut72miocua)" height="48" id="Rigidez" style="stroke: #A80036; stroke-width: 1.5;" width="73" x="940" y="548"/><ellipse cx="955" cy="564" fill="#ADD1B2" rx="11" ry="11" style="stroke: #A80036; stroke-width: 1.0;"/><path d="M957.7656,559.875 Q957.9219,559.6563 958.1094,559.5469 Q958.2969,559.4375 958.5156,559.4375 Q958.8906,559.4375 959.125,559.6953 Q959.3594,559.9531 959.3594,560.5625 L959.3594,562.0156 Q959.3594,562.625 959.125,562.8906 Q958.8906,563.1563 958.5156,563.1563 Q958.1719,563.1563 957.9688,562.9531 Q957.7656,562.7656 957.6563,562.25 Q957.6094,561.8906 957.4219,561.7031 Q957.0938,561.3281 956.4844,561.1094 Q955.875,560.8906 955.25,560.8906 Q954.4844,560.8906 953.8516,561.2188 Q953.2188,561.5469 952.7266,562.2969 Q952.2344,563.0469 952.2344,564.0781 L952.2344,565.1719 Q952.2344,566.4063 953.125,567.2266 Q954.0156,568.0469 955.6094,568.0469 Q956.5469,568.0469 957.2031,567.7969 Q957.5938,567.6406 958.0156,567.2031 Q958.2813,566.9375 958.4297,566.8594 Q958.5781,566.7813 958.7813,566.7813 Q959.1094,566.7813 959.3672,567.0391 Q959.625,567.2969 959.625,567.6406 Q959.625,567.9844 959.2813,568.3906 Q958.7813,568.9688 957.9844,569.2969 Q956.9063,569.75 955.6094,569.75 Q954.0938,569.75 952.8906,569.125 Q951.9063,568.625 951.2188,567.5547 Q950.5313,566.4844 950.5313,565.2031 L950.5313,564.0469 Q950.5313,562.7188 951.1484,561.5703 Q951.7656,560.4219 952.8594,559.8047 Q953.9531,559.1875 955.1875,559.1875 Q955.9219,559.1875 956.5703,559.3516 Q957.2188,559.5156 957.7656,559.875 Z "/><text fill="#000000" font-family="sans-serif" font-size="12" lengthAdjust="spacingAndGlyphs" textLength="41" x="969" y="568.9102">Rigidez</text><line style="stroke: #A80036; stroke-width: 1.5;" x1="941" x2="1012" y1="580" y2="580"/><line style="stroke: #A80036; stroke-width: 1.5;" x1="941" x2="1012" y1="588" y2="588"/><!--class Fragilidad--><rect fill="#FEFECE" filter="url(#f1lyut72miocua)" height="48" id="Fragilidad" style="stroke: #A80036; stroke-width: 1.5;" width="87" x="1048" y="548"/><ellipse cx="1063" cy="564" fill="#ADD1B2" rx="11" ry="11" style="stroke: #A80036; stroke-width: 1.0;"/><path d="M1065.7656,559.875 Q1065.9219,559.6563 1066.1094,559.5469 Q1066.2969,559.4375 1066.5156,559.4375 Q1066.8906,559.4375 1067.125,559.6953 Q1067.3594,559.9531 1067.3594,560.5625 L1067.3594,562.0156 Q1067.3594,562.625 1067.125,562.8906 Q1066.8906,563.1563 1066.5156,563.1563 Q1066.1719,563.1563 1065.9688,562.9531 Q1065.7656,562.7656 1065.6563,562.25 Q1065.6094,561.8906 1065.4219,561.7031 Q1065.0938,561.3281 1064.4844,561.1094 Q1063.875,560.8906 1063.25,560.8906 Q1062.4844,560.8906 1061.8516,561.2188 Q1061.2188,561.5469 1060.7266,562.2969 Q1060.2344,563.0469 1060.2344,564.0781 L1060.2344,565.1719 Q1060.2344,566.4063 1061.125,567.2266 Q1062.0156,568.0469 1063.6094,568.0469 Q1064.5469,568.0469 1065.2031,567.7969 Q1065.5938,567.6406 1066.0156,567.2031 Q1066.2813,566.9375 1066.4297,566.8594 Q1066.5781,566.7813 1066.7813,566.7813 Q1067.1094,566.7813 1067.3672,567.0391 Q1067.625,567.2969 1067.625,567.6406 Q1067.625,567.9844 1067.2813,568.3906 Q1066.7813,568.9688 1065.9844,569.2969 Q1064.9063,569.75 1063.6094,569.75 Q1062.0938,569.75 1060.8906,569.125 Q1059.9063,568.625 1059.2188,567.5547 Q1058.5313,566.4844 1058.5313,565.2031 L1058.5313,564.0469 Q1058.5313,562.7188 1059.1484,561.5703 Q1059.7656,560.4219 1060.8594,559.8047 Q1061.9531,559.1875 1063.1875,559.1875 Q1063.9219,559.1875 1064.5703,559.3516 Q1065.2188,559.5156 1065.7656,559.875 Z "/><text fill="#000000" font-family="sans-serif" font-size="12" lengthAdjust="spacingAndGlyphs" textLength="55" x="1077" y="568.9102">Fragilidad</text><line style="stroke: #A80036; stroke-width: 1.5;" x1="1049" x2="1134" y1="580" y2="580"/><line style="stroke: #A80036; stroke-width: 1.5;" x1="1049" x2="1134" y1="588" y2="588"/><!--class Inmovilidad--><rect fill="#FEFECE" filter="url(#f1lyut72miocua)" height="48" id="Inmovilidad" style="stroke: #A80036; stroke-width: 1.5;" width="95" x="1170" y="548"/><ellipse cx="1185" cy="564" fill="#ADD1B2" rx="11" ry="11" style="stroke: #A80036; stroke-width: 1.0;"/><path d="M1187.7656,559.875 Q1187.9219,559.6563 1188.1094,559.5469 Q1188.2969,559.4375 1188.5156,559.4375 Q1188.8906,559.4375 1189.125,559.6953 Q1189.3594,559.9531 1189.3594,560.5625 L1189.3594,562.0156 Q1189.3594,562.625 1189.125,562.8906 Q1188.8906,563.1563 1188.5156,563.1563 Q1188.1719,563.1563 1187.9688,562.9531 Q1187.7656,562.7656 1187.6563,562.25 Q1187.6094,561.8906 1187.4219,561.7031 Q1187.0938,561.3281 1186.4844,561.1094 Q1185.875,560.8906 1185.25,560.8906 Q1184.4844,560.8906 1183.8516,561.2188 Q1183.2188,561.5469 1182.7266,562.2969 Q1182.2344,563.0469 1182.2344,564.0781 L1182.2344,565.1719 Q1182.2344,566.4063 1183.125,567.2266 Q1184.0156,568.0469 1185.6094,568.0469 Q1186.5469,568.0469 1187.2031,567.7969 Q1187.5938,567.6406 1188.0156,567.2031 Q1188.2813,566.9375 1188.4297,566.8594 Q1188.5781,566.7813 1188.7813,566.7813 Q1189.1094,566.7813 1189.3672,567.0391 Q1189.625,567.2969 1189.625,567.6406 Q1189.625,567.9844 1189.2813,568.3906 Q1188.7813,568.9688 1187.9844,569.2969 Q1186.9063,569.75 1185.6094,569.75 Q1184.0938,569.75 1182.8906,569.125 Q1181.9063,568.625 1181.2188,567.5547 Q1180.5313,566.4844 1180.5313,565.2031 L1180.5313,564.0469 Q1180.5313,562.7188 1181.1484,561.5703 Q1181.7656,560.4219 1182.8594,559.8047 Q1183.9531,559.1875 1185.1875,559.1875 Q1185.9219,559.1875 1186.5703,559.3516 Q1187.2188,559.5156 1187.7656,559.875 Z "/><text fill="#000000" font-family="sans-serif" font-size="12" lengthAdjust="spacingAndGlyphs" textLength="63" x="1199" y="568.9102">Inmovilidad</text><line style="stroke: #A80036; stroke-width: 1.5;" x1="1171" x2="1264" y1="580" y2="580"/><line style="stroke: #A80036; stroke-width: 1.5;" x1="1171" x2="1264" y1="588" y2="588"/><!--class Evolución--><rect fill="#FEFECE" filter="url(#f1lyut72miocua)" height="48" id="Evolución" style="stroke: #A80036; stroke-width: 1.5;" width="85" x="498" y="440"/><ellipse cx="513" cy="456" fill="#ADD1B2" rx="11" ry="11" style="stroke: #A80036; stroke-width: 1.0;"/><path d="M515.7656,451.875 Q515.9219,451.6563 516.1094,451.5469 Q516.2969,451.4375 516.5156,451.4375 Q516.8906,451.4375 517.125,451.6953 Q517.3594,451.9531 517.3594,452.5625 L517.3594,454.0156 Q517.3594,454.625 517.125,454.8906 Q516.8906,455.1563 516.5156,455.1563 Q516.1719,455.1563 515.9688,454.9531 Q515.7656,454.7656 515.6563,454.25 Q515.6094,453.8906 515.4219,453.7031 Q515.0938,453.3281 514.4844,453.1094 Q513.875,452.8906 513.25,452.8906 Q512.4844,452.8906 511.8516,453.2188 Q511.2188,453.5469 510.7266,454.2969 Q510.2344,455.0469 510.2344,456.0781 L510.2344,457.1719 Q510.2344,458.4063 511.125,459.2266 Q512.0156,460.0469 513.6094,460.0469 Q514.5469,460.0469 515.2031,459.7969 Q515.5938,459.6406 516.0156,459.2031 Q516.2813,458.9375 516.4297,458.8594 Q516.5781,458.7813 516.7813,458.7813 Q517.1094,458.7813 517.3672,459.0391 Q517.625,459.2969 517.625,459.6406 Q517.625,459.9844 517.2813,460.3906 Q516.7813,460.9688 515.9844,461.2969 Q514.9063,461.75 513.6094,461.75 Q512.0938,461.75 510.8906,461.125 Q509.9063,460.625 509.2188,459.5547 Q508.5313,458.4844 508.5313,457.2031 L508.5313,456.0469 Q508.5313,454.7188 509.1484,453.5703 Q509.7656,452.4219 510.8594,451.8047 Q511.9531,451.1875 513.1875,451.1875 Q513.9219,451.1875 514.5703,451.3516 Q515.2188,451.5156 515.7656,451.875 Z "/><text fill="#000000" font-family="sans-serif" font-size="12" lengthAdjust="spacingAndGlyphs" textLength="53" x="527" y="460.9102">Evolución</text><line style="stroke: #A80036; stroke-width: 1.5;" x1="499" x2="582" y1="472" y2="472"/><line style="stroke: #A80036; stroke-width: 1.5;" x1="499" x2="582" y1="480" y2="480"/><!--class SistemaInformación--><rect fill="#FEFECE" filter="url(#f1lyut72miocua)" height="48" id="SistemaInformación" style="stroke: #A80036; stroke-width: 1.5;" width="143" x="595" y="656"/><ellipse cx="610" cy="672" fill="#ADD1B2" rx="11" ry="11" style="stroke: #A80036; stroke-width: 1.0;"/><path d="M612.7656,667.875 Q612.9219,667.6563 613.1094,667.5469 Q613.2969,667.4375 613.5156,667.4375 Q613.8906,667.4375 614.125,667.6953 Q614.3594,667.9531 614.3594,668.5625 L614.3594,670.0156 Q614.3594,670.625 614.125,670.8906 Q613.8906,671.1563 613.5156,671.1563 Q613.1719,671.1563 612.9688,670.9531 Q612.7656,670.7656 612.6563,670.25 Q612.6094,669.8906 612.4219,669.7031 Q612.0938,669.3281 611.4844,669.1094 Q610.875,668.8906 610.25,668.8906 Q609.4844,668.8906 608.8516,669.2188 Q608.2188,669.5469 607.7266,670.2969 Q607.2344,671.0469 607.2344,672.0781 L607.2344,673.1719 Q607.2344,674.4063 608.125,675.2266 Q609.0156,676.0469 610.6094,676.0469 Q611.5469,676.0469 612.2031,675.7969 Q612.5938,675.6406 613.0156,675.2031 Q613.2813,674.9375 613.4297,674.8594 Q613.5781,674.7813 613.7813,674.7813 Q614.1094,674.7813 614.3672,675.0391 Q614.625,675.2969 614.625,675.6406 Q614.625,675.9844 614.2813,676.3906 Q613.7813,676.9688 612.9844,677.2969 Q611.9063,677.75 610.6094,677.75 Q609.0938,677.75 607.8906,677.125 Q606.9063,676.625 606.2188,675.5547 Q605.5313,674.4844 605.5313,673.2031 L605.5313,672.0469 Q605.5313,670.7188 606.1484,669.5703 Q606.7656,668.4219 607.8594,667.8047 Q608.9531,667.1875 610.1875,667.1875 Q610.9219,667.1875 611.5703,667.3516 Q612.2188,667.5156 612.7656,667.875 Z "/><text fill="#000000" font-family="sans-serif" font-size="12" lengthAdjust="spacingAndGlyphs" textLength="111" x="624" y="676.9102">SistemaInformación</text><line style="stroke: #A80036; stroke-width: 1.5;" x1="596" x2="737" y1="688" y2="688"/><line style="stroke: #A80036; stroke-width: 1.5;" x1="596" x2="737" y1="696" y2="696"/><!--class Desarrollo--><rect fill="#FEFECE" filter="url(#f1lyut72miocua)" height="48" id="Desarrollo" style="stroke: #A80036; stroke-width: 1.5;" width="90" x="311.5" y="548"/><ellipse cx="326.5" cy="564" fill="#ADD1B2" rx="11" ry="11" style="stroke: #A80036; stroke-width: 1.0;"/><path d="M329.2656,559.875 Q329.4219,559.6563 329.6094,559.5469 Q329.7969,559.4375 330.0156,559.4375 Q330.3906,559.4375 330.625,559.6953 Q330.8594,559.9531 330.8594,560.5625 L330.8594,562.0156 Q330.8594,562.625 330.625,562.8906 Q330.3906,563.1563 330.0156,563.1563 Q329.6719,563.1563 329.4688,562.9531 Q329.2656,562.7656 329.1563,562.25 Q329.1094,561.8906 328.9219,561.7031 Q328.5938,561.3281 327.9844,561.1094 Q327.375,560.8906 326.75,560.8906 Q325.9844,560.8906 325.3516,561.2188 Q324.7188,561.5469 324.2266,562.2969 Q323.7344,563.0469 323.7344,564.0781 L323.7344,565.1719 Q323.7344,566.4063 324.625,567.2266 Q325.5156,568.0469 327.1094,568.0469 Q328.0469,568.0469 328.7031,567.7969 Q329.0938,567.6406 329.5156,567.2031 Q329.7813,566.9375 329.9297,566.8594 Q330.0781,566.7813 330.2813,566.7813 Q330.6094,566.7813 330.8672,567.0391 Q331.125,567.2969 331.125,567.6406 Q331.125,567.9844 330.7813,568.3906 Q330.2813,568.9688 329.4844,569.2969 Q328.4063,569.75 327.1094,569.75 Q325.5938,569.75 324.3906,569.125 Q323.4063,568.625 322.7188,567.5547 Q322.0313,566.4844 322.0313,565.2031 L322.0313,564.0469 Q322.0313,562.7188 322.6484,561.5703 Q323.2656,560.4219 324.3594,559.8047 Q325.4531,559.1875 326.6875,559.1875 Q327.4219,559.1875 328.0703,559.3516 Q328.7188,559.5156 329.2656,559.875 Z "/><text fill="#000000" font-family="sans-serif" font-size="12" lengthAdjust="spacingAndGlyphs" textLength="58" x="340.5" y="568.9102">Desarrollo</text><line style="stroke: #A80036; stroke-width: 1.5;" x1="312.5" x2="400.5" y1="580" y2="580"/><line style="stroke: #A80036; stroke-width: 1.5;" x1="312.5" x2="400.5" y1="588" y2="588"/><!--link Hardware to Software--><path d="M534.5,285.338 C534.5,296.006 534.5,307.677 534.5,318.364 " fill="none" id="Hardware-Software" style="stroke: #A80036; stroke-width: 1.0;"/><polygon fill="#A80036" points="534.5,331.678,538.5,322.678,534.5,326.678,530.5,322.678,534.5,331.678" style="stroke: #A80036; stroke-width: 1.0;"/><line style="stroke: #A80036; stroke-width: 1.0;" x1="534.5" x2="534.5" y1="326.678" y2="318.678"/><polygon fill="#A80036" points="534.5,272,530.5,278,534.5,284,538.5,278,534.5,272" style="stroke: #A80036; stroke-width: 1.0;"/><!--link Software to Evolución--><path d="M536.557,393.338 C537.161,404.006 537.821,415.677 538.426,426.364 " fill="none" id="Software-Evolución" style="stroke: #A80036; stroke-width: 1.0;"/><polygon fill="#A80036" points="539.18,439.678,542.6653,430.4664,538.8976,434.686,534.6781,430.9183,539.18,439.678" style="stroke: #A80036; stroke-width: 1.0;"/><line style="stroke: #A80036; stroke-width: 1.0;" x1="538.8976" x2="538.445" y1="434.686" y2="426.699"/><polygon fill="#A80036" points="535.802,380,532.148,386.2168,536.4812,391.9808,540.1352,385.764,535.802,380" style="stroke: #A80036; stroke-width: 1.0;"/><!--link Gestión to Alta--><path d="M617.386,490.427 C585.72,506.834 543.663,528.648 506.5,548 C504.412,549.087 502.269,550.204 500.105,551.333 " fill="none" id="Gestión-Alta" style="stroke: #A80036; stroke-width: 1.0;"/><polygon fill="#A80036" points="488.551,557.365,498.3803,556.7452,492.9832,555.0508,494.6776,549.6537,488.551,557.365" style="stroke: #A80036; stroke-width: 1.0;"/><line style="stroke: #A80036; stroke-width: 1.0;" x1="492.9832" x2="500.075" y1="555.0508" y2="551.3485"/><polygon fill="#A80036" points="628.982,484.42,621.8145,483.6283,618.327,489.94,625.4945,490.7317,628.982,484.42" style="stroke: #A80036; stroke-width: 1.0;"/><!--link Gestión to Baja--><path d="M631.904,497.168 C617.814,510.27 601.551,525.391 587.427,538.524 " fill="none" id="Gestión-Baja" style="stroke: #A80036; stroke-width: 1.0;"/><polygon fill="#A80036" points="577.582,547.678,586.8969,544.4791,581.2438,544.2734,581.4495,538.6203,577.582,547.678" style="stroke: #A80036; stroke-width: 1.0;"/><line style="stroke: #A80036; stroke-width: 1.0;" x1="581.2438" x2="587.102" y1="544.2734" y2="538.826"/><polygon fill="#A80036" points="641.764,488,634.6463,489.1567,632.9764,496.1718,640.0941,495.0151,641.764,488" style="stroke: #A80036; stroke-width: 1.0;"/><!--link Gestión to Modificación--><path d="M666.5,501.338 C666.5,512.006 666.5,523.677 666.5,534.364 " fill="none" id="Gestión-Modificación" style="stroke: #A80036; stroke-width: 1.0;"/><polygon fill="#A80036" points="666.5,547.678,670.5,538.678,666.5,542.678,662.5,538.678,666.5,547.678" style="stroke: #A80036; stroke-width: 1.0;"/><line style="stroke: #A80036; stroke-width: 1.0;" x1="666.5" x2="666.5" y1="542.678" y2="534.678"/><polygon fill="#A80036" points="666.5,488,662.5,494,666.5,500,670.5,494,666.5,488" style="stroke: #A80036; stroke-width: 1.0;"/><!--link Gestión to Consulta--><path d="M703.926,496.485 C719.937,509.955 738.601,525.657 754.658,539.164 " fill="none" id="Gestión-Consulta" style="stroke: #A80036; stroke-width: 1.0;"/><polygon fill="#A80036" points="764.778,547.678,760.4662,538.8232,760.9519,544.4591,755.316,544.9449,764.778,547.678" style="stroke: #A80036; stroke-width: 1.0;"/><line style="stroke: #A80036; stroke-width: 1.0;" x1="760.9519" x2="754.83" y1="544.4591" y2="539.3095"/><polygon fill="#A80036" points="693.84,488,695.8562,494.9235,703.0226,495.7253,701.0064,488.8018,693.84,488" style="stroke: #A80036; stroke-width: 1.0;"/><!--link Gestión to SistemaInformación--><path d="M704.177,473.947 C769.032,491.24 891.086,533.169 850.5,596 C826.843,632.6237 782.722,653.2533 743.614,664.7848 " fill="none" id="Gestión-SistemaInformación" style="stroke: #A80036; stroke-width: 1.0;"/><polygon fill="#A80036" points="738.379,666.2837,748.1322,667.6529,743.186,664.9079,745.931,659.9617,738.379,666.2837" style="stroke: #A80036; stroke-width: 1.0;"/><!--link Alta to SistemaInformación--><path d="M488.551,586.635 C494.451,589.718 500.69,592.974 506.5,596 C543.668,615.3548 585.732,637.1723 617.4,653.5798 " fill="none" id="Alta-SistemaInformación" style="stroke: #A80036; stroke-width: 1.0;"/><polygon fill="#A80036" points="621.995,655.9604,615.8437,648.2687,617.5554,653.6604,612.1637,655.3721,621.995,655.9604" style="stroke: #A80036; stroke-width: 1.0;"/><!--link Baja to SistemaInformación--><path d="M577.236,596 C594.892,612.4168 618.705,634.5588 637.295,651.8444 " fill="none" id="Baja-SistemaInformación" style="stroke: #A80036; stroke-width: 1.0;"/><polygon fill="#A80036" points="641.418,655.6784,637.5501,646.6208,637.7561,652.2739,632.103,652.4799,641.418,655.6784" style="stroke: #A80036; stroke-width: 1.0;"/><!--link Modificación to SistemaInformación--><path d="M666.5,596 C666.5,612.003 666.5,633.4461 666.5,650.528 " fill="none" id="Modificación-SistemaInformación" style="stroke: #A80036; stroke-width: 1.0;"/><polygon fill="#A80036" points="666.5,655.6784,670.5,646.6784,666.5,650.6784,662.5,646.6784,666.5,655.6784" style="stroke: #A80036; stroke-width: 1.0;"/><!--link Consulta to SistemaInformación--><path d="M765.16,596 C745.482,612.5548 718.883,634.9314 698.263,652.2791 " fill="none" id="Consulta-SistemaInformación" style="stroke: #A80036; stroke-width: 1.0;"/><polygon fill="#A80036" points="694.222,655.6784,703.6836,652.9437,698.0475,652.4589,698.5324,646.8229,694.222,655.6784" style="stroke: #A80036; stroke-width: 1.0;"/><!--link ProeyectoSoftware to Usuario--><path d="M750.074,64.485 C734.063,77.955 715.399,93.657 699.342,107.164 " fill="none" id="ProeyectoSoftware-Usuario" style="stroke: #A80036; stroke-width: 1.0;"/><polygon fill="#A80036" points="689.222,115.678,698.684,112.9449,693.0481,112.4591,693.5338,106.8232,689.222,115.678" style="stroke: #A80036; stroke-width: 1.0;"/><line style="stroke: #A80036; stroke-width: 1.0;" x1="693.0481" x2="699.17" y1="112.4591" y2="107.3095"/><polygon fill="#A80036" points="760.16,56,752.9936,56.8018,750.9774,63.7253,758.1438,62.9235,760.16,56" style="stroke: #A80036; stroke-width: 1.0;"/><!--link ProeyectoSoftware to Cliente--><path d="M824.629,64.485 C840.513,77.955 859.029,93.657 874.958,107.164 " fill="none" id="ProeyectoSoftware-Cliente" style="stroke: #A80036; stroke-width: 1.0;"/><polygon fill="#A80036" points="884.998,115.678,880.7208,106.8064,881.1846,112.4442,875.5467,112.9079,884.998,115.678" style="stroke: #A80036; stroke-width: 1.0;"/><line style="stroke: #A80036; stroke-width: 1.0;" x1="881.1846" x2="875.083" y1="112.4442" y2="107.2705"/><polygon fill="#A80036" points="814.623,56,816.6121,62.9313,823.7753,63.7612,821.7862,56.8298,814.623,56" style="stroke: #A80036; stroke-width: 1.0;"/><!--link ProeyectoSoftware to Desarrollador--><path d="M720.493,61.074 C683.553,76.551 637.848,95.7 600.99,111.143 " fill="none" id="ProeyectoSoftware-Desarrollador" style="stroke: #A80036; stroke-width: 1.0;"/><polygon fill="#A80036" points="588.855,116.227,598.7016,116.4389,593.4667,114.2951,595.6105,109.0602,588.855,116.227" style="stroke: #A80036; stroke-width: 1.0;"/><line style="stroke: #A80036; stroke-width: 1.0;" x1="593.4667" x2="600.845" y1="114.2951" y2="111.2035"/><polygon fill="#A80036" points="732.603,56,725.5234,54.6294,721.5352,60.6373,728.6149,62.0079,732.603,56" style="stroke: #A80036; stroke-width: 1.0;"/><!--link ProeyectoSoftware to Hardware--><path d="M707.309,42.261 C621.069,54.064 492.273,77.668 462.5,116 C438.434,146.985 467.9,187.058 496.065,214.68 " fill="none" id="ProeyectoSoftware-Hardware" style="stroke: #A80036; stroke-width: 1.0;"/><polygon fill="#A80036" points="505.884,223.896,502.0595,214.82,502.2384,220.474,496.5844,220.6529,505.884,223.896" style="stroke: #A80036; stroke-width: 1.0;"/><line style="stroke: #A80036; stroke-width: 1.0;" x1="502.2384" x2="496.405" y1="220.474" y2="214.9985"/><polygon fill="#A80036" points="720.234,40.536,713.7579,37.3643,708.3393,42.1224,714.8155,45.2941,720.234,40.536" style="stroke: #A80036; stroke-width: 1.0;"/><!--link ProeyectoSoftware to Tiempo--><path d="M866.939,51.305 C902.612,63.64 941.903,83.756 965.5,116 C985.403,143.197 988.058,182.337 986.708,210.746 " fill="none" id="ProeyectoSoftware-Tiempo" style="stroke: #A80036; stroke-width: 1.0;"/><polygon fill="#A80036" points="985.782,223.731,990.4128,215.0387,986.1381,218.7437,982.4331,214.469,985.782,223.731" style="stroke: #A80036; stroke-width: 1.0;"/><line style="stroke: #A80036; stroke-width: 1.0;" x1="986.1381" x2="986.707" y1="218.7437" y2="210.764"/><polygon fill="#A80036" points="854.504,47.259,858.9718,52.9193,865.9151,50.9721,861.4473,45.3119,854.504,47.259" style="stroke: #A80036; stroke-width: 1.0;"/><!--link ProeyectoSoftware to Coste--><path d="M802.39,68.405 C819.054,108.027 845.896,171.854 862.575,211.511 " fill="none" id="ProeyectoSoftware-Coste" style="stroke: #A80036; stroke-width: 1.0;"/><polygon fill="#A80036" points="867.709,223.72,867.9072,213.8731,865.7707,219.111,860.5328,216.9744,867.709,223.72" style="stroke: #A80036; stroke-width: 1.0;"/><line style="stroke: #A80036; stroke-width: 1.0;" x1="865.7707" x2="862.6695" y1="219.111" y2="211.736"/><polygon fill="#A80036" points="797.303,56.309,795.9414,63.3904,801.9543,67.3709,803.316,60.2895,797.303,56.309" style="stroke: #A80036; stroke-width: 1.0;"/><!--link ProeyectoSoftware to Ámbito--><path d="M781.57,69.258 C775.118,108.709 764.864,171.405 758.417,210.824 " fill="none" id="ProeyectoSoftware-Ámbito" style="stroke: #A80036; stroke-width: 1.0;"/><polygon fill="#A80036" points="756.308,223.72,761.7076,215.4832,757.1147,218.7855,753.8124,214.1926,756.308,223.72" style="stroke: #A80036; stroke-width: 1.0;"/><line style="stroke: #A80036; stroke-width: 1.0;" x1="757.1147" x2="758.406" y1="218.7855" y2="210.89"/><polygon fill="#A80036" points="783.688,56.309,778.7719,61.5846,781.7509,68.1516,786.667,62.876,783.688,56.309" style="stroke: #A80036; stroke-width: 1.0;"/><!--link ProeyectoSoftware to Calidad--><path d="M867.589,46.532 C912.459,57.98 966.301,78.751 1001.5,116 C1082.25,201.455 1029.05,357.879 999.045,427.71 " fill="none" id="ProeyectoSoftware-Calidad" style="stroke: #A80036; stroke-width: 1.0;"/><polygon fill="#A80036" points="993.749,439.705,1001.0429,433.0869,995.7682,435.1309,993.7243,429.8562,993.749,439.705" style="stroke: #A80036; stroke-width: 1.0;"/><line style="stroke: #A80036; stroke-width: 1.0;" x1="995.7682" x2="999.0005" y1="435.1309" y2="427.8125"/><polygon fill="#A80036" points="854.893,43.476,859.79,48.7693,866.5596,46.2849,861.6626,40.9915,854.893,43.476" style="stroke: #A80036; stroke-width: 1.0;"/><!--link Tiempo to Calidad--><path d="M982.5,272.309 C982.5,311.866 982.5,391.994 982.5,434.702 " fill="none" id="Tiempo-Calidad" style="stroke: #A80036; stroke-width: 1.0;"/><polygon fill="#A80036" points="982.5,439.72,986.5,430.72,982.5,434.72,978.5,430.72,982.5,439.72" style="stroke: #A80036; stroke-width: 1.0;"/><!--link Coste to Calidad--><path d="M888.937,272.309 C908.424,312.027 947.98,392.646 968.87,435.221 " fill="none" id="Coste-Calidad" style="stroke: #A80036; stroke-width: 1.0;"/><polygon fill="#A80036" points="971.077,439.72,970.7027,429.8783,968.8741,435.2314,963.521,433.4028,971.077,439.72" style="stroke: #A80036; stroke-width: 1.0;"/><!--link Ámbito to Calidad--><path d="M777.552,272.309 C820.585,312.348 908.292,393.954 953.748,436.248 " fill="none" id="Ámbito-Calidad" style="stroke: #A80036; stroke-width: 1.0;"/><polygon fill="#A80036" points="957.479,439.72,953.6153,430.6607,953.8186,436.3139,948.1654,436.5172,957.479,439.72" style="stroke: #A80036; stroke-width: 1.0;"/><!--link Ámbito to Gestión--><path d="M738.272,284.405 C722.349,324.027 696.699,387.854 680.762,427.511 " fill="none" id="Ámbito-Gestión" style="stroke: #A80036; stroke-width: 1.0;"/><polygon fill="#A80036" points="675.856,439.72,682.9232,432.8604,677.7202,435.0805,675.5001,429.8776,675.856,439.72" style="stroke: #A80036; stroke-width: 1.0;"/><line style="stroke: #A80036; stroke-width: 1.0;" x1="677.7202" x2="680.703" y1="435.0805" y2="427.6575"/><polygon fill="#A80036" points="743.133,272.309,737.1843,276.385,738.6588,283.4437,744.6075,279.3677,743.133,272.309" style="stroke: #A80036; stroke-width: 1.0;"/><!--link Software to Calidad--><path d="M587.464,369.532 C674.545,390.136 846.797,430.892 932.143,451.085 " fill="none" id="Software-Calidad" style="stroke: #A80036; stroke-width: 1.0;"/><polygon fill="#A80036" points="944.822,454.085,936.9846,448.1206,939.9563,452.934,935.1429,455.9057,944.822,454.085" style="stroke: #A80036; stroke-width: 1.0;"/><line style="stroke: #A80036; stroke-width: 1.0;" x1="939.9563" x2="932.1715" y1="452.934" y2="451.092"/><polygon fill="#A80036" points="574.651,366.5,579.5683,371.7745,586.3283,369.2641,581.411,363.9896,574.651,366.5" style="stroke: #A80036; stroke-width: 1.0;"/><!--link Software to Gestión--><path d="M573.426,388.259 C590.405,401.893 610.276,417.85 627.287,431.511 " fill="none" id="Software-Gestión" style="stroke: #A80036; stroke-width: 1.0;"/><polygon fill="#A80036" points="637.458,439.678,632.9455,430.9237,633.5596,436.5472,627.9361,437.1612,637.458,439.678" style="stroke: #A80036; stroke-width: 1.0;"/><line style="stroke: #A80036; stroke-width: 1.0;" x1="633.5596" x2="627.322" y1="436.5472" y2="431.5385"/><polygon fill="#A80036" points="563.142,380,565.3159,386.8756,572.4988,387.5134,570.3248,380.6378,563.142,380" style="stroke: #A80036; stroke-width: 1.0;"/><!--link Evolución to Desarrollo--><path d="M488.933,494.707 C463.725,509.229 433.462,526.663 408.233,541.197 " fill="none" id="Evolución-Desarrollo" style="stroke: #A80036; stroke-width: 1.0;"/><polygon fill="#A80036" points="396.665,547.862,406.4602,546.8358,400.9976,545.3663,402.4671,539.9036,396.665,547.862" style="stroke: #A80036; stroke-width: 1.0;"/><line style="stroke: #A80036; stroke-width: 1.0;" x1="400.9976" x2="407.929" y1="545.3663" y2="541.3725"/><polygon fill="#A80036" points="500.575,488,493.3793,487.5295,490.1773,493.9907,497.3731,494.4612,500.575,488" style="stroke: #A80036; stroke-width: 1.0;"/><!--link Evolución to Mantenimiento--><path d="M485.262,486.312 C483.659,486.886 482.069,487.45 480.5,488 C444.899,500.473 353.162,529.37 288.554,549.54 " fill="none" id="Evolución-Mantenimiento" style="stroke: #A80036; stroke-width: 1.0;"/><polygon fill="#A80036" points="276.018,553.45,285.8007,554.5893,280.7913,551.9615,283.4191,546.952,276.018,553.45" style="stroke: #A80036; stroke-width: 1.0;"/><line style="stroke: #A80036; stroke-width: 1.0;" x1="280.7913" x2="288.4285" y1="551.9615" y2="549.5785"/><polygon fill="#A80036" points="497.676,481.763,490.666,480.0717,486.4087,485.892,493.4187,487.5832,497.676,481.763" style="stroke: #A80036; stroke-width: 1.0;"/><!--link Calidad to Rigidez--><path d="M980.065,508.024 C979.297,521.579 978.479,536.038 977.82,547.678 " fill="none" id="Calidad-Rigidez" style="stroke: #A80036; stroke-width: 1.0;"/><polygon fill="none" points="973.079,507.573,981.198,488,987.057,508.364,973.079,507.573" style="stroke: #A80036; stroke-width: 1.0;"/><!--link Calidad to Viscosidad--><path d="M1039.59,479.431 C1100.23,495.075 1198.69,521.389 1282.5,548 C1288.13,549.787 1294,551.753 1299.8,553.76 " fill="none" id="Calidad-Viscosidad" style="stroke: #A80036; stroke-width: 1.0;"/><polygon fill="none" points="1037.82,486.203,1020.18,474.455,1041.29,472.641,1037.82,486.203" style="stroke: #A80036; stroke-width: 1.0;"/><!--link Calidad to Inmovilidad--><path d="M1038.69,490.346 C1078.65,508.37 1131.75,532.319 1169.68,549.429 " fill="none" id="Calidad-Inmovilidad" style="stroke: #A80036; stroke-width: 1.0;"/><polygon fill="none" points="1035.61,496.635,1020.26,482.031,1041.37,483.873,1035.61,496.635" style="stroke: #A80036; stroke-width: 1.0;"/><!--link Calidad to Fragilidad--><path d="M1020.84,502.28 C1036.37,517.391 1053.84,534.375 1067.52,547.678 " fill="none" id="Calidad-Fragilidad" style="stroke: #A80036; stroke-width: 1.0;"/><polygon fill="none" points="1015.61,506.962,1006.15,488,1025.37,496.926,1015.61,506.962" style="stroke: #A80036; stroke-width: 1.0;"/><!--link Software to OrientadoDatos--><path d="M490.46,392.635 C471.29,408.147 449.362,425.89 432.322,439.678 " fill="none" id="Software-OrientadoDatos" style="stroke: #A80036; stroke-width: 1.0;"/><polygon fill="none" points="486.124,387.139,506.075,380,494.93,398.023,486.124,387.139" style="stroke: #A80036; stroke-width: 1.0;"/><!--link Software to OrientadoObjetos--><path d="M474.79,368.827 C399.394,384.024 265.829,411.821 152.5,440 C146.904,441.391 141.11,442.893 135.308,444.438 " fill="none" id="Software-OrientadoObjetos" style="stroke: #A80036; stroke-width: 1.0;"/><polygon fill="none" points="473.462,361.954,494.448,364.885,476.215,375.681,473.462,361.954" style="stroke: #A80036; stroke-width: 1.0;"/><!--link Software to OrientadoProcesos--><path d="M475.495,378.202 C425.752,396.075 354.705,421.604 303.58,439.975 " fill="none" id="Software-OrientadoProcesos" style="stroke: #A80036; stroke-width: 1.0;"/><polygon fill="none" points="473.219,371.581,494.408,371.406,477.953,384.757,473.219,371.581" style="stroke: #A80036; stroke-width: 1.0;"/><!--link Usuario to Ámbito--><path d="M681.246,164 C695.339,180.417 714.348,202.559 729.187,219.844 " fill="none" id="Usuario-Ámbito" style="stroke: #A80036; stroke-width: 1.0;"/><polygon fill="#A80036" points="732.479,223.678,729.6519,214.2436,729.2222,219.8841,723.5817,219.4545,732.479,223.678" style="stroke: #A80036; stroke-width: 1.0;"/><!--link Usuario to Hardware--><path d="M633.943,164 C614.109,180.555 587.299,202.931 566.515,220.279 " fill="none" id="Usuario-Hardware" style="stroke: #A80036; stroke-width: 1.0;"/><polygon fill="#A80036" points="562.442,223.678,571.9145,220.9813,566.2804,220.4738,566.7878,214.8398,562.442,223.678" style="stroke: #A80036; stroke-width: 1.0;"/><!--link Cliente to Ámbito--><path d="M877.782,164 C852.5,180.75 818.22,203.461 791.909,220.892 " fill="none" id="Cliente-Ámbito" style="stroke: #A80036; stroke-width: 1.0;"/><polygon fill="#A80036" points="787.426,223.862,797.1381,222.2264,791.5944,221.1007,792.72,215.557,787.426,223.862" style="stroke: #A80036; stroke-width: 1.0;"/><!--link Cliente to Tiempo--><path d="M927.689,164 C938.439,180.279 952.907,202.187 964.279,219.408 " fill="none" id="Cliente-Tiempo" style="stroke: #A80036; stroke-width: 1.0;"/><polygon fill="#A80036" points="967.099,223.678,965.4795,213.9632,964.3446,219.505,958.8028,218.3702,967.099,223.678" style="stroke: #A80036; stroke-width: 1.0;"/><!--link Cliente to Coste--><path d="M904.906,164 C899.622,180.003 892.541,201.446 886.901,218.528 " fill="none" id="Cliente-Coste" style="stroke: #A80036; stroke-width: 1.0;"/><polygon fill="#A80036" points="885.201,223.678,891.8207,216.3856,886.7684,218.93,884.224,213.8777,885.201,223.678" style="stroke: #A80036; stroke-width: 1.0;"/><!--link Desarrollador to Hardware--><path d="M534.5,164 C534.5,180.003 534.5,201.446 534.5,218.528 " fill="none" id="Desarrollador-Hardware" style="stroke: #A80036; stroke-width: 1.0;"/><polygon fill="#A80036" points="534.5,223.678,538.5,214.678,534.5,218.678,530.5,214.678,534.5,223.678" style="stroke: #A80036; stroke-width: 1.0;"/><!--
@startuml
class Hardware
class Software

class Gestión
class Alta
class Baja
class Modificación
class Consulta
class OrientadoDatos
class OrientadoObjetos
class OrientadoProcesos
class Desarrollador
class ProeyectoSoftware
class Cliente
class Usuario
class Ámbito
class Coste
class Tiempo
class Calidad
class Mantenimiento
class Viscosidad
class Rigidez
class Fragilidad
class Inmovilidad

Hardware *- -> Software
Software *- -> Evolución


Gestión *- -> Alta
Gestión *- -> Baja
Gestión *- -> Modificación
Gestión *- -> Consulta

Gestión - -> SistemaInformación
Alta - -> SistemaInformación
Baja - -> SistemaInformación
Modificación - -> SistemaInformación
Consulta - -> SistemaInformación

ProeyectoSoftware *- -> Usuario
ProeyectoSoftware *- -> Cliente
ProeyectoSoftware *- -> Desarrollador

ProeyectoSoftware *- -> Hardware
ProeyectoSoftware *- -> Tiempo
ProeyectoSoftware *- -> Coste
ProeyectoSoftware *- -> Ámbito
ProeyectoSoftware *- -> Calidad
Tiempo - -> Calidad
Coste - -> Calidad
Ámbito - -> Calidad
Ámbito *- -> Gestión

Software  *- -> Calidad
Software  *- ->  Gestión

Evolución *- -> Desarrollo
Evolución *- -> Mantenimiento

Calidad <|- - Rigidez
Calidad <|- - Viscosidad
Calidad <|- - Inmovilidad
Calidad <|- - Fragilidad

Software <|- - OrientadoDatos
Software <|- - OrientadoObjetos
Software <|- - OrientadoProcesos

Usuario - -> Ámbito
Usuario - -> Hardware
Cliente - -> Ámbito
Cliente - -> Tiempo
Cliente - -> Coste
Desarrollador - -> Hardware
@enduml

PlantUML version 1.2019.05(Sat Apr 20 18:45:36 CEST 2019)
(GPL source distribution)
Java Runtime: OpenJDK Runtime Environment
JVM: OpenJDK 64-Bit Server VM
Java Version: 1.8.0_222-b10
Operating System: Windows 10
OS Version: 10.0
Default Encoding: windows-1252
Language: es
Country: ES
--></g></svg>