<?xml version="1.0" encoding="UTF-8" standalone="no"?><svg xmlns="http://www.w3.org/2000/svg" xmlns:xlink="http://www.w3.org/1999/xlink" contentScriptType="application/ecmascript" contentStyleType="text/css" height="607px" preserveAspectRatio="none" style="width:462px;height:607px;" version="1.1" viewBox="0 0 462 607" width="462px" zoomAndPan="magnify"><defs><filter height="300%" id="ftqai01dwh5i" width="300%" x="-1" y="-1"><feGaussianBlur result="blurOut" stdDeviation="2.0"/><feColorMatrix in="blurOut" result="blurOut2" type="matrix" values="0 0 0 0 0 0 0 0 0 0 0 0 0 0 0 0 0 0 .4 0"/><feOffset dx="4.0" dy="4.0" in="blurOut2" result="blurOut3"/><feBlend in="SourceGraphic" in2="blurOut3" mode="normal"/></filter></defs><g><!--class ProyectoSoftware--><rect fill="#ADFF2F" filter="url(#ftqai01dwh5i)" height="48" id="ProyectoSoftware" style="stroke: #A80036; stroke-width: 1.5;" width="130" x="170.5" y="8"/><rect fill="#ADFF2F" height="32" style="stroke: #A80036; stroke-width: 1.5;" width="130" x="170.5" y="8"/><ellipse cx="185.5" cy="24" fill="#ADD1B2" rx="11" ry="11" style="stroke: #A80036; stroke-width: 1.0;"/><path d="M188.2656,19.875 Q188.4219,19.6563 188.6094,19.5469 Q188.7969,19.4375 189.0156,19.4375 Q189.3906,19.4375 189.625,19.6953 Q189.8594,19.9531 189.8594,20.5625 L189.8594,22.0156 Q189.8594,22.625 189.625,22.8906 Q189.3906,23.1563 189.0156,23.1563 Q188.6719,23.1563 188.4688,22.9531 Q188.2656,22.7656 188.1563,22.25 Q188.1094,21.8906 187.9219,21.7031 Q187.5938,21.3281 186.9844,21.1094 Q186.375,20.8906 185.75,20.8906 Q184.9844,20.8906 184.3516,21.2188 Q183.7188,21.5469 183.2266,22.2969 Q182.7344,23.0469 182.7344,24.0781 L182.7344,25.1719 Q182.7344,26.4063 183.625,27.2266 Q184.5156,28.0469 186.1094,28.0469 Q187.0469,28.0469 187.7031,27.7969 Q188.0938,27.6406 188.5156,27.2031 Q188.7813,26.9375 188.9297,26.8594 Q189.0781,26.7813 189.2813,26.7813 Q189.6094,26.7813 189.8672,27.0391 Q190.125,27.2969 190.125,27.6406 Q190.125,27.9844 189.7813,28.3906 Q189.2813,28.9688 188.4844,29.2969 Q187.4063,29.75 186.1094,29.75 Q184.5938,29.75 183.3906,29.125 Q182.4063,28.625 181.7188,27.5547 Q181.0313,26.4844 181.0313,25.2031 L181.0313,24.0469 Q181.0313,22.7188 181.6484,21.5703 Q182.2656,20.4219 183.3594,19.8047 Q184.4531,19.1875 185.6875,19.1875 Q186.4219,19.1875 187.0703,19.3516 Q187.7188,19.5156 188.2656,19.875 Z "/><text fill="#000000" font-family="sans-serif" font-size="12" lengthAdjust="spacingAndGlyphs" textLength="98" x="199.5" y="28.9102">Proyecto Software</text><line style="stroke: #A80036; stroke-width: 1.5;" x1="171.5" x2="299.5" y1="40" y2="40"/><line style="stroke: #A80036; stroke-width: 1.5;" x1="171.5" x2="299.5" y1="48" y2="48"/><!--class ProductoSoftware--><rect fill="#ADFF2F" filter="url(#ftqai01dwh5i)" height="48" id="ProductoSoftware" style="stroke: #A80036; stroke-width: 1.5;" width="129" x="6" y="116"/><rect fill="#ADFF2F" height="32" style="stroke: #A80036; stroke-width: 1.5;" width="129" x="6" y="116"/><ellipse cx="21" cy="132" fill="#ADD1B2" rx="11" ry="11" style="stroke: #A80036; stroke-width: 1.0;"/><path d="M23.7656,127.875 Q23.9219,127.6563 24.1094,127.5469 Q24.2969,127.4375 24.5156,127.4375 Q24.8906,127.4375 25.125,127.6953 Q25.3594,127.9531 25.3594,128.5625 L25.3594,130.0156 Q25.3594,130.625 25.125,130.8906 Q24.8906,131.1563 24.5156,131.1563 Q24.1719,131.1563 23.9688,130.9531 Q23.7656,130.7656 23.6563,130.25 Q23.6094,129.8906 23.4219,129.7031 Q23.0938,129.3281 22.4844,129.1094 Q21.875,128.8906 21.25,128.8906 Q20.4844,128.8906 19.8516,129.2188 Q19.2188,129.5469 18.7266,130.2969 Q18.2344,131.0469 18.2344,132.0781 L18.2344,133.1719 Q18.2344,134.4063 19.125,135.2266 Q20.0156,136.0469 21.6094,136.0469 Q22.5469,136.0469 23.2031,135.7969 Q23.5938,135.6406 24.0156,135.2031 Q24.2813,134.9375 24.4297,134.8594 Q24.5781,134.7813 24.7813,134.7813 Q25.1094,134.7813 25.3672,135.0391 Q25.625,135.2969 25.625,135.6406 Q25.625,135.9844 25.2813,136.3906 Q24.7813,136.9688 23.9844,137.2969 Q22.9063,137.75 21.6094,137.75 Q20.0938,137.75 18.8906,137.125 Q17.9063,136.625 17.2188,135.5547 Q16.5313,134.4844 16.5313,133.2031 L16.5313,132.0469 Q16.5313,130.7188 17.1484,129.5703 Q17.7656,128.4219 18.8594,127.8047 Q19.9531,127.1875 21.1875,127.1875 Q21.9219,127.1875 22.5703,127.3516 Q23.2188,127.5156 23.7656,127.875 Z "/><text fill="#000000" font-family="sans-serif" font-size="12" lengthAdjust="spacingAndGlyphs" textLength="97" x="35" y="136.9102">ProductoSoftware</text><line style="stroke: #A80036; stroke-width: 1.5;" x1="7" x2="134" y1="148" y2="148"/><line style="stroke: #A80036; stroke-width: 1.5;" x1="7" x2="134" y1="156" y2="156"/><!--class Variable--><rect fill="#0000FF" filter="url(#ftqai01dwh5i)" height="48" id="Variable" style="stroke: #A80036; stroke-width: 1.5;" width="77" x="244" y="224"/><rect fill="#0000FF" height="32" style="stroke: #A80036; stroke-width: 1.5;" width="77" x="244" y="224"/><ellipse cx="259" cy="240" fill="#ADD1B2" rx="11" ry="11" style="stroke: #A80036; stroke-width: 1.0;"/><path d="M261.7656,235.875 Q261.9219,235.6563 262.1094,235.5469 Q262.2969,235.4375 262.5156,235.4375 Q262.8906,235.4375 263.125,235.6953 Q263.3594,235.9531 263.3594,236.5625 L263.3594,238.0156 Q263.3594,238.625 263.125,238.8906 Q262.8906,239.1563 262.5156,239.1563 Q262.1719,239.1563 261.9688,238.9531 Q261.7656,238.7656 261.6563,238.25 Q261.6094,237.8906 261.4219,237.7031 Q261.0938,237.3281 260.4844,237.1094 Q259.875,236.8906 259.25,236.8906 Q258.4844,236.8906 257.8516,237.2188 Q257.2188,237.5469 256.7266,238.2969 Q256.2344,239.0469 256.2344,240.0781 L256.2344,241.1719 Q256.2344,242.4063 257.125,243.2266 Q258.0156,244.0469 259.6094,244.0469 Q260.5469,244.0469 261.2031,243.7969 Q261.5938,243.6406 262.0156,243.2031 Q262.2813,242.9375 262.4297,242.8594 Q262.5781,242.7813 262.7813,242.7813 Q263.1094,242.7813 263.3672,243.0391 Q263.625,243.2969 263.625,243.6406 Q263.625,243.9844 263.2813,244.3906 Q262.7813,244.9688 261.9844,245.2969 Q260.9063,245.75 259.6094,245.75 Q258.0938,245.75 256.8906,245.125 Q255.9063,244.625 255.2188,243.5547 Q254.5313,242.4844 254.5313,241.2031 L254.5313,240.0469 Q254.5313,238.7188 255.1484,237.5703 Q255.7656,236.4219 256.8594,235.8047 Q257.9531,235.1875 259.1875,235.1875 Q259.9219,235.1875 260.5703,235.3516 Q261.2188,235.5156 261.7656,235.875 Z "/><text fill="#000000" font-family="sans-serif" font-size="12" lengthAdjust="spacingAndGlyphs" textLength="45" x="273" y="244.9102">Variable</text><line style="stroke: #A80036; stroke-width: 1.5;" x1="245" x2="320" y1="256" y2="256"/><line style="stroke: #A80036; stroke-width: 1.5;" x1="245" x2="320" y1="264" y2="264"/><!--class Efectividad--><rect fill="#FFA500" filter="url(#ftqai01dwh5i)" height="48" id="Efectividad" style="stroke: #A80036; stroke-width: 1.5;" width="91" x="289" y="116"/><rect fill="#FFA500" height="32" style="stroke: #A80036; stroke-width: 1.5;" width="91" x="289" y="116"/><ellipse cx="304" cy="132" fill="#ADD1B2" rx="11" ry="11" style="stroke: #A80036; stroke-width: 1.0;"/><path d="M306.7656,127.875 Q306.9219,127.6563 307.1094,127.5469 Q307.2969,127.4375 307.5156,127.4375 Q307.8906,127.4375 308.125,127.6953 Q308.3594,127.9531 308.3594,128.5625 L308.3594,130.0156 Q308.3594,130.625 308.125,130.8906 Q307.8906,131.1563 307.5156,131.1563 Q307.1719,131.1563 306.9688,130.9531 Q306.7656,130.7656 306.6563,130.25 Q306.6094,129.8906 306.4219,129.7031 Q306.0938,129.3281 305.4844,129.1094 Q304.875,128.8906 304.25,128.8906 Q303.4844,128.8906 302.8516,129.2188 Q302.2188,129.5469 301.7266,130.2969 Q301.2344,131.0469 301.2344,132.0781 L301.2344,133.1719 Q301.2344,134.4063 302.125,135.2266 Q303.0156,136.0469 304.6094,136.0469 Q305.5469,136.0469 306.2031,135.7969 Q306.5938,135.6406 307.0156,135.2031 Q307.2813,134.9375 307.4297,134.8594 Q307.5781,134.7813 307.7813,134.7813 Q308.1094,134.7813 308.3672,135.0391 Q308.625,135.2969 308.625,135.6406 Q308.625,135.9844 308.2813,136.3906 Q307.7813,136.9688 306.9844,137.2969 Q305.9063,137.75 304.6094,137.75 Q303.0938,137.75 301.8906,137.125 Q300.9063,136.625 300.2188,135.5547 Q299.5313,134.4844 299.5313,133.2031 L299.5313,132.0469 Q299.5313,130.7188 300.1484,129.5703 Q300.7656,128.4219 301.8594,127.8047 Q302.9531,127.1875 304.1875,127.1875 Q304.9219,127.1875 305.5703,127.3516 Q306.2188,127.5156 306.7656,127.875 Z "/><text fill="#000000" font-family="sans-serif" font-size="12" lengthAdjust="spacingAndGlyphs" textLength="59" x="318" y="136.9102">Efectividad</text><line style="stroke: #A80036; stroke-width: 1.5;" x1="290" x2="379" y1="148" y2="148"/><line style="stroke: #A80036; stroke-width: 1.5;" x1="290" x2="379" y1="156" y2="156"/><!--class Calidad--><rect fill="#6495ED" filter="url(#ftqai01dwh5i)" height="48" id="Calidad" style="stroke: #A80036; stroke-width: 1.5;" width="75" x="205" y="440"/><rect fill="#6495ED" height="32" style="stroke: #A80036; stroke-width: 1.5;" width="75" x="205" y="440"/><ellipse cx="220" cy="456" fill="#ADD1B2" rx="11" ry="11" style="stroke: #A80036; stroke-width: 1.0;"/><path d="M222.7656,451.875 Q222.9219,451.6563 223.1094,451.5469 Q223.2969,451.4375 223.5156,451.4375 Q223.8906,451.4375 224.125,451.6953 Q224.3594,451.9531 224.3594,452.5625 L224.3594,454.0156 Q224.3594,454.625 224.125,454.8906 Q223.8906,455.1563 223.5156,455.1563 Q223.1719,455.1563 222.9688,454.9531 Q222.7656,454.7656 222.6563,454.25 Q222.6094,453.8906 222.4219,453.7031 Q222.0938,453.3281 221.4844,453.1094 Q220.875,452.8906 220.25,452.8906 Q219.4844,452.8906 218.8516,453.2188 Q218.2188,453.5469 217.7266,454.2969 Q217.2344,455.0469 217.2344,456.0781 L217.2344,457.1719 Q217.2344,458.4063 218.125,459.2266 Q219.0156,460.0469 220.6094,460.0469 Q221.5469,460.0469 222.2031,459.7969 Q222.5938,459.6406 223.0156,459.2031 Q223.2813,458.9375 223.4297,458.8594 Q223.5781,458.7813 223.7813,458.7813 Q224.1094,458.7813 224.3672,459.0391 Q224.625,459.2969 224.625,459.6406 Q224.625,459.9844 224.2813,460.3906 Q223.7813,460.9688 222.9844,461.2969 Q221.9063,461.75 220.6094,461.75 Q219.0938,461.75 217.8906,461.125 Q216.9063,460.625 216.2188,459.5547 Q215.5313,458.4844 215.5313,457.2031 L215.5313,456.0469 Q215.5313,454.7188 216.1484,453.5703 Q216.7656,452.4219 217.8594,451.8047 Q218.9531,451.1875 220.1875,451.1875 Q220.9219,451.1875 221.5703,451.3516 Q222.2188,451.5156 222.7656,451.875 Z "/><text fill="#000000" font-family="sans-serif" font-size="12" lengthAdjust="spacingAndGlyphs" textLength="43" x="234" y="460.9102">Calidad</text><line style="stroke: #A80036; stroke-width: 1.5;" x1="206" x2="279" y1="472" y2="472"/><line style="stroke: #A80036; stroke-width: 1.5;" x1="206" x2="279" y1="480" y2="480"/><!--class Mantenibilidad--><rect fill="#6495ED" filter="url(#ftqai01dwh5i)" height="48" id="Mantenibilidad" style="stroke: #A80036; stroke-width: 1.5;" width="112" x="186.5" y="548"/><rect fill="#6495ED" height="32" style="stroke: #A80036; stroke-width: 1.5;" width="112" x="186.5" y="548"/><ellipse cx="201.5" cy="564" fill="#ADD1B2" rx="11" ry="11" style="stroke: #A80036; stroke-width: 1.0;"/><path d="M204.2656,559.875 Q204.4219,559.6563 204.6094,559.5469 Q204.7969,559.4375 205.0156,559.4375 Q205.3906,559.4375 205.625,559.6953 Q205.8594,559.9531 205.8594,560.5625 L205.8594,562.0156 Q205.8594,562.625 205.625,562.8906 Q205.3906,563.1563 205.0156,563.1563 Q204.6719,563.1563 204.4688,562.9531 Q204.2656,562.7656 204.1563,562.25 Q204.1094,561.8906 203.9219,561.7031 Q203.5938,561.3281 202.9844,561.1094 Q202.375,560.8906 201.75,560.8906 Q200.9844,560.8906 200.3516,561.2188 Q199.7188,561.5469 199.2266,562.2969 Q198.7344,563.0469 198.7344,564.0781 L198.7344,565.1719 Q198.7344,566.4063 199.625,567.2266 Q200.5156,568.0469 202.1094,568.0469 Q203.0469,568.0469 203.7031,567.7969 Q204.0938,567.6406 204.5156,567.2031 Q204.7813,566.9375 204.9297,566.8594 Q205.0781,566.7813 205.2813,566.7813 Q205.6094,566.7813 205.8672,567.0391 Q206.125,567.2969 206.125,567.6406 Q206.125,567.9844 205.7813,568.3906 Q205.2813,568.9688 204.4844,569.2969 Q203.4063,569.75 202.1094,569.75 Q200.5938,569.75 199.3906,569.125 Q198.4063,568.625 197.7188,567.5547 Q197.0313,566.4844 197.0313,565.2031 L197.0313,564.0469 Q197.0313,562.7188 197.6484,561.5703 Q198.2656,560.4219 199.3594,559.8047 Q200.4531,559.1875 201.6875,559.1875 Q202.4219,559.1875 203.0703,559.3516 Q203.7188,559.5156 204.2656,559.875 Z "/><text fill="#000000" font-family="sans-serif" font-size="12" lengthAdjust="spacingAndGlyphs" textLength="80" x="215.5" y="568.9102">Mantenibilidad</text><line style="stroke: #A80036; stroke-width: 1.5;" x1="187.5" x2="297.5" y1="580" y2="580"/><line style="stroke: #A80036; stroke-width: 1.5;" x1="187.5" x2="297.5" y1="588" y2="588"/><!--class Eficacia--><rect fill="#FFA500" filter="url(#ftqai01dwh5i)" height="48" id="Eficacia" style="stroke: #A80036; stroke-width: 1.5;" width="75" x="367" y="224"/><rect fill="#FFA500" height="32" style="stroke: #A80036; stroke-width: 1.5;" width="75" x="367" y="224"/><ellipse cx="382" cy="240" fill="#ADD1B2" rx="11" ry="11" style="stroke: #A80036; stroke-width: 1.0;"/><path d="M384.7656,235.875 Q384.9219,235.6563 385.1094,235.5469 Q385.2969,235.4375 385.5156,235.4375 Q385.8906,235.4375 386.125,235.6953 Q386.3594,235.9531 386.3594,236.5625 L386.3594,238.0156 Q386.3594,238.625 386.125,238.8906 Q385.8906,239.1563 385.5156,239.1563 Q385.1719,239.1563 384.9688,238.9531 Q384.7656,238.7656 384.6563,238.25 Q384.6094,237.8906 384.4219,237.7031 Q384.0938,237.3281 383.4844,237.1094 Q382.875,236.8906 382.25,236.8906 Q381.4844,236.8906 380.8516,237.2188 Q380.2188,237.5469 379.7266,238.2969 Q379.2344,239.0469 379.2344,240.0781 L379.2344,241.1719 Q379.2344,242.4063 380.125,243.2266 Q381.0156,244.0469 382.6094,244.0469 Q383.5469,244.0469 384.2031,243.7969 Q384.5938,243.6406 385.0156,243.2031 Q385.2813,242.9375 385.4297,242.8594 Q385.5781,242.7813 385.7813,242.7813 Q386.1094,242.7813 386.3672,243.0391 Q386.625,243.2969 386.625,243.6406 Q386.625,243.9844 386.2813,244.3906 Q385.7813,244.9688 384.9844,245.2969 Q383.9063,245.75 382.6094,245.75 Q381.0938,245.75 379.8906,245.125 Q378.9063,244.625 378.2188,243.5547 Q377.5313,242.4844 377.5313,241.2031 L377.5313,240.0469 Q377.5313,238.7188 378.1484,237.5703 Q378.7656,236.4219 379.8594,235.8047 Q380.9531,235.1875 382.1875,235.1875 Q382.9219,235.1875 383.5703,235.3516 Q384.2188,235.5156 384.7656,235.875 Z "/><text fill="#000000" font-family="sans-serif" font-size="12" lengthAdjust="spacingAndGlyphs" textLength="43" x="396" y="244.9102">Eficacia</text><line style="stroke: #A80036; stroke-width: 1.5;" x1="368" x2="441" y1="256" y2="256"/><line style="stroke: #A80036; stroke-width: 1.5;" x1="368" x2="441" y1="264" y2="264"/><!--class Eficiencia--><rect fill="#FFA500" filter="url(#ftqai01dwh5i)" height="48" id="Eficiencia" style="stroke: #A80036; stroke-width: 1.5;" width="85" x="124" y="224"/><rect fill="#FFA500" height="32" style="stroke: #A80036; stroke-width: 1.5;" width="85" x="124" y="224"/><ellipse cx="139" cy="240" fill="#ADD1B2" rx="11" ry="11" style="stroke: #A80036; stroke-width: 1.0;"/><path d="M141.7656,235.875 Q141.9219,235.6563 142.1094,235.5469 Q142.2969,235.4375 142.5156,235.4375 Q142.8906,235.4375 143.125,235.6953 Q143.3594,235.9531 143.3594,236.5625 L143.3594,238.0156 Q143.3594,238.625 143.125,238.8906 Q142.8906,239.1563 142.5156,239.1563 Q142.1719,239.1563 141.9688,238.9531 Q141.7656,238.7656 141.6563,238.25 Q141.6094,237.8906 141.4219,237.7031 Q141.0938,237.3281 140.4844,237.1094 Q139.875,236.8906 139.25,236.8906 Q138.4844,236.8906 137.8516,237.2188 Q137.2188,237.5469 136.7266,238.2969 Q136.2344,239.0469 136.2344,240.0781 L136.2344,241.1719 Q136.2344,242.4063 137.125,243.2266 Q138.0156,244.0469 139.6094,244.0469 Q140.5469,244.0469 141.2031,243.7969 Q141.5938,243.6406 142.0156,243.2031 Q142.2813,242.9375 142.4297,242.8594 Q142.5781,242.7813 142.7813,242.7813 Q143.1094,242.7813 143.3672,243.0391 Q143.625,243.2969 143.625,243.6406 Q143.625,243.9844 143.2813,244.3906 Q142.7813,244.9688 141.9844,245.2969 Q140.9063,245.75 139.6094,245.75 Q138.0938,245.75 136.8906,245.125 Q135.9063,244.625 135.2188,243.5547 Q134.5313,242.4844 134.5313,241.2031 L134.5313,240.0469 Q134.5313,238.7188 135.1484,237.5703 Q135.7656,236.4219 136.8594,235.8047 Q137.9531,235.1875 139.1875,235.1875 Q139.9219,235.1875 140.5703,235.3516 Q141.2188,235.5156 141.7656,235.875 Z "/><text fill="#000000" font-family="sans-serif" font-size="12" lengthAdjust="spacingAndGlyphs" textLength="53" x="153" y="244.9102">Eficiencia</text><line style="stroke: #A80036; stroke-width: 1.5;" x1="125" x2="208" y1="256" y2="256"/><line style="stroke: #A80036; stroke-width: 1.5;" x1="125" x2="208" y1="264" y2="264"/><!--class Ambito--><rect fill="#0000FF" filter="url(#ftqai01dwh5i)" height="48" id="Ambito" style="stroke: #A80036; stroke-width: 1.5;" width="70" x="381.5" y="332"/><rect fill="#0000FF" height="32" style="stroke: #A80036; stroke-width: 1.5;" width="70" x="381.5" y="332"/><ellipse cx="396.5" cy="348" fill="#ADD1B2" rx="11" ry="11" style="stroke: #A80036; stroke-width: 1.0;"/><path d="M399.2656,343.875 Q399.4219,343.6563 399.6094,343.5469 Q399.7969,343.4375 400.0156,343.4375 Q400.3906,343.4375 400.625,343.6953 Q400.8594,343.9531 400.8594,344.5625 L400.8594,346.0156 Q400.8594,346.625 400.625,346.8906 Q400.3906,347.1563 400.0156,347.1563 Q399.6719,347.1563 399.4688,346.9531 Q399.2656,346.7656 399.1563,346.25 Q399.1094,345.8906 398.9219,345.7031 Q398.5938,345.3281 397.9844,345.1094 Q397.375,344.8906 396.75,344.8906 Q395.9844,344.8906 395.3516,345.2188 Q394.7188,345.5469 394.2266,346.2969 Q393.7344,347.0469 393.7344,348.0781 L393.7344,349.1719 Q393.7344,350.4063 394.625,351.2266 Q395.5156,352.0469 397.1094,352.0469 Q398.0469,352.0469 398.7031,351.7969 Q399.0938,351.6406 399.5156,351.2031 Q399.7813,350.9375 399.9297,350.8594 Q400.0781,350.7813 400.2813,350.7813 Q400.6094,350.7813 400.8672,351.0391 Q401.125,351.2969 401.125,351.6406 Q401.125,351.9844 400.7813,352.3906 Q400.2813,352.9688 399.4844,353.2969 Q398.4063,353.75 397.1094,353.75 Q395.5938,353.75 394.3906,353.125 Q393.4063,352.625 392.7188,351.5547 Q392.0313,350.4844 392.0313,349.2031 L392.0313,348.0469 Q392.0313,346.7188 392.6484,345.5703 Q393.2656,344.4219 394.3594,343.8047 Q395.4531,343.1875 396.6875,343.1875 Q397.4219,343.1875 398.0703,343.3516 Q398.7188,343.5156 399.2656,343.875 Z "/><text fill="#000000" font-family="sans-serif" font-size="12" lengthAdjust="spacingAndGlyphs" textLength="38" x="410.5" y="352.9102">Ambito</text><line style="stroke: #A80036; stroke-width: 1.5;" x1="382.5" x2="450.5" y1="364" y2="364"/><line style="stroke: #A80036; stroke-width: 1.5;" x1="382.5" x2="450.5" y1="372" y2="372"/><!--class Tiempo--><rect fill="#0000FF" filter="url(#ftqai01dwh5i)" height="48" id="Tiempo" style="stroke: #A80036; stroke-width: 1.5;" width="74" x="100.5" y="332"/><rect fill="#0000FF" height="32" style="stroke: #A80036; stroke-width: 1.5;" width="74" x="100.5" y="332"/><ellipse cx="115.5" cy="348" fill="#ADD1B2" rx="11" ry="11" style="stroke: #A80036; stroke-width: 1.0;"/><path d="M118.2656,343.875 Q118.4219,343.6563 118.6094,343.5469 Q118.7969,343.4375 119.0156,343.4375 Q119.3906,343.4375 119.625,343.6953 Q119.8594,343.9531 119.8594,344.5625 L119.8594,346.0156 Q119.8594,346.625 119.625,346.8906 Q119.3906,347.1563 119.0156,347.1563 Q118.6719,347.1563 118.4688,346.9531 Q118.2656,346.7656 118.1563,346.25 Q118.1094,345.8906 117.9219,345.7031 Q117.5938,345.3281 116.9844,345.1094 Q116.375,344.8906 115.75,344.8906 Q114.9844,344.8906 114.3516,345.2188 Q113.7188,345.5469 113.2266,346.2969 Q112.7344,347.0469 112.7344,348.0781 L112.7344,349.1719 Q112.7344,350.4063 113.625,351.2266 Q114.5156,352.0469 116.1094,352.0469 Q117.0469,352.0469 117.7031,351.7969 Q118.0938,351.6406 118.5156,351.2031 Q118.7813,350.9375 118.9297,350.8594 Q119.0781,350.7813 119.2813,350.7813 Q119.6094,350.7813 119.8672,351.0391 Q120.125,351.2969 120.125,351.6406 Q120.125,351.9844 119.7813,352.3906 Q119.2813,352.9688 118.4844,353.2969 Q117.4063,353.75 116.1094,353.75 Q114.5938,353.75 113.3906,353.125 Q112.4063,352.625 111.7188,351.5547 Q111.0313,350.4844 111.0313,349.2031 L111.0313,348.0469 Q111.0313,346.7188 111.6484,345.5703 Q112.2656,344.4219 113.3594,343.8047 Q114.4531,343.1875 115.6875,343.1875 Q116.4219,343.1875 117.0703,343.3516 Q117.7188,343.5156 118.2656,343.875 Z "/><text fill="#000000" font-family="sans-serif" font-size="12" lengthAdjust="spacingAndGlyphs" textLength="42" x="129.5" y="352.9102">Tiempo</text><line style="stroke: #A80036; stroke-width: 1.5;" x1="101.5" x2="173.5" y1="364" y2="364"/><line style="stroke: #A80036; stroke-width: 1.5;" x1="101.5" x2="173.5" y1="372" y2="372"/><!--class Coste--><rect fill="#0000FF" filter="url(#ftqai01dwh5i)" height="48" id="Coste" style="stroke: #A80036; stroke-width: 1.5;" width="65" x="210" y="332"/><rect fill="#0000FF" height="32" style="stroke: #A80036; stroke-width: 1.5;" width="65" x="210" y="332"/><ellipse cx="225" cy="348" fill="#ADD1B2" rx="11" ry="11" style="stroke: #A80036; stroke-width: 1.0;"/><path d="M227.7656,343.875 Q227.9219,343.6563 228.1094,343.5469 Q228.2969,343.4375 228.5156,343.4375 Q228.8906,343.4375 229.125,343.6953 Q229.3594,343.9531 229.3594,344.5625 L229.3594,346.0156 Q229.3594,346.625 229.125,346.8906 Q228.8906,347.1563 228.5156,347.1563 Q228.1719,347.1563 227.9688,346.9531 Q227.7656,346.7656 227.6563,346.25 Q227.6094,345.8906 227.4219,345.7031 Q227.0938,345.3281 226.4844,345.1094 Q225.875,344.8906 225.25,344.8906 Q224.4844,344.8906 223.8516,345.2188 Q223.2188,345.5469 222.7266,346.2969 Q222.2344,347.0469 222.2344,348.0781 L222.2344,349.1719 Q222.2344,350.4063 223.125,351.2266 Q224.0156,352.0469 225.6094,352.0469 Q226.5469,352.0469 227.2031,351.7969 Q227.5938,351.6406 228.0156,351.2031 Q228.2813,350.9375 228.4297,350.8594 Q228.5781,350.7813 228.7813,350.7813 Q229.1094,350.7813 229.3672,351.0391 Q229.625,351.2969 229.625,351.6406 Q229.625,351.9844 229.2813,352.3906 Q228.7813,352.9688 227.9844,353.2969 Q226.9063,353.75 225.6094,353.75 Q224.0938,353.75 222.8906,353.125 Q221.9063,352.625 221.2188,351.5547 Q220.5313,350.4844 220.5313,349.2031 L220.5313,348.0469 Q220.5313,346.7188 221.1484,345.5703 Q221.7656,344.4219 222.8594,343.8047 Q223.9531,343.1875 225.1875,343.1875 Q225.9219,343.1875 226.5703,343.3516 Q227.2188,343.5156 227.7656,343.875 Z "/><text fill="#000000" font-family="sans-serif" font-size="12" lengthAdjust="spacingAndGlyphs" textLength="33" x="239" y="352.9102">Coste</text><line style="stroke: #A80036; stroke-width: 1.5;" x1="211" x2="274" y1="364" y2="364"/><line style="stroke: #A80036; stroke-width: 1.5;" x1="211" x2="274" y1="372" y2="372"/><!--link ProyectoSoftware to ProductoSoftware--><path d="M188.558,63.157 C166.368,77.412 139.934,94.394 117.71,108.671 " fill="none" id="ProyectoSoftware-ProductoSoftware" style="stroke: #A80036; stroke-width: 1.0;"/><polygon fill="#A80036" points="106.517,115.862,116.251,114.3623,110.7236,113.1593,111.9266,107.6318,106.517,115.862" style="stroke: #A80036; stroke-width: 1.0;"/><line style="stroke: #A80036; stroke-width: 1.0;" x1="110.7236" x2="117.4545" y1="113.1593" y2="108.835"/><polygon fill="#A80036" points="199.697,56,192.4869,55.8774,189.6006,62.4856,196.8107,62.6083,199.697,56" style="stroke: #A80036; stroke-width: 1.0;"/><!--link ProyectoSoftware to Variable--><path d="M243.463,69.258 C252.128,108.709 265.897,171.405 274.555,210.824 " fill="none" id="ProyectoSoftware-Variable" style="stroke: #A80036; stroke-width: 1.0;"/><polygon fill="#A80036" points="277.387,223.72,279.3633,214.0715,276.3145,218.8364,271.5495,215.7875,277.387,223.72" style="stroke: #A80036; stroke-width: 1.0;"/><line style="stroke: #A80036; stroke-width: 1.0;" x1="276.3145" x2="274.598" y1="218.8364" y2="211.022"/><polygon fill="#A80036" points="240.619,56.309,237.9999,63.0277,243.1944,68.0294,245.8135,61.3107,240.619,56.309" style="stroke: #A80036; stroke-width: 1.0;"/><!--link ProyectoSoftware to Efectividad--><path d="M265.971,65.626 C277.9,78.398 291.568,93.032 303.543,105.854 " fill="none" id="ProyectoSoftware-Efectividad" style="stroke: #A80036; stroke-width: 1.0;"/><polygon fill="#A80036" points="312.719,115.678,309.4991,106.3704,309.3061,112.0239,303.6526,111.8309,312.719,115.678" style="stroke: #A80036; stroke-width: 1.0;"/><line style="stroke: #A80036; stroke-width: 1.0;" x1="309.3061" x2="303.845" y1="112.0239" y2="106.1775"/><polygon fill="#A80036" points="256.982,56,258.1542,63.1152,265.1729,64.7698,264.0007,57.6546,256.982,56" style="stroke: #A80036; stroke-width: 1.0;"/><!--link ProductoSoftware to Calidad--><path d="M61.9184,177.282 C52.2612,227.232 42.6692,318.024 82.5,380 C107.017,418.149 155.047,439.704 192.114,451.227 " fill="none" id="ProductoSoftware-Calidad" style="stroke: #A80036; stroke-width: 1.0;"/><polygon fill="#A80036" points="204.711,454.896,197.1881,448.5394,199.9104,453.4982,194.9516,456.2204,204.711,454.896" style="stroke: #A80036; stroke-width: 1.0;"/><line style="stroke: #A80036; stroke-width: 1.0;" x1="199.9104" x2="192.23" y1="453.4982" y2="451.2615"/><polygon fill="#A80036" points="64.6029,164.334,59.4683,169.3972,62.1673,176.0842,67.3018,171.021,64.6029,164.334" style="stroke: #A80036; stroke-width: 1.0;"/><!--link Calidad to Mantenibilidad--><path d="M242.5,501.3383 C242.5,512.0064 242.5,523.6772 242.5,534.3638 " fill="none" id="Calidad-Mantenibilidad" style="stroke: #A80036; stroke-width: 1.0;"/><polygon fill="#A80036" points="242.5,547.6784,246.5,538.6784,242.5,542.6784,238.5,538.6784,242.5,547.6784" style="stroke: #A80036; stroke-width: 1.0;"/><line style="stroke: #A80036; stroke-width: 1.0;" x1="242.5" x2="242.5" y1="542.6784" y2="534.6785"/><polygon fill="#A80036" points="242.5,488,238.5,494,242.5,500,246.5,494,242.5,488" style="stroke: #A80036; stroke-width: 1.0;"/><!--link Efectividad to Eficacia--><path d="M356.957,175.007 C364.908,187.046 373.854,200.593 381.822,212.66 " fill="none" id="Efectividad-Eficacia" style="stroke: #A80036; stroke-width: 1.0;"/><polygon fill="#A80036" points="389.099,223.678,387.4772,213.9636,386.3437,219.5057,380.8015,218.3721,389.099,223.678" style="stroke: #A80036; stroke-width: 1.0;"/><line style="stroke: #A80036; stroke-width: 1.0;" x1="386.3437" x2="381.935" y1="219.5057" y2="212.8305"/><polygon fill="#A80036" points="349.689,164,349.6576,171.211,356.3018,174.0135,356.3333,166.8025,349.689,164" style="stroke: #A80036; stroke-width: 1.0;"/><!--link Efectividad to Eficiencia--><path d="M286.705,171.157 C264.008,185.477 236.95,202.55 214.258,216.867 " fill="none" id="Efectividad-Eficiencia" style="stroke: #A80036; stroke-width: 1.0;"/><polygon fill="#A80036" points="203.172,223.862,212.9181,222.4431,207.4008,221.1942,208.6497,215.677,203.172,223.862" style="stroke: #A80036; stroke-width: 1.0;"/><line style="stroke: #A80036; stroke-width: 1.0;" x1="207.4008" x2="214.1665" y1="221.1942" y2="216.925"/><polygon fill="#A80036" points="298.047,164,290.8382,163.8185,287.898,170.403,295.1068,170.5845,298.047,164" style="stroke: #A80036; stroke-width: 1.0;"/><!--link Eficacia to Ambito--><path d="M407.104,272 C408.915,288.003 411.343,309.446 413.277,326.528 " fill="none" id="Eficacia-Ambito" style="stroke: #A80036; stroke-width: 1.0;"/><polygon fill="#A80036" points="413.86,331.678,416.8215,322.2849,413.2972,326.7098,408.8724,323.1855,413.86,331.678" style="stroke: #A80036; stroke-width: 1.0;"/><!--link Eficiencia to Tiempo--><path d="M160.207,272 C155.829,288.003 149.963,309.446 145.29,326.528 " fill="none" id="Eficiencia-Tiempo" style="stroke: #A80036; stroke-width: 1.0;"/><polygon fill="#A80036" points="143.88,331.678,150.1119,324.0515,145.1986,326.855,142.3951,321.9417,143.88,331.678" style="stroke: #A80036; stroke-width: 1.0;"/><!--link Eficiencia to Coste--><path d="M182.991,272 C194.662,288.279 210.37,310.187 222.717,327.408 " fill="none" id="Eficiencia-Coste" style="stroke: #A80036; stroke-width: 1.0;"/><polygon fill="#A80036" points="225.779,331.678,223.7852,322.0331,222.8654,327.6146,217.2838,326.6949,225.779,331.678" style="stroke: #A80036; stroke-width: 1.0;"/><!--link Variable to Tiempo--><path d="M234.652,283.979 C213.128,299.713 188.314,317.853 169.151,331.862 " fill="none" id="Variable-Tiempo" style="stroke: #A80036; stroke-width: 1.0;"/><polygon fill="none" points="230.76,278.153,251.037,272,239.022,289.455,230.76,278.153" style="stroke: #A80036; stroke-width: 1.0;"/><!--link Variable to Ambito--><path d="M327.548,284.635 C347.158,300.147 369.588,317.89 387.018,331.678 " fill="none" id="Variable-Ambito" style="stroke: #A80036; stroke-width: 1.0;"/><polygon fill="none" points="322.919,289.899,311.576,272,331.605,278.919,322.919,289.899" style="stroke: #A80036; stroke-width: 1.0;"/><!--link Variable to Coste--><path d="M266.629,291.057 C261.41,304.889 255.798,319.761 251.301,331.678 " fill="none" id="Variable-Coste" style="stroke: #A80036; stroke-width: 1.0;"/><polygon fill="none" points="260.21,288.241,273.821,272,273.309,293.184,260.21,288.241" style="stroke: #A80036; stroke-width: 1.0;"/><!--link Variable to Calidad--><path d="M293.104,291.923 C297.718,317.855 300.469,351.328 292.5,380 C286.373,402.043 272.645,424.09 261.121,439.916 " fill="none" id="Variable-Calidad" style="stroke: #A80036; stroke-width: 1.0;"/><polygon fill="none" points="286.218,293.192,288.984,272.183,299.923,290.332,286.218,293.192" style="stroke: #A80036; stroke-width: 1.0;"/><!--link Tiempo to Calidad--><path d="M160.283,380 C176.545,396.417 198.478,418.559 215.601,435.844 " fill="none" id="Tiempo-Calidad" style="stroke: #A80036; stroke-width: 1.0;"/><polygon fill="#A80036" points="219.398,439.678,215.9071,430.4686,215.8796,436.1254,210.2229,436.0979,219.398,439.678" style="stroke: #A80036; stroke-width: 1.0;"/><!--link Ambito to Calidad--><path d="M381.289,378.451 C353.273,395.518 313.991,419.448 284.366,437.495 " fill="none" id="Ambito-Calidad" style="stroke: #A80036; stroke-width: 1.0;"/><polygon fill="#A80036" points="280.068,440.114,289.8354,438.8498,284.3386,437.5136,285.6748,432.0169,280.068,440.114" style="stroke: #A80036; stroke-width: 1.0;"/><!--link Coste to Calidad--><path d="M242.5,380 C242.5,396.003 242.5,417.446 242.5,434.528 " fill="none" id="Coste-Calidad" style="stroke: #A80036; stroke-width: 1.0;"/><polygon fill="#A80036" points="242.5,439.678,246.5,430.678,242.5,434.678,238.5,430.678,242.5,439.678" style="stroke: #A80036; stroke-width: 1.0;"/><!--
@startuml

class "Proyecto Software" as ProyectoSoftware #GreenYellow
ProyectoSoftware *-down-> ProductoSoftware
ProyectoSoftware *-down-> Variable
ProyectoSoftware *-down-> Efectividad

class "Producto Software" as ProductoSoftware #GreenYellow
ProductoSoftware *-down-> Calidad

class Calidad #CornflowerBlue
Calidad *-down-> Mantenibilidad

class Mantenibilidad #CornflowerBlue

class Efectividad #orange
class Eficacia #orange
class Eficiencia #orange
Efectividad *-down-> Eficacia
Efectividad *-down-> Eficiencia

Eficacia -down-> Ambito
Eficiencia -down-> Tiempo
Eficiencia -down-> Coste

class Variable #blue
class Tiempo #blue
class "Ámbito" as Ambito #blue
class Coste #blue

Variable <|-down- Tiempo
Variable <|-down- Ambito
Variable <|-down- Coste
Variable <|-down- Calidad

Tiempo -down-> Calidad
Ambito -down-> Calidad
Coste -down-> Calidad

@enduml

PlantUML version 1.2019.05(Sat Apr 20 18:45:36 CEST 2019)
(GPL source distribution)
Java Runtime: OpenJDK Runtime Environment
JVM: OpenJDK 64-Bit Server VM
Java Version: 1.8.0_222-b10
Operating System: Windows 10
OS Version: 10.0
Default Encoding: windows-1252
Language: es
Country: ES
--></g></svg>