<?xml version="1.0" encoding="UTF-8" standalone="no"?><svg xmlns="http://www.w3.org/2000/svg" xmlns:xlink="http://www.w3.org/1999/xlink" contentScriptType="application/ecmascript" contentStyleType="text/css" height="1675px" preserveAspectRatio="none" style="width:406px;height:1675px;" version="1.1" viewBox="0 0 406 1675" width="406px" zoomAndPan="magnify"><defs><filter height="300%" id="fff79x4o1mcmp" width="300%" x="-1" y="-1"><feGaussianBlur result="blurOut" stdDeviation="2.0"/><feColorMatrix in="blurOut" result="blurOut2" type="matrix" values="0 0 0 0 0 0 0 0 0 0 0 0 0 0 0 0 0 0 .4 0"/><feOffset dx="4.0" dy="4.0" in="blurOut2" result="blurOut3"/><feBlend in="SourceGraphic" in2="blurOut3" mode="normal"/></filter></defs><g><!--class FundamentosProgramacion--><rect fill="#FEFECE" filter="url(#fff79x4o1mcmp)" height="56.1875" id="FundamentosProgramacion" style="stroke: #A80036; stroke-width: 1.5;" width="127" x="197" y="1608"/><ellipse cx="212" cy="1628.0938" fill="#ADD1B2" rx="11" ry="11" style="stroke: #A80036; stroke-width: 1.0;"/><path d="M214.7656,1623.9688 Q214.9219,1623.75 215.1094,1623.6406 Q215.2969,1623.5313 215.5156,1623.5313 Q215.8906,1623.5313 216.125,1623.7891 Q216.3594,1624.0469 216.3594,1624.6563 L216.3594,1626.1094 Q216.3594,1626.7188 216.125,1626.9844 Q215.8906,1627.25 215.5156,1627.25 Q215.1719,1627.25 214.9688,1627.0469 Q214.7656,1626.8594 214.6563,1626.3438 Q214.6094,1625.9844 214.4219,1625.7969 Q214.0938,1625.4219 213.4844,1625.2031 Q212.875,1624.9844 212.25,1624.9844 Q211.4844,1624.9844 210.8516,1625.3125 Q210.2188,1625.6406 209.7266,1626.3906 Q209.2344,1627.1406 209.2344,1628.1719 L209.2344,1629.2656 Q209.2344,1630.5 210.125,1631.3203 Q211.0156,1632.1406 212.6094,1632.1406 Q213.5469,1632.1406 214.2031,1631.8906 Q214.5938,1631.7344 215.0156,1631.2969 Q215.2813,1631.0313 215.4297,1630.9531 Q215.5781,1630.875 215.7813,1630.875 Q216.1094,1630.875 216.3672,1631.1328 Q216.625,1631.3906 216.625,1631.7344 Q216.625,1632.0781 216.2813,1632.4844 Q215.7813,1633.0625 214.9844,1633.3906 Q213.9063,1633.8438 212.6094,1633.8438 Q211.0938,1633.8438 209.8906,1633.2188 Q208.9063,1632.7188 208.2188,1631.6484 Q207.5313,1630.5781 207.5313,1629.2969 L207.5313,1628.1406 Q207.5313,1626.8125 208.1484,1625.6641 Q208.7656,1624.5156 209.8594,1623.8984 Q210.9531,1623.2813 212.1875,1623.2813 Q212.9219,1623.2813 213.5703,1623.4453 Q214.2188,1623.6094 214.7656,1623.9688 Z "/><text fill="#000000" font-family="sans-serif" font-size="12" lengthAdjust="spacingAndGlyphs" textLength="77" x="235" y="1625.457">Fundamentos</text><text fill="#000000" font-family="sans-serif" font-size="12" lengthAdjust="spacingAndGlyphs" textLength="95" x="226" y="1640.5508">de Programación</text><line style="stroke: #A80036; stroke-width: 1.5;" x1="198" x2="323" y1="1648.1875" y2="1648.1875"/><line style="stroke: #A80036; stroke-width: 1.5;" x1="198" x2="323" y1="1656.1875" y2="1656.1875"/><!--class ProgramaciónEstructurada--><rect fill="#FEFECE" filter="url(#fff79x4o1mcmp)" height="56.1875" id="ProgramaciónEstructurada" style="stroke: #A80036; stroke-width: 1.5;" width="110" x="205.5" y="1492"/><ellipse cx="220.5" cy="1512.0938" fill="#ADD1B2" rx="11" ry="11" style="stroke: #A80036; stroke-width: 1.0;"/><path d="M223.2656,1507.9688 Q223.4219,1507.75 223.6094,1507.6406 Q223.7969,1507.5313 224.0156,1507.5313 Q224.3906,1507.5313 224.625,1507.7891 Q224.8594,1508.0469 224.8594,1508.6563 L224.8594,1510.1094 Q224.8594,1510.7188 224.625,1510.9844 Q224.3906,1511.25 224.0156,1511.25 Q223.6719,1511.25 223.4688,1511.0469 Q223.2656,1510.8594 223.1563,1510.3438 Q223.1094,1509.9844 222.9219,1509.7969 Q222.5938,1509.4219 221.9844,1509.2031 Q221.375,1508.9844 220.75,1508.9844 Q219.9844,1508.9844 219.3516,1509.3125 Q218.7188,1509.6406 218.2266,1510.3906 Q217.7344,1511.1406 217.7344,1512.1719 L217.7344,1513.2656 Q217.7344,1514.5 218.625,1515.3203 Q219.5156,1516.1406 221.1094,1516.1406 Q222.0469,1516.1406 222.7031,1515.8906 Q223.0938,1515.7344 223.5156,1515.2969 Q223.7813,1515.0313 223.9297,1514.9531 Q224.0781,1514.875 224.2813,1514.875 Q224.6094,1514.875 224.8672,1515.1328 Q225.125,1515.3906 225.125,1515.7344 Q225.125,1516.0781 224.7813,1516.4844 Q224.2813,1517.0625 223.4844,1517.3906 Q222.4063,1517.8438 221.1094,1517.8438 Q219.5938,1517.8438 218.3906,1517.2188 Q217.4063,1516.7188 216.7188,1515.6484 Q216.0313,1514.5781 216.0313,1513.2969 L216.0313,1512.1406 Q216.0313,1510.8125 216.6484,1509.6641 Q217.2656,1508.5156 218.3594,1507.8984 Q219.4531,1507.2813 220.6875,1507.2813 Q221.4219,1507.2813 222.0703,1507.4453 Q222.7188,1507.6094 223.2656,1507.9688 Z "/><text fill="#000000" font-family="sans-serif" font-size="12" lengthAdjust="spacingAndGlyphs" textLength="78" x="234.5" y="1509.457">Programación</text><text fill="#000000" font-family="sans-serif" font-size="12" lengthAdjust="spacingAndGlyphs" textLength="70" x="238.5" y="1524.5508">Estructurada</text><line style="stroke: #A80036; stroke-width: 1.5;" x1="206.5" x2="314.5" y1="1532.1875" y2="1532.1875"/><line style="stroke: #A80036; stroke-width: 1.5;" x1="206.5" x2="314.5" y1="1540.1875" y2="1540.1875"/><!--class ProgramaciónOrientadaObjetos--><rect fill="#FEFECE" filter="url(#fff79x4o1mcmp)" height="56.1875" id="ProgramaciónOrientadaObjetos" style="stroke: #A80036; stroke-width: 1.5;" width="142" x="189.5" y="1376"/><ellipse cx="204.5" cy="1396.0938" fill="#ADD1B2" rx="11" ry="11" style="stroke: #A80036; stroke-width: 1.0;"/><path d="M207.2656,1391.9688 Q207.4219,1391.75 207.6094,1391.6406 Q207.7969,1391.5313 208.0156,1391.5313 Q208.3906,1391.5313 208.625,1391.7891 Q208.8594,1392.0469 208.8594,1392.6563 L208.8594,1394.1094 Q208.8594,1394.7188 208.625,1394.9844 Q208.3906,1395.25 208.0156,1395.25 Q207.6719,1395.25 207.4688,1395.0469 Q207.2656,1394.8594 207.1563,1394.3438 Q207.1094,1393.9844 206.9219,1393.7969 Q206.5938,1393.4219 205.9844,1393.2031 Q205.375,1392.9844 204.75,1392.9844 Q203.9844,1392.9844 203.3516,1393.3125 Q202.7188,1393.6406 202.2266,1394.3906 Q201.7344,1395.1406 201.7344,1396.1719 L201.7344,1397.2656 Q201.7344,1398.5 202.625,1399.3203 Q203.5156,1400.1406 205.1094,1400.1406 Q206.0469,1400.1406 206.7031,1399.8906 Q207.0938,1399.7344 207.5156,1399.2969 Q207.7813,1399.0313 207.9297,1398.9531 Q208.0781,1398.875 208.2813,1398.875 Q208.6094,1398.875 208.8672,1399.1328 Q209.125,1399.3906 209.125,1399.7344 Q209.125,1400.0781 208.7813,1400.4844 Q208.2813,1401.0625 207.4844,1401.3906 Q206.4063,1401.8438 205.1094,1401.8438 Q203.5938,1401.8438 202.3906,1401.2188 Q201.4063,1400.7188 200.7188,1399.6484 Q200.0313,1398.5781 200.0313,1397.2969 L200.0313,1396.1406 Q200.0313,1394.8125 200.6484,1393.6641 Q201.2656,1392.5156 202.3594,1391.8984 Q203.4531,1391.2813 204.6875,1391.2813 Q205.4219,1391.2813 206.0703,1391.4453 Q206.7188,1391.6094 207.2656,1391.9688 Z "/><text fill="#000000" font-family="sans-serif" font-size="12" lengthAdjust="spacingAndGlyphs" textLength="78" x="234.5" y="1393.457">Programación</text><text fill="#000000" font-family="sans-serif" font-size="12" lengthAdjust="spacingAndGlyphs" textLength="110" x="218.5" y="1408.5508">Orientada a Objetos</text><line style="stroke: #A80036; stroke-width: 1.5;" x1="190.5" x2="330.5" y1="1416.1875" y2="1416.1875"/><line style="stroke: #A80036; stroke-width: 1.5;" x1="190.5" x2="330.5" y1="1424.1875" y2="1424.1875"/><!--class ProcesoDesarrolloSoftware--><rect fill="#FEFECE" filter="url(#fff79x4o1mcmp)" height="56.1875" id="ProcesoDesarrolloSoftware" style="stroke: #A80036; stroke-width: 1.5;" width="141" x="190" y="1260"/><ellipse cx="205" cy="1280.0938" fill="#ADD1B2" rx="11" ry="11" style="stroke: #A80036; stroke-width: 1.0;"/><path d="M207.7656,1275.9688 Q207.9219,1275.75 208.1094,1275.6406 Q208.2969,1275.5313 208.5156,1275.5313 Q208.8906,1275.5313 209.125,1275.7891 Q209.3594,1276.0469 209.3594,1276.6563 L209.3594,1278.1094 Q209.3594,1278.7188 209.125,1278.9844 Q208.8906,1279.25 208.5156,1279.25 Q208.1719,1279.25 207.9688,1279.0469 Q207.7656,1278.8594 207.6563,1278.3438 Q207.6094,1277.9844 207.4219,1277.7969 Q207.0938,1277.4219 206.4844,1277.2031 Q205.875,1276.9844 205.25,1276.9844 Q204.4844,1276.9844 203.8516,1277.3125 Q203.2188,1277.6406 202.7266,1278.3906 Q202.2344,1279.1406 202.2344,1280.1719 L202.2344,1281.2656 Q202.2344,1282.5 203.125,1283.3203 Q204.0156,1284.1406 205.6094,1284.1406 Q206.5469,1284.1406 207.2031,1283.8906 Q207.5938,1283.7344 208.0156,1283.2969 Q208.2813,1283.0313 208.4297,1282.9531 Q208.5781,1282.875 208.7813,1282.875 Q209.1094,1282.875 209.3672,1283.1328 Q209.625,1283.3906 209.625,1283.7344 Q209.625,1284.0781 209.2813,1284.4844 Q208.7813,1285.0625 207.9844,1285.3906 Q206.9063,1285.8438 205.6094,1285.8438 Q204.0938,1285.8438 202.8906,1285.2188 Q201.9063,1284.7188 201.2188,1283.6484 Q200.5313,1282.5781 200.5313,1281.2969 L200.5313,1280.1406 Q200.5313,1278.8125 201.1484,1277.6641 Q201.7656,1276.5156 202.8594,1275.8984 Q203.9531,1275.2813 205.1875,1275.2813 Q205.9219,1275.2813 206.5703,1275.4453 Q207.2188,1275.6094 207.7656,1275.9688 Z "/><text fill="#000000" font-family="sans-serif" font-size="12" lengthAdjust="spacingAndGlyphs" textLength="63" x="242" y="1277.457">Proceso de</text><text fill="#000000" font-family="sans-serif" font-size="12" lengthAdjust="spacingAndGlyphs" textLength="109" x="219" y="1292.5508">Desarrollo Software</text><line style="stroke: #A80036; stroke-width: 1.5;" x1="191" x2="330" y1="1300.1875" y2="1300.1875"/><line style="stroke: #A80036; stroke-width: 1.5;" x1="191" x2="330" y1="1308.1875" y2="1308.1875"/><!--class DiseñoSoftware--><rect fill="#FEFECE" filter="url(#fff79x4o1mcmp)" height="56.1875" id="DiseñoSoftware" style="stroke: #A80036; stroke-width: 1.5;" width="97" x="212" y="1144"/><ellipse cx="227" cy="1164.0938" fill="#ADD1B2" rx="11" ry="11" style="stroke: #A80036; stroke-width: 1.0;"/><path d="M229.7656,1159.9688 Q229.9219,1159.75 230.1094,1159.6406 Q230.2969,1159.5313 230.5156,1159.5313 Q230.8906,1159.5313 231.125,1159.7891 Q231.3594,1160.0469 231.3594,1160.6563 L231.3594,1162.1094 Q231.3594,1162.7188 231.125,1162.9844 Q230.8906,1163.25 230.5156,1163.25 Q230.1719,1163.25 229.9688,1163.0469 Q229.7656,1162.8594 229.6563,1162.3438 Q229.6094,1161.9844 229.4219,1161.7969 Q229.0938,1161.4219 228.4844,1161.2031 Q227.875,1160.9844 227.25,1160.9844 Q226.4844,1160.9844 225.8516,1161.3125 Q225.2188,1161.6406 224.7266,1162.3906 Q224.2344,1163.1406 224.2344,1164.1719 L224.2344,1165.2656 Q224.2344,1166.5 225.125,1167.3203 Q226.0156,1168.1406 227.6094,1168.1406 Q228.5469,1168.1406 229.2031,1167.8906 Q229.5938,1167.7344 230.0156,1167.2969 Q230.2813,1167.0313 230.4297,1166.9531 Q230.5781,1166.875 230.7813,1166.875 Q231.1094,1166.875 231.3672,1167.1328 Q231.625,1167.3906 231.625,1167.7344 Q231.625,1168.0781 231.2813,1168.4844 Q230.7813,1169.0625 229.9844,1169.3906 Q228.9063,1169.8438 227.6094,1169.8438 Q226.0938,1169.8438 224.8906,1169.2188 Q223.9063,1168.7188 223.2188,1167.6484 Q222.5313,1166.5781 222.5313,1165.2969 L222.5313,1164.1406 Q222.5313,1162.8125 223.1484,1161.6641 Q223.7656,1160.5156 224.8594,1159.8984 Q225.9531,1159.2813 227.1875,1159.2813 Q227.9219,1159.2813 228.5703,1159.4453 Q229.2188,1159.6094 229.7656,1159.9688 Z "/><text fill="#000000" font-family="sans-serif" font-size="12" lengthAdjust="spacingAndGlyphs" textLength="40" x="253.5" y="1161.457">Diseño</text><text fill="#000000" font-family="sans-serif" font-size="12" lengthAdjust="spacingAndGlyphs" textLength="65" x="241" y="1176.5508">de Software</text><line style="stroke: #A80036; stroke-width: 1.5;" x1="213" x2="308" y1="1184.1875" y2="1184.1875"/><line style="stroke: #A80036; stroke-width: 1.5;" x1="213" x2="308" y1="1192.1875" y2="1192.1875"/><!--class ProgrmacionAvanzada--><rect fill="#FEFECE" filter="url(#fff79x4o1mcmp)" height="56.1875" id="ProgrmacionAvanzada" style="stroke: #A80036; stroke-width: 1.5;" width="110" x="275.5" y="804"/><ellipse cx="290.5" cy="824.0938" fill="#ADD1B2" rx="11" ry="11" style="stroke: #A80036; stroke-width: 1.0;"/><path d="M293.2656,819.9688 Q293.4219,819.75 293.6094,819.6406 Q293.7969,819.5313 294.0156,819.5313 Q294.3906,819.5313 294.625,819.7891 Q294.8594,820.0469 294.8594,820.6563 L294.8594,822.1094 Q294.8594,822.7188 294.625,822.9844 Q294.3906,823.25 294.0156,823.25 Q293.6719,823.25 293.4688,823.0469 Q293.2656,822.8594 293.1563,822.3438 Q293.1094,821.9844 292.9219,821.7969 Q292.5938,821.4219 291.9844,821.2031 Q291.375,820.9844 290.75,820.9844 Q289.9844,820.9844 289.3516,821.3125 Q288.7188,821.6406 288.2266,822.3906 Q287.7344,823.1406 287.7344,824.1719 L287.7344,825.2656 Q287.7344,826.5 288.625,827.3203 Q289.5156,828.1406 291.1094,828.1406 Q292.0469,828.1406 292.7031,827.8906 Q293.0938,827.7344 293.5156,827.2969 Q293.7813,827.0313 293.9297,826.9531 Q294.0781,826.875 294.2813,826.875 Q294.6094,826.875 294.8672,827.1328 Q295.125,827.3906 295.125,827.7344 Q295.125,828.0781 294.7813,828.4844 Q294.2813,829.0625 293.4844,829.3906 Q292.4063,829.8438 291.1094,829.8438 Q289.5938,829.8438 288.3906,829.2188 Q287.4063,828.7188 286.7188,827.6484 Q286.0313,826.5781 286.0313,825.2969 L286.0313,824.1406 Q286.0313,822.8125 286.6484,821.6641 Q287.2656,820.5156 288.3594,819.8984 Q289.4531,819.2813 290.6875,819.2813 Q291.4219,819.2813 292.0703,819.4453 Q292.7188,819.6094 293.2656,819.9688 Z "/><text fill="#000000" font-family="sans-serif" font-size="12" lengthAdjust="spacingAndGlyphs" textLength="78" x="304.5" y="821.457">Programación</text><text fill="#000000" font-family="sans-serif" font-size="12" lengthAdjust="spacingAndGlyphs" textLength="52" x="317.5" y="836.5508">Avanzada</text><line style="stroke: #A80036; stroke-width: 1.5;" x1="276.5" x2="384.5" y1="844.1875" y2="844.1875"/><line style="stroke: #A80036; stroke-width: 1.5;" x1="276.5" x2="384.5" y1="852.1875" y2="852.1875"/><!--class PatronesDiseño--><rect fill="#FEFECE" filter="url(#fff79x4o1mcmp)" height="48" id="PatronesDiseño" style="stroke: #A80036; stroke-width: 1.5;" width="122" x="199.5" y="920"/><ellipse cx="214.5" cy="936" fill="#ADD1B2" rx="11" ry="11" style="stroke: #A80036; stroke-width: 1.0;"/><path d="M217.2656,931.875 Q217.4219,931.6563 217.6094,931.5469 Q217.7969,931.4375 218.0156,931.4375 Q218.3906,931.4375 218.625,931.6953 Q218.8594,931.9531 218.8594,932.5625 L218.8594,934.0156 Q218.8594,934.625 218.625,934.8906 Q218.3906,935.1563 218.0156,935.1563 Q217.6719,935.1563 217.4688,934.9531 Q217.2656,934.7656 217.1563,934.25 Q217.1094,933.8906 216.9219,933.7031 Q216.5938,933.3281 215.9844,933.1094 Q215.375,932.8906 214.75,932.8906 Q213.9844,932.8906 213.3516,933.2188 Q212.7188,933.5469 212.2266,934.2969 Q211.7344,935.0469 211.7344,936.0781 L211.7344,937.1719 Q211.7344,938.4063 212.625,939.2266 Q213.5156,940.0469 215.1094,940.0469 Q216.0469,940.0469 216.7031,939.7969 Q217.0938,939.6406 217.5156,939.2031 Q217.7813,938.9375 217.9297,938.8594 Q218.0781,938.7813 218.2813,938.7813 Q218.6094,938.7813 218.8672,939.0391 Q219.125,939.2969 219.125,939.6406 Q219.125,939.9844 218.7813,940.3906 Q218.2813,940.9688 217.4844,941.2969 Q216.4063,941.75 215.1094,941.75 Q213.5938,941.75 212.3906,941.125 Q211.4063,940.625 210.7188,939.5547 Q210.0313,938.4844 210.0313,937.2031 L210.0313,936.0469 Q210.0313,934.7188 210.6484,933.5703 Q211.2656,932.4219 212.3594,931.8047 Q213.4531,931.1875 214.6875,931.1875 Q215.4219,931.1875 216.0703,931.3516 Q216.7188,931.5156 217.2656,931.875 Z "/><text fill="#000000" font-family="sans-serif" font-size="12" lengthAdjust="spacingAndGlyphs" textLength="90" x="228.5" y="940.9102">PatronesDiseño</text><line style="stroke: #A80036; stroke-width: 1.5;" x1="200.5" x2="320.5" y1="952" y2="952"/><line style="stroke: #A80036; stroke-width: 1.5;" x1="200.5" x2="320.5" y1="960" y2="960"/><!--class DiseñoOrientadaObjetos--><rect fill="#FEFECE" filter="url(#fff79x4o1mcmp)" height="56.1875" id="DiseñoOrientadaObjetos" style="stroke: #A80036; stroke-width: 1.5;" width="142" x="189.5" y="1028"/><ellipse cx="204.5" cy="1048.0938" fill="#ADD1B2" rx="11" ry="11" style="stroke: #A80036; stroke-width: 1.0;"/><path d="M207.2656,1043.9688 Q207.4219,1043.75 207.6094,1043.6406 Q207.7969,1043.5313 208.0156,1043.5313 Q208.3906,1043.5313 208.625,1043.7891 Q208.8594,1044.0469 208.8594,1044.6563 L208.8594,1046.1094 Q208.8594,1046.7188 208.625,1046.9844 Q208.3906,1047.25 208.0156,1047.25 Q207.6719,1047.25 207.4688,1047.0469 Q207.2656,1046.8594 207.1563,1046.3438 Q207.1094,1045.9844 206.9219,1045.7969 Q206.5938,1045.4219 205.9844,1045.2031 Q205.375,1044.9844 204.75,1044.9844 Q203.9844,1044.9844 203.3516,1045.3125 Q202.7188,1045.6406 202.2266,1046.3906 Q201.7344,1047.1406 201.7344,1048.1719 L201.7344,1049.2656 Q201.7344,1050.5 202.625,1051.3203 Q203.5156,1052.1406 205.1094,1052.1406 Q206.0469,1052.1406 206.7031,1051.8906 Q207.0938,1051.7344 207.5156,1051.2969 Q207.7813,1051.0313 207.9297,1050.9531 Q208.0781,1050.875 208.2813,1050.875 Q208.6094,1050.875 208.8672,1051.1328 Q209.125,1051.3906 209.125,1051.7344 Q209.125,1052.0781 208.7813,1052.4844 Q208.2813,1053.0625 207.4844,1053.3906 Q206.4063,1053.8438 205.1094,1053.8438 Q203.5938,1053.8438 202.3906,1053.2188 Q201.4063,1052.7188 200.7188,1051.6484 Q200.0313,1050.5781 200.0313,1049.2969 L200.0313,1048.1406 Q200.0313,1046.8125 200.6484,1045.6641 Q201.2656,1044.5156 202.3594,1043.8984 Q203.4531,1043.2813 204.6875,1043.2813 Q205.4219,1043.2813 206.0703,1043.4453 Q206.7188,1043.6094 207.2656,1043.9688 Z "/><text fill="#000000" font-family="sans-serif" font-size="12" lengthAdjust="spacingAndGlyphs" textLength="40" x="253.5" y="1045.457">Diseño</text><text fill="#000000" font-family="sans-serif" font-size="12" lengthAdjust="spacingAndGlyphs" textLength="110" x="218.5" y="1060.5508">Orientado a Objetos</text><line style="stroke: #A80036; stroke-width: 1.5;" x1="190.5" x2="330.5" y1="1068.1875" y2="1068.1875"/><line style="stroke: #A80036; stroke-width: 1.5;" x1="190.5" x2="330.5" y1="1076.1875" y2="1076.1875"/><!--class ArquitecturaSoftware--><rect fill="#FEFECE" filter="url(#fff79x4o1mcmp)" height="56.1875" id="ArquitecturaSoftware" style="stroke: #A80036; stroke-width: 1.5;" width="100" x="140.5" y="804"/><ellipse cx="155.5" cy="824.0938" fill="#ADD1B2" rx="11" ry="11" style="stroke: #A80036; stroke-width: 1.0;"/><path d="M158.2656,819.9688 Q158.4219,819.75 158.6094,819.6406 Q158.7969,819.5313 159.0156,819.5313 Q159.3906,819.5313 159.625,819.7891 Q159.8594,820.0469 159.8594,820.6563 L159.8594,822.1094 Q159.8594,822.7188 159.625,822.9844 Q159.3906,823.25 159.0156,823.25 Q158.6719,823.25 158.4688,823.0469 Q158.2656,822.8594 158.1563,822.3438 Q158.1094,821.9844 157.9219,821.7969 Q157.5938,821.4219 156.9844,821.2031 Q156.375,820.9844 155.75,820.9844 Q154.9844,820.9844 154.3516,821.3125 Q153.7188,821.6406 153.2266,822.3906 Q152.7344,823.1406 152.7344,824.1719 L152.7344,825.2656 Q152.7344,826.5 153.625,827.3203 Q154.5156,828.1406 156.1094,828.1406 Q157.0469,828.1406 157.7031,827.8906 Q158.0938,827.7344 158.5156,827.2969 Q158.7813,827.0313 158.9297,826.9531 Q159.0781,826.875 159.2813,826.875 Q159.6094,826.875 159.8672,827.1328 Q160.125,827.3906 160.125,827.7344 Q160.125,828.0781 159.7813,828.4844 Q159.2813,829.0625 158.4844,829.3906 Q157.4063,829.8438 156.1094,829.8438 Q154.5938,829.8438 153.3906,829.2188 Q152.4063,828.7188 151.7188,827.6484 Q151.0313,826.5781 151.0313,825.2969 L151.0313,824.1406 Q151.0313,822.8125 151.6484,821.6641 Q152.2656,820.5156 153.3594,819.8984 Q154.4531,819.2813 155.6875,819.2813 Q156.4219,819.2813 157.0703,819.4453 Q157.7188,819.6094 158.2656,819.9688 Z "/><text fill="#000000" font-family="sans-serif" font-size="12" lengthAdjust="spacingAndGlyphs" textLength="65" x="171" y="821.457">Arquitectura</text><text fill="#000000" font-family="sans-serif" font-size="12" lengthAdjust="spacingAndGlyphs" textLength="68" x="169.5" y="836.5508">del Software</text><line style="stroke: #A80036; stroke-width: 1.5;" x1="141.5" x2="239.5" y1="844.1875" y2="844.1875"/><line style="stroke: #A80036; stroke-width: 1.5;" x1="141.5" x2="239.5" y1="852.1875" y2="852.1875"/><!--class ArquitecturasMVCP--><rect fill="#FEFECE" filter="url(#fff79x4o1mcmp)" height="48" id="ArquitecturasMVCP" style="stroke: #A80036; stroke-width: 1.5;" width="128" x="126.5" y="696"/><ellipse cx="141.5" cy="712" fill="#ADD1B2" rx="11" ry="11" style="stroke: #A80036; stroke-width: 1.0;"/><path d="M144.2656,707.875 Q144.4219,707.6563 144.6094,707.5469 Q144.7969,707.4375 145.0156,707.4375 Q145.3906,707.4375 145.625,707.6953 Q145.8594,707.9531 145.8594,708.5625 L145.8594,710.0156 Q145.8594,710.625 145.625,710.8906 Q145.3906,711.1563 145.0156,711.1563 Q144.6719,711.1563 144.4688,710.9531 Q144.2656,710.7656 144.1563,710.25 Q144.1094,709.8906 143.9219,709.7031 Q143.5938,709.3281 142.9844,709.1094 Q142.375,708.8906 141.75,708.8906 Q140.9844,708.8906 140.3516,709.2188 Q139.7188,709.5469 139.2266,710.2969 Q138.7344,711.0469 138.7344,712.0781 L138.7344,713.1719 Q138.7344,714.4063 139.625,715.2266 Q140.5156,716.0469 142.1094,716.0469 Q143.0469,716.0469 143.7031,715.7969 Q144.0938,715.6406 144.5156,715.2031 Q144.7813,714.9375 144.9297,714.8594 Q145.0781,714.7813 145.2813,714.7813 Q145.6094,714.7813 145.8672,715.0391 Q146.125,715.2969 146.125,715.6406 Q146.125,715.9844 145.7813,716.3906 Q145.2813,716.9688 144.4844,717.2969 Q143.4063,717.75 142.1094,717.75 Q140.5938,717.75 139.3906,717.125 Q138.4063,716.625 137.7188,715.5547 Q137.0313,714.4844 137.0313,713.2031 L137.0313,712.0469 Q137.0313,710.7188 137.6484,709.5703 Q138.2656,708.4219 139.3594,707.8047 Q140.4531,707.1875 141.6875,707.1875 Q142.4219,707.1875 143.0703,707.3516 Q143.7188,707.5156 144.2656,707.875 Z "/><text fill="#000000" font-family="sans-serif" font-size="12" lengthAdjust="spacingAndGlyphs" textLength="96" x="155.5" y="716.9102">Arquitecturas MV*</text><line style="stroke: #A80036; stroke-width: 1.5;" x1="127.5" x2="253.5" y1="728" y2="728"/><line style="stroke: #A80036; stroke-width: 1.5;" x1="127.5" x2="253.5" y1="736" y2="736"/><!--class AnalsisOrientadoObjetos--><rect fill="#FEFECE" filter="url(#fff79x4o1mcmp)" height="56.1875" id="AnalsisOrientadoObjetos" style="stroke: #A80036; stroke-width: 1.5;" width="130" x="36.5" y="580"/><ellipse cx="51.5" cy="600.0938" fill="#ADD1B2" rx="11" ry="11" style="stroke: #A80036; stroke-width: 1.0;"/><path d="M54.2656,595.9688 Q54.4219,595.75 54.6094,595.6406 Q54.7969,595.5313 55.0156,595.5313 Q55.3906,595.5313 55.625,595.7891 Q55.8594,596.0469 55.8594,596.6563 L55.8594,598.1094 Q55.8594,598.7188 55.625,598.9844 Q55.3906,599.25 55.0156,599.25 Q54.6719,599.25 54.4688,599.0469 Q54.2656,598.8594 54.1563,598.3438 Q54.1094,597.9844 53.9219,597.7969 Q53.5938,597.4219 52.9844,597.2031 Q52.375,596.9844 51.75,596.9844 Q50.9844,596.9844 50.3516,597.3125 Q49.7188,597.6406 49.2266,598.3906 Q48.7344,599.1406 48.7344,600.1719 L48.7344,601.2656 Q48.7344,602.5 49.625,603.3203 Q50.5156,604.1406 52.1094,604.1406 Q53.0469,604.1406 53.7031,603.8906 Q54.0938,603.7344 54.5156,603.2969 Q54.7813,603.0313 54.9297,602.9531 Q55.0781,602.875 55.2813,602.875 Q55.6094,602.875 55.8672,603.1328 Q56.125,603.3906 56.125,603.7344 Q56.125,604.0781 55.7813,604.4844 Q55.2813,605.0625 54.4844,605.3906 Q53.4063,605.8438 52.1094,605.8438 Q50.5938,605.8438 49.3906,605.2188 Q48.4063,604.7188 47.7188,603.6484 Q47.0313,602.5781 47.0313,601.2969 L47.0313,600.1406 Q47.0313,598.8125 47.6484,597.6641 Q48.2656,596.5156 49.3594,595.8984 Q50.4531,595.2813 51.6875,595.2813 Q52.4219,595.2813 53.0703,595.4453 Q53.7188,595.6094 54.2656,595.9688 Z "/><text fill="#000000" font-family="sans-serif" font-size="12" lengthAdjust="spacingAndGlyphs" textLength="98" x="65.5" y="597.457">Análsis Orientado</text><text fill="#000000" font-family="sans-serif" font-size="12" lengthAdjust="spacingAndGlyphs" textLength="53" x="88" y="612.5508">a Objetos</text><line style="stroke: #A80036; stroke-width: 1.5;" x1="37.5" x2="165.5" y1="620.1875" y2="620.1875"/><line style="stroke: #A80036; stroke-width: 1.5;" x1="37.5" x2="165.5" y1="628.1875" y2="628.1875"/><!--class RequisitosCasoUso--><rect fill="#FEFECE" filter="url(#fff79x4o1mcmp)" height="56.1875" id="RequisitosCasoUso" style="stroke: #A80036; stroke-width: 1.5;" width="112" x="34.5" y="464"/><ellipse cx="49.5" cy="484.0938" fill="#ADD1B2" rx="11" ry="11" style="stroke: #A80036; stroke-width: 1.0;"/><path d="M52.2656,479.9688 Q52.4219,479.75 52.6094,479.6406 Q52.7969,479.5313 53.0156,479.5313 Q53.3906,479.5313 53.625,479.7891 Q53.8594,480.0469 53.8594,480.6563 L53.8594,482.1094 Q53.8594,482.7188 53.625,482.9844 Q53.3906,483.25 53.0156,483.25 Q52.6719,483.25 52.4688,483.0469 Q52.2656,482.8594 52.1563,482.3438 Q52.1094,481.9844 51.9219,481.7969 Q51.5938,481.4219 50.9844,481.2031 Q50.375,480.9844 49.75,480.9844 Q48.9844,480.9844 48.3516,481.3125 Q47.7188,481.6406 47.2266,482.3906 Q46.7344,483.1406 46.7344,484.1719 L46.7344,485.2656 Q46.7344,486.5 47.625,487.3203 Q48.5156,488.1406 50.1094,488.1406 Q51.0469,488.1406 51.7031,487.8906 Q52.0938,487.7344 52.5156,487.2969 Q52.7813,487.0313 52.9297,486.9531 Q53.0781,486.875 53.2813,486.875 Q53.6094,486.875 53.8672,487.1328 Q54.125,487.3906 54.125,487.7344 Q54.125,488.0781 53.7813,488.4844 Q53.2813,489.0625 52.4844,489.3906 Q51.4063,489.8438 50.1094,489.8438 Q48.5938,489.8438 47.3906,489.2188 Q46.4063,488.7188 45.7188,487.6484 Q45.0313,486.5781 45.0313,485.2969 L45.0313,484.1406 Q45.0313,482.8125 45.6484,481.6641 Q46.2656,480.5156 47.3594,479.8984 Q48.4531,479.2813 49.6875,479.2813 Q50.4219,479.2813 51.0703,479.4453 Q51.7188,479.6094 52.2656,479.9688 Z "/><text fill="#000000" font-family="sans-serif" font-size="12" lengthAdjust="spacingAndGlyphs" textLength="60" x="73.5" y="481.457">Requisitos</text><text fill="#000000" font-family="sans-serif" font-size="12" lengthAdjust="spacingAndGlyphs" textLength="80" x="63.5" y="496.5508">Casos de Uso</text><line style="stroke: #A80036; stroke-width: 1.5;" x1="35.5" x2="145.5" y1="504.1875" y2="504.1875"/><line style="stroke: #A80036; stroke-width: 1.5;" x1="35.5" x2="145.5" y1="512.1875" y2="512.1875"/><!--class PruebasUnitarias--><rect fill="#FEFECE" filter="url(#fff79x4o1mcmp)" height="56.1875" id="PruebasUnitarias" style="stroke: #A80036; stroke-width: 1.5;" width="82" x="289.5" y="580"/><ellipse cx="304.5" cy="600.0938" fill="#ADD1B2" rx="11" ry="11" style="stroke: #A80036; stroke-width: 1.0;"/><path d="M307.2656,595.9688 Q307.4219,595.75 307.6094,595.6406 Q307.7969,595.5313 308.0156,595.5313 Q308.3906,595.5313 308.625,595.7891 Q308.8594,596.0469 308.8594,596.6563 L308.8594,598.1094 Q308.8594,598.7188 308.625,598.9844 Q308.3906,599.25 308.0156,599.25 Q307.6719,599.25 307.4688,599.0469 Q307.2656,598.8594 307.1563,598.3438 Q307.1094,597.9844 306.9219,597.7969 Q306.5938,597.4219 305.9844,597.2031 Q305.375,596.9844 304.75,596.9844 Q303.9844,596.9844 303.3516,597.3125 Q302.7188,597.6406 302.2266,598.3906 Q301.7344,599.1406 301.7344,600.1719 L301.7344,601.2656 Q301.7344,602.5 302.625,603.3203 Q303.5156,604.1406 305.1094,604.1406 Q306.0469,604.1406 306.7031,603.8906 Q307.0938,603.7344 307.5156,603.2969 Q307.7813,603.0313 307.9297,602.9531 Q308.0781,602.875 308.2813,602.875 Q308.6094,602.875 308.8672,603.1328 Q309.125,603.3906 309.125,603.7344 Q309.125,604.0781 308.7813,604.4844 Q308.2813,605.0625 307.4844,605.3906 Q306.4063,605.8438 305.1094,605.8438 Q303.5938,605.8438 302.3906,605.2188 Q301.4063,604.7188 300.7188,603.6484 Q300.0313,602.5781 300.0313,601.2969 L300.0313,600.1406 Q300.0313,598.8125 300.6484,597.6641 Q301.2656,596.5156 302.3594,595.8984 Q303.4531,595.2813 304.6875,595.2813 Q305.4219,595.2813 306.0703,595.4453 Q306.7188,595.6094 307.2656,595.9688 Z "/><text fill="#000000" font-family="sans-serif" font-size="12" lengthAdjust="spacingAndGlyphs" textLength="47" x="320" y="597.457">Pruebas</text><text fill="#000000" font-family="sans-serif" font-size="12" lengthAdjust="spacingAndGlyphs" textLength="50" x="318.5" y="612.5508">Unitarias</text><line style="stroke: #A80036; stroke-width: 1.5;" x1="290.5" x2="370.5" y1="620.1875" y2="620.1875"/><line style="stroke: #A80036; stroke-width: 1.5;" x1="290.5" x2="370.5" y1="628.1875" y2="628.1875"/><!--class PruebasSoftware--><rect fill="#FEFECE" filter="url(#fff79x4o1mcmp)" height="56.1875" id="PruebasSoftware" style="stroke: #A80036; stroke-width: 1.5;" width="100" x="181.5" y="464"/><ellipse cx="196.5" cy="484.0938" fill="#ADD1B2" rx="11" ry="11" style="stroke: #A80036; stroke-width: 1.0;"/><path d="M199.2656,479.9688 Q199.4219,479.75 199.6094,479.6406 Q199.7969,479.5313 200.0156,479.5313 Q200.3906,479.5313 200.625,479.7891 Q200.8594,480.0469 200.8594,480.6563 L200.8594,482.1094 Q200.8594,482.7188 200.625,482.9844 Q200.3906,483.25 200.0156,483.25 Q199.6719,483.25 199.4688,483.0469 Q199.2656,482.8594 199.1563,482.3438 Q199.1094,481.9844 198.9219,481.7969 Q198.5938,481.4219 197.9844,481.2031 Q197.375,480.9844 196.75,480.9844 Q195.9844,480.9844 195.3516,481.3125 Q194.7188,481.6406 194.2266,482.3906 Q193.7344,483.1406 193.7344,484.1719 L193.7344,485.2656 Q193.7344,486.5 194.625,487.3203 Q195.5156,488.1406 197.1094,488.1406 Q198.0469,488.1406 198.7031,487.8906 Q199.0938,487.7344 199.5156,487.2969 Q199.7813,487.0313 199.9297,486.9531 Q200.0781,486.875 200.2813,486.875 Q200.6094,486.875 200.8672,487.1328 Q201.125,487.3906 201.125,487.7344 Q201.125,488.0781 200.7813,488.4844 Q200.2813,489.0625 199.4844,489.3906 Q198.4063,489.8438 197.1094,489.8438 Q195.5938,489.8438 194.3906,489.2188 Q193.4063,488.7188 192.7188,487.6484 Q192.0313,486.5781 192.0313,485.2969 L192.0313,484.1406 Q192.0313,482.8125 192.6484,481.6641 Q193.2656,480.5156 194.3594,479.8984 Q195.4531,479.2813 196.6875,479.2813 Q197.4219,479.2813 198.0703,479.4453 Q198.7188,479.6094 199.2656,479.9688 Z "/><text fill="#000000" font-family="sans-serif" font-size="12" lengthAdjust="spacingAndGlyphs" textLength="47" x="221" y="481.457">Pruebas</text><text fill="#000000" font-family="sans-serif" font-size="12" lengthAdjust="spacingAndGlyphs" textLength="68" x="210.5" y="496.5508">del Software</text><line style="stroke: #A80036; stroke-width: 1.5;" x1="182.5" x2="280.5" y1="504.1875" y2="504.1875"/><line style="stroke: #A80036; stroke-width: 1.5;" x1="182.5" x2="280.5" y1="512.1875" y2="512.1875"/><!--class GestionRUP--><rect fill="#FEFECE" filter="url(#fff79x4o1mcmp)" height="56.1875" id="GestionRUP" style="stroke: #A80036; stroke-width: 1.5;" width="75" x="190" y="348"/><ellipse cx="205" cy="368.0938" fill="#ADD1B2" rx="11" ry="11" style="stroke: #A80036; stroke-width: 1.0;"/><path d="M207.7656,363.9688 Q207.9219,363.75 208.1094,363.6406 Q208.2969,363.5313 208.5156,363.5313 Q208.8906,363.5313 209.125,363.7891 Q209.3594,364.0469 209.3594,364.6563 L209.3594,366.1094 Q209.3594,366.7188 209.125,366.9844 Q208.8906,367.25 208.5156,367.25 Q208.1719,367.25 207.9688,367.0469 Q207.7656,366.8594 207.6563,366.3438 Q207.6094,365.9844 207.4219,365.7969 Q207.0938,365.4219 206.4844,365.2031 Q205.875,364.9844 205.25,364.9844 Q204.4844,364.9844 203.8516,365.3125 Q203.2188,365.6406 202.7266,366.3906 Q202.2344,367.1406 202.2344,368.1719 L202.2344,369.2656 Q202.2344,370.5 203.125,371.3203 Q204.0156,372.1406 205.6094,372.1406 Q206.5469,372.1406 207.2031,371.8906 Q207.5938,371.7344 208.0156,371.2969 Q208.2813,371.0313 208.4297,370.9531 Q208.5781,370.875 208.7813,370.875 Q209.1094,370.875 209.3672,371.1328 Q209.625,371.3906 209.625,371.7344 Q209.625,372.0781 209.2813,372.4844 Q208.7813,373.0625 207.9844,373.3906 Q206.9063,373.8438 205.6094,373.8438 Q204.0938,373.8438 202.8906,373.2188 Q201.9063,372.7188 201.2188,371.6484 Q200.5313,370.5781 200.5313,369.2969 L200.5313,368.1406 Q200.5313,366.8125 201.1484,365.6641 Q201.7656,364.5156 202.8594,363.8984 Q203.9531,363.2813 205.1875,363.2813 Q205.9219,363.2813 206.5703,363.4453 Q207.2188,363.6094 207.7656,363.9688 Z "/><text fill="#000000" font-family="sans-serif" font-size="12" lengthAdjust="spacingAndGlyphs" textLength="43" x="219" y="365.457">Gestión</text><text fill="#000000" font-family="sans-serif" font-size="12" lengthAdjust="spacingAndGlyphs" textLength="26" x="227.5" y="380.5508">RUP</text><line style="stroke: #A80036; stroke-width: 1.5;" x1="191" x2="264" y1="388.1875" y2="388.1875"/><line style="stroke: #A80036; stroke-width: 1.5;" x1="191" x2="264" y1="396.1875" y2="396.1875"/><!--class Refactoring--><rect fill="#FEFECE" filter="url(#fff79x4o1mcmp)" height="48" id="Refactoring" style="stroke: #A80036; stroke-width: 1.5;" width="95" x="300" y="352"/><ellipse cx="315" cy="368" fill="#ADD1B2" rx="11" ry="11" style="stroke: #A80036; stroke-width: 1.0;"/><path d="M317.7656,363.875 Q317.9219,363.6563 318.1094,363.5469 Q318.2969,363.4375 318.5156,363.4375 Q318.8906,363.4375 319.125,363.6953 Q319.3594,363.9531 319.3594,364.5625 L319.3594,366.0156 Q319.3594,366.625 319.125,366.8906 Q318.8906,367.1563 318.5156,367.1563 Q318.1719,367.1563 317.9688,366.9531 Q317.7656,366.7656 317.6563,366.25 Q317.6094,365.8906 317.4219,365.7031 Q317.0938,365.3281 316.4844,365.1094 Q315.875,364.8906 315.25,364.8906 Q314.4844,364.8906 313.8516,365.2188 Q313.2188,365.5469 312.7266,366.2969 Q312.2344,367.0469 312.2344,368.0781 L312.2344,369.1719 Q312.2344,370.4063 313.125,371.2266 Q314.0156,372.0469 315.6094,372.0469 Q316.5469,372.0469 317.2031,371.7969 Q317.5938,371.6406 318.0156,371.2031 Q318.2813,370.9375 318.4297,370.8594 Q318.5781,370.7813 318.7813,370.7813 Q319.1094,370.7813 319.3672,371.0391 Q319.625,371.2969 319.625,371.6406 Q319.625,371.9844 319.2813,372.3906 Q318.7813,372.9688 317.9844,373.2969 Q316.9063,373.75 315.6094,373.75 Q314.0938,373.75 312.8906,373.125 Q311.9063,372.625 311.2188,371.5547 Q310.5313,370.4844 310.5313,369.2031 L310.5313,368.0469 Q310.5313,366.7188 311.1484,365.5703 Q311.7656,364.4219 312.8594,363.8047 Q313.9531,363.1875 315.1875,363.1875 Q315.9219,363.1875 316.5703,363.3516 Q317.2188,363.5156 317.7656,363.875 Z "/><text fill="#000000" font-family="sans-serif" font-size="12" lengthAdjust="spacingAndGlyphs" textLength="63" x="329" y="372.9102">Refactoring</text><line style="stroke: #A80036; stroke-width: 1.5;" x1="301" x2="394" y1="384" y2="384"/><line style="stroke: #A80036; stroke-width: 1.5;" x1="301" x2="394" y1="392" y2="392"/><!--class RequisitosHistoriasUsuario--><rect fill="#FEFECE" filter="url(#fff79x4o1mcmp)" height="56.1875" id="RequisitosHistoriasUsuario" style="stroke: #A80036; stroke-width: 1.5;" width="149" x="6" y="348"/><ellipse cx="21" cy="368.0938" fill="#ADD1B2" rx="11" ry="11" style="stroke: #A80036; stroke-width: 1.0;"/><path d="M23.7656,363.9688 Q23.9219,363.75 24.1094,363.6406 Q24.2969,363.5313 24.5156,363.5313 Q24.8906,363.5313 25.125,363.7891 Q25.3594,364.0469 25.3594,364.6563 L25.3594,366.1094 Q25.3594,366.7188 25.125,366.9844 Q24.8906,367.25 24.5156,367.25 Q24.1719,367.25 23.9688,367.0469 Q23.7656,366.8594 23.6563,366.3438 Q23.6094,365.9844 23.4219,365.7969 Q23.0938,365.4219 22.4844,365.2031 Q21.875,364.9844 21.25,364.9844 Q20.4844,364.9844 19.8516,365.3125 Q19.2188,365.6406 18.7266,366.3906 Q18.2344,367.1406 18.2344,368.1719 L18.2344,369.2656 Q18.2344,370.5 19.125,371.3203 Q20.0156,372.1406 21.6094,372.1406 Q22.5469,372.1406 23.2031,371.8906 Q23.5938,371.7344 24.0156,371.2969 Q24.2813,371.0313 24.4297,370.9531 Q24.5781,370.875 24.7813,370.875 Q25.1094,370.875 25.3672,371.1328 Q25.625,371.3906 25.625,371.7344 Q25.625,372.0781 25.2813,372.4844 Q24.7813,373.0625 23.9844,373.3906 Q22.9063,373.8438 21.6094,373.8438 Q20.0938,373.8438 18.8906,373.2188 Q17.9063,372.7188 17.2188,371.6484 Q16.5313,370.5781 16.5313,369.2969 L16.5313,368.1406 Q16.5313,366.8125 17.1484,365.6641 Q17.7656,364.5156 18.8594,363.8984 Q19.9531,363.2813 21.1875,363.2813 Q21.9219,363.2813 22.5703,363.4453 Q23.2188,363.6094 23.7656,363.9688 Z "/><text fill="#000000" font-family="sans-serif" font-size="12" lengthAdjust="spacingAndGlyphs" textLength="60" x="63.5" y="365.457">Requisitos</text><text fill="#000000" font-family="sans-serif" font-size="12" lengthAdjust="spacingAndGlyphs" textLength="114" x="38" y="380.5508">Historias de Usuario</text><line style="stroke: #A80036; stroke-width: 1.5;" x1="7" x2="154" y1="388.1875" y2="388.1875"/><line style="stroke: #A80036; stroke-width: 1.5;" x1="7" x2="154" y1="396.1875" y2="396.1875"/><!--class TestDriveDevelopment--><rect fill="#FEFECE" filter="url(#fff79x4o1mcmp)" height="56.1875" id="TestDriveDevelopment" style="stroke: #A80036; stroke-width: 1.5;" width="105" x="161" y="232"/><ellipse cx="176" cy="252.0938" fill="#ADD1B2" rx="11" ry="11" style="stroke: #A80036; stroke-width: 1.0;"/><path d="M178.7656,247.9688 Q178.9219,247.75 179.1094,247.6406 Q179.2969,247.5313 179.5156,247.5313 Q179.8906,247.5313 180.125,247.7891 Q180.3594,248.0469 180.3594,248.6563 L180.3594,250.1094 Q180.3594,250.7188 180.125,250.9844 Q179.8906,251.25 179.5156,251.25 Q179.1719,251.25 178.9688,251.0469 Q178.7656,250.8594 178.6563,250.3438 Q178.6094,249.9844 178.4219,249.7969 Q178.0938,249.4219 177.4844,249.2031 Q176.875,248.9844 176.25,248.9844 Q175.4844,248.9844 174.8516,249.3125 Q174.2188,249.6406 173.7266,250.3906 Q173.2344,251.1406 173.2344,252.1719 L173.2344,253.2656 Q173.2344,254.5 174.125,255.3203 Q175.0156,256.1406 176.6094,256.1406 Q177.5469,256.1406 178.2031,255.8906 Q178.5938,255.7344 179.0156,255.2969 Q179.2813,255.0313 179.4297,254.9531 Q179.5781,254.875 179.7813,254.875 Q180.1094,254.875 180.3672,255.1328 Q180.625,255.3906 180.625,255.7344 Q180.625,256.0781 180.2813,256.4844 Q179.7813,257.0625 178.9844,257.3906 Q177.9063,257.8438 176.6094,257.8438 Q175.0938,257.8438 173.8906,257.2188 Q172.9063,256.7188 172.2188,255.6484 Q171.5313,254.5781 171.5313,253.2969 L171.5313,252.1406 Q171.5313,250.8125 172.1484,249.6641 Q172.7656,248.5156 173.8594,247.8984 Q174.9531,247.2813 176.1875,247.2813 Q176.9219,247.2813 177.5703,247.4453 Q178.2188,247.6094 178.7656,247.9688 Z "/><text fill="#000000" font-family="sans-serif" font-size="12" lengthAdjust="spacingAndGlyphs" textLength="55" x="199" y="249.457">Test Drive</text><text fill="#000000" font-family="sans-serif" font-size="12" lengthAdjust="spacingAndGlyphs" textLength="73" x="190" y="264.5508">Development</text><line style="stroke: #A80036; stroke-width: 1.5;" x1="162" x2="265" y1="272.1875" y2="272.1875"/><line style="stroke: #A80036; stroke-width: 1.5;" x1="162" x2="265" y1="280.1875" y2="280.1875"/><!--class ExtremeProgramming--><rect fill="#FEFECE" filter="url(#fff79x4o1mcmp)" height="48" id="ExtremeProgramming" style="stroke: #A80036; stroke-width: 1.5;" width="157" x="135" y="124"/><ellipse cx="150" cy="140" fill="#ADD1B2" rx="11" ry="11" style="stroke: #A80036; stroke-width: 1.0;"/><path d="M152.7656,135.875 Q152.9219,135.6563 153.1094,135.5469 Q153.2969,135.4375 153.5156,135.4375 Q153.8906,135.4375 154.125,135.6953 Q154.3594,135.9531 154.3594,136.5625 L154.3594,138.0156 Q154.3594,138.625 154.125,138.8906 Q153.8906,139.1563 153.5156,139.1563 Q153.1719,139.1563 152.9688,138.9531 Q152.7656,138.7656 152.6563,138.25 Q152.6094,137.8906 152.4219,137.7031 Q152.0938,137.3281 151.4844,137.1094 Q150.875,136.8906 150.25,136.8906 Q149.4844,136.8906 148.8516,137.2188 Q148.2188,137.5469 147.7266,138.2969 Q147.2344,139.0469 147.2344,140.0781 L147.2344,141.1719 Q147.2344,142.4063 148.125,143.2266 Q149.0156,144.0469 150.6094,144.0469 Q151.5469,144.0469 152.2031,143.7969 Q152.5938,143.6406 153.0156,143.2031 Q153.2813,142.9375 153.4297,142.8594 Q153.5781,142.7813 153.7813,142.7813 Q154.1094,142.7813 154.3672,143.0391 Q154.625,143.2969 154.625,143.6406 Q154.625,143.9844 154.2813,144.3906 Q153.7813,144.9688 152.9844,145.2969 Q151.9063,145.75 150.6094,145.75 Q149.0938,145.75 147.8906,145.125 Q146.9063,144.625 146.2188,143.5547 Q145.5313,142.4844 145.5313,141.2031 L145.5313,140.0469 Q145.5313,138.7188 146.1484,137.5703 Q146.7656,136.4219 147.8594,135.8047 Q148.9531,135.1875 150.1875,135.1875 Q150.9219,135.1875 151.5703,135.3516 Q152.2188,135.5156 152.7656,135.875 Z "/><text fill="#000000" font-family="sans-serif" font-size="12" lengthAdjust="spacingAndGlyphs" textLength="125" x="164" y="144.9102">eXtreme Programming</text><line style="stroke: #A80036; stroke-width: 1.5;" x1="136" x2="291" y1="156" y2="156"/><line style="stroke: #A80036; stroke-width: 1.5;" x1="136" x2="291" y1="164" y2="164"/><!--class DesarrolloAgil--><rect fill="#FEFECE" filter="url(#fff79x4o1mcmp)" height="56.1875" id="DesarrolloAgil" style="stroke: #A80036; stroke-width: 1.5;" width="90" x="168.5" y="8"/><ellipse cx="183.5" cy="28.0938" fill="#ADD1B2" rx="11" ry="11" style="stroke: #A80036; stroke-width: 1.0;"/><path d="M186.2656,23.9688 Q186.4219,23.75 186.6094,23.6406 Q186.7969,23.5313 187.0156,23.5313 Q187.3906,23.5313 187.625,23.7891 Q187.8594,24.0469 187.8594,24.6563 L187.8594,26.1094 Q187.8594,26.7188 187.625,26.9844 Q187.3906,27.25 187.0156,27.25 Q186.6719,27.25 186.4688,27.0469 Q186.2656,26.8594 186.1563,26.3438 Q186.1094,25.9844 185.9219,25.7969 Q185.5938,25.4219 184.9844,25.2031 Q184.375,24.9844 183.75,24.9844 Q182.9844,24.9844 182.3516,25.3125 Q181.7188,25.6406 181.2266,26.3906 Q180.7344,27.1406 180.7344,28.1719 L180.7344,29.2656 Q180.7344,30.5 181.625,31.3203 Q182.5156,32.1406 184.1094,32.1406 Q185.0469,32.1406 185.7031,31.8906 Q186.0938,31.7344 186.5156,31.2969 Q186.7813,31.0313 186.9297,30.9531 Q187.0781,30.875 187.2813,30.875 Q187.6094,30.875 187.8672,31.1328 Q188.125,31.3906 188.125,31.7344 Q188.125,32.0781 187.7813,32.4844 Q187.2813,33.0625 186.4844,33.3906 Q185.4063,33.8438 184.1094,33.8438 Q182.5938,33.8438 181.3906,33.2188 Q180.4063,32.7188 179.7188,31.6484 Q179.0313,30.5781 179.0313,29.2969 L179.0313,28.1406 Q179.0313,26.8125 179.6484,25.6641 Q180.2656,24.5156 181.3594,23.8984 Q182.4531,23.2813 183.6875,23.2813 Q184.4219,23.2813 185.0703,23.4453 Q185.7188,23.6094 186.2656,23.9688 Z "/><text fill="#000000" font-family="sans-serif" font-size="12" lengthAdjust="spacingAndGlyphs" textLength="58" x="197.5" y="25.457">Desarrollo</text><text fill="#000000" font-family="sans-serif" font-size="12" lengthAdjust="spacingAndGlyphs" textLength="20" x="216.5" y="40.5508">Ágil</text><line style="stroke: #A80036; stroke-width: 1.5;" x1="169.5" x2="257.5" y1="48.1875" y2="48.1875"/><line style="stroke: #A80036; stroke-width: 1.5;" x1="169.5" x2="257.5" y1="56.1875" y2="56.1875"/><!--link ProgramaciónEstructurada to FundamentosProgramacion--><path d="M260.5,1548.016 C260.5,1564.3659 260.5,1585.3164 260.5,1602.5594 " fill="none" id="ProgramaciónEstructurada-FundamentosProgramacion" style="stroke: #A80036; stroke-width: 1.0;"/><polygon fill="#A80036" points="260.5,1607.7824,264.5,1598.7824,260.5,1602.7824,256.5,1598.7824,260.5,1607.7824" style="stroke: #A80036; stroke-width: 1.0;"/><!--link ProgramaciónOrientadaObjetos to ProgramaciónEstructurada--><path d="M260.5,1432.016 C260.5,1448.366 260.5,1469.316 260.5,1486.559 " fill="none" id="ProgramaciónOrientadaObjetos-ProgramaciónEstructurada" style="stroke: #A80036; stroke-width: 1.0;"/><polygon fill="#A80036" points="260.5,1491.782,264.5,1482.782,260.5,1486.782,256.5,1482.782,260.5,1491.782" style="stroke: #A80036; stroke-width: 1.0;"/><!--link ProcesoDesarrolloSoftware to ProgramaciónOrientadaObjetos--><path d="M260.5,1316.016 C260.5,1332.366 260.5,1353.316 260.5,1370.559 " fill="none" id="ProcesoDesarrolloSoftware-ProgramaciónOrientadaObjetos" style="stroke: #A80036; stroke-width: 1.0;"/><polygon fill="#A80036" points="260.5,1375.782,264.5,1366.782,260.5,1370.782,256.5,1366.782,260.5,1375.782" style="stroke: #A80036; stroke-width: 1.0;"/><!--link DiseñoSoftware to ProcesoDesarrolloSoftware--><path d="M260.5,1200.016 C260.5,1216.366 260.5,1237.316 260.5,1254.559 " fill="none" id="DiseñoSoftware-ProcesoDesarrolloSoftware" style="stroke: #A80036; stroke-width: 1.0;"/><polygon fill="#A80036" points="260.5,1259.782,264.5,1250.782,260.5,1254.782,256.5,1250.782,260.5,1259.782" style="stroke: #A80036; stroke-width: 1.0;"/><!--link ProgrmacionAvanzada to PatronesDiseño--><path d="M313.197,860.191 C302.539,876.939 288.91,898.356 278.182,915.214 " fill="none" id="ProgrmacionAvanzada-PatronesDiseño" style="stroke: #A80036; stroke-width: 1.0;"/><polygon fill="#A80036" points="275.238,919.84,283.4443,914.3942,277.9222,915.6216,276.6948,910.0995,275.238,919.84" style="stroke: #A80036; stroke-width: 1.0;"/><!--link DiseñoOrientadaObjetos to DiseñoSoftware--><path d="M260.5,1084.016 C260.5,1100.366 260.5,1121.316 260.5,1138.559 " fill="none" id="DiseñoOrientadaObjetos-DiseñoSoftware" style="stroke: #A80036; stroke-width: 1.0;"/><polygon fill="#A80036" points="260.5,1143.782,264.5,1134.782,260.5,1138.782,256.5,1134.782,260.5,1143.782" style="stroke: #A80036; stroke-width: 1.0;"/><!--link PatronesDiseño to DiseñoOrientadaObjetos--><path d="M260.5,968.06 C260.5,983.817 260.5,1004.928 260.5,1022.401 " fill="none" id="PatronesDiseño-DiseñoOrientadaObjetos" style="stroke: #A80036; stroke-width: 1.0;"/><polygon fill="#A80036" points="260.5,1027.696,264.5,1018.696,260.5,1022.696,256.5,1018.696,260.5,1027.696" style="stroke: #A80036; stroke-width: 1.0;"/><!--link ArquitecturaSoftware to PatronesDiseño--><path d="M207.803,860.191 C218.461,876.939 232.09,898.356 242.818,915.214 " fill="none" id="ArquitecturaSoftware-PatronesDiseño" style="stroke: #A80036; stroke-width: 1.0;"/><polygon fill="#A80036" points="245.762,919.84,244.3052,910.0995,243.0778,915.6216,237.5557,914.3942,245.762,919.84" style="stroke: #A80036; stroke-width: 1.0;"/><!--link ArquitecturasMVCP to ArquitecturaSoftware--><path d="M190.5,744.06 C190.5,759.817 190.5,780.928 190.5,798.401 " fill="none" id="ArquitecturasMVCP-ArquitecturaSoftware" style="stroke: #A80036; stroke-width: 1.0;"/><polygon fill="#A80036" points="190.5,803.696,194.5,794.696,190.5,798.696,186.5,794.696,190.5,803.696" style="stroke: #A80036; stroke-width: 1.0;"/><!--link AnalsisOrientadoObjetos to ArquitecturasMVCP--><path d="M123.5,636.19 C137.167,653.08 154.676,674.723 168.367,691.645 " fill="none" id="AnalsisOrientadoObjetos-ArquitecturasMVCP" style="stroke: #A80036; stroke-width: 1.0;"/><polygon fill="#A80036" points="171.761,695.84,169.2108,686.327,168.6165,691.9526,162.9909,691.3582,171.761,695.84" style="stroke: #A80036; stroke-width: 1.0;"/><!--link RequisitosCasoUso to AnalsisOrientadoObjetos--><path d="M93.1068,520.02 C94.6844,536.37 96.706,557.32 98.3698,574.56 " fill="none" id="RequisitosCasoUso-AnalsisOrientadoObjetos" style="stroke: #A80036; stroke-width: 1.0;"/><polygon fill="#A80036" points="98.8737,579.78,102.0072,570.4429,98.4022,574.8023,94.0428,571.1973,98.8737,579.78" style="stroke: #A80036; stroke-width: 1.0;"/><!--link PruebasUnitarias to ProgrmacionAvanzada--><path d="M330.5,636.22 C330.5,677.276 330.5,754.887 330.5,798.729 " fill="none" id="PruebasUnitarias-ProgrmacionAvanzada" style="stroke: #A80036; stroke-width: 1.0;"/><polygon fill="#A80036" points="330.5,803.903,334.5,794.903,330.5,798.903,326.5,794.903,330.5,803.903" style="stroke: #A80036; stroke-width: 1.0;"/><!--link PruebasSoftware to PruebasUnitarias--><path d="M254.962,520.02 C269.527,536.79 288.297,558.4 303.483,575.89 " fill="none" id="PruebasSoftware-PruebasUnitarias" style="stroke: #A80036; stroke-width: 1.0;"/><polygon fill="#A80036" points="306.864,579.78,303.9936,570.3587,303.5898,576.0011,297.9474,575.5974,306.864,579.78" style="stroke: #A80036; stroke-width: 1.0;"/><!--link PruebasSoftware to ArquitecturasMVCP--><path d="M226.554,520.26 C218.736,563.36 203.596,646.81 195.651,690.604 " fill="none" id="PruebasSoftware-ArquitecturasMVCP" style="stroke: #A80036; stroke-width: 1.0;"/><polygon fill="#A80036" points="194.719,695.743,200.2595,687.6003,195.6104,690.8231,192.3876,686.1741,194.719,695.743" style="stroke: #A80036; stroke-width: 1.0;"/><!--link GestionRUP to PruebasSoftware--><path d="M228.448,404.02 C229.022,420.37 229.757,441.32 230.362,458.56 " fill="none" id="GestionRUP-PruebasSoftware" style="stroke: #A80036; stroke-width: 1.0;"/><polygon fill="#A80036" points="230.545,463.78,234.2079,454.6376,230.3593,458.7835,226.2134,454.9348,230.545,463.78" style="stroke: #A80036; stroke-width: 1.0;"/><!--link GestionRUP to RequisitosCasoUso--><path d="M195.033,404.02 C174.623,421 148.246,442.95 127.095,460.55 " fill="none" id="GestionRUP-RequisitosCasoUso" style="stroke: #A80036; stroke-width: 1.0;"/><polygon fill="#A80036" points="123.209,463.78,132.6853,461.0968,127.052,460.5813,127.5674,454.948,123.209,463.78" style="stroke: #A80036; stroke-width: 1.0;"/><!--link Refactoring to PruebasUnitarias--><path d="M345.776,400.32 C342.728,441.56 336.382,527.43 332.905,574.46 " fill="none" id="Refactoring-PruebasUnitarias" style="stroke: #A80036; stroke-width: 1.0;"/><polygon fill="#A80036" points="332.516,579.72,337.1734,571.0419,332.8874,574.7338,329.1955,570.4478,332.516,579.72" style="stroke: #A80036; stroke-width: 1.0;"/><!--link RequisitosHistoriasUsuario to RequisitosCasoUso--><path d="M82.8699,404.02 C84.304,420.37 86.1418,441.32 87.6543,458.56 " fill="none" id="RequisitosHistoriasUsuario-RequisitosCasoUso" style="stroke: #A80036; stroke-width: 1.0;"/><polygon fill="#A80036" points="88.1125,463.78,91.3262,454.4702,87.6839,458.7984,83.3557,455.156,88.1125,463.78" style="stroke: #A80036; stroke-width: 1.0;"/><!--link TestDriveDevelopment to Refactoring--><path d="M245.256,288.02 C266.677,306.24 294.816,330.18 316.151,348.33 " fill="none" id="TestDriveDevelopment-Refactoring" style="stroke: #A80036; stroke-width: 1.0;"/><polygon fill="#A80036" points="320.052,351.65,315.7987,342.7669,316.2472,348.4059,310.6082,348.8545,320.052,351.65" style="stroke: #A80036; stroke-width: 1.0;"/><!--link TestDriveDevelopment to RequisitosHistoriasUsuario--><path d="M181.981,288.02 C162.249,304.93 136.772,326.77 116.282,344.33 " fill="none" id="TestDriveDevelopment-RequisitosHistoriasUsuario" style="stroke: #A80036; stroke-width: 1.0;"/><polygon fill="#A80036" points="112.254,347.78,121.6917,344.964,116.0517,344.5277,116.488,338.8877,112.254,347.78" style="stroke: #A80036; stroke-width: 1.0;"/><!--link ExtremeProgramming to TestDriveDevelopment--><path d="M213.5,172.06 C213.5,187.82 213.5,208.93 213.5,226.4 " fill="none" id="ExtremeProgramming-TestDriveDevelopment" style="stroke: #A80036; stroke-width: 1.0;"/><polygon fill="#A80036" points="213.5,231.7,217.5,222.7,213.5,226.7,209.5,222.7,213.5,231.7" style="stroke: #A80036; stroke-width: 1.0;"/><!--link DesarrolloAgil to ExtremeProgramming--><path d="M213.5,64.19 C213.5,80.8 213.5,101.99 213.5,118.78 " fill="none" id="DesarrolloAgil-ExtremeProgramming" style="stroke: #A80036; stroke-width: 1.0;"/><polygon fill="#A80036" points="213.5,123.84,217.5,114.84,213.5,118.84,209.5,114.84,213.5,123.84" style="stroke: #A80036; stroke-width: 1.0;"/><!--
@startuml
class "Fundamentos\nde Programación" as FundamentosProgramacion

class "Programación\nEstructurada" as ProgramaciónEstructurada
ProgramaciónEstructurada -down-> FundamentosProgramacion

class "Programación\nOrientada a Objetos" as ProgramaciónOrientadaObjetos
ProgramaciónOrientadaObjetos -down-> ProgramaciónEstructurada

class "Proceso de\nDesarrollo Software" as ProcesoDesarrolloSoftware
ProcesoDesarrolloSoftware -down-> ProgramaciónOrientadaObjetos

class "Diseño\nde Software" as DiseñoSoftware
DiseñoSoftware -down-> ProcesoDesarrolloSoftware

class "Programación\nAvanzada" as ProgrmacionAvanzada
ProgrmacionAvanzada -down-> PatronesDiseño

class "Diseño\nOrientado a Objetos" as DiseñoOrientadaObjetos
DiseñoOrientadaObjetos -down-> DiseñoSoftware

class "Patrones\nde Diseño" as PatronesDiseño
PatronesDiseño -down-> DiseñoOrientadaObjetos

class "Arquitectura\ndel Software" as ArquitecturaSoftware
ArquitecturaSoftware -down-> PatronesDiseño

class "Arquitecturas MV*" as ArquitecturasMVCP
ArquitecturasMVCP -down-> ArquitecturaSoftware

class "Análsis Orientado\na Objetos" as AnalsisOrientadoObjetos
AnalsisOrientadoObjetos -down-> ArquitecturasMVCP

class "Requisitos\nCasos de Uso" as RequisitosCasoUso
RequisitosCasoUso -down-> AnalsisOrientadoObjetos

class "Pruebas\nUnitarias" as PruebasUnitarias
PruebasUnitarias -down-> ProgrmacionAvanzada

class "Pruebas\ndel Software" as PruebasSoftware
PruebasSoftware -down-> PruebasUnitarias
PruebasSoftware -down-> ArquitecturasMVCP

class "Gestión\nRUP" as GestionRUP
GestionRUP -down-> PruebasSoftware
GestionRUP -down-> RequisitosCasoUso

class Refactoring
Refactoring -down-> PruebasUnitarias

class "Requisitos\n Historias de Usuario" as RequisitosHistoriasUsuario
RequisitosHistoriasUsuario -down-> RequisitosCasoUso

class "Test Drive\nDevelopment" as TestDriveDevelopment
TestDriveDevelopment -down-> Refactoring
TestDriveDevelopment -down-> RequisitosHistoriasUsuario

class "eXtreme Programming" as ExtremeProgramming
ExtremeProgramming -down-> TestDriveDevelopment

class "Desarrollo\nÁgil" as DesarrolloAgil
DesarrolloAgil -down-> ExtremeProgramming

@enduml

PlantUML version 1.2019.05(Sat Apr 20 18:45:36 CEST 2019)
(GPL source distribution)
Java Runtime: OpenJDK Runtime Environment
JVM: OpenJDK 64-Bit Server VM
Java Version: 1.8.0_222-b10
Operating System: Windows 10
OS Version: 10.0
Default Encoding: windows-1252
Language: es
Country: ES
--></g></svg>