<?xml version="1.0" encoding="UTF-8" standalone="no"?><svg xmlns="http://www.w3.org/2000/svg" xmlns:xlink="http://www.w3.org/1999/xlink" contentScriptType="application/ecmascript" contentStyleType="text/css" height="407px" preserveAspectRatio="none" style="width:645px;height:407px;" version="1.1" viewBox="0 0 645 407" width="645px" zoomAndPan="magnify"><defs><filter height="300%" id="f1gz1pa92p9idp" width="300%" x="-1" y="-1"><feGaussianBlur result="blurOut" stdDeviation="2.0"/><feColorMatrix in="blurOut" result="blurOut2" type="matrix" values="0 0 0 0 0 0 0 0 0 0 0 0 0 0 0 0 0 0 .4 0"/><feOffset dx="4.0" dy="4.0" in="blurOut2" result="blurOut3"/><feBlend in="SourceGraphic" in2="blurOut3" mode="normal"/></filter></defs><g><ellipse cx="331" cy="20" fill="#000000" filter="url(#f1gz1pa92p9idp)" rx="10" ry="10" style="stroke: none; stroke-width: 1.0;"/><rect fill="#FEFECE" filter="url(#f1gz1pa92p9idp)" height="35.0938" rx="12.5" ry="12.5" style="stroke: #A80036; stroke-width: 1.5;" width="124" x="269" y="50"/><text fill="#000000" font-family="sans-serif" font-size="12" lengthAdjust="spacingAndGlyphs" textLength="104" x="279" y="72.457">Crisis del Software</text><rect fill="#000000" filter="url(#f1gz1pa92p9idp)" height="6" rx="2.5" ry="2.5" style="stroke: #000000; stroke-width: 1.0;" width="624" x="10" y="105.0938"/><rect fill="#FEFECE" filter="url(#f1gz1pa92p9idp)" height="35.0938" rx="12.5" ry="12.5" style="stroke: #A80036; stroke-width: 1.5;" width="157" x="22" y="131.0938"/><text fill="#000000" font-family="sans-serif" font-size="12" lengthAdjust="spacingAndGlyphs" textLength="137" x="32" y="153.5508">Metodología en Cascada</text><rect fill="#FEFECE" filter="url(#f1gz1pa92p9idp)" height="35.0938" rx="12.5" ry="12.5" style="stroke: #A80036; stroke-width: 1.5;" width="164" x="207" y="131.0938"/><text fill="#000000" font-family="sans-serif" font-size="12" lengthAdjust="spacingAndGlyphs" textLength="144" x="217" y="153.5508">Desarrollo Iterativo (XP, ...)</text><rect fill="#FEFECE" filter="url(#f1gz1pa92p9idp)" height="35.0938" rx="12.5" ry="12.5" style="stroke: #A80036; stroke-width: 1.5;" width="157" x="399" y="131.0938"/><text fill="#000000" font-family="sans-serif" font-size="12" lengthAdjust="spacingAndGlyphs" textLength="137" x="409" y="153.5508">Rational Unified Process</text><rect fill="#FEFECE" filter="url(#f1gz1pa92p9idp)" height="35.0938" rx="12.5" ry="12.5" style="stroke: #A80036; stroke-width: 1.5;" width="56" x="566" y="131.0938"/><text fill="#000000" font-family="sans-serif" font-size="12" lengthAdjust="spacingAndGlyphs" textLength="36" x="576" y="153.5508">Scrum</text><rect fill="#000000" filter="url(#f1gz1pa92p9idp)" height="6" rx="2.5" ry="2.5" style="stroke: #000000; stroke-width: 1.0;" width="624" x="10" y="186.1875"/><rect fill="#FEFECE" filter="url(#f1gz1pa92p9idp)" height="35.0938" rx="12.5" ry="12.5" style="stroke: #A80036; stroke-width: 1.5;" width="99" x="281.5" y="212.1875"/><text fill="#000000" font-family="sans-serif" font-size="12" lengthAdjust="spacingAndGlyphs" textLength="79" x="291.5" y="234.6445">Manifiesto Agil</text><rect fill="#000000" filter="url(#f1gz1pa92p9idp)" height="6" rx="2.5" ry="2.5" style="stroke: #000000; stroke-width: 1.0;" width="425" x="118.5" y="267.2813"/><rect fill="#FEFECE" filter="url(#f1gz1pa92p9idp)" height="35.0938" rx="12.5" ry="12.5" style="stroke: #A80036; stroke-width: 1.5;" width="95" x="132.5" y="293.2813"/><text fill="#000000" font-family="sans-serif" font-size="12" lengthAdjust="spacingAndGlyphs" textLength="75" x="142.5" y="315.7383">Craftmanship</text><rect fill="#FEFECE" filter="url(#f1gz1pa92p9idp)" height="35.0938" rx="12.5" ry="12.5" style="stroke: #A80036; stroke-width: 1.5;" width="217" x="255.5" y="293.2813"/><text fill="#000000" font-family="sans-serif" font-size="12" lengthAdjust="spacingAndGlyphs" textLength="197" x="265.5" y="315.7383">Basic/Agile/Open/... Unified Process</text><rect fill="#FEFECE" filter="url(#f1gz1pa92p9idp)" height="35.0938" rx="12.5" ry="12.5" style="stroke: #A80036; stroke-width: 1.5;" width="29" x="500.5" y="293.2813"/><text fill="#000000" font-family="sans-serif" font-size="12" lengthAdjust="spacingAndGlyphs" textLength="9" x="510.5" y="315.7383">...</text><rect fill="#000000" filter="url(#f1gz1pa92p9idp)" height="6" rx="2.5" ry="2.5" style="stroke: #000000; stroke-width: 1.0;" width="425" x="118.5" y="348.375"/><ellipse cx="331" cy="385.375" fill="#FFFFFF" filter="url(#f1gz1pa92p9idp)" rx="11" ry="11" style="stroke: #000000; stroke-width: 1.0;"/><ellipse cx="331" cy="385.375" fill="#000000" rx="6" ry="6" style="stroke: #7F7F7F; stroke-width: 1.0;"/><line style="stroke: #A80036; stroke-width: 1.5;" x1="331" x2="331" y1="30" y2="50"/><polygon fill="#A80036" points="327,40,331,50,335,40,331,44" style="stroke: #A80036; stroke-width: 1.0;"/><line style="stroke: #A80036; stroke-width: 1.5;" x1="100.5" x2="100.5" y1="111.0938" y2="131.0938"/><polygon fill="#A80036" points="96.5,121.0938,100.5,131.0938,104.5,121.0938,100.5,125.0938" style="stroke: #A80036; stroke-width: 1.0;"/><line style="stroke: #A80036; stroke-width: 1.5;" x1="289" x2="289" y1="111.0938" y2="131.0938"/><polygon fill="#A80036" points="285,121.0938,289,131.0938,293,121.0938,289,125.0938" style="stroke: #A80036; stroke-width: 1.0;"/><line style="stroke: #A80036; stroke-width: 1.5;" x1="477.5" x2="477.5" y1="111.0938" y2="131.0938"/><polygon fill="#A80036" points="473.5,121.0938,477.5,131.0938,481.5,121.0938,477.5,125.0938" style="stroke: #A80036; stroke-width: 1.0;"/><line style="stroke: #A80036; stroke-width: 1.5;" x1="594" x2="594" y1="111.0938" y2="131.0938"/><polygon fill="#A80036" points="590,121.0938,594,131.0938,598,121.0938,594,125.0938" style="stroke: #A80036; stroke-width: 1.0;"/><line style="stroke: #A80036; stroke-width: 1.5;" x1="100.5" x2="100.5" y1="166.1875" y2="186.1875"/><polygon fill="#A80036" points="96.5,176.1875,100.5,186.1875,104.5,176.1875,100.5,180.1875" style="stroke: #A80036; stroke-width: 1.0;"/><line style="stroke: #A80036; stroke-width: 1.5;" x1="289" x2="289" y1="166.1875" y2="186.1875"/><polygon fill="#A80036" points="285,176.1875,289,186.1875,293,176.1875,289,180.1875" style="stroke: #A80036; stroke-width: 1.0;"/><line style="stroke: #A80036; stroke-width: 1.5;" x1="477.5" x2="477.5" y1="166.1875" y2="186.1875"/><polygon fill="#A80036" points="473.5,176.1875,477.5,186.1875,481.5,176.1875,477.5,180.1875" style="stroke: #A80036; stroke-width: 1.0;"/><line style="stroke: #A80036; stroke-width: 1.5;" x1="594" x2="594" y1="166.1875" y2="186.1875"/><polygon fill="#A80036" points="590,176.1875,594,186.1875,598,176.1875,594,180.1875" style="stroke: #A80036; stroke-width: 1.0;"/><line style="stroke: #A80036; stroke-width: 1.5;" x1="331" x2="331" y1="85.0938" y2="105.0938"/><polygon fill="#A80036" points="327,95.0938,331,105.0938,335,95.0938,331,99.0938" style="stroke: #A80036; stroke-width: 1.0;"/><line style="stroke: #A80036; stroke-width: 1.5;" x1="331" x2="331" y1="192.1875" y2="212.1875"/><polygon fill="#A80036" points="327,202.1875,331,212.1875,335,202.1875,331,206.1875" style="stroke: #A80036; stroke-width: 1.0;"/><line style="stroke: #A80036; stroke-width: 1.5;" x1="180" x2="180" y1="273.2813" y2="293.2813"/><polygon fill="#A80036" points="176,283.2813,180,293.2813,184,283.2813,180,287.2813" style="stroke: #A80036; stroke-width: 1.0;"/><line style="stroke: #A80036; stroke-width: 1.5;" x1="364" x2="364" y1="273.2813" y2="293.2813"/><polygon fill="#A80036" points="360,283.2813,364,293.2813,368,283.2813,364,287.2813" style="stroke: #A80036; stroke-width: 1.0;"/><line style="stroke: #A80036; stroke-width: 1.5;" x1="515" x2="515" y1="273.2813" y2="293.2813"/><polygon fill="#A80036" points="511,283.2813,515,293.2813,519,283.2813,515,287.2813" style="stroke: #A80036; stroke-width: 1.0;"/><line style="stroke: #A80036; stroke-width: 1.5;" x1="180" x2="180" y1="328.375" y2="348.375"/><polygon fill="#A80036" points="176,338.375,180,348.375,184,338.375,180,342.375" style="stroke: #A80036; stroke-width: 1.0;"/><line style="stroke: #A80036; stroke-width: 1.5;" x1="364" x2="364" y1="328.375" y2="348.375"/><polygon fill="#A80036" points="360,338.375,364,348.375,368,338.375,364,342.375" style="stroke: #A80036; stroke-width: 1.0;"/><line style="stroke: #A80036; stroke-width: 1.5;" x1="515" x2="515" y1="328.375" y2="348.375"/><polygon fill="#A80036" points="511,338.375,515,348.375,519,338.375,515,342.375" style="stroke: #A80036; stroke-width: 1.0;"/><line style="stroke: #A80036; stroke-width: 1.5;" x1="331" x2="331" y1="247.2813" y2="267.2813"/><polygon fill="#A80036" points="327,257.2813,331,267.2813,335,257.2813,331,261.2813" style="stroke: #A80036; stroke-width: 1.0;"/><line style="stroke: #A80036; stroke-width: 1.5;" x1="331" x2="331" y1="354.375" y2="374.375"/><polygon fill="#A80036" points="327,364.375,331,374.375,335,364.375,331,368.375" style="stroke: #A80036; stroke-width: 1.0;"/><!--
@startuml
start
:Crisis del Software;
fork
  :Metodología en Cascada;
fork again
  :Desarrollo Iterativo (XP, ...);
fork again
  :Rational Unified Process;
fork again
  :Scrum;
end fork
:Manifiesto Agil;
fork
  :Craftmanship;
fork again
  :Basic/Agile/Open/... Unified Process;
fork again
  :...;
end fork
stop
@enduml

PlantUML version 1.2019.05(Sat Apr 20 18:45:36 CEST 2019)
(GPL source distribution)
Java Runtime: OpenJDK Runtime Environment
JVM: OpenJDK 64-Bit Server VM
Java Version: 1.8.0_222-b10
Operating System: Windows 10
OS Version: 10.0
Default Encoding: windows-1252
Language: es
Country: ES
--></g></svg>