<?xml version="1.0" encoding="UTF-8" standalone="no"?><svg xmlns="http://www.w3.org/2000/svg" xmlns:xlink="http://www.w3.org/1999/xlink" contentScriptType="application/ecmascript" contentStyleType="text/css" height="248px" preserveAspectRatio="none" style="width:168px;height:248px;" version="1.1" viewBox="0 0 168 248" width="168px" zoomAndPan="magnify"><defs><filter height="300%" id="f1cq9kpglis4r" width="300%" x="-1" y="-1"><feGaussianBlur result="blurOut" stdDeviation="2.0"/><feColorMatrix in="blurOut" result="blurOut2" type="matrix" values="0 0 0 0 0 0 0 0 0 0 0 0 0 0 0 0 0 0 .4 0"/><feOffset dx="4.0" dy="4.0" in="blurOut2" result="blurOut3"/><feBlend in="SourceGraphic" in2="blurOut3" mode="normal"/></filter></defs><g><ellipse cx="83.5" cy="20" fill="#000000" filter="url(#f1cq9kpglis4r)" rx="10" ry="10" style="stroke: none; stroke-width: 1.0;"/><rect fill="#FEFECE" filter="url(#f1cq9kpglis4r)" height="35.0938" rx="12.5" ry="12.5" style="stroke: #A80036; stroke-width: 1.5;" width="124" x="21.5" y="50"/><text fill="#000000" font-family="sans-serif" font-size="12" lengthAdjust="spacingAndGlyphs" textLength="104" x="31.5" y="72.457">Crisis del Software</text><rect fill="#FEFECE" filter="url(#f1cq9kpglis4r)" height="35.0938" rx="12.5" ry="12.5" style="stroke: #A80036; stroke-width: 1.5;" width="147" x="10" y="105.0938"/><text fill="#000000" font-family="sans-serif" font-size="12" lengthAdjust="spacingAndGlyphs" textLength="127" x="20" y="127.5508">Metodologías Pesadas</text><rect fill="#FEFECE" filter="url(#f1cq9kpglis4r)" height="35.0938" rx="12.5" ry="12.5" style="stroke: #A80036; stroke-width: 1.5;" width="101" x="33" y="160.1875"/><text fill="#000000" font-family="sans-serif" font-size="12" lengthAdjust="spacingAndGlyphs" textLength="81" x="43" y="182.6445">Desarrollo Ágil</text><ellipse cx="83.5" cy="226.2813" fill="#FFFFFF" filter="url(#f1cq9kpglis4r)" rx="11" ry="11" style="stroke: #000000; stroke-width: 1.0;"/><ellipse cx="83.5" cy="226.2813" fill="#000000" rx="6" ry="6" style="stroke: #7F7F7F; stroke-width: 1.0;"/><line style="stroke: #A80036; stroke-width: 1.5;" x1="83.5" x2="83.5" y1="30" y2="50"/><polygon fill="#A80036" points="79.5,40,83.5,50,87.5,40,83.5,44" style="stroke: #A80036; stroke-width: 1.0;"/><line style="stroke: #A80036; stroke-width: 1.5;" x1="83.5" x2="83.5" y1="85.0938" y2="105.0938"/><polygon fill="#A80036" points="79.5,95.0938,83.5,105.0938,87.5,95.0938,83.5,99.0938" style="stroke: #A80036; stroke-width: 1.0;"/><line style="stroke: #A80036; stroke-width: 1.5;" x1="83.5" x2="83.5" y1="140.1875" y2="160.1875"/><polygon fill="#A80036" points="79.5,150.1875,83.5,160.1875,87.5,150.1875,83.5,154.1875" style="stroke: #A80036; stroke-width: 1.0;"/><line style="stroke: #A80036; stroke-width: 1.5;" x1="83.5" x2="83.5" y1="195.2813" y2="215.2813"/><polygon fill="#A80036" points="79.5,205.2813,83.5,215.2813,87.5,205.2813,83.5,209.2813" style="stroke: #A80036; stroke-width: 1.0;"/><!--
@startuml
start
:Crisis del Software;
:Metodologías Pesadas;
:Desarrollo Ágil;
stop
@enduml

PlantUML version 1.2019.05(Sat Apr 20 18:45:36 CEST 2019)
(GPL source distribution)
Java Runtime: OpenJDK Runtime Environment
JVM: OpenJDK 64-Bit Server VM
Java Version: 1.8.0_222-b10
Operating System: Windows 10
OS Version: 10.0
Default Encoding: windows-1252
Language: es
Country: ES
--></g></svg>